G04 #@! TF.GenerationSoftware,KiCad,Pcbnew,(5.1.8)-1*
G04 #@! TF.CreationDate,2020-12-13T20:51:34-08:00*
G04 #@! TF.ProjectId,IRIS-power,49524953-2d70-46f7-9765-722e6b696361,rev?*
G04 #@! TF.SameCoordinates,Original*
G04 #@! TF.FileFunction,Paste,Top*
G04 #@! TF.FilePolarity,Positive*
%FSLAX46Y46*%
G04 Gerber Fmt 4.6, Leading zero omitted, Abs format (unit mm)*
G04 Created by KiCad (PCBNEW (5.1.8)-1) date 2020-12-13 20:51:34*
%MOMM*%
%LPD*%
G01*
G04 APERTURE LIST*
%ADD10C,0.100000*%
%ADD11R,1.000000X0.800000*%
%ADD12R,1.000000X2.300000*%
%ADD13R,3.500000X2.000000*%
%ADD14R,1.100000X0.250000*%
%ADD15R,1.600000X2.300000*%
%ADD16R,0.800000X0.900000*%
%ADD17R,1.060000X0.650000*%
%ADD18R,0.900000X0.800000*%
%ADD19R,0.650000X1.220000*%
%ADD20C,1.500000*%
G04 APERTURE END LIST*
D10*
G36*
X9740000Y-18120000D02*
G01*
X9740000Y-17200000D01*
X10370000Y-17200000D01*
X10370000Y-18120000D01*
X9740000Y-18120000D01*
G37*
G36*
X9740000Y-19300000D02*
G01*
X9740000Y-18380000D01*
X10370000Y-18380000D01*
X10370000Y-19300000D01*
X9740000Y-19300000D01*
G37*
G36*
X10630000Y-19300000D02*
G01*
X10630000Y-18380000D01*
X11260000Y-18380000D01*
X11260000Y-19300000D01*
X10630000Y-19300000D01*
G37*
G36*
X10630000Y-18120000D02*
G01*
X10630000Y-17200000D01*
X11260000Y-17200000D01*
X11260000Y-18120000D01*
X10630000Y-18120000D01*
G37*
G36*
X57050000Y23550000D02*
G01*
X57050000Y22600000D01*
X56100000Y22600000D01*
X56100000Y23550000D01*
X57050000Y23550000D01*
G37*
G36*
X57050000Y24900000D02*
G01*
X57050000Y23950000D01*
X56100000Y23950000D01*
X56100000Y24900000D01*
X57050000Y24900000D01*
G37*
G36*
X58400000Y24900000D02*
G01*
X58400000Y23950000D01*
X57450000Y23950000D01*
X57450000Y24900000D01*
X58400000Y24900000D01*
G37*
G36*
X58400000Y23550000D02*
G01*
X58400000Y22600000D01*
X57450000Y22600000D01*
X57450000Y23550000D01*
X58400000Y23550000D01*
G37*
G36*
X54750000Y-2700000D02*
G01*
X54750000Y-3550000D01*
X54200000Y-3550000D01*
X54200000Y-2700000D01*
X54750000Y-2700000D01*
G37*
X54750000Y-2700000D02*
X54750000Y-3550000D01*
X54200000Y-3550000D01*
X54200000Y-2700000D01*
X54750000Y-2700000D01*
G36*
X54750000Y-1450000D02*
G01*
X54750000Y-2300000D01*
X54200000Y-2300000D01*
X54200000Y-1450000D01*
X54750000Y-1450000D01*
G37*
X54750000Y-1450000D02*
X54750000Y-2300000D01*
X54200000Y-2300000D01*
X54200000Y-1450000D01*
X54750000Y-1450000D01*
G36*
X53800000Y-2700000D02*
G01*
X53800000Y-3550000D01*
X53250000Y-3550000D01*
X53250000Y-2700000D01*
X53800000Y-2700000D01*
G37*
X53800000Y-2700000D02*
X53800000Y-3550000D01*
X53250000Y-3550000D01*
X53250000Y-2700000D01*
X53800000Y-2700000D01*
G36*
X53800000Y-1450000D02*
G01*
X53800000Y-2300000D01*
X53250000Y-2300000D01*
X53250000Y-1450000D01*
X53800000Y-1450000D01*
G37*
X53800000Y-1450000D02*
X53800000Y-2300000D01*
X53250000Y-2300000D01*
X53250000Y-1450000D01*
X53800000Y-1450000D01*
G36*
X52850000Y-2650000D02*
G01*
X52850000Y-3150000D01*
X51800000Y-3150000D01*
X51800000Y-2650000D01*
X52850000Y-2650000D01*
G37*
X52850000Y-2650000D02*
X52850000Y-3150000D01*
X51800000Y-3150000D01*
X51800000Y-2650000D01*
X52850000Y-2650000D01*
G36*
X52850000Y-1850000D02*
G01*
X52850000Y-2350000D01*
X51800000Y-2350000D01*
X51800000Y-1850000D01*
X52850000Y-1850000D01*
G37*
X52850000Y-1850000D02*
X52850000Y-2350000D01*
X51800000Y-2350000D01*
X51800000Y-1850000D01*
X52850000Y-1850000D01*
G36*
X56200000Y-2650000D02*
G01*
X56200000Y-3150000D01*
X55150000Y-3150000D01*
X55150000Y-2650000D01*
X56200000Y-2650000D01*
G37*
X56200000Y-2650000D02*
X56200000Y-3150000D01*
X55150000Y-3150000D01*
X55150000Y-2650000D01*
X56200000Y-2650000D01*
G36*
X56200000Y-1850000D02*
G01*
X56200000Y-2350000D01*
X55150000Y-2350000D01*
X55150000Y-1850000D01*
X56200000Y-1850000D01*
G37*
X56200000Y-1850000D02*
X56200000Y-2350000D01*
X55150000Y-2350000D01*
X55150000Y-1850000D01*
X56200000Y-1850000D01*
G36*
X11950000Y19200000D02*
G01*
X11950000Y20425000D01*
X12925000Y20425000D01*
X12925000Y19200000D01*
X11950000Y19200000D01*
G37*
G36*
X11950000Y17575000D02*
G01*
X11950000Y18800000D01*
X12925000Y18800000D01*
X12925000Y17575000D01*
X11950000Y17575000D01*
G37*
G36*
X10575000Y17575000D02*
G01*
X10575000Y18800000D01*
X11550000Y18800000D01*
X11550000Y17575000D01*
X10575000Y17575000D01*
G37*
G36*
X10575000Y19200000D02*
G01*
X10575000Y20425000D01*
X11550000Y20425000D01*
X11550000Y19200000D01*
X10575000Y19200000D01*
G37*
G36*
G01*
X11625000Y-17110000D02*
X11625000Y-16990000D01*
G75*
G02*
X11665000Y-16950000I40000J0D01*
G01*
X12285000Y-16950000D01*
G75*
G02*
X12325000Y-16990000I0J-40000D01*
G01*
X12325000Y-17110000D01*
G75*
G02*
X12285000Y-17150000I-40000J0D01*
G01*
X11665000Y-17150000D01*
G75*
G02*
X11625000Y-17110000I0J40000D01*
G01*
G37*
G36*
G01*
X11625000Y-17510000D02*
X11625000Y-17390000D01*
G75*
G02*
X11665000Y-17350000I40000J0D01*
G01*
X12285000Y-17350000D01*
G75*
G02*
X12325000Y-17390000I0J-40000D01*
G01*
X12325000Y-17510000D01*
G75*
G02*
X12285000Y-17550000I-40000J0D01*
G01*
X11665000Y-17550000D01*
G75*
G02*
X11625000Y-17510000I0J40000D01*
G01*
G37*
G36*
G01*
X11625000Y-17910000D02*
X11625000Y-17790000D01*
G75*
G02*
X11665000Y-17750000I40000J0D01*
G01*
X12285000Y-17750000D01*
G75*
G02*
X12325000Y-17790000I0J-40000D01*
G01*
X12325000Y-17910000D01*
G75*
G02*
X12285000Y-17950000I-40000J0D01*
G01*
X11665000Y-17950000D01*
G75*
G02*
X11625000Y-17910000I0J40000D01*
G01*
G37*
G36*
G01*
X11625000Y-18310000D02*
X11625000Y-18190000D01*
G75*
G02*
X11665000Y-18150000I40000J0D01*
G01*
X12285000Y-18150000D01*
G75*
G02*
X12325000Y-18190000I0J-40000D01*
G01*
X12325000Y-18310000D01*
G75*
G02*
X12285000Y-18350000I-40000J0D01*
G01*
X11665000Y-18350000D01*
G75*
G02*
X11625000Y-18310000I0J40000D01*
G01*
G37*
G36*
G01*
X11625000Y-18710000D02*
X11625000Y-18590000D01*
G75*
G02*
X11665000Y-18550000I40000J0D01*
G01*
X12285000Y-18550000D01*
G75*
G02*
X12325000Y-18590000I0J-40000D01*
G01*
X12325000Y-18710000D01*
G75*
G02*
X12285000Y-18750000I-40000J0D01*
G01*
X11665000Y-18750000D01*
G75*
G02*
X11625000Y-18710000I0J40000D01*
G01*
G37*
G36*
G01*
X11625000Y-19110000D02*
X11625000Y-18990000D01*
G75*
G02*
X11665000Y-18950000I40000J0D01*
G01*
X12285000Y-18950000D01*
G75*
G02*
X12325000Y-18990000I0J-40000D01*
G01*
X12325000Y-19110000D01*
G75*
G02*
X12285000Y-19150000I-40000J0D01*
G01*
X11665000Y-19150000D01*
G75*
G02*
X11625000Y-19110000I0J40000D01*
G01*
G37*
G36*
G01*
X11625000Y-19510000D02*
X11625000Y-19390000D01*
G75*
G02*
X11665000Y-19350000I40000J0D01*
G01*
X12285000Y-19350000D01*
G75*
G02*
X12325000Y-19390000I0J-40000D01*
G01*
X12325000Y-19510000D01*
G75*
G02*
X12285000Y-19550000I-40000J0D01*
G01*
X11665000Y-19550000D01*
G75*
G02*
X11625000Y-19510000I0J40000D01*
G01*
G37*
G36*
G01*
X8675000Y-19510000D02*
X8675000Y-19390000D01*
G75*
G02*
X8715000Y-19350000I40000J0D01*
G01*
X9335000Y-19350000D01*
G75*
G02*
X9375000Y-19390000I0J-40000D01*
G01*
X9375000Y-19510000D01*
G75*
G02*
X9335000Y-19550000I-40000J0D01*
G01*
X8715000Y-19550000D01*
G75*
G02*
X8675000Y-19510000I0J40000D01*
G01*
G37*
G36*
G01*
X8675000Y-19110000D02*
X8675000Y-18990000D01*
G75*
G02*
X8715000Y-18950000I40000J0D01*
G01*
X9335000Y-18950000D01*
G75*
G02*
X9375000Y-18990000I0J-40000D01*
G01*
X9375000Y-19110000D01*
G75*
G02*
X9335000Y-19150000I-40000J0D01*
G01*
X8715000Y-19150000D01*
G75*
G02*
X8675000Y-19110000I0J40000D01*
G01*
G37*
G36*
G01*
X8675000Y-18710000D02*
X8675000Y-18590000D01*
G75*
G02*
X8715000Y-18550000I40000J0D01*
G01*
X9335000Y-18550000D01*
G75*
G02*
X9375000Y-18590000I0J-40000D01*
G01*
X9375000Y-18710000D01*
G75*
G02*
X9335000Y-18750000I-40000J0D01*
G01*
X8715000Y-18750000D01*
G75*
G02*
X8675000Y-18710000I0J40000D01*
G01*
G37*
G36*
G01*
X8675000Y-18310000D02*
X8675000Y-18190000D01*
G75*
G02*
X8715000Y-18150000I40000J0D01*
G01*
X9335000Y-18150000D01*
G75*
G02*
X9375000Y-18190000I0J-40000D01*
G01*
X9375000Y-18310000D01*
G75*
G02*
X9335000Y-18350000I-40000J0D01*
G01*
X8715000Y-18350000D01*
G75*
G02*
X8675000Y-18310000I0J40000D01*
G01*
G37*
G36*
G01*
X8675000Y-17910000D02*
X8675000Y-17790000D01*
G75*
G02*
X8715000Y-17750000I40000J0D01*
G01*
X9335000Y-17750000D01*
G75*
G02*
X9375000Y-17790000I0J-40000D01*
G01*
X9375000Y-17910000D01*
G75*
G02*
X9335000Y-17950000I-40000J0D01*
G01*
X8715000Y-17950000D01*
G75*
G02*
X8675000Y-17910000I0J40000D01*
G01*
G37*
G36*
G01*
X8675000Y-17510000D02*
X8675000Y-17390000D01*
G75*
G02*
X8715000Y-17350000I40000J0D01*
G01*
X9335000Y-17350000D01*
G75*
G02*
X9375000Y-17390000I0J-40000D01*
G01*
X9375000Y-17510000D01*
G75*
G02*
X9335000Y-17550000I-40000J0D01*
G01*
X8715000Y-17550000D01*
G75*
G02*
X8675000Y-17510000I0J40000D01*
G01*
G37*
G36*
G01*
X8675000Y-17110000D02*
X8675000Y-16990000D01*
G75*
G02*
X8715000Y-16950000I40000J0D01*
G01*
X9335000Y-16950000D01*
G75*
G02*
X9375000Y-16990000I0J-40000D01*
G01*
X9375000Y-17110000D01*
G75*
G02*
X9335000Y-17150000I-40000J0D01*
G01*
X8715000Y-17150000D01*
G75*
G02*
X8675000Y-17110000I0J40000D01*
G01*
G37*
G36*
G01*
X59475000Y22550006D02*
X59475000Y22449994D01*
G75*
G02*
X59415006Y22390000I-59994J0D01*
G01*
X58863994Y22390000D01*
G75*
G02*
X58804000Y22449994I0J59994D01*
G01*
X58804000Y22550006D01*
G75*
G02*
X58863994Y22610000I59994J0D01*
G01*
X59415006Y22610000D01*
G75*
G02*
X59475000Y22550006I0J-59994D01*
G01*
G37*
G36*
G01*
X59475000Y23050006D02*
X59475000Y22949994D01*
G75*
G02*
X59415006Y22890000I-59994J0D01*
G01*
X58863994Y22890000D01*
G75*
G02*
X58804000Y22949994I0J59994D01*
G01*
X58804000Y23050006D01*
G75*
G02*
X58863994Y23110000I59994J0D01*
G01*
X59415006Y23110000D01*
G75*
G02*
X59475000Y23050006I0J-59994D01*
G01*
G37*
G36*
G01*
X59475000Y23549940D02*
X59475000Y23450060D01*
G75*
G02*
X59414940Y23390000I-60060J0D01*
G01*
X58864060Y23390000D01*
G75*
G02*
X58804000Y23450060I0J60060D01*
G01*
X58804000Y23549940D01*
G75*
G02*
X58864060Y23610000I60060J0D01*
G01*
X59414940Y23610000D01*
G75*
G02*
X59475000Y23549940I0J-60060D01*
G01*
G37*
G36*
G01*
X59475000Y24050006D02*
X59475000Y23949994D01*
G75*
G02*
X59415006Y23890000I-59994J0D01*
G01*
X58863994Y23890000D01*
G75*
G02*
X58804000Y23949994I0J59994D01*
G01*
X58804000Y24050006D01*
G75*
G02*
X58863994Y24110000I59994J0D01*
G01*
X59415006Y24110000D01*
G75*
G02*
X59475000Y24050006I0J-59994D01*
G01*
G37*
G36*
G01*
X59475000Y24550006D02*
X59475000Y24449994D01*
G75*
G02*
X59415006Y24390000I-59994J0D01*
G01*
X58863994Y24390000D01*
G75*
G02*
X58804000Y24449994I0J59994D01*
G01*
X58804000Y24550006D01*
G75*
G02*
X58863994Y24610000I59994J0D01*
G01*
X59415006Y24610000D01*
G75*
G02*
X59475000Y24550006I0J-59994D01*
G01*
G37*
G36*
G01*
X59475000Y25050006D02*
X59475000Y24949994D01*
G75*
G02*
X59415006Y24890000I-59994J0D01*
G01*
X58863994Y24890000D01*
G75*
G02*
X58804000Y24949994I0J59994D01*
G01*
X58804000Y25050006D01*
G75*
G02*
X58863994Y25110000I59994J0D01*
G01*
X59415006Y25110000D01*
G75*
G02*
X59475000Y25050006I0J-59994D01*
G01*
G37*
G36*
G01*
X58549940Y25304000D02*
X58450060Y25304000D01*
G75*
G02*
X58390000Y25364060I0J60060D01*
G01*
X58390000Y25914940D01*
G75*
G02*
X58450060Y25975000I60060J0D01*
G01*
X58549940Y25975000D01*
G75*
G02*
X58610000Y25914940I0J-60060D01*
G01*
X58610000Y25364060D01*
G75*
G02*
X58549940Y25304000I-60060J0D01*
G01*
G37*
G36*
G01*
X58049940Y25304000D02*
X57950060Y25304000D01*
G75*
G02*
X57890000Y25364060I0J60060D01*
G01*
X57890000Y25914940D01*
G75*
G02*
X57950060Y25975000I60060J0D01*
G01*
X58049940Y25975000D01*
G75*
G02*
X58110000Y25914940I0J-60060D01*
G01*
X58110000Y25364060D01*
G75*
G02*
X58049940Y25304000I-60060J0D01*
G01*
G37*
G36*
G01*
X57550006Y25304000D02*
X57449994Y25304000D01*
G75*
G02*
X57390000Y25363994I0J59994D01*
G01*
X57390000Y25915006D01*
G75*
G02*
X57449994Y25975000I59994J0D01*
G01*
X57550006Y25975000D01*
G75*
G02*
X57610000Y25915006I0J-59994D01*
G01*
X57610000Y25363994D01*
G75*
G02*
X57550006Y25304000I-59994J0D01*
G01*
G37*
G36*
G01*
X57049940Y25304000D02*
X56950060Y25304000D01*
G75*
G02*
X56890000Y25364060I0J60060D01*
G01*
X56890000Y25914940D01*
G75*
G02*
X56950060Y25975000I60060J0D01*
G01*
X57049940Y25975000D01*
G75*
G02*
X57110000Y25914940I0J-60060D01*
G01*
X57110000Y25364060D01*
G75*
G02*
X57049940Y25304000I-60060J0D01*
G01*
G37*
G36*
G01*
X56550006Y25304000D02*
X56449994Y25304000D01*
G75*
G02*
X56390000Y25363994I0J59994D01*
G01*
X56390000Y25915006D01*
G75*
G02*
X56449994Y25975000I59994J0D01*
G01*
X56550006Y25975000D01*
G75*
G02*
X56610000Y25915006I0J-59994D01*
G01*
X56610000Y25363994D01*
G75*
G02*
X56550006Y25304000I-59994J0D01*
G01*
G37*
G36*
G01*
X56049940Y25304000D02*
X55950060Y25304000D01*
G75*
G02*
X55890000Y25364060I0J60060D01*
G01*
X55890000Y25914940D01*
G75*
G02*
X55950060Y25975000I60060J0D01*
G01*
X56049940Y25975000D01*
G75*
G02*
X56110000Y25914940I0J-60060D01*
G01*
X56110000Y25364060D01*
G75*
G02*
X56049940Y25304000I-60060J0D01*
G01*
G37*
G36*
G01*
X55696000Y25049940D02*
X55696000Y24950060D01*
G75*
G02*
X55635940Y24890000I-60060J0D01*
G01*
X55085060Y24890000D01*
G75*
G02*
X55025000Y24950060I0J60060D01*
G01*
X55025000Y25049940D01*
G75*
G02*
X55085060Y25110000I60060J0D01*
G01*
X55635940Y25110000D01*
G75*
G02*
X55696000Y25049940I0J-60060D01*
G01*
G37*
G36*
G01*
X55696000Y24550006D02*
X55696000Y24449994D01*
G75*
G02*
X55636006Y24390000I-59994J0D01*
G01*
X55084994Y24390000D01*
G75*
G02*
X55025000Y24449994I0J59994D01*
G01*
X55025000Y24550006D01*
G75*
G02*
X55084994Y24610000I59994J0D01*
G01*
X55636006Y24610000D01*
G75*
G02*
X55696000Y24550006I0J-59994D01*
G01*
G37*
G36*
G01*
X55696000Y24050006D02*
X55696000Y23949994D01*
G75*
G02*
X55636006Y23890000I-59994J0D01*
G01*
X55084994Y23890000D01*
G75*
G02*
X55025000Y23949994I0J59994D01*
G01*
X55025000Y24050006D01*
G75*
G02*
X55084994Y24110000I59994J0D01*
G01*
X55636006Y24110000D01*
G75*
G02*
X55696000Y24050006I0J-59994D01*
G01*
G37*
G36*
G01*
X55696000Y23550006D02*
X55696000Y23449994D01*
G75*
G02*
X55636006Y23390000I-59994J0D01*
G01*
X55084994Y23390000D01*
G75*
G02*
X55025000Y23449994I0J59994D01*
G01*
X55025000Y23550006D01*
G75*
G02*
X55084994Y23610000I59994J0D01*
G01*
X55636006Y23610000D01*
G75*
G02*
X55696000Y23550006I0J-59994D01*
G01*
G37*
G36*
G01*
X55696000Y23050006D02*
X55696000Y22949994D01*
G75*
G02*
X55636006Y22890000I-59994J0D01*
G01*
X55084994Y22890000D01*
G75*
G02*
X55025000Y22949994I0J59994D01*
G01*
X55025000Y23050006D01*
G75*
G02*
X55084994Y23110000I59994J0D01*
G01*
X55636006Y23110000D01*
G75*
G02*
X55696000Y23050006I0J-59994D01*
G01*
G37*
G36*
G01*
X55696000Y22550006D02*
X55696000Y22449994D01*
G75*
G02*
X55636006Y22390000I-59994J0D01*
G01*
X55084994Y22390000D01*
G75*
G02*
X55025000Y22449994I0J59994D01*
G01*
X55025000Y22550006D01*
G75*
G02*
X55084994Y22610000I59994J0D01*
G01*
X55636006Y22610000D01*
G75*
G02*
X55696000Y22550006I0J-59994D01*
G01*
G37*
G36*
G01*
X56050006Y21525000D02*
X55949994Y21525000D01*
G75*
G02*
X55890000Y21584994I0J59994D01*
G01*
X55890000Y22136006D01*
G75*
G02*
X55949994Y22196000I59994J0D01*
G01*
X56050006Y22196000D01*
G75*
G02*
X56110000Y22136006I0J-59994D01*
G01*
X56110000Y21584994D01*
G75*
G02*
X56050006Y21525000I-59994J0D01*
G01*
G37*
G36*
G01*
X56550006Y21525000D02*
X56449994Y21525000D01*
G75*
G02*
X56390000Y21584994I0J59994D01*
G01*
X56390000Y22136006D01*
G75*
G02*
X56449994Y22196000I59994J0D01*
G01*
X56550006Y22196000D01*
G75*
G02*
X56610000Y22136006I0J-59994D01*
G01*
X56610000Y21584994D01*
G75*
G02*
X56550006Y21525000I-59994J0D01*
G01*
G37*
G36*
G01*
X57050006Y21525000D02*
X56949994Y21525000D01*
G75*
G02*
X56890000Y21584994I0J59994D01*
G01*
X56890000Y22136006D01*
G75*
G02*
X56949994Y22196000I59994J0D01*
G01*
X57050006Y22196000D01*
G75*
G02*
X57110000Y22136006I0J-59994D01*
G01*
X57110000Y21584994D01*
G75*
G02*
X57050006Y21525000I-59994J0D01*
G01*
G37*
G36*
G01*
X57550006Y21525000D02*
X57449994Y21525000D01*
G75*
G02*
X57390000Y21584994I0J59994D01*
G01*
X57390000Y22136006D01*
G75*
G02*
X57449994Y22196000I59994J0D01*
G01*
X57550006Y22196000D01*
G75*
G02*
X57610000Y22136006I0J-59994D01*
G01*
X57610000Y21584994D01*
G75*
G02*
X57550006Y21525000I-59994J0D01*
G01*
G37*
G36*
G01*
X58050006Y21525000D02*
X57949994Y21525000D01*
G75*
G02*
X57890000Y21584994I0J59994D01*
G01*
X57890000Y22136006D01*
G75*
G02*
X57949994Y22196000I59994J0D01*
G01*
X58050006Y22196000D01*
G75*
G02*
X58110000Y22136006I0J-59994D01*
G01*
X58110000Y21584994D01*
G75*
G02*
X58050006Y21525000I-59994J0D01*
G01*
G37*
G36*
G01*
X58550006Y21525000D02*
X58449994Y21525000D01*
G75*
G02*
X58390000Y21584994I0J59994D01*
G01*
X58390000Y22136006D01*
G75*
G02*
X58449994Y22196000I59994J0D01*
G01*
X58550006Y22196000D01*
G75*
G02*
X58610000Y22136006I0J-59994D01*
G01*
X58610000Y21584994D01*
G75*
G02*
X58550006Y21525000I-59994J0D01*
G01*
G37*
G36*
G01*
X55570000Y-500000D02*
X55290000Y-500000D01*
G75*
G02*
X55255000Y-465000I0J35000D01*
G01*
X55255000Y865000D01*
G75*
G02*
X55290000Y900000I35000J0D01*
G01*
X55570000Y900000D01*
G75*
G02*
X55605000Y865000I0J-35000D01*
G01*
X55605000Y-465000D01*
G75*
G02*
X55570000Y-500000I-35000J0D01*
G01*
G37*
G36*
G01*
X54920000Y-500000D02*
X54640000Y-500000D01*
G75*
G02*
X54605000Y-465000I0J35000D01*
G01*
X54605000Y865000D01*
G75*
G02*
X54640000Y900000I35000J0D01*
G01*
X54920000Y900000D01*
G75*
G02*
X54955000Y865000I0J-35000D01*
G01*
X54955000Y-465000D01*
G75*
G02*
X54920000Y-500000I-35000J0D01*
G01*
G37*
G36*
G01*
X54270000Y-500000D02*
X53990000Y-500000D01*
G75*
G02*
X53955000Y-465000I0J35000D01*
G01*
X53955000Y865000D01*
G75*
G02*
X53990000Y900000I35000J0D01*
G01*
X54270000Y900000D01*
G75*
G02*
X54305000Y865000I0J-35000D01*
G01*
X54305000Y-465000D01*
G75*
G02*
X54270000Y-500000I-35000J0D01*
G01*
G37*
G36*
G01*
X53620000Y-500000D02*
X53340000Y-500000D01*
G75*
G02*
X53305000Y-465000I0J35000D01*
G01*
X53305000Y865000D01*
G75*
G02*
X53340000Y900000I35000J0D01*
G01*
X53620000Y900000D01*
G75*
G02*
X53655000Y865000I0J-35000D01*
G01*
X53655000Y-465000D01*
G75*
G02*
X53620000Y-500000I-35000J0D01*
G01*
G37*
G36*
G01*
X52970000Y-500000D02*
X52690000Y-500000D01*
G75*
G02*
X52655000Y-465000I0J35000D01*
G01*
X52655000Y865000D01*
G75*
G02*
X52690000Y900000I35000J0D01*
G01*
X52970000Y900000D01*
G75*
G02*
X53005000Y865000I0J-35000D01*
G01*
X53005000Y-465000D01*
G75*
G02*
X52970000Y-500000I-35000J0D01*
G01*
G37*
G36*
G01*
X52970000Y-5900000D02*
X52690000Y-5900000D01*
G75*
G02*
X52655000Y-5865000I0J35000D01*
G01*
X52655000Y-4535000D01*
G75*
G02*
X52690000Y-4500000I35000J0D01*
G01*
X52970000Y-4500000D01*
G75*
G02*
X53005000Y-4535000I0J-35000D01*
G01*
X53005000Y-5865000D01*
G75*
G02*
X52970000Y-5900000I-35000J0D01*
G01*
G37*
G36*
G01*
X53620000Y-5900000D02*
X53340000Y-5900000D01*
G75*
G02*
X53305000Y-5865000I0J35000D01*
G01*
X53305000Y-4535000D01*
G75*
G02*
X53340000Y-4500000I35000J0D01*
G01*
X53620000Y-4500000D01*
G75*
G02*
X53655000Y-4535000I0J-35000D01*
G01*
X53655000Y-5865000D01*
G75*
G02*
X53620000Y-5900000I-35000J0D01*
G01*
G37*
G36*
G01*
X54270000Y-5900000D02*
X53990000Y-5900000D01*
G75*
G02*
X53955000Y-5865000I0J35000D01*
G01*
X53955000Y-4535000D01*
G75*
G02*
X53990000Y-4500000I35000J0D01*
G01*
X54270000Y-4500000D01*
G75*
G02*
X54305000Y-4535000I0J-35000D01*
G01*
X54305000Y-5865000D01*
G75*
G02*
X54270000Y-5900000I-35000J0D01*
G01*
G37*
G36*
G01*
X54920000Y-5900000D02*
X54640000Y-5900000D01*
G75*
G02*
X54605000Y-5865000I0J35000D01*
G01*
X54605000Y-4535000D01*
G75*
G02*
X54640000Y-4500000I35000J0D01*
G01*
X54920000Y-4500000D01*
G75*
G02*
X54955000Y-4535000I0J-35000D01*
G01*
X54955000Y-5865000D01*
G75*
G02*
X54920000Y-5900000I-35000J0D01*
G01*
G37*
G36*
G01*
X55570000Y-5900000D02*
X55290000Y-5900000D01*
G75*
G02*
X55255000Y-5865000I0J35000D01*
G01*
X55255000Y-4535000D01*
G75*
G02*
X55290000Y-4500000I35000J0D01*
G01*
X55570000Y-4500000D01*
G75*
G02*
X55605000Y-4535000I0J-35000D01*
G01*
X55605000Y-5865000D01*
G75*
G02*
X55570000Y-5900000I-35000J0D01*
G01*
G37*
G36*
G01*
X52055000Y-1200000D02*
X51655000Y-1200000D01*
G75*
G02*
X51605000Y-1150000I0J50000D01*
G01*
X51605000Y850000D01*
G75*
G02*
X51655000Y900000I50000J0D01*
G01*
X52055000Y900000D01*
G75*
G02*
X52105000Y850000I0J-50000D01*
G01*
X52105000Y-1150000D01*
G75*
G02*
X52055000Y-1200000I-50000J0D01*
G01*
G37*
G36*
G01*
X56355000Y-1200000D02*
X55955000Y-1200000D01*
G75*
G02*
X55905000Y-1150000I0J50000D01*
G01*
X55905000Y850000D01*
G75*
G02*
X55955000Y900000I50000J0D01*
G01*
X56355000Y900000D01*
G75*
G02*
X56405000Y850000I0J-50000D01*
G01*
X56405000Y-1150000D01*
G75*
G02*
X56355000Y-1200000I-50000J0D01*
G01*
G37*
G36*
G01*
X52055000Y-5900000D02*
X51655000Y-5900000D01*
G75*
G02*
X51605000Y-5850000I0J50000D01*
G01*
X51605000Y-3850000D01*
G75*
G02*
X51655000Y-3800000I50000J0D01*
G01*
X52055000Y-3800000D01*
G75*
G02*
X52105000Y-3850000I0J-50000D01*
G01*
X52105000Y-5850000D01*
G75*
G02*
X52055000Y-5900000I-50000J0D01*
G01*
G37*
G36*
G01*
X56355000Y-5900000D02*
X55955000Y-5900000D01*
G75*
G02*
X55905000Y-5850000I0J50000D01*
G01*
X55905000Y-3850000D01*
G75*
G02*
X55955000Y-3800000I50000J0D01*
G01*
X56355000Y-3800000D01*
G75*
G02*
X56405000Y-3850000I0J-50000D01*
G01*
X56405000Y-5850000D01*
G75*
G02*
X56355000Y-5900000I-50000J0D01*
G01*
G37*
D11*
X9650000Y-21150000D03*
X11350000Y-21150000D03*
D12*
X9650000Y-23100000D03*
X11350000Y-23100000D03*
G36*
G01*
X13575000Y-9975000D02*
X13575000Y-10525000D01*
G75*
G02*
X13375000Y-10725000I-200000J0D01*
G01*
X12975000Y-10725000D01*
G75*
G02*
X12775000Y-10525000I0J200000D01*
G01*
X12775000Y-9975000D01*
G75*
G02*
X12975000Y-9775000I200000J0D01*
G01*
X13375000Y-9775000D01*
G75*
G02*
X13575000Y-9975000I0J-200000D01*
G01*
G37*
G36*
G01*
X15225000Y-9975000D02*
X15225000Y-10525000D01*
G75*
G02*
X15025000Y-10725000I-200000J0D01*
G01*
X14625000Y-10725000D01*
G75*
G02*
X14425000Y-10525000I0J200000D01*
G01*
X14425000Y-9975000D01*
G75*
G02*
X14625000Y-9775000I200000J0D01*
G01*
X15025000Y-9775000D01*
G75*
G02*
X15225000Y-9975000I0J-200000D01*
G01*
G37*
G36*
G01*
X13575000Y-11725000D02*
X13575000Y-12275000D01*
G75*
G02*
X13375000Y-12475000I-200000J0D01*
G01*
X12975000Y-12475000D01*
G75*
G02*
X12775000Y-12275000I0J200000D01*
G01*
X12775000Y-11725000D01*
G75*
G02*
X12975000Y-11525000I200000J0D01*
G01*
X13375000Y-11525000D01*
G75*
G02*
X13575000Y-11725000I0J-200000D01*
G01*
G37*
G36*
G01*
X15225000Y-11725000D02*
X15225000Y-12275000D01*
G75*
G02*
X15025000Y-12475000I-200000J0D01*
G01*
X14625000Y-12475000D01*
G75*
G02*
X14425000Y-12275000I0J200000D01*
G01*
X14425000Y-11725000D01*
G75*
G02*
X14625000Y-11525000I200000J0D01*
G01*
X15025000Y-11525000D01*
G75*
G02*
X15225000Y-11725000I0J-200000D01*
G01*
G37*
G36*
G01*
X16425000Y-15775000D02*
X16425000Y-15225000D01*
G75*
G02*
X16625000Y-15025000I200000J0D01*
G01*
X17025000Y-15025000D01*
G75*
G02*
X17225000Y-15225000I0J-200000D01*
G01*
X17225000Y-15775000D01*
G75*
G02*
X17025000Y-15975000I-200000J0D01*
G01*
X16625000Y-15975000D01*
G75*
G02*
X16425000Y-15775000I0J200000D01*
G01*
G37*
G36*
G01*
X14775000Y-15775000D02*
X14775000Y-15225000D01*
G75*
G02*
X14975000Y-15025000I200000J0D01*
G01*
X15375000Y-15025000D01*
G75*
G02*
X15575000Y-15225000I0J-200000D01*
G01*
X15575000Y-15775000D01*
G75*
G02*
X15375000Y-15975000I-200000J0D01*
G01*
X14975000Y-15975000D01*
G75*
G02*
X14775000Y-15775000I0J200000D01*
G01*
G37*
G36*
G01*
X16425000Y-13775000D02*
X16425000Y-13225000D01*
G75*
G02*
X16625000Y-13025000I200000J0D01*
G01*
X17025000Y-13025000D01*
G75*
G02*
X17225000Y-13225000I0J-200000D01*
G01*
X17225000Y-13775000D01*
G75*
G02*
X17025000Y-13975000I-200000J0D01*
G01*
X16625000Y-13975000D01*
G75*
G02*
X16425000Y-13775000I0J200000D01*
G01*
G37*
G36*
G01*
X14775000Y-13775000D02*
X14775000Y-13225000D01*
G75*
G02*
X14975000Y-13025000I200000J0D01*
G01*
X15375000Y-13025000D01*
G75*
G02*
X15575000Y-13225000I0J-200000D01*
G01*
X15575000Y-13775000D01*
G75*
G02*
X15375000Y-13975000I-200000J0D01*
G01*
X14975000Y-13975000D01*
G75*
G02*
X14775000Y-13775000I0J200000D01*
G01*
G37*
G36*
G01*
X52925000Y2725000D02*
X52925000Y3275000D01*
G75*
G02*
X53125000Y3475000I200000J0D01*
G01*
X53525000Y3475000D01*
G75*
G02*
X53725000Y3275000I0J-200000D01*
G01*
X53725000Y2725000D01*
G75*
G02*
X53525000Y2525000I-200000J0D01*
G01*
X53125000Y2525000D01*
G75*
G02*
X52925000Y2725000I0J200000D01*
G01*
G37*
G36*
G01*
X51275000Y2725000D02*
X51275000Y3275000D01*
G75*
G02*
X51475000Y3475000I200000J0D01*
G01*
X51875000Y3475000D01*
G75*
G02*
X52075000Y3275000I0J-200000D01*
G01*
X52075000Y2725000D01*
G75*
G02*
X51875000Y2525000I-200000J0D01*
G01*
X51475000Y2525000D01*
G75*
G02*
X51275000Y2725000I0J200000D01*
G01*
G37*
G36*
G01*
X56175000Y2725000D02*
X56175000Y3275000D01*
G75*
G02*
X56375000Y3475000I200000J0D01*
G01*
X56775000Y3475000D01*
G75*
G02*
X56975000Y3275000I0J-200000D01*
G01*
X56975000Y2725000D01*
G75*
G02*
X56775000Y2525000I-200000J0D01*
G01*
X56375000Y2525000D01*
G75*
G02*
X56175000Y2725000I0J200000D01*
G01*
G37*
G36*
G01*
X54525000Y2725000D02*
X54525000Y3275000D01*
G75*
G02*
X54725000Y3475000I200000J0D01*
G01*
X55125000Y3475000D01*
G75*
G02*
X55325000Y3275000I0J-200000D01*
G01*
X55325000Y2725000D01*
G75*
G02*
X55125000Y2525000I-200000J0D01*
G01*
X54725000Y2525000D01*
G75*
G02*
X54525000Y2725000I0J200000D01*
G01*
G37*
G36*
G01*
X4925000Y16975000D02*
X4925000Y17525000D01*
G75*
G02*
X5125000Y17725000I200000J0D01*
G01*
X5525000Y17725000D01*
G75*
G02*
X5725000Y17525000I0J-200000D01*
G01*
X5725000Y16975000D01*
G75*
G02*
X5525000Y16775000I-200000J0D01*
G01*
X5125000Y16775000D01*
G75*
G02*
X4925000Y16975000I0J200000D01*
G01*
G37*
G36*
G01*
X3275000Y16975000D02*
X3275000Y17525000D01*
G75*
G02*
X3475000Y17725000I200000J0D01*
G01*
X3875000Y17725000D01*
G75*
G02*
X4075000Y17525000I0J-200000D01*
G01*
X4075000Y16975000D01*
G75*
G02*
X3875000Y16775000I-200000J0D01*
G01*
X3475000Y16775000D01*
G75*
G02*
X3275000Y16975000I0J200000D01*
G01*
G37*
G36*
G01*
X4075000Y19275000D02*
X4075000Y18725000D01*
G75*
G02*
X3875000Y18525000I-200000J0D01*
G01*
X3475000Y18525000D01*
G75*
G02*
X3275000Y18725000I0J200000D01*
G01*
X3275000Y19275000D01*
G75*
G02*
X3475000Y19475000I200000J0D01*
G01*
X3875000Y19475000D01*
G75*
G02*
X4075000Y19275000I0J-200000D01*
G01*
G37*
G36*
G01*
X5725000Y19275000D02*
X5725000Y18725000D01*
G75*
G02*
X5525000Y18525000I-200000J0D01*
G01*
X5125000Y18525000D01*
G75*
G02*
X4925000Y18725000I0J200000D01*
G01*
X4925000Y19275000D01*
G75*
G02*
X5125000Y19475000I200000J0D01*
G01*
X5525000Y19475000D01*
G75*
G02*
X5725000Y19275000I0J-200000D01*
G01*
G37*
G36*
G01*
X23775000Y9925000D02*
X23225000Y9925000D01*
G75*
G02*
X23025000Y10125000I0J200000D01*
G01*
X23025000Y10525000D01*
G75*
G02*
X23225000Y10725000I200000J0D01*
G01*
X23775000Y10725000D01*
G75*
G02*
X23975000Y10525000I0J-200000D01*
G01*
X23975000Y10125000D01*
G75*
G02*
X23775000Y9925000I-200000J0D01*
G01*
G37*
G36*
G01*
X23775000Y8275000D02*
X23225000Y8275000D01*
G75*
G02*
X23025000Y8475000I0J200000D01*
G01*
X23025000Y8875000D01*
G75*
G02*
X23225000Y9075000I200000J0D01*
G01*
X23775000Y9075000D01*
G75*
G02*
X23975000Y8875000I0J-200000D01*
G01*
X23975000Y8475000D01*
G75*
G02*
X23775000Y8275000I-200000J0D01*
G01*
G37*
G36*
G01*
X4925000Y23975000D02*
X4925000Y24525000D01*
G75*
G02*
X5125000Y24725000I200000J0D01*
G01*
X5525000Y24725000D01*
G75*
G02*
X5725000Y24525000I0J-200000D01*
G01*
X5725000Y23975000D01*
G75*
G02*
X5525000Y23775000I-200000J0D01*
G01*
X5125000Y23775000D01*
G75*
G02*
X4925000Y23975000I0J200000D01*
G01*
G37*
G36*
G01*
X3275000Y23975000D02*
X3275000Y24525000D01*
G75*
G02*
X3475000Y24725000I200000J0D01*
G01*
X3875000Y24725000D01*
G75*
G02*
X4075000Y24525000I0J-200000D01*
G01*
X4075000Y23975000D01*
G75*
G02*
X3875000Y23775000I-200000J0D01*
G01*
X3475000Y23775000D01*
G75*
G02*
X3275000Y23975000I0J200000D01*
G01*
G37*
G36*
G01*
X4925000Y22225000D02*
X4925000Y22775000D01*
G75*
G02*
X5125000Y22975000I200000J0D01*
G01*
X5525000Y22975000D01*
G75*
G02*
X5725000Y22775000I0J-200000D01*
G01*
X5725000Y22225000D01*
G75*
G02*
X5525000Y22025000I-200000J0D01*
G01*
X5125000Y22025000D01*
G75*
G02*
X4925000Y22225000I0J200000D01*
G01*
G37*
G36*
G01*
X3275000Y22225000D02*
X3275000Y22775000D01*
G75*
G02*
X3475000Y22975000I200000J0D01*
G01*
X3875000Y22975000D01*
G75*
G02*
X4075000Y22775000I0J-200000D01*
G01*
X4075000Y22225000D01*
G75*
G02*
X3875000Y22025000I-200000J0D01*
G01*
X3475000Y22025000D01*
G75*
G02*
X3275000Y22225000I0J200000D01*
G01*
G37*
G36*
G01*
X4925000Y13475000D02*
X4925000Y14025000D01*
G75*
G02*
X5125000Y14225000I200000J0D01*
G01*
X5525000Y14225000D01*
G75*
G02*
X5725000Y14025000I0J-200000D01*
G01*
X5725000Y13475000D01*
G75*
G02*
X5525000Y13275000I-200000J0D01*
G01*
X5125000Y13275000D01*
G75*
G02*
X4925000Y13475000I0J200000D01*
G01*
G37*
G36*
G01*
X3275000Y13475000D02*
X3275000Y14025000D01*
G75*
G02*
X3475000Y14225000I200000J0D01*
G01*
X3875000Y14225000D01*
G75*
G02*
X4075000Y14025000I0J-200000D01*
G01*
X4075000Y13475000D01*
G75*
G02*
X3875000Y13275000I-200000J0D01*
G01*
X3475000Y13275000D01*
G75*
G02*
X3275000Y13475000I0J200000D01*
G01*
G37*
G36*
G01*
X4075000Y12275000D02*
X4075000Y11725000D01*
G75*
G02*
X3875000Y11525000I-200000J0D01*
G01*
X3475000Y11525000D01*
G75*
G02*
X3275000Y11725000I0J200000D01*
G01*
X3275000Y12275000D01*
G75*
G02*
X3475000Y12475000I200000J0D01*
G01*
X3875000Y12475000D01*
G75*
G02*
X4075000Y12275000I0J-200000D01*
G01*
G37*
G36*
G01*
X5725000Y12275000D02*
X5725000Y11725000D01*
G75*
G02*
X5525000Y11525000I-200000J0D01*
G01*
X5125000Y11525000D01*
G75*
G02*
X4925000Y11725000I0J200000D01*
G01*
X4925000Y12275000D01*
G75*
G02*
X5125000Y12475000I200000J0D01*
G01*
X5525000Y12475000D01*
G75*
G02*
X5725000Y12275000I0J-200000D01*
G01*
G37*
G36*
G01*
X4075000Y15775000D02*
X4075000Y15225000D01*
G75*
G02*
X3875000Y15025000I-200000J0D01*
G01*
X3475000Y15025000D01*
G75*
G02*
X3275000Y15225000I0J200000D01*
G01*
X3275000Y15775000D01*
G75*
G02*
X3475000Y15975000I200000J0D01*
G01*
X3875000Y15975000D01*
G75*
G02*
X4075000Y15775000I0J-200000D01*
G01*
G37*
G36*
G01*
X5725000Y15775000D02*
X5725000Y15225000D01*
G75*
G02*
X5525000Y15025000I-200000J0D01*
G01*
X5125000Y15025000D01*
G75*
G02*
X4925000Y15225000I0J200000D01*
G01*
X4925000Y15775000D01*
G75*
G02*
X5125000Y15975000I200000J0D01*
G01*
X5525000Y15975000D01*
G75*
G02*
X5725000Y15775000I0J-200000D01*
G01*
G37*
G36*
G01*
X9675000Y5225000D02*
X9675000Y5775000D01*
G75*
G02*
X9875000Y5975000I200000J0D01*
G01*
X10275000Y5975000D01*
G75*
G02*
X10475000Y5775000I0J-200000D01*
G01*
X10475000Y5225000D01*
G75*
G02*
X10275000Y5025000I-200000J0D01*
G01*
X9875000Y5025000D01*
G75*
G02*
X9675000Y5225000I0J200000D01*
G01*
G37*
G36*
G01*
X8025000Y5225000D02*
X8025000Y5775000D01*
G75*
G02*
X8225000Y5975000I200000J0D01*
G01*
X8625000Y5975000D01*
G75*
G02*
X8825000Y5775000I0J-200000D01*
G01*
X8825000Y5225000D01*
G75*
G02*
X8625000Y5025000I-200000J0D01*
G01*
X8225000Y5025000D01*
G75*
G02*
X8025000Y5225000I0J200000D01*
G01*
G37*
G36*
G01*
X53775000Y21025000D02*
X53225000Y21025000D01*
G75*
G02*
X53025000Y21225000I0J200000D01*
G01*
X53025000Y21625000D01*
G75*
G02*
X53225000Y21825000I200000J0D01*
G01*
X53775000Y21825000D01*
G75*
G02*
X53975000Y21625000I0J-200000D01*
G01*
X53975000Y21225000D01*
G75*
G02*
X53775000Y21025000I-200000J0D01*
G01*
G37*
G36*
G01*
X53775000Y22675000D02*
X53225000Y22675000D01*
G75*
G02*
X53025000Y22875000I0J200000D01*
G01*
X53025000Y23275000D01*
G75*
G02*
X53225000Y23475000I200000J0D01*
G01*
X53775000Y23475000D01*
G75*
G02*
X53975000Y23275000I0J-200000D01*
G01*
X53975000Y22875000D01*
G75*
G02*
X53775000Y22675000I-200000J0D01*
G01*
G37*
G36*
G01*
X53475000Y6325000D02*
X54025000Y6325000D01*
G75*
G02*
X54225000Y6125000I0J-200000D01*
G01*
X54225000Y5725000D01*
G75*
G02*
X54025000Y5525000I-200000J0D01*
G01*
X53475000Y5525000D01*
G75*
G02*
X53275000Y5725000I0J200000D01*
G01*
X53275000Y6125000D01*
G75*
G02*
X53475000Y6325000I200000J0D01*
G01*
G37*
G36*
G01*
X53475000Y7975000D02*
X54025000Y7975000D01*
G75*
G02*
X54225000Y7775000I0J-200000D01*
G01*
X54225000Y7375000D01*
G75*
G02*
X54025000Y7175000I-200000J0D01*
G01*
X53475000Y7175000D01*
G75*
G02*
X53275000Y7375000I0J200000D01*
G01*
X53275000Y7775000D01*
G75*
G02*
X53475000Y7975000I200000J0D01*
G01*
G37*
G36*
G01*
X54025000Y12675000D02*
X53475000Y12675000D01*
G75*
G02*
X53275000Y12875000I0J200000D01*
G01*
X53275000Y13275000D01*
G75*
G02*
X53475000Y13475000I200000J0D01*
G01*
X54025000Y13475000D01*
G75*
G02*
X54225000Y13275000I0J-200000D01*
G01*
X54225000Y12875000D01*
G75*
G02*
X54025000Y12675000I-200000J0D01*
G01*
G37*
G36*
G01*
X54025000Y11025000D02*
X53475000Y11025000D01*
G75*
G02*
X53275000Y11225000I0J200000D01*
G01*
X53275000Y11625000D01*
G75*
G02*
X53475000Y11825000I200000J0D01*
G01*
X54025000Y11825000D01*
G75*
G02*
X54225000Y11625000I0J-200000D01*
G01*
X54225000Y11225000D01*
G75*
G02*
X54025000Y11025000I-200000J0D01*
G01*
G37*
G36*
G01*
X55025000Y27225000D02*
X55025000Y27775000D01*
G75*
G02*
X55225000Y27975000I200000J0D01*
G01*
X55625000Y27975000D01*
G75*
G02*
X55825000Y27775000I0J-200000D01*
G01*
X55825000Y27225000D01*
G75*
G02*
X55625000Y27025000I-200000J0D01*
G01*
X55225000Y27025000D01*
G75*
G02*
X55025000Y27225000I0J200000D01*
G01*
G37*
G36*
G01*
X56675000Y27225000D02*
X56675000Y27775000D01*
G75*
G02*
X56875000Y27975000I200000J0D01*
G01*
X57275000Y27975000D01*
G75*
G02*
X57475000Y27775000I0J-200000D01*
G01*
X57475000Y27225000D01*
G75*
G02*
X57275000Y27025000I-200000J0D01*
G01*
X56875000Y27025000D01*
G75*
G02*
X56675000Y27225000I0J200000D01*
G01*
G37*
G36*
G01*
X36775000Y6175000D02*
X36225000Y6175000D01*
G75*
G02*
X36025000Y6375000I0J200000D01*
G01*
X36025000Y6775000D01*
G75*
G02*
X36225000Y6975000I200000J0D01*
G01*
X36775000Y6975000D01*
G75*
G02*
X36975000Y6775000I0J-200000D01*
G01*
X36975000Y6375000D01*
G75*
G02*
X36775000Y6175000I-200000J0D01*
G01*
G37*
G36*
G01*
X36775000Y4525000D02*
X36225000Y4525000D01*
G75*
G02*
X36025000Y4725000I0J200000D01*
G01*
X36025000Y5125000D01*
G75*
G02*
X36225000Y5325000I200000J0D01*
G01*
X36775000Y5325000D01*
G75*
G02*
X36975000Y5125000I0J-200000D01*
G01*
X36975000Y4725000D01*
G75*
G02*
X36775000Y4525000I-200000J0D01*
G01*
G37*
G36*
G01*
X19575000Y11025000D02*
X19575000Y10475000D01*
G75*
G02*
X19375000Y10275000I-200000J0D01*
G01*
X18975000Y10275000D01*
G75*
G02*
X18775000Y10475000I0J200000D01*
G01*
X18775000Y11025000D01*
G75*
G02*
X18975000Y11225000I200000J0D01*
G01*
X19375000Y11225000D01*
G75*
G02*
X19575000Y11025000I0J-200000D01*
G01*
G37*
G36*
G01*
X21225000Y11025000D02*
X21225000Y10475000D01*
G75*
G02*
X21025000Y10275000I-200000J0D01*
G01*
X20625000Y10275000D01*
G75*
G02*
X20425000Y10475000I0J200000D01*
G01*
X20425000Y11025000D01*
G75*
G02*
X20625000Y11225000I200000J0D01*
G01*
X21025000Y11225000D01*
G75*
G02*
X21225000Y11025000I0J-200000D01*
G01*
G37*
G36*
G01*
X29325000Y-7475000D02*
X29325000Y-8025000D01*
G75*
G02*
X29125000Y-8225000I-200000J0D01*
G01*
X28725000Y-8225000D01*
G75*
G02*
X28525000Y-8025000I0J200000D01*
G01*
X28525000Y-7475000D01*
G75*
G02*
X28725000Y-7275000I200000J0D01*
G01*
X29125000Y-7275000D01*
G75*
G02*
X29325000Y-7475000I0J-200000D01*
G01*
G37*
G36*
G01*
X30975000Y-7475000D02*
X30975000Y-8025000D01*
G75*
G02*
X30775000Y-8225000I-200000J0D01*
G01*
X30375000Y-8225000D01*
G75*
G02*
X30175000Y-8025000I0J200000D01*
G01*
X30175000Y-7475000D01*
G75*
G02*
X30375000Y-7275000I200000J0D01*
G01*
X30775000Y-7275000D01*
G75*
G02*
X30975000Y-7475000I0J-200000D01*
G01*
G37*
G36*
G01*
X25650000Y1049998D02*
X25650000Y1950002D01*
G75*
G02*
X25899998Y2200000I249998J0D01*
G01*
X26425002Y2200000D01*
G75*
G02*
X26675000Y1950002I0J-249998D01*
G01*
X26675000Y1049998D01*
G75*
G02*
X26425002Y800000I-249998J0D01*
G01*
X25899998Y800000D01*
G75*
G02*
X25650000Y1049998I0J249998D01*
G01*
G37*
G36*
G01*
X23825000Y1049998D02*
X23825000Y1950002D01*
G75*
G02*
X24074998Y2200000I249998J0D01*
G01*
X24600002Y2200000D01*
G75*
G02*
X24850000Y1950002I0J-249998D01*
G01*
X24850000Y1049998D01*
G75*
G02*
X24600002Y800000I-249998J0D01*
G01*
X24074998Y800000D01*
G75*
G02*
X23825000Y1049998I0J249998D01*
G01*
G37*
G36*
G01*
X24850000Y-299998D02*
X24850000Y-1200002D01*
G75*
G02*
X24600002Y-1450000I-249998J0D01*
G01*
X24074998Y-1450000D01*
G75*
G02*
X23825000Y-1200002I0J249998D01*
G01*
X23825000Y-299998D01*
G75*
G02*
X24074998Y-50000I249998J0D01*
G01*
X24600002Y-50000D01*
G75*
G02*
X24850000Y-299998I0J-249998D01*
G01*
G37*
G36*
G01*
X26675000Y-299998D02*
X26675000Y-1200002D01*
G75*
G02*
X26425002Y-1450000I-249998J0D01*
G01*
X25899998Y-1450000D01*
G75*
G02*
X25650000Y-1200002I0J249998D01*
G01*
X25650000Y-299998D01*
G75*
G02*
X25899998Y-50000I249998J0D01*
G01*
X26425002Y-50000D01*
G75*
G02*
X26675000Y-299998I0J-249998D01*
G01*
G37*
G36*
G01*
X6500000Y-18575000D02*
X7000000Y-18575000D01*
G75*
G02*
X7225000Y-18800000I0J-225000D01*
G01*
X7225000Y-19250000D01*
G75*
G02*
X7000000Y-19475000I-225000J0D01*
G01*
X6500000Y-19475000D01*
G75*
G02*
X6275000Y-19250000I0J225000D01*
G01*
X6275000Y-18800000D01*
G75*
G02*
X6500000Y-18575000I225000J0D01*
G01*
G37*
G36*
G01*
X6500000Y-17025000D02*
X7000000Y-17025000D01*
G75*
G02*
X7225000Y-17250000I0J-225000D01*
G01*
X7225000Y-17700000D01*
G75*
G02*
X7000000Y-17925000I-225000J0D01*
G01*
X6500000Y-17925000D01*
G75*
G02*
X6275000Y-17700000I0J225000D01*
G01*
X6275000Y-17250000D01*
G75*
G02*
X6500000Y-17025000I225000J0D01*
G01*
G37*
G36*
G01*
X14500000Y-18575000D02*
X15000000Y-18575000D01*
G75*
G02*
X15225000Y-18800000I0J-225000D01*
G01*
X15225000Y-19250000D01*
G75*
G02*
X15000000Y-19475000I-225000J0D01*
G01*
X14500000Y-19475000D01*
G75*
G02*
X14275000Y-19250000I0J225000D01*
G01*
X14275000Y-18800000D01*
G75*
G02*
X14500000Y-18575000I225000J0D01*
G01*
G37*
G36*
G01*
X14500000Y-17025000D02*
X15000000Y-17025000D01*
G75*
G02*
X15225000Y-17250000I0J-225000D01*
G01*
X15225000Y-17700000D01*
G75*
G02*
X15000000Y-17925000I-225000J0D01*
G01*
X14500000Y-17925000D01*
G75*
G02*
X14275000Y-17700000I0J225000D01*
G01*
X14275000Y-17250000D01*
G75*
G02*
X14500000Y-17025000I225000J0D01*
G01*
G37*
G36*
G01*
X58250000Y-4175000D02*
X57750000Y-4175000D01*
G75*
G02*
X57525000Y-3950000I0J225000D01*
G01*
X57525000Y-3500000D01*
G75*
G02*
X57750000Y-3275000I225000J0D01*
G01*
X58250000Y-3275000D01*
G75*
G02*
X58475000Y-3500000I0J-225000D01*
G01*
X58475000Y-3950000D01*
G75*
G02*
X58250000Y-4175000I-225000J0D01*
G01*
G37*
G36*
G01*
X58250000Y-5725000D02*
X57750000Y-5725000D01*
G75*
G02*
X57525000Y-5500000I0J225000D01*
G01*
X57525000Y-5050000D01*
G75*
G02*
X57750000Y-4825000I225000J0D01*
G01*
X58250000Y-4825000D01*
G75*
G02*
X58475000Y-5050000I0J-225000D01*
G01*
X58475000Y-5500000D01*
G75*
G02*
X58250000Y-5725000I-225000J0D01*
G01*
G37*
G36*
G01*
X57750000Y-825000D02*
X58250000Y-825000D01*
G75*
G02*
X58475000Y-1050000I0J-225000D01*
G01*
X58475000Y-1500000D01*
G75*
G02*
X58250000Y-1725000I-225000J0D01*
G01*
X57750000Y-1725000D01*
G75*
G02*
X57525000Y-1500000I0J225000D01*
G01*
X57525000Y-1050000D01*
G75*
G02*
X57750000Y-825000I225000J0D01*
G01*
G37*
G36*
G01*
X57750000Y725000D02*
X58250000Y725000D01*
G75*
G02*
X58475000Y500000I0J-225000D01*
G01*
X58475000Y50000D01*
G75*
G02*
X58250000Y-175000I-225000J0D01*
G01*
X57750000Y-175000D01*
G75*
G02*
X57525000Y50000I0J225000D01*
G01*
X57525000Y500000D01*
G75*
G02*
X57750000Y725000I225000J0D01*
G01*
G37*
G36*
G01*
X17825000Y25000000D02*
X17825000Y25500000D01*
G75*
G02*
X18050000Y25725000I225000J0D01*
G01*
X18500000Y25725000D01*
G75*
G02*
X18725000Y25500000I0J-225000D01*
G01*
X18725000Y25000000D01*
G75*
G02*
X18500000Y24775000I-225000J0D01*
G01*
X18050000Y24775000D01*
G75*
G02*
X17825000Y25000000I0J225000D01*
G01*
G37*
G36*
G01*
X16275000Y25000000D02*
X16275000Y25500000D01*
G75*
G02*
X16500000Y25725000I225000J0D01*
G01*
X16950000Y25725000D01*
G75*
G02*
X17175000Y25500000I0J-225000D01*
G01*
X17175000Y25000000D01*
G75*
G02*
X16950000Y24775000I-225000J0D01*
G01*
X16500000Y24775000D01*
G75*
G02*
X16275000Y25000000I0J225000D01*
G01*
G37*
G36*
G01*
X4175000Y21000000D02*
X4175000Y20500000D01*
G75*
G02*
X3950000Y20275000I-225000J0D01*
G01*
X3500000Y20275000D01*
G75*
G02*
X3275000Y20500000I0J225000D01*
G01*
X3275000Y21000000D01*
G75*
G02*
X3500000Y21225000I225000J0D01*
G01*
X3950000Y21225000D01*
G75*
G02*
X4175000Y21000000I0J-225000D01*
G01*
G37*
G36*
G01*
X5725000Y21000000D02*
X5725000Y20500000D01*
G75*
G02*
X5500000Y20275000I-225000J0D01*
G01*
X5050000Y20275000D01*
G75*
G02*
X4825000Y20500000I0J225000D01*
G01*
X4825000Y21000000D01*
G75*
G02*
X5050000Y21225000I225000J0D01*
G01*
X5500000Y21225000D01*
G75*
G02*
X5725000Y21000000I0J-225000D01*
G01*
G37*
G36*
G01*
X8925000Y3750000D02*
X8925000Y3250000D01*
G75*
G02*
X8700000Y3025000I-225000J0D01*
G01*
X8250000Y3025000D01*
G75*
G02*
X8025000Y3250000I0J225000D01*
G01*
X8025000Y3750000D01*
G75*
G02*
X8250000Y3975000I225000J0D01*
G01*
X8700000Y3975000D01*
G75*
G02*
X8925000Y3750000I0J-225000D01*
G01*
G37*
G36*
G01*
X10475000Y3750000D02*
X10475000Y3250000D01*
G75*
G02*
X10250000Y3025000I-225000J0D01*
G01*
X9800000Y3025000D01*
G75*
G02*
X9575000Y3250000I0J225000D01*
G01*
X9575000Y3750000D01*
G75*
G02*
X9800000Y3975000I225000J0D01*
G01*
X10250000Y3975000D01*
G75*
G02*
X10475000Y3750000I0J-225000D01*
G01*
G37*
G36*
G01*
X6250000Y825000D02*
X5750000Y825000D01*
G75*
G02*
X5525000Y1050000I0J225000D01*
G01*
X5525000Y1500000D01*
G75*
G02*
X5750000Y1725000I225000J0D01*
G01*
X6250000Y1725000D01*
G75*
G02*
X6475000Y1500000I0J-225000D01*
G01*
X6475000Y1050000D01*
G75*
G02*
X6250000Y825000I-225000J0D01*
G01*
G37*
G36*
G01*
X6250000Y-725000D02*
X5750000Y-725000D01*
G75*
G02*
X5525000Y-500000I0J225000D01*
G01*
X5525000Y-50000D01*
G75*
G02*
X5750000Y175000I225000J0D01*
G01*
X6250000Y175000D01*
G75*
G02*
X6475000Y-50000I0J-225000D01*
G01*
X6475000Y-500000D01*
G75*
G02*
X6250000Y-725000I-225000J0D01*
G01*
G37*
G36*
G01*
X12350000Y13400001D02*
X12350000Y12099999D01*
G75*
G02*
X12100001Y11850000I-249999J0D01*
G01*
X11449999Y11850000D01*
G75*
G02*
X11200000Y12099999I0J249999D01*
G01*
X11200000Y13400001D01*
G75*
G02*
X11449999Y13650000I249999J0D01*
G01*
X12100001Y13650000D01*
G75*
G02*
X12350000Y13400001I0J-249999D01*
G01*
G37*
G36*
G01*
X15300000Y13400001D02*
X15300000Y12099999D01*
G75*
G02*
X15050001Y11850000I-249999J0D01*
G01*
X14399999Y11850000D01*
G75*
G02*
X14150000Y12099999I0J249999D01*
G01*
X14150000Y13400001D01*
G75*
G02*
X14399999Y13650000I249999J0D01*
G01*
X15050001Y13650000D01*
G75*
G02*
X15300000Y13400001I0J-249999D01*
G01*
G37*
G36*
G01*
X57475000Y20250000D02*
X57475000Y19750000D01*
G75*
G02*
X57250000Y19525000I-225000J0D01*
G01*
X56800000Y19525000D01*
G75*
G02*
X56575000Y19750000I0J225000D01*
G01*
X56575000Y20250000D01*
G75*
G02*
X56800000Y20475000I225000J0D01*
G01*
X57250000Y20475000D01*
G75*
G02*
X57475000Y20250000I0J-225000D01*
G01*
G37*
G36*
G01*
X55925000Y20250000D02*
X55925000Y19750000D01*
G75*
G02*
X55700000Y19525000I-225000J0D01*
G01*
X55250000Y19525000D01*
G75*
G02*
X55025000Y19750000I0J225000D01*
G01*
X55025000Y20250000D01*
G75*
G02*
X55250000Y20475000I225000J0D01*
G01*
X55700000Y20475000D01*
G75*
G02*
X55925000Y20250000I0J-225000D01*
G01*
G37*
G36*
G01*
X57475000Y18500000D02*
X57475000Y18000000D01*
G75*
G02*
X57250000Y17775000I-225000J0D01*
G01*
X56800000Y17775000D01*
G75*
G02*
X56575000Y18000000I0J225000D01*
G01*
X56575000Y18500000D01*
G75*
G02*
X56800000Y18725000I225000J0D01*
G01*
X57250000Y18725000D01*
G75*
G02*
X57475000Y18500000I0J-225000D01*
G01*
G37*
G36*
G01*
X55925000Y18500000D02*
X55925000Y18000000D01*
G75*
G02*
X55700000Y17775000I-225000J0D01*
G01*
X55250000Y17775000D01*
G75*
G02*
X55025000Y18000000I0J225000D01*
G01*
X55025000Y18500000D01*
G75*
G02*
X55250000Y18725000I225000J0D01*
G01*
X55700000Y18725000D01*
G75*
G02*
X55925000Y18500000I0J-225000D01*
G01*
G37*
G36*
G01*
X57475000Y16750000D02*
X57475000Y16250000D01*
G75*
G02*
X57250000Y16025000I-225000J0D01*
G01*
X56800000Y16025000D01*
G75*
G02*
X56575000Y16250000I0J225000D01*
G01*
X56575000Y16750000D01*
G75*
G02*
X56800000Y16975000I225000J0D01*
G01*
X57250000Y16975000D01*
G75*
G02*
X57475000Y16750000I0J-225000D01*
G01*
G37*
G36*
G01*
X55925000Y16750000D02*
X55925000Y16250000D01*
G75*
G02*
X55700000Y16025000I-225000J0D01*
G01*
X55250000Y16025000D01*
G75*
G02*
X55025000Y16250000I0J225000D01*
G01*
X55025000Y16750000D01*
G75*
G02*
X55250000Y16975000I225000J0D01*
G01*
X55700000Y16975000D01*
G75*
G02*
X55925000Y16750000I0J-225000D01*
G01*
G37*
G36*
G01*
X45175000Y3250000D02*
X45175000Y2750000D01*
G75*
G02*
X44950000Y2525000I-225000J0D01*
G01*
X44500000Y2525000D01*
G75*
G02*
X44275000Y2750000I0J225000D01*
G01*
X44275000Y3250000D01*
G75*
G02*
X44500000Y3475000I225000J0D01*
G01*
X44950000Y3475000D01*
G75*
G02*
X45175000Y3250000I0J-225000D01*
G01*
G37*
G36*
G01*
X46725000Y3250000D02*
X46725000Y2750000D01*
G75*
G02*
X46500000Y2525000I-225000J0D01*
G01*
X46050000Y2525000D01*
G75*
G02*
X45825000Y2750000I0J225000D01*
G01*
X45825000Y3250000D01*
G75*
G02*
X46050000Y3475000I225000J0D01*
G01*
X46500000Y3475000D01*
G75*
G02*
X46725000Y3250000I0J-225000D01*
G01*
G37*
G36*
G01*
X46750000Y7825000D02*
X46250000Y7825000D01*
G75*
G02*
X46025000Y8050000I0J225000D01*
G01*
X46025000Y8500000D01*
G75*
G02*
X46250000Y8725000I225000J0D01*
G01*
X46750000Y8725000D01*
G75*
G02*
X46975000Y8500000I0J-225000D01*
G01*
X46975000Y8050000D01*
G75*
G02*
X46750000Y7825000I-225000J0D01*
G01*
G37*
G36*
G01*
X46750000Y6275000D02*
X46250000Y6275000D01*
G75*
G02*
X46025000Y6500000I0J225000D01*
G01*
X46025000Y6950000D01*
G75*
G02*
X46250000Y7175000I225000J0D01*
G01*
X46750000Y7175000D01*
G75*
G02*
X46975000Y6950000I0J-225000D01*
G01*
X46975000Y6500000D01*
G75*
G02*
X46750000Y6275000I-225000J0D01*
G01*
G37*
G36*
G01*
X49099999Y-900000D02*
X50400001Y-900000D01*
G75*
G02*
X50650000Y-1149999I0J-249999D01*
G01*
X50650000Y-1800001D01*
G75*
G02*
X50400001Y-2050000I-249999J0D01*
G01*
X49099999Y-2050000D01*
G75*
G02*
X48850000Y-1800001I0J249999D01*
G01*
X48850000Y-1149999D01*
G75*
G02*
X49099999Y-900000I249999J0D01*
G01*
G37*
G36*
G01*
X49099999Y2050000D02*
X50400001Y2050000D01*
G75*
G02*
X50650000Y1800001I0J-249999D01*
G01*
X50650000Y1149999D01*
G75*
G02*
X50400001Y900000I-249999J0D01*
G01*
X49099999Y900000D01*
G75*
G02*
X48850000Y1149999I0J249999D01*
G01*
X48850000Y1800001D01*
G75*
G02*
X49099999Y2050000I249999J0D01*
G01*
G37*
G36*
G01*
X50400001Y-4100000D02*
X49099999Y-4100000D01*
G75*
G02*
X48850000Y-3850001I0J249999D01*
G01*
X48850000Y-3199999D01*
G75*
G02*
X49099999Y-2950000I249999J0D01*
G01*
X50400001Y-2950000D01*
G75*
G02*
X50650000Y-3199999I0J-249999D01*
G01*
X50650000Y-3850001D01*
G75*
G02*
X50400001Y-4100000I-249999J0D01*
G01*
G37*
G36*
G01*
X50400001Y-7050000D02*
X49099999Y-7050000D01*
G75*
G02*
X48850000Y-6800001I0J249999D01*
G01*
X48850000Y-6149999D01*
G75*
G02*
X49099999Y-5900000I249999J0D01*
G01*
X50400001Y-5900000D01*
G75*
G02*
X50650000Y-6149999I0J-249999D01*
G01*
X50650000Y-6800001D01*
G75*
G02*
X50400001Y-7050000I-249999J0D01*
G01*
G37*
G36*
G01*
X43325000Y8250000D02*
X43325000Y8750000D01*
G75*
G02*
X43550000Y8975000I225000J0D01*
G01*
X44000000Y8975000D01*
G75*
G02*
X44225000Y8750000I0J-225000D01*
G01*
X44225000Y8250000D01*
G75*
G02*
X44000000Y8025000I-225000J0D01*
G01*
X43550000Y8025000D01*
G75*
G02*
X43325000Y8250000I0J225000D01*
G01*
G37*
G36*
G01*
X41775000Y8250000D02*
X41775000Y8750000D01*
G75*
G02*
X42000000Y8975000I225000J0D01*
G01*
X42450000Y8975000D01*
G75*
G02*
X42675000Y8750000I0J-225000D01*
G01*
X42675000Y8250000D01*
G75*
G02*
X42450000Y8025000I-225000J0D01*
G01*
X42000000Y8025000D01*
G75*
G02*
X41775000Y8250000I0J225000D01*
G01*
G37*
G36*
G01*
X43325000Y-6000000D02*
X43325000Y-5500000D01*
G75*
G02*
X43550000Y-5275000I225000J0D01*
G01*
X44000000Y-5275000D01*
G75*
G02*
X44225000Y-5500000I0J-225000D01*
G01*
X44225000Y-6000000D01*
G75*
G02*
X44000000Y-6225000I-225000J0D01*
G01*
X43550000Y-6225000D01*
G75*
G02*
X43325000Y-6000000I0J225000D01*
G01*
G37*
G36*
G01*
X41775000Y-6000000D02*
X41775000Y-5500000D01*
G75*
G02*
X42000000Y-5275000I225000J0D01*
G01*
X42450000Y-5275000D01*
G75*
G02*
X42675000Y-5500000I0J-225000D01*
G01*
X42675000Y-6000000D01*
G75*
G02*
X42450000Y-6225000I-225000J0D01*
G01*
X42000000Y-6225000D01*
G75*
G02*
X41775000Y-6000000I0J225000D01*
G01*
G37*
G36*
G01*
X25925000Y-7500000D02*
X25925000Y-8000000D01*
G75*
G02*
X25700000Y-8225000I-225000J0D01*
G01*
X25250000Y-8225000D01*
G75*
G02*
X25025000Y-8000000I0J225000D01*
G01*
X25025000Y-7500000D01*
G75*
G02*
X25250000Y-7275000I225000J0D01*
G01*
X25700000Y-7275000D01*
G75*
G02*
X25925000Y-7500000I0J-225000D01*
G01*
G37*
G36*
G01*
X27475000Y-7500000D02*
X27475000Y-8000000D01*
G75*
G02*
X27250000Y-8225000I-225000J0D01*
G01*
X26800000Y-8225000D01*
G75*
G02*
X26575000Y-8000000I0J225000D01*
G01*
X26575000Y-7500000D01*
G75*
G02*
X26800000Y-7275000I225000J0D01*
G01*
X27250000Y-7275000D01*
G75*
G02*
X27475000Y-7500000I0J-225000D01*
G01*
G37*
G36*
G01*
X25575000Y3250000D02*
X25575000Y3750000D01*
G75*
G02*
X25800000Y3975000I225000J0D01*
G01*
X26250000Y3975000D01*
G75*
G02*
X26475000Y3750000I0J-225000D01*
G01*
X26475000Y3250000D01*
G75*
G02*
X26250000Y3025000I-225000J0D01*
G01*
X25800000Y3025000D01*
G75*
G02*
X25575000Y3250000I0J225000D01*
G01*
G37*
G36*
G01*
X24025000Y3250000D02*
X24025000Y3750000D01*
G75*
G02*
X24250000Y3975000I225000J0D01*
G01*
X24700000Y3975000D01*
G75*
G02*
X24925000Y3750000I0J-225000D01*
G01*
X24925000Y3250000D01*
G75*
G02*
X24700000Y3025000I-225000J0D01*
G01*
X24250000Y3025000D01*
G75*
G02*
X24025000Y3250000I0J225000D01*
G01*
G37*
G36*
G01*
X26500000Y-4675000D02*
X26000000Y-4675000D01*
G75*
G02*
X25775000Y-4450000I0J225000D01*
G01*
X25775000Y-4000000D01*
G75*
G02*
X26000000Y-3775000I225000J0D01*
G01*
X26500000Y-3775000D01*
G75*
G02*
X26725000Y-4000000I0J-225000D01*
G01*
X26725000Y-4450000D01*
G75*
G02*
X26500000Y-4675000I-225000J0D01*
G01*
G37*
G36*
G01*
X26500000Y-6225000D02*
X26000000Y-6225000D01*
G75*
G02*
X25775000Y-6000000I0J225000D01*
G01*
X25775000Y-5550000D01*
G75*
G02*
X26000000Y-5325000I225000J0D01*
G01*
X26500000Y-5325000D01*
G75*
G02*
X26725000Y-5550000I0J-225000D01*
G01*
X26725000Y-6000000D01*
G75*
G02*
X26500000Y-6225000I-225000J0D01*
G01*
G37*
D13*
X36000000Y2500000D03*
X36000000Y-6500000D03*
D14*
X8150000Y7500000D03*
X8150000Y8000000D03*
X8150000Y8500000D03*
X8150000Y9000000D03*
X8150000Y9500000D03*
X3850000Y9500000D03*
X3850000Y9000000D03*
X3850000Y8500000D03*
X3850000Y8000000D03*
X3850000Y7500000D03*
D15*
X18500000Y21250000D03*
X18500000Y16750000D03*
D16*
X12500000Y-13500000D03*
X13450000Y-15500000D03*
X11550000Y-15500000D03*
D17*
X10350000Y-450000D03*
X10350000Y500000D03*
X10350000Y1450000D03*
X8150000Y1450000D03*
X8150000Y-450000D03*
D16*
X60000000Y18500000D03*
X60950000Y16500000D03*
X59050000Y16500000D03*
G36*
G01*
X37900000Y6625000D02*
X37900000Y6825000D01*
G75*
G02*
X38000000Y6925000I100000J0D01*
G01*
X39275000Y6925000D01*
G75*
G02*
X39375000Y6825000I0J-100000D01*
G01*
X39375000Y6625000D01*
G75*
G02*
X39275000Y6525000I-100000J0D01*
G01*
X38000000Y6525000D01*
G75*
G02*
X37900000Y6625000I0J100000D01*
G01*
G37*
G36*
G01*
X37900000Y5975000D02*
X37900000Y6175000D01*
G75*
G02*
X38000000Y6275000I100000J0D01*
G01*
X39275000Y6275000D01*
G75*
G02*
X39375000Y6175000I0J-100000D01*
G01*
X39375000Y5975000D01*
G75*
G02*
X39275000Y5875000I-100000J0D01*
G01*
X38000000Y5875000D01*
G75*
G02*
X37900000Y5975000I0J100000D01*
G01*
G37*
G36*
G01*
X37900000Y5325000D02*
X37900000Y5525000D01*
G75*
G02*
X38000000Y5625000I100000J0D01*
G01*
X39275000Y5625000D01*
G75*
G02*
X39375000Y5525000I0J-100000D01*
G01*
X39375000Y5325000D01*
G75*
G02*
X39275000Y5225000I-100000J0D01*
G01*
X38000000Y5225000D01*
G75*
G02*
X37900000Y5325000I0J100000D01*
G01*
G37*
G36*
G01*
X37900000Y4675000D02*
X37900000Y4875000D01*
G75*
G02*
X38000000Y4975000I100000J0D01*
G01*
X39275000Y4975000D01*
G75*
G02*
X39375000Y4875000I0J-100000D01*
G01*
X39375000Y4675000D01*
G75*
G02*
X39275000Y4575000I-100000J0D01*
G01*
X38000000Y4575000D01*
G75*
G02*
X37900000Y4675000I0J100000D01*
G01*
G37*
G36*
G01*
X43625000Y4675000D02*
X43625000Y4875000D01*
G75*
G02*
X43725000Y4975000I100000J0D01*
G01*
X45000000Y4975000D01*
G75*
G02*
X45100000Y4875000I0J-100000D01*
G01*
X45100000Y4675000D01*
G75*
G02*
X45000000Y4575000I-100000J0D01*
G01*
X43725000Y4575000D01*
G75*
G02*
X43625000Y4675000I0J100000D01*
G01*
G37*
G36*
G01*
X43625000Y5325000D02*
X43625000Y5525000D01*
G75*
G02*
X43725000Y5625000I100000J0D01*
G01*
X45000000Y5625000D01*
G75*
G02*
X45100000Y5525000I0J-100000D01*
G01*
X45100000Y5325000D01*
G75*
G02*
X45000000Y5225000I-100000J0D01*
G01*
X43725000Y5225000D01*
G75*
G02*
X43625000Y5325000I0J100000D01*
G01*
G37*
G36*
G01*
X43625000Y5975000D02*
X43625000Y6175000D01*
G75*
G02*
X43725000Y6275000I100000J0D01*
G01*
X45000000Y6275000D01*
G75*
G02*
X45100000Y6175000I0J-100000D01*
G01*
X45100000Y5975000D01*
G75*
G02*
X45000000Y5875000I-100000J0D01*
G01*
X43725000Y5875000D01*
G75*
G02*
X43625000Y5975000I0J100000D01*
G01*
G37*
G36*
G01*
X43625000Y6625000D02*
X43625000Y6825000D01*
G75*
G02*
X43725000Y6925000I100000J0D01*
G01*
X45000000Y6925000D01*
G75*
G02*
X45100000Y6825000I0J-100000D01*
G01*
X45100000Y6625000D01*
G75*
G02*
X45000000Y6525000I-100000J0D01*
G01*
X43725000Y6525000D01*
G75*
G02*
X43625000Y6625000I0J100000D01*
G01*
G37*
D18*
X28000000Y9000000D03*
X26000000Y8050000D03*
X26000000Y9950000D03*
X52000000Y5800000D03*
X52000000Y7700000D03*
X50000000Y6750000D03*
D19*
X29950000Y-690000D03*
X29000000Y-690000D03*
X28050000Y-690000D03*
X28050000Y-3310000D03*
X29000000Y-3310000D03*
X29950000Y-3310000D03*
G36*
G01*
X48656250Y6275000D02*
X48143750Y6275000D01*
G75*
G02*
X47925000Y6493750I0J218750D01*
G01*
X47925000Y6931250D01*
G75*
G02*
X48143750Y7150000I218750J0D01*
G01*
X48656250Y7150000D01*
G75*
G02*
X48875000Y6931250I0J-218750D01*
G01*
X48875000Y6493750D01*
G75*
G02*
X48656250Y6275000I-218750J0D01*
G01*
G37*
G36*
G01*
X48656250Y7850000D02*
X48143750Y7850000D01*
G75*
G02*
X47925000Y8068750I0J218750D01*
G01*
X47925000Y8506250D01*
G75*
G02*
X48143750Y8725000I218750J0D01*
G01*
X48656250Y8725000D01*
G75*
G02*
X48875000Y8506250I0J-218750D01*
G01*
X48875000Y8068750D01*
G75*
G02*
X48656250Y7850000I-218750J0D01*
G01*
G37*
G36*
G01*
X8300005Y22494998D02*
X8300005Y22655002D01*
G75*
G02*
X8390003Y22745000I89998J0D01*
G01*
X9486557Y22745000D01*
G75*
G02*
X9576555Y22655002I0J-89998D01*
G01*
X9576555Y22494998D01*
G75*
G02*
X9486557Y22405000I-89998J0D01*
G01*
X8390003Y22405000D01*
G75*
G02*
X8300005Y22494998I0J89998D01*
G01*
G37*
G36*
G01*
X8300005Y21844998D02*
X8300005Y22005002D01*
G75*
G02*
X8390003Y22095000I89998J0D01*
G01*
X9486557Y22095000D01*
G75*
G02*
X9576555Y22005002I0J-89998D01*
G01*
X9576555Y21844998D01*
G75*
G02*
X9486557Y21755000I-89998J0D01*
G01*
X8390003Y21755000D01*
G75*
G02*
X8300005Y21844998I0J89998D01*
G01*
G37*
G36*
G01*
X8300005Y21194998D02*
X8300005Y21355002D01*
G75*
G02*
X8390003Y21445000I89998J0D01*
G01*
X9486557Y21445000D01*
G75*
G02*
X9576555Y21355002I0J-89998D01*
G01*
X9576555Y21194998D01*
G75*
G02*
X9486557Y21105000I-89998J0D01*
G01*
X8390003Y21105000D01*
G75*
G02*
X8300005Y21194998I0J89998D01*
G01*
G37*
G36*
G01*
X8300005Y20544998D02*
X8300005Y20705002D01*
G75*
G02*
X8390003Y20795000I89998J0D01*
G01*
X9486557Y20795000D01*
G75*
G02*
X9576555Y20705002I0J-89998D01*
G01*
X9576555Y20544998D01*
G75*
G02*
X9486557Y20455000I-89998J0D01*
G01*
X8390003Y20455000D01*
G75*
G02*
X8300005Y20544998I0J89998D01*
G01*
G37*
G36*
G01*
X8300005Y19894998D02*
X8300005Y20055002D01*
G75*
G02*
X8390003Y20145000I89998J0D01*
G01*
X9486557Y20145000D01*
G75*
G02*
X9576555Y20055002I0J-89998D01*
G01*
X9576555Y19894998D01*
G75*
G02*
X9486557Y19805000I-89998J0D01*
G01*
X8390003Y19805000D01*
G75*
G02*
X8300005Y19894998I0J89998D01*
G01*
G37*
G36*
G01*
X8300005Y19244998D02*
X8300005Y19405002D01*
G75*
G02*
X8390003Y19495000I89998J0D01*
G01*
X9486557Y19495000D01*
G75*
G02*
X9576555Y19405002I0J-89998D01*
G01*
X9576555Y19244998D01*
G75*
G02*
X9486557Y19155000I-89998J0D01*
G01*
X8390003Y19155000D01*
G75*
G02*
X8300005Y19244998I0J89998D01*
G01*
G37*
G36*
G01*
X8300005Y18594998D02*
X8300005Y18755002D01*
G75*
G02*
X8390003Y18845000I89998J0D01*
G01*
X9486557Y18845000D01*
G75*
G02*
X9576555Y18755002I0J-89998D01*
G01*
X9576555Y18594998D01*
G75*
G02*
X9486557Y18505000I-89998J0D01*
G01*
X8390003Y18505000D01*
G75*
G02*
X8300005Y18594998I0J89998D01*
G01*
G37*
G36*
G01*
X8300005Y17944998D02*
X8300005Y18105002D01*
G75*
G02*
X8390003Y18195000I89998J0D01*
G01*
X9486557Y18195000D01*
G75*
G02*
X9576555Y18105002I0J-89998D01*
G01*
X9576555Y17944998D01*
G75*
G02*
X9486557Y17855000I-89998J0D01*
G01*
X8390003Y17855000D01*
G75*
G02*
X8300005Y17944998I0J89998D01*
G01*
G37*
G36*
G01*
X8300005Y17294998D02*
X8300005Y17455002D01*
G75*
G02*
X8390003Y17545000I89998J0D01*
G01*
X9486557Y17545000D01*
G75*
G02*
X9576555Y17455002I0J-89998D01*
G01*
X9576555Y17294998D01*
G75*
G02*
X9486557Y17205000I-89998J0D01*
G01*
X8390003Y17205000D01*
G75*
G02*
X8300005Y17294998I0J89998D01*
G01*
G37*
G36*
G01*
X8300005Y16644998D02*
X8300005Y16805002D01*
G75*
G02*
X8390003Y16895000I89998J0D01*
G01*
X9486557Y16895000D01*
G75*
G02*
X9576555Y16805002I0J-89998D01*
G01*
X9576555Y16644998D01*
G75*
G02*
X9486557Y16555000I-89998J0D01*
G01*
X8390003Y16555000D01*
G75*
G02*
X8300005Y16644998I0J89998D01*
G01*
G37*
G36*
G01*
X8300005Y15994998D02*
X8300005Y16155002D01*
G75*
G02*
X8390003Y16245000I89998J0D01*
G01*
X9486557Y16245000D01*
G75*
G02*
X9576555Y16155002I0J-89998D01*
G01*
X9576555Y15994998D01*
G75*
G02*
X9486557Y15905000I-89998J0D01*
G01*
X8390003Y15905000D01*
G75*
G02*
X8300005Y15994998I0J89998D01*
G01*
G37*
G36*
G01*
X8300005Y15344998D02*
X8300005Y15505002D01*
G75*
G02*
X8390003Y15595000I89998J0D01*
G01*
X9486557Y15595000D01*
G75*
G02*
X9576555Y15505002I0J-89998D01*
G01*
X9576555Y15344998D01*
G75*
G02*
X9486557Y15255000I-89998J0D01*
G01*
X8390003Y15255000D01*
G75*
G02*
X8300005Y15344998I0J89998D01*
G01*
G37*
G36*
G01*
X13923445Y15344998D02*
X13923445Y15505002D01*
G75*
G02*
X14013443Y15595000I89998J0D01*
G01*
X15109997Y15595000D01*
G75*
G02*
X15199995Y15505002I0J-89998D01*
G01*
X15199995Y15344998D01*
G75*
G02*
X15109997Y15255000I-89998J0D01*
G01*
X14013443Y15255000D01*
G75*
G02*
X13923445Y15344998I0J89998D01*
G01*
G37*
G36*
G01*
X13923445Y15994998D02*
X13923445Y16155002D01*
G75*
G02*
X14013443Y16245000I89998J0D01*
G01*
X15109997Y16245000D01*
G75*
G02*
X15199995Y16155002I0J-89998D01*
G01*
X15199995Y15994998D01*
G75*
G02*
X15109997Y15905000I-89998J0D01*
G01*
X14013443Y15905000D01*
G75*
G02*
X13923445Y15994998I0J89998D01*
G01*
G37*
G36*
G01*
X13923445Y16644998D02*
X13923445Y16805002D01*
G75*
G02*
X14013443Y16895000I89998J0D01*
G01*
X15109997Y16895000D01*
G75*
G02*
X15199995Y16805002I0J-89998D01*
G01*
X15199995Y16644998D01*
G75*
G02*
X15109997Y16555000I-89998J0D01*
G01*
X14013443Y16555000D01*
G75*
G02*
X13923445Y16644998I0J89998D01*
G01*
G37*
G36*
G01*
X13923445Y17294998D02*
X13923445Y17455002D01*
G75*
G02*
X14013443Y17545000I89998J0D01*
G01*
X15109997Y17545000D01*
G75*
G02*
X15199995Y17455002I0J-89998D01*
G01*
X15199995Y17294998D01*
G75*
G02*
X15109997Y17205000I-89998J0D01*
G01*
X14013443Y17205000D01*
G75*
G02*
X13923445Y17294998I0J89998D01*
G01*
G37*
G36*
G01*
X13923445Y17944998D02*
X13923445Y18105002D01*
G75*
G02*
X14013443Y18195000I89998J0D01*
G01*
X15109997Y18195000D01*
G75*
G02*
X15199995Y18105002I0J-89998D01*
G01*
X15199995Y17944998D01*
G75*
G02*
X15109997Y17855000I-89998J0D01*
G01*
X14013443Y17855000D01*
G75*
G02*
X13923445Y17944998I0J89998D01*
G01*
G37*
G36*
G01*
X13923445Y18594998D02*
X13923445Y18755002D01*
G75*
G02*
X14013443Y18845000I89998J0D01*
G01*
X15109997Y18845000D01*
G75*
G02*
X15199995Y18755002I0J-89998D01*
G01*
X15199995Y18594998D01*
G75*
G02*
X15109997Y18505000I-89998J0D01*
G01*
X14013443Y18505000D01*
G75*
G02*
X13923445Y18594998I0J89998D01*
G01*
G37*
G36*
G01*
X13923445Y19244998D02*
X13923445Y19405002D01*
G75*
G02*
X14013443Y19495000I89998J0D01*
G01*
X15109997Y19495000D01*
G75*
G02*
X15199995Y19405002I0J-89998D01*
G01*
X15199995Y19244998D01*
G75*
G02*
X15109997Y19155000I-89998J0D01*
G01*
X14013443Y19155000D01*
G75*
G02*
X13923445Y19244998I0J89998D01*
G01*
G37*
G36*
G01*
X13923445Y19894998D02*
X13923445Y20055002D01*
G75*
G02*
X14013443Y20145000I89998J0D01*
G01*
X15109997Y20145000D01*
G75*
G02*
X15199995Y20055002I0J-89998D01*
G01*
X15199995Y19894998D01*
G75*
G02*
X15109997Y19805000I-89998J0D01*
G01*
X14013443Y19805000D01*
G75*
G02*
X13923445Y19894998I0J89998D01*
G01*
G37*
G36*
G01*
X13923445Y20544998D02*
X13923445Y20705002D01*
G75*
G02*
X14013443Y20795000I89998J0D01*
G01*
X15109997Y20795000D01*
G75*
G02*
X15199995Y20705002I0J-89998D01*
G01*
X15199995Y20544998D01*
G75*
G02*
X15109997Y20455000I-89998J0D01*
G01*
X14013443Y20455000D01*
G75*
G02*
X13923445Y20544998I0J89998D01*
G01*
G37*
G36*
G01*
X13923445Y21194998D02*
X13923445Y21355002D01*
G75*
G02*
X14013443Y21445000I89998J0D01*
G01*
X15109997Y21445000D01*
G75*
G02*
X15199995Y21355002I0J-89998D01*
G01*
X15199995Y21194998D01*
G75*
G02*
X15109997Y21105000I-89998J0D01*
G01*
X14013443Y21105000D01*
G75*
G02*
X13923445Y21194998I0J89998D01*
G01*
G37*
G36*
G01*
X13923445Y21844998D02*
X13923445Y22005002D01*
G75*
G02*
X14013443Y22095000I89998J0D01*
G01*
X15109997Y22095000D01*
G75*
G02*
X15199995Y22005002I0J-89998D01*
G01*
X15199995Y21844998D01*
G75*
G02*
X15109997Y21755000I-89998J0D01*
G01*
X14013443Y21755000D01*
G75*
G02*
X13923445Y21844998I0J89998D01*
G01*
G37*
G36*
G01*
X13923445Y22494998D02*
X13923445Y22655002D01*
G75*
G02*
X14013443Y22745000I89998J0D01*
G01*
X15109997Y22745000D01*
G75*
G02*
X15199995Y22655002I0J-89998D01*
G01*
X15199995Y22494998D01*
G75*
G02*
X15109997Y22405000I-89998J0D01*
G01*
X14013443Y22405000D01*
G75*
G02*
X13923445Y22494998I0J89998D01*
G01*
G37*
D20*
X9000000Y29000000D03*
X9000000Y-29000000D03*
X56000000Y-29000000D03*
M02*
