G04 #@! TF.GenerationSoftware,KiCad,Pcbnew,(5.1.6)-1*
G04 #@! TF.CreationDate,2020-11-06T20:10:37-08:00*
G04 #@! TF.ProjectId,IRIS-power,49524953-2d70-46f7-9765-722e6b696361,rev?*
G04 #@! TF.SameCoordinates,Original*
G04 #@! TF.FileFunction,Legend,Top*
G04 #@! TF.FilePolarity,Positive*
%FSLAX46Y46*%
G04 Gerber Fmt 4.6, Leading zero omitted, Abs format (unit mm)*
G04 Created by KiCad (PCBNEW (5.1.6)-1) date 2020-11-06 20:10:37*
%MOMM*%
%LPD*%
G01*
G04 APERTURE LIST*
%ADD10C,0.120000*%
%ADD11C,0.150000*%
%ADD12C,0.250000*%
%ADD13C,0.010000*%
%ADD14C,0.200000*%
%ADD15C,0.100000*%
%ADD16C,0.127000*%
%ADD17C,0.153000*%
G04 APERTURE END LIST*
D10*
X18000000Y750000D02*
X17000000Y750000D01*
X17750000Y1000000D02*
X18000000Y750000D01*
X17750000Y500000D02*
X18000000Y750000D01*
X17000000Y-750000D02*
X18000000Y-750000D01*
X17250000Y-1000000D02*
X17000000Y-750000D01*
X17000000Y-750000D02*
X17250000Y-1000000D01*
X17000000Y-750000D02*
X17250000Y-500000D01*
X5250000Y-24500000D02*
X5250000Y-17000000D01*
X4600000Y4500000D02*
X2750000Y4500000D01*
X13750000Y-3750000D02*
X2750000Y-3750000D01*
X5250000Y-17000000D02*
X13750000Y-8500000D01*
X52500000Y6750000D02*
X50500000Y4750000D01*
X52500000Y11250000D02*
X52500000Y6750000D01*
X35500000Y4500000D02*
X35500000Y11250000D01*
X13750000Y4500000D02*
X35500000Y4500000D01*
X7400000Y4500000D02*
X13750000Y4500000D01*
X13750000Y4500000D02*
X13750000Y-8500000D01*
X35500000Y2250000D02*
X50500000Y2250000D01*
X35500000Y4500000D02*
X35500000Y2250000D01*
D11*
X58436904Y7800000D02*
X58436904Y7952380D01*
X58398809Y8028571D01*
X58360714Y8066666D01*
X58246428Y8142857D01*
X58094047Y8180952D01*
X57789285Y8180952D01*
X57713095Y8142857D01*
X57675000Y8104761D01*
X57636904Y8028571D01*
X57636904Y7876190D01*
X57675000Y7800000D01*
X57713095Y7761904D01*
X57789285Y7723809D01*
X57979761Y7723809D01*
X58055952Y7761904D01*
X58094047Y7800000D01*
X58132142Y7876190D01*
X58132142Y8028571D01*
X58094047Y8104761D01*
X58055952Y8142857D01*
X57979761Y8180952D01*
X57636904Y8409523D02*
X58436904Y8676190D01*
X57636904Y8942857D01*
X58132142Y9209523D02*
X58132142Y9819047D01*
X58436904Y10619047D02*
X58436904Y10161904D01*
X58436904Y10390476D02*
X57636904Y10390476D01*
X57751190Y10314285D01*
X57827380Y10238095D01*
X57865476Y10161904D01*
X57713095Y10923809D02*
X57675000Y10961904D01*
X57636904Y11038095D01*
X57636904Y11228571D01*
X57675000Y11304761D01*
X57713095Y11342857D01*
X57789285Y11380952D01*
X57865476Y11380952D01*
X57979761Y11342857D01*
X58436904Y10885714D01*
X58436904Y11380952D01*
X57636904Y11609523D02*
X58436904Y11876190D01*
X57636904Y12142857D01*
X59786904Y8733333D02*
X58986904Y8733333D01*
X58986904Y8923809D01*
X59025000Y9038095D01*
X59101190Y9114285D01*
X59177380Y9152380D01*
X59329761Y9190476D01*
X59444047Y9190476D01*
X59596428Y9152380D01*
X59672619Y9114285D01*
X59748809Y9038095D01*
X59786904Y8923809D01*
X59786904Y8733333D01*
X59710714Y9990476D02*
X59748809Y9952380D01*
X59786904Y9838095D01*
X59786904Y9761904D01*
X59748809Y9647619D01*
X59672619Y9571428D01*
X59596428Y9533333D01*
X59444047Y9495238D01*
X59329761Y9495238D01*
X59177380Y9533333D01*
X59101190Y9571428D01*
X59025000Y9647619D01*
X58986904Y9761904D01*
X58986904Y9838095D01*
X59025000Y9952380D01*
X59063095Y9990476D01*
X59786904Y10942857D02*
X58986904Y10942857D01*
X59253571Y11323809D02*
X59786904Y11323809D01*
X59329761Y11323809D02*
X59291666Y11361904D01*
X59253571Y11438095D01*
X59253571Y11552380D01*
X59291666Y11628571D01*
X59367857Y11666666D01*
X59786904Y11666666D01*
D12*
X56250000Y-12500000D02*
G75*
G03*
X56250000Y-12500000I-2000000J0D01*
G01*
X56250000Y-20500000D02*
G75*
G03*
X56250000Y-20500000I-2000000J0D01*
G01*
D11*
X58388095Y-21547619D02*
X58350000Y-21509523D01*
X58311904Y-21433333D01*
X58311904Y-21242857D01*
X58350000Y-21166666D01*
X58388095Y-21128571D01*
X58464285Y-21090476D01*
X58540476Y-21090476D01*
X58654761Y-21128571D01*
X59111904Y-21585714D01*
X59111904Y-21090476D01*
X59073809Y-20785714D02*
X59111904Y-20671428D01*
X59111904Y-20480952D01*
X59073809Y-20404761D01*
X59035714Y-20366666D01*
X58959523Y-20328571D01*
X58883333Y-20328571D01*
X58807142Y-20366666D01*
X58769047Y-20404761D01*
X58730952Y-20480952D01*
X58692857Y-20633333D01*
X58654761Y-20709523D01*
X58616666Y-20747619D01*
X58540476Y-20785714D01*
X58464285Y-20785714D01*
X58388095Y-20747619D01*
X58350000Y-20709523D01*
X58311904Y-20633333D01*
X58311904Y-20442857D01*
X58350000Y-20328571D01*
X58807142Y-19985714D02*
X58807142Y-19376190D01*
X58311904Y-19071428D02*
X58311904Y-18576190D01*
X58616666Y-18842857D01*
X58616666Y-18728571D01*
X58654761Y-18652380D01*
X58692857Y-18614285D01*
X58769047Y-18576190D01*
X58959523Y-18576190D01*
X59035714Y-18614285D01*
X59073809Y-18652380D01*
X59111904Y-18728571D01*
X59111904Y-18957142D01*
X59073809Y-19033333D01*
X59035714Y-19071428D01*
X59073809Y-18271428D02*
X59111904Y-18157142D01*
X59111904Y-17966666D01*
X59073809Y-17890476D01*
X59035714Y-17852380D01*
X58959523Y-17814285D01*
X58883333Y-17814285D01*
X58807142Y-17852380D01*
X58769047Y-17890476D01*
X58730952Y-17966666D01*
X58692857Y-18119047D01*
X58654761Y-18195238D01*
X58616666Y-18233333D01*
X58540476Y-18271428D01*
X58464285Y-18271428D01*
X58388095Y-18233333D01*
X58350000Y-18195238D01*
X58311904Y-18119047D01*
X58311904Y-17928571D01*
X58350000Y-17814285D01*
X59111904Y-16480952D02*
X59111904Y-16861904D01*
X58311904Y-16861904D01*
X59111904Y-16214285D02*
X58578571Y-16214285D01*
X58311904Y-16214285D02*
X58350000Y-16252380D01*
X58388095Y-16214285D01*
X58350000Y-16176190D01*
X58311904Y-16214285D01*
X58388095Y-16214285D01*
X59111904Y-15833333D02*
X58311904Y-15833333D01*
X58311904Y-15528571D01*
X58350000Y-15452380D01*
X58388095Y-15414285D01*
X58464285Y-15376190D01*
X58578571Y-15376190D01*
X58654761Y-15414285D01*
X58692857Y-15452380D01*
X58730952Y-15528571D01*
X58730952Y-15833333D01*
X59111904Y-14919047D02*
X59073809Y-14995238D01*
X59035714Y-15033333D01*
X58959523Y-15071428D01*
X58730952Y-15071428D01*
X58654761Y-15033333D01*
X58616666Y-14995238D01*
X58578571Y-14919047D01*
X58578571Y-14804761D01*
X58616666Y-14728571D01*
X58654761Y-14690476D01*
X58730952Y-14652380D01*
X58959523Y-14652380D01*
X59035714Y-14690476D01*
X59073809Y-14728571D01*
X59111904Y-14804761D01*
X59111904Y-14919047D01*
X58311904Y-13547619D02*
X58311904Y-13395238D01*
X58350000Y-13319047D01*
X58426190Y-13242857D01*
X58578571Y-13204761D01*
X58845238Y-13204761D01*
X58997619Y-13242857D01*
X59073809Y-13319047D01*
X59111904Y-13395238D01*
X59111904Y-13547619D01*
X59073809Y-13623809D01*
X58997619Y-13700000D01*
X58845238Y-13738095D01*
X58578571Y-13738095D01*
X58426190Y-13700000D01*
X58350000Y-13623809D01*
X58311904Y-13547619D01*
X58578571Y-12861904D02*
X59111904Y-12861904D01*
X58654761Y-12861904D02*
X58616666Y-12823809D01*
X58578571Y-12747619D01*
X58578571Y-12633333D01*
X58616666Y-12557142D01*
X58692857Y-12519047D01*
X59111904Y-12519047D01*
X59111904Y-12023809D02*
X59073809Y-12100000D01*
X58997619Y-12138095D01*
X58311904Y-12138095D01*
X58578571Y-11795238D02*
X59111904Y-11604761D01*
X58578571Y-11414285D02*
X59111904Y-11604761D01*
X59302380Y-11680952D01*
X59340476Y-11719047D01*
X59378571Y-11795238D01*
D12*
X54250000Y-11500000D02*
X54250000Y-13500000D01*
X54250000Y-19500000D02*
X54250000Y-21500000D01*
X53250000Y-20500000D02*
X55250000Y-20500000D01*
D11*
X10130505Y-3057142D02*
X10740029Y-3057142D01*
X10397172Y-3361904D02*
X10473363Y-2752380D01*
X11106696Y-2561904D02*
X11601934Y-2561904D01*
X11297172Y-2866666D01*
X11411458Y-2866666D01*
X11482886Y-2904761D01*
X11516220Y-2942857D01*
X11544791Y-3019047D01*
X11520982Y-3209523D01*
X11473363Y-3285714D01*
X11430505Y-3323809D01*
X11349553Y-3361904D01*
X11120982Y-3361904D01*
X11049553Y-3323809D01*
X11016220Y-3285714D01*
X11854315Y-3285714D02*
X11887648Y-3323809D01*
X11844791Y-3361904D01*
X11811458Y-3323809D01*
X11854315Y-3285714D01*
X11844791Y-3361904D01*
X12249553Y-2561904D02*
X12744791Y-2561904D01*
X12440029Y-2866666D01*
X12554315Y-2866666D01*
X12625744Y-2904761D01*
X12659077Y-2942857D01*
X12687648Y-3019047D01*
X12663839Y-3209523D01*
X12616220Y-3285714D01*
X12573363Y-3323809D01*
X12492410Y-3361904D01*
X12263839Y-3361904D01*
X12192410Y-3323809D01*
X12159077Y-3285714D01*
X12973363Y-2561904D02*
X13140029Y-3361904D01*
X13506696Y-2561904D01*
X28109077Y5342857D02*
X28718601Y5342857D01*
X28375744Y5038095D02*
X28451934Y5647619D01*
X29542410Y5838095D02*
X29161458Y5838095D01*
X29075744Y5457142D01*
X29118601Y5495238D01*
X29199553Y5533333D01*
X29390029Y5533333D01*
X29461458Y5495238D01*
X29494791Y5457142D01*
X29523363Y5380952D01*
X29499553Y5190476D01*
X29451934Y5114285D01*
X29409077Y5076190D01*
X29328125Y5038095D01*
X29137648Y5038095D01*
X29066220Y5076190D01*
X29032886Y5114285D01*
X29809077Y5838095D02*
X29975744Y5038095D01*
X30342410Y5838095D01*
X31437648Y5457142D02*
X31547172Y5419047D01*
X31580505Y5380952D01*
X31609077Y5304761D01*
X31594791Y5190476D01*
X31547172Y5114285D01*
X31504315Y5076190D01*
X31423363Y5038095D01*
X31118601Y5038095D01*
X31218601Y5838095D01*
X31485267Y5838095D01*
X31556696Y5800000D01*
X31590029Y5761904D01*
X31618601Y5685714D01*
X31609077Y5609523D01*
X31561458Y5533333D01*
X31518601Y5495238D01*
X31437648Y5457142D01*
X31170982Y5457142D01*
X32261458Y5038095D02*
X32313839Y5457142D01*
X32285267Y5533333D01*
X32213839Y5571428D01*
X32061458Y5571428D01*
X31980505Y5533333D01*
X32266220Y5076190D02*
X32185267Y5038095D01*
X31994791Y5038095D01*
X31923363Y5076190D01*
X31894791Y5152380D01*
X31904315Y5228571D01*
X31951934Y5304761D01*
X32032886Y5342857D01*
X32223363Y5342857D01*
X32304315Y5380952D01*
X32990029Y5076190D02*
X32909077Y5038095D01*
X32756696Y5038095D01*
X32685267Y5076190D01*
X32651934Y5114285D01*
X32623363Y5190476D01*
X32651934Y5419047D01*
X32699553Y5495238D01*
X32742410Y5533333D01*
X32823363Y5571428D01*
X32975744Y5571428D01*
X33047172Y5533333D01*
X33328125Y5038095D02*
X33428125Y5838095D01*
X33442410Y5342857D02*
X33632886Y5038095D01*
X33699553Y5571428D02*
X33356696Y5266666D01*
X34385267Y5571428D02*
X34318601Y5038095D01*
X34042410Y5571428D02*
X33990029Y5152380D01*
X34018601Y5076190D01*
X34090029Y5038095D01*
X34204315Y5038095D01*
X34285267Y5076190D01*
X34328125Y5114285D01*
X34766220Y5571428D02*
X34666220Y4771428D01*
X34761458Y5533333D02*
X34842410Y5571428D01*
X34994791Y5571428D01*
X35066220Y5533333D01*
X35099553Y5495238D01*
X35128125Y5419047D01*
X35099553Y5190476D01*
X35051934Y5114285D01*
X35009077Y5076190D01*
X34928125Y5038095D01*
X34775744Y5038095D01*
X34704315Y5076190D01*
D10*
X20250000Y-24500000D02*
X5250000Y-24500000D01*
D11*
X13111785Y-23692857D02*
X12845119Y-23692857D01*
X12792738Y-24111904D02*
X12892738Y-23311904D01*
X13273690Y-23311904D01*
X13887976Y-23578571D02*
X13821309Y-24111904D01*
X13545119Y-23578571D02*
X13492738Y-23997619D01*
X13521309Y-24073809D01*
X13592738Y-24111904D01*
X13707023Y-24111904D01*
X13787976Y-24073809D01*
X13830833Y-24035714D01*
X14511785Y-24073809D02*
X14430833Y-24111904D01*
X14278452Y-24111904D01*
X14207023Y-24073809D01*
X14178452Y-23997619D01*
X14216547Y-23692857D01*
X14264166Y-23616666D01*
X14345119Y-23578571D01*
X14497500Y-23578571D01*
X14568928Y-23616666D01*
X14597500Y-23692857D01*
X14587976Y-23769047D01*
X14197500Y-23845238D01*
X15002261Y-24111904D02*
X14930833Y-24073809D01*
X14902261Y-23997619D01*
X14987976Y-23311904D01*
X16430833Y-23350000D02*
X16359404Y-23311904D01*
X16245119Y-23311904D01*
X16126071Y-23350000D01*
X16040357Y-23426190D01*
X15992738Y-23502380D01*
X15935595Y-23654761D01*
X15921309Y-23769047D01*
X15940357Y-23921428D01*
X15968928Y-23997619D01*
X16035595Y-24073809D01*
X16145119Y-24111904D01*
X16221309Y-24111904D01*
X16340357Y-24073809D01*
X16383214Y-24035714D01*
X16416547Y-23769047D01*
X16264166Y-23769047D01*
X17059404Y-24111904D02*
X17111785Y-23692857D01*
X17083214Y-23616666D01*
X17011785Y-23578571D01*
X16859404Y-23578571D01*
X16778452Y-23616666D01*
X17064166Y-24073809D02*
X16983214Y-24111904D01*
X16792738Y-24111904D01*
X16721309Y-24073809D01*
X16692738Y-23997619D01*
X16702261Y-23921428D01*
X16749880Y-23845238D01*
X16830833Y-23807142D01*
X17021309Y-23807142D01*
X17102261Y-23769047D01*
X17849880Y-23578571D02*
X17783214Y-24111904D01*
X17507023Y-23578571D02*
X17454642Y-23997619D01*
X17483214Y-24073809D01*
X17554642Y-24111904D01*
X17668928Y-24111904D01*
X17749880Y-24073809D01*
X17792738Y-24035714D01*
X18573690Y-23578571D02*
X18492738Y-24226190D01*
X18445119Y-24302380D01*
X18402261Y-24340476D01*
X18321309Y-24378571D01*
X18207023Y-24378571D01*
X18135595Y-24340476D01*
X18511785Y-24073809D02*
X18430833Y-24111904D01*
X18278452Y-24111904D01*
X18207023Y-24073809D01*
X18173690Y-24035714D01*
X18145119Y-23959523D01*
X18173690Y-23730952D01*
X18221309Y-23654761D01*
X18264166Y-23616666D01*
X18345119Y-23578571D01*
X18497500Y-23578571D01*
X18568928Y-23616666D01*
X19197500Y-24073809D02*
X19116547Y-24111904D01*
X18964166Y-24111904D01*
X18892738Y-24073809D01*
X18864166Y-23997619D01*
X18902261Y-23692857D01*
X18949880Y-23616666D01*
X19030833Y-23578571D01*
X19183214Y-23578571D01*
X19254642Y-23616666D01*
X19283214Y-23692857D01*
X19273690Y-23769047D01*
X18883214Y-23845238D01*
D10*
X16000000Y-8500000D02*
X13750000Y-8500000D01*
D11*
X50080833Y10692857D02*
X50690357Y10692857D01*
X50347500Y10388095D02*
X50423690Y10997619D01*
X51514166Y11188095D02*
X51133214Y11188095D01*
X51047500Y10807142D01*
X51090357Y10845238D01*
X51171309Y10883333D01*
X51361785Y10883333D01*
X51433214Y10845238D01*
X51466547Y10807142D01*
X51495119Y10730952D01*
X51471309Y10540476D01*
X51423690Y10464285D01*
X51380833Y10426190D01*
X51299880Y10388095D01*
X51109404Y10388095D01*
X51037976Y10426190D01*
X51004642Y10464285D01*
X51780833Y11188095D02*
X51947500Y10388095D01*
X52314166Y11188095D01*
X58292738Y-8111904D02*
X58392738Y-7311904D01*
X58697500Y-7311904D01*
X58768928Y-7350000D01*
X58802261Y-7388095D01*
X58830833Y-7464285D01*
X58816547Y-7578571D01*
X58768928Y-7654761D01*
X58726071Y-7692857D01*
X58645119Y-7730952D01*
X58340357Y-7730952D01*
X59207023Y-8111904D02*
X59135595Y-8073809D01*
X59102261Y-8035714D01*
X59073690Y-7959523D01*
X59102261Y-7730952D01*
X59149880Y-7654761D01*
X59192738Y-7616666D01*
X59273690Y-7578571D01*
X59387976Y-7578571D01*
X59459404Y-7616666D01*
X59492738Y-7654761D01*
X59521309Y-7730952D01*
X59492738Y-7959523D01*
X59445119Y-8035714D01*
X59402261Y-8073809D01*
X59321309Y-8111904D01*
X59207023Y-8111904D01*
X59807023Y-7578571D02*
X59892738Y-8111904D01*
X60092738Y-7730952D01*
X60197500Y-8111904D01*
X60416547Y-7578571D01*
X60964166Y-8073809D02*
X60883214Y-8111904D01*
X60730833Y-8111904D01*
X60659404Y-8073809D01*
X60630833Y-7997619D01*
X60668928Y-7692857D01*
X60716547Y-7616666D01*
X60797500Y-7578571D01*
X60949880Y-7578571D01*
X61021309Y-7616666D01*
X61049880Y-7692857D01*
X61040357Y-7769047D01*
X60649880Y-7845238D01*
X61340357Y-8111904D02*
X61407023Y-7578571D01*
X61387976Y-7730952D02*
X61435595Y-7654761D01*
X61478452Y-7616666D01*
X61559404Y-7578571D01*
X61635595Y-7578571D01*
X62445119Y-8111904D02*
X62545119Y-7311904D01*
X62740357Y-7883333D01*
X63078452Y-7311904D01*
X62978452Y-8111904D01*
X63768928Y-7578571D02*
X63702261Y-8111904D01*
X63426071Y-7578571D02*
X63373690Y-7997619D01*
X63402261Y-8073809D01*
X63473690Y-8111904D01*
X63587976Y-8111904D01*
X63668928Y-8073809D01*
X63711785Y-8035714D01*
X64007023Y-8111904D02*
X64492738Y-7578571D01*
X64073690Y-7578571D02*
X64426071Y-8111904D01*
D10*
X50250000Y-8500000D02*
X64500000Y-8500000D01*
X60750000Y6750000D02*
X64500000Y6750000D01*
X52500000Y6750000D02*
X60750000Y6750000D01*
D11*
X46080833Y-7807142D02*
X46690357Y-7807142D01*
X46347500Y-8111904D02*
X46423690Y-7502380D01*
X47085595Y-7388095D02*
X47128452Y-7350000D01*
X47209404Y-7311904D01*
X47399880Y-7311904D01*
X47471309Y-7350000D01*
X47504642Y-7388095D01*
X47533214Y-7464285D01*
X47523690Y-7540476D01*
X47471309Y-7654761D01*
X46957023Y-8111904D01*
X47452261Y-8111904D01*
X47833214Y-8111904D02*
X47985595Y-8111904D01*
X48066547Y-8073809D01*
X48109404Y-8035714D01*
X48199880Y-7921428D01*
X48257023Y-7769047D01*
X48295119Y-7464285D01*
X48266547Y-7388095D01*
X48233214Y-7350000D01*
X48161785Y-7311904D01*
X48009404Y-7311904D01*
X47928452Y-7350000D01*
X47885595Y-7388095D01*
X47837976Y-7464285D01*
X47814166Y-7654761D01*
X47842738Y-7730952D01*
X47876071Y-7769047D01*
X47947500Y-7807142D01*
X48099880Y-7807142D01*
X48180833Y-7769047D01*
X48223690Y-7730952D01*
X48271309Y-7654761D01*
X48566547Y-8035714D02*
X48599880Y-8073809D01*
X48557023Y-8111904D01*
X48523690Y-8073809D01*
X48566547Y-8035714D01*
X48557023Y-8111904D01*
X49418928Y-7311904D02*
X49037976Y-7311904D01*
X48952261Y-7692857D01*
X48995119Y-7654761D01*
X49076071Y-7616666D01*
X49266547Y-7616666D01*
X49337976Y-7654761D01*
X49371309Y-7692857D01*
X49399880Y-7769047D01*
X49376071Y-7959523D01*
X49328452Y-8035714D01*
X49285595Y-8073809D01*
X49204642Y-8111904D01*
X49014166Y-8111904D01*
X48942738Y-8073809D01*
X48909404Y-8035714D01*
X49685595Y-7311904D02*
X49852261Y-8111904D01*
X50218928Y-7311904D01*
D10*
X15750000Y-8500000D02*
X20000000Y-8500000D01*
X50250000Y-8500000D02*
X48500000Y-8500000D01*
X50500000Y4750000D02*
X50500000Y-8500000D01*
D13*
G36*
X32429667Y-25522798D02*
G01*
X32469266Y-25522956D01*
X32503758Y-25523281D01*
X32534215Y-25523824D01*
X32561714Y-25524634D01*
X32587328Y-25525763D01*
X32612131Y-25527261D01*
X32637199Y-25529178D01*
X32663605Y-25531565D01*
X32692424Y-25534473D01*
X32724730Y-25537951D01*
X32737671Y-25539381D01*
X32884403Y-25559281D01*
X33029518Y-25586176D01*
X33172777Y-25619951D01*
X33313939Y-25660487D01*
X33452765Y-25707670D01*
X33589014Y-25761382D01*
X33722448Y-25821507D01*
X33852825Y-25887929D01*
X33979905Y-25960531D01*
X34103450Y-26039196D01*
X34223219Y-26123809D01*
X34338972Y-26214253D01*
X34450470Y-26310411D01*
X34557471Y-26412167D01*
X34577388Y-26432240D01*
X34674904Y-26535751D01*
X34765729Y-26641181D01*
X34850310Y-26749160D01*
X34929098Y-26860317D01*
X35002542Y-26975283D01*
X35071092Y-27094688D01*
X35127156Y-27202785D01*
X35186607Y-27330624D01*
X35239900Y-27461107D01*
X35286802Y-27593544D01*
X35327079Y-27727246D01*
X35360499Y-27861521D01*
X35377858Y-27945726D01*
X35390064Y-28010123D01*
X35413696Y-28017829D01*
X35441340Y-28027462D01*
X35473237Y-28039595D01*
X35507223Y-28053339D01*
X35541136Y-28067806D01*
X35572811Y-28082106D01*
X35589728Y-28090181D01*
X35641503Y-28116851D01*
X35687349Y-28143433D01*
X35728532Y-28170790D01*
X35766318Y-28199788D01*
X35801972Y-28231289D01*
X35815253Y-28244123D01*
X35849700Y-28280831D01*
X35877881Y-28316965D01*
X35900558Y-28353768D01*
X35918490Y-28392487D01*
X35932437Y-28434368D01*
X35933346Y-28437677D01*
X35937641Y-28459493D01*
X35940426Y-28486210D01*
X35941681Y-28515629D01*
X35941385Y-28545550D01*
X35939517Y-28573771D01*
X35936055Y-28598093D01*
X35934914Y-28603414D01*
X35918462Y-28659212D01*
X35895152Y-28715115D01*
X35864945Y-28771168D01*
X35827802Y-28827413D01*
X35783685Y-28883894D01*
X35732555Y-28940656D01*
X35674373Y-28997740D01*
X35609100Y-29055191D01*
X35536698Y-29113053D01*
X35457129Y-29171368D01*
X35387855Y-29218661D01*
X35332670Y-29255236D01*
X35313571Y-29321210D01*
X35270822Y-29456011D01*
X35221127Y-29589274D01*
X35164720Y-29720518D01*
X35101836Y-29849261D01*
X35032708Y-29975021D01*
X34957570Y-30097315D01*
X34883971Y-30205465D01*
X34795310Y-30323445D01*
X34701161Y-30436749D01*
X34601724Y-30545209D01*
X34497196Y-30648655D01*
X34387779Y-30746918D01*
X34273671Y-30839831D01*
X34155072Y-30927225D01*
X34032182Y-31008929D01*
X33905199Y-31084777D01*
X33774323Y-31154599D01*
X33744600Y-31169344D01*
X33610878Y-31230767D01*
X33474140Y-31285702D01*
X33334773Y-31334061D01*
X33193165Y-31375757D01*
X33049704Y-31410701D01*
X32904777Y-31438804D01*
X32758771Y-31459979D01*
X32612076Y-31474137D01*
X32465077Y-31481190D01*
X32371186Y-31481936D01*
X32345663Y-31481701D01*
X32321106Y-31481408D01*
X32298944Y-31481078D01*
X32280611Y-31480735D01*
X32267538Y-31480400D01*
X32264143Y-31480275D01*
X32110805Y-31470239D01*
X31959987Y-31453401D01*
X31811657Y-31429750D01*
X31665783Y-31399278D01*
X31522335Y-31361977D01*
X31381282Y-31317837D01*
X31242592Y-31266849D01*
X31106235Y-31209004D01*
X30972178Y-31144294D01*
X30842021Y-31073644D01*
X30717802Y-30998442D01*
X30597809Y-30917671D01*
X30481684Y-30831059D01*
X30369068Y-30738334D01*
X30259602Y-30639224D01*
X30223956Y-30604921D01*
X30205209Y-30586403D01*
X30190191Y-30571163D01*
X30179078Y-30559440D01*
X30172043Y-30551475D01*
X30169260Y-30547507D01*
X30170904Y-30547777D01*
X30177148Y-30552525D01*
X30188166Y-30561991D01*
X30201621Y-30574114D01*
X30294360Y-30656273D01*
X30386104Y-30732134D01*
X30477829Y-30802379D01*
X30570515Y-30867695D01*
X30665137Y-30928766D01*
X30762676Y-30986275D01*
X30864107Y-31040909D01*
X30879843Y-31048962D01*
X31003254Y-31108337D01*
X31127659Y-31161409D01*
X31253605Y-31208329D01*
X31381638Y-31249252D01*
X31512305Y-31284330D01*
X31646154Y-31313717D01*
X31783731Y-31337566D01*
X31925585Y-31356030D01*
X32002886Y-31363703D01*
X32024542Y-31365186D01*
X32052393Y-31366395D01*
X32085380Y-31367336D01*
X32122445Y-31368013D01*
X32162530Y-31368429D01*
X32204578Y-31368589D01*
X32247531Y-31368498D01*
X32290329Y-31368158D01*
X32331917Y-31367575D01*
X32371236Y-31366753D01*
X32407227Y-31365696D01*
X32438834Y-31364407D01*
X32464998Y-31362892D01*
X32478228Y-31361821D01*
X32622278Y-31345399D01*
X32761849Y-31323592D01*
X32897494Y-31296245D01*
X33029765Y-31263205D01*
X33159214Y-31224316D01*
X33286394Y-31179425D01*
X33411856Y-31128377D01*
X33536154Y-31071017D01*
X33559543Y-31059463D01*
X33688796Y-30990934D01*
X33814030Y-30916427D01*
X33935070Y-30836084D01*
X34051747Y-30750049D01*
X34163886Y-30658466D01*
X34271318Y-30561478D01*
X34373869Y-30459227D01*
X34471369Y-30351859D01*
X34563644Y-30239516D01*
X34600777Y-30190914D01*
X34682290Y-30076166D01*
X34757601Y-29958199D01*
X34826915Y-29836633D01*
X34890438Y-29711089D01*
X34948375Y-29581189D01*
X34993055Y-29467945D01*
X35003514Y-29439848D01*
X34955850Y-29463732D01*
X34863031Y-29508799D01*
X34763709Y-29554279D01*
X34658604Y-29599882D01*
X34548438Y-29645318D01*
X34433929Y-29690295D01*
X34315799Y-29734522D01*
X34194767Y-29777709D01*
X34089314Y-29813661D01*
X34003309Y-29841995D01*
X33920774Y-29868405D01*
X33840244Y-29893316D01*
X33760257Y-29917154D01*
X33679349Y-29940345D01*
X33596058Y-29963313D01*
X33508920Y-29986484D01*
X33416471Y-30010285D01*
X33390814Y-30016772D01*
X33220271Y-30059741D01*
X33217703Y-30077249D01*
X33216504Y-30086788D01*
X33214841Y-30101905D01*
X33212884Y-30120950D01*
X33210804Y-30142272D01*
X33209448Y-30156788D01*
X33197420Y-30261105D01*
X33180836Y-30362285D01*
X33179955Y-30366900D01*
X33176427Y-30384429D01*
X33171975Y-30405311D01*
X33166867Y-30428407D01*
X33161372Y-30452578D01*
X33155759Y-30476684D01*
X33150297Y-30499588D01*
X33145256Y-30520148D01*
X33140902Y-30537227D01*
X33137507Y-30549684D01*
X33135338Y-30556382D01*
X33135112Y-30556863D01*
X33134170Y-30554996D01*
X33133104Y-30546889D01*
X33131997Y-30533555D01*
X33130933Y-30516008D01*
X33129994Y-30495261D01*
X33129922Y-30493363D01*
X33123581Y-30388127D01*
X33112614Y-30285865D01*
X33097165Y-30187865D01*
X33092974Y-30165969D01*
X33088043Y-30141230D01*
X33084191Y-30122743D01*
X33081098Y-30109638D01*
X33078446Y-30101043D01*
X33075917Y-30096090D01*
X33073192Y-30093907D01*
X33069953Y-30093625D01*
X33066715Y-30094197D01*
X33040722Y-30099671D01*
X33011026Y-30105864D01*
X32978729Y-30112552D01*
X32944931Y-30119509D01*
X32910732Y-30126512D01*
X32877233Y-30133337D01*
X32845535Y-30139759D01*
X32816738Y-30145554D01*
X32791942Y-30150497D01*
X32772248Y-30154365D01*
X32760687Y-30156575D01*
X32707502Y-30166506D01*
X32675856Y-30232231D01*
X32666237Y-30251911D01*
X32657667Y-30268881D01*
X32650629Y-30282229D01*
X32645607Y-30291046D01*
X32643084Y-30294419D01*
X32642907Y-30294328D01*
X32643395Y-30289773D01*
X32645575Y-30279482D01*
X32649151Y-30264698D01*
X32653826Y-30246665D01*
X32657620Y-30232677D01*
X32662898Y-30213354D01*
X32667350Y-30196664D01*
X32670674Y-30183776D01*
X32672566Y-30175858D01*
X32672869Y-30173888D01*
X32669228Y-30174227D01*
X32659674Y-30175662D01*
X32645435Y-30177994D01*
X32627739Y-30181026D01*
X32615986Y-30183094D01*
X32559871Y-30193068D01*
X32548893Y-30245513D01*
X32537915Y-30297957D01*
X32470879Y-30437310D01*
X32456721Y-30466561D01*
X32443529Y-30493463D01*
X32431628Y-30517381D01*
X32421344Y-30537678D01*
X32413001Y-30553718D01*
X32406923Y-30564864D01*
X32403436Y-30570480D01*
X32402719Y-30570918D01*
X32402769Y-30566035D01*
X32403426Y-30554817D01*
X32404622Y-30538153D01*
X32406288Y-30516933D01*
X32408355Y-30492048D01*
X32410753Y-30464386D01*
X32412554Y-30444264D01*
X32416902Y-30396008D01*
X32420578Y-30354553D01*
X32423613Y-30319479D01*
X32426039Y-30290365D01*
X32427888Y-30266790D01*
X32429192Y-30248333D01*
X32429981Y-30234572D01*
X32430288Y-30225087D01*
X32430145Y-30219457D01*
X32429613Y-30217289D01*
X32425574Y-30217215D01*
X32415367Y-30218155D01*
X32399993Y-30219983D01*
X32380453Y-30222575D01*
X32357747Y-30225807D01*
X32339444Y-30228544D01*
X32312748Y-30232578D01*
X32286370Y-30236498D01*
X32261832Y-30240082D01*
X32240651Y-30243109D01*
X32224346Y-30245359D01*
X32218393Y-30246136D01*
X32202460Y-30248373D01*
X32192610Y-30250436D01*
X32187687Y-30252684D01*
X32186536Y-30255473D01*
X32186623Y-30255989D01*
X32187826Y-30261026D01*
X32190499Y-30272035D01*
X32194380Y-30287941D01*
X32199204Y-30307670D01*
X32204711Y-30330146D01*
X32207880Y-30343062D01*
X32213580Y-30366457D01*
X32218646Y-30387585D01*
X32222834Y-30405395D01*
X32225899Y-30418840D01*
X32227596Y-30426872D01*
X32227857Y-30428606D01*
X32225747Y-30433303D01*
X32220175Y-30441884D01*
X32212278Y-30452617D01*
X32211000Y-30454258D01*
X32186825Y-30487132D01*
X32161704Y-30524970D01*
X32136803Y-30565795D01*
X32113288Y-30607628D01*
X32092325Y-30648490D01*
X32077476Y-30680771D01*
X32067310Y-30704357D01*
X32047655Y-30646300D01*
X32031597Y-30598126D01*
X32014720Y-30546162D01*
X31997740Y-30492676D01*
X31981372Y-30439935D01*
X31966329Y-30390209D01*
X31957329Y-30359643D01*
X31950923Y-30337803D01*
X31945101Y-30318359D01*
X31940193Y-30302382D01*
X31936531Y-30290940D01*
X31934444Y-30285105D01*
X31934187Y-30284622D01*
X31930250Y-30284309D01*
X31920754Y-30284714D01*
X31907346Y-30285678D01*
X31891671Y-30287042D01*
X31875376Y-30288645D01*
X31860106Y-30290329D01*
X31847507Y-30291935D01*
X31839225Y-30293303D01*
X31836860Y-30294048D01*
X31835576Y-30298014D01*
X31833072Y-30307996D01*
X31829586Y-30322903D01*
X31825357Y-30341642D01*
X31820621Y-30363119D01*
X31815617Y-30386244D01*
X31810582Y-30409922D01*
X31805753Y-30433061D01*
X31801369Y-30454570D01*
X31797667Y-30473355D01*
X31796339Y-30480345D01*
X31791884Y-30505026D01*
X31786934Y-30533847D01*
X31781998Y-30563764D01*
X31777586Y-30591729D01*
X31776214Y-30600798D01*
X31766766Y-30664153D01*
X31746033Y-30682066D01*
X31728312Y-30698119D01*
X31707416Y-30718237D01*
X31684777Y-30740933D01*
X31661830Y-30764723D01*
X31640005Y-30788122D01*
X31620737Y-30809644D01*
X31605557Y-30827681D01*
X31593732Y-30843023D01*
X31579644Y-30862239D01*
X31564285Y-30883882D01*
X31548644Y-30906508D01*
X31533713Y-30928672D01*
X31520482Y-30948927D01*
X31509941Y-30965828D01*
X31504751Y-30974786D01*
X31500220Y-30981997D01*
X31497109Y-30985087D01*
X31496731Y-30984997D01*
X31495623Y-30980513D01*
X31494303Y-30969545D01*
X31492814Y-30952863D01*
X31491202Y-30931236D01*
X31489511Y-30905434D01*
X31487785Y-30876225D01*
X31486069Y-30844379D01*
X31484407Y-30810664D01*
X31482845Y-30775851D01*
X31481426Y-30740708D01*
X31480195Y-30706004D01*
X31479742Y-30691657D01*
X31478073Y-30624009D01*
X31477360Y-30561582D01*
X31477596Y-30502402D01*
X31478776Y-30444497D01*
X31478977Y-30437657D01*
X31479821Y-30409680D01*
X31480584Y-30384169D01*
X31481238Y-30361990D01*
X31481760Y-30344011D01*
X31482123Y-30331100D01*
X31482302Y-30324123D01*
X31482315Y-30323128D01*
X31478833Y-30323267D01*
X31469193Y-30323787D01*
X31454482Y-30324628D01*
X31435784Y-30325725D01*
X31414186Y-30327018D01*
X31409614Y-30327295D01*
X31286641Y-30333693D01*
X31161411Y-30338181D01*
X31035293Y-30340761D01*
X30909655Y-30341433D01*
X30785866Y-30340197D01*
X30665294Y-30337054D01*
X30549307Y-30332006D01*
X30464371Y-30326846D01*
X30340490Y-30316846D01*
X30220854Y-30304241D01*
X30105735Y-30289092D01*
X29995405Y-30271460D01*
X29890134Y-30251408D01*
X29790195Y-30228995D01*
X29695860Y-30204284D01*
X29607401Y-30177336D01*
X29525088Y-30148211D01*
X29449193Y-30116971D01*
X29379989Y-30083678D01*
X29375800Y-30081482D01*
X29313344Y-30045822D01*
X29257474Y-30008174D01*
X29208261Y-29968622D01*
X29165778Y-29927247D01*
X29130098Y-29884133D01*
X29101293Y-29839360D01*
X29079435Y-29793012D01*
X29064596Y-29745172D01*
X29060037Y-29722003D01*
X29057265Y-29694295D01*
X29056832Y-29662388D01*
X29058594Y-29628905D01*
X29062410Y-29596467D01*
X29068137Y-29567696D01*
X29068475Y-29566384D01*
X29086040Y-29512558D01*
X29110717Y-29458101D01*
X29142396Y-29403100D01*
X29180966Y-29347637D01*
X29226318Y-29291798D01*
X29278341Y-29235668D01*
X29336925Y-29179330D01*
X29401961Y-29122868D01*
X29473338Y-29066369D01*
X29550945Y-29009916D01*
X29634674Y-28953593D01*
X29724413Y-28897485D01*
X29820053Y-28841677D01*
X29921483Y-28786253D01*
X30028594Y-28731298D01*
X30141275Y-28676895D01*
X30259417Y-28623130D01*
X30347093Y-28585161D01*
X30368561Y-28575935D01*
X30384078Y-28568932D01*
X30394443Y-28563711D01*
X30400457Y-28559829D01*
X30402917Y-28556845D01*
X30402687Y-28554432D01*
X30400771Y-28552934D01*
X30396231Y-28551309D01*
X30388541Y-28549473D01*
X30377172Y-28547346D01*
X30361595Y-28544846D01*
X30341284Y-28541891D01*
X30315710Y-28538400D01*
X30284344Y-28534291D01*
X30246658Y-28529483D01*
X30216979Y-28525750D01*
X30181424Y-28521277D01*
X30148103Y-28517045D01*
X30117700Y-28513142D01*
X30090898Y-28509659D01*
X30068381Y-28506686D01*
X30050832Y-28504312D01*
X30038936Y-28502626D01*
X30033376Y-28501719D01*
X30033050Y-28501620D01*
X30032964Y-28500980D01*
X30034379Y-28500253D01*
X30037841Y-28499362D01*
X30043897Y-28498230D01*
X30053091Y-28496780D01*
X30065968Y-28494936D01*
X30083075Y-28492620D01*
X30104956Y-28489756D01*
X30132158Y-28486266D01*
X30165225Y-28482074D01*
X30204703Y-28477103D01*
X30224738Y-28474587D01*
X30259580Y-28470200D01*
X30292152Y-28466074D01*
X30321761Y-28462297D01*
X30347714Y-28458959D01*
X30369318Y-28456149D01*
X30385880Y-28453958D01*
X30396707Y-28452475D01*
X30401107Y-28451790D01*
X30401170Y-28451766D01*
X30403036Y-28448371D01*
X30406821Y-28441055D01*
X30407403Y-28439912D01*
X30415878Y-28427379D01*
X30428351Y-28413725D01*
X30442446Y-28401299D01*
X30454976Y-28392877D01*
X30465172Y-28385253D01*
X30469711Y-28375697D01*
X30469858Y-28374902D01*
X30470706Y-28369126D01*
X30472389Y-28356925D01*
X30474805Y-28339071D01*
X30477851Y-28316333D01*
X30481424Y-28289483D01*
X30485421Y-28259292D01*
X30489739Y-28226531D01*
X30493593Y-28197178D01*
X30498068Y-28163244D01*
X30502298Y-28131565D01*
X30506184Y-28102855D01*
X30509627Y-28077833D01*
X30512526Y-28057213D01*
X30514784Y-28041712D01*
X30516299Y-28032046D01*
X30516947Y-28028928D01*
X30517631Y-28028730D01*
X30518376Y-28029867D01*
X30519265Y-28032896D01*
X30520379Y-28038373D01*
X30521801Y-28046855D01*
X30523612Y-28058898D01*
X30525895Y-28075060D01*
X30528732Y-28095897D01*
X30532204Y-28121965D01*
X30536395Y-28153821D01*
X30541385Y-28192022D01*
X30544398Y-28215157D01*
X30548933Y-28249480D01*
X30553297Y-28281546D01*
X30557385Y-28310647D01*
X30561093Y-28336077D01*
X30564314Y-28357129D01*
X30566944Y-28373094D01*
X30568876Y-28383267D01*
X30569999Y-28386938D01*
X30584003Y-28394512D01*
X30599564Y-28406934D01*
X30614965Y-28422570D01*
X30628492Y-28439791D01*
X30633100Y-28446934D01*
X30635047Y-28448494D01*
X30639402Y-28450140D01*
X30646720Y-28451959D01*
X30657558Y-28454038D01*
X30672472Y-28456464D01*
X30692017Y-28459325D01*
X30716749Y-28462706D01*
X30747225Y-28466696D01*
X30784000Y-28471381D01*
X30810900Y-28474759D01*
X30853308Y-28480073D01*
X30889059Y-28484577D01*
X30918696Y-28488351D01*
X30942764Y-28491469D01*
X30961808Y-28494010D01*
X30976373Y-28496050D01*
X30987003Y-28497666D01*
X30994243Y-28498936D01*
X30998638Y-28499936D01*
X31000733Y-28500744D01*
X31001072Y-28501436D01*
X31000921Y-28501625D01*
X30997168Y-28502313D01*
X30986896Y-28503807D01*
X30970790Y-28506019D01*
X30949533Y-28508857D01*
X30923807Y-28512232D01*
X30894297Y-28516053D01*
X30861685Y-28520230D01*
X30826656Y-28524674D01*
X30816879Y-28525906D01*
X30634172Y-28548915D01*
X30627592Y-28561813D01*
X30619434Y-28573770D01*
X30607227Y-28587099D01*
X30593241Y-28599606D01*
X30579749Y-28609095D01*
X30577272Y-28610456D01*
X30569740Y-28615030D01*
X30566047Y-28618605D01*
X30565971Y-28618951D01*
X30565509Y-28623207D01*
X30564200Y-28633792D01*
X30562157Y-28649841D01*
X30559495Y-28670489D01*
X30556327Y-28694873D01*
X30552767Y-28722126D01*
X30548930Y-28751386D01*
X30544930Y-28781787D01*
X30540880Y-28812464D01*
X30536895Y-28842553D01*
X30533089Y-28871191D01*
X30529575Y-28897511D01*
X30526468Y-28920649D01*
X30523882Y-28939742D01*
X30521930Y-28953923D01*
X30520727Y-28962330D01*
X30520474Y-28963920D01*
X30518720Y-28971662D01*
X30517199Y-28974842D01*
X30517021Y-28974774D01*
X30516298Y-28971022D01*
X30514739Y-28960784D01*
X30512441Y-28944771D01*
X30509503Y-28923695D01*
X30506023Y-28898265D01*
X30502099Y-28869193D01*
X30497829Y-28837190D01*
X30493548Y-28804767D01*
X30488999Y-28770230D01*
X30484681Y-28737610D01*
X30480696Y-28707672D01*
X30477147Y-28681180D01*
X30474138Y-28658901D01*
X30471770Y-28641600D01*
X30470147Y-28630042D01*
X30469409Y-28625185D01*
X30464426Y-28614686D01*
X30455922Y-28608493D01*
X30450831Y-28606163D01*
X30446073Y-28605171D01*
X30440223Y-28605831D01*
X30431851Y-28608461D01*
X30419531Y-28613375D01*
X30403917Y-28620001D01*
X30299763Y-28665898D01*
X30197723Y-28713569D01*
X30098496Y-28762634D01*
X30002779Y-28812714D01*
X29911270Y-28863431D01*
X29824668Y-28914406D01*
X29743669Y-28965260D01*
X29668973Y-29015615D01*
X29649757Y-29029233D01*
X29604718Y-29062693D01*
X29559711Y-29098367D01*
X29515622Y-29135439D01*
X29473341Y-29173091D01*
X29433755Y-29210509D01*
X29397752Y-29246875D01*
X29366222Y-29281373D01*
X29340052Y-29313187D01*
X29338196Y-29315618D01*
X29300548Y-29369473D01*
X29270068Y-29422272D01*
X29246747Y-29473971D01*
X29230578Y-29524525D01*
X29221554Y-29573892D01*
X29219669Y-29622027D01*
X29224915Y-29668886D01*
X29237285Y-29714427D01*
X29256771Y-29758605D01*
X29283367Y-29801377D01*
X29317066Y-29842699D01*
X29357860Y-29882527D01*
X29405742Y-29920818D01*
X29441114Y-29945155D01*
X29494980Y-29977207D01*
X29555574Y-30007795D01*
X29622495Y-30036793D01*
X29695339Y-30064075D01*
X29773702Y-30089515D01*
X29857181Y-30112985D01*
X29945373Y-30134361D01*
X30037873Y-30153516D01*
X30134280Y-30170324D01*
X30185704Y-30178078D01*
X30251501Y-30187118D01*
X30314915Y-30195039D01*
X30377105Y-30201932D01*
X30439227Y-30207888D01*
X30502438Y-30212996D01*
X30567897Y-30217349D01*
X30636760Y-30221037D01*
X30710184Y-30224150D01*
X30789328Y-30226780D01*
X30816140Y-30227537D01*
X30875758Y-30228738D01*
X30940258Y-30229282D01*
X31008261Y-30229199D01*
X31078387Y-30228516D01*
X31149257Y-30227263D01*
X31219490Y-30225468D01*
X31287708Y-30223160D01*
X31352531Y-30220367D01*
X31412578Y-30217119D01*
X31455785Y-30214245D01*
X31487441Y-30211930D01*
X31489111Y-30200515D01*
X31489874Y-30193805D01*
X31491132Y-30180999D01*
X31491396Y-30178147D01*
X31868628Y-30178147D01*
X31871769Y-30179100D01*
X31879437Y-30179081D01*
X31889003Y-30178316D01*
X31897838Y-30177031D01*
X31903312Y-30175454D01*
X31903774Y-30175121D01*
X31903456Y-30171306D01*
X31901559Y-30162131D01*
X31898440Y-30149232D01*
X31896580Y-30142072D01*
X31888138Y-30110272D01*
X31878383Y-30142776D01*
X31874126Y-30157249D01*
X31870811Y-30169072D01*
X31868906Y-30176544D01*
X31868628Y-30178147D01*
X31491396Y-30178147D01*
X31492781Y-30163231D01*
X31494719Y-30141637D01*
X31496839Y-30117354D01*
X31498460Y-30098385D01*
X31516110Y-29929501D01*
X31540576Y-29758940D01*
X31571756Y-29587222D01*
X31609549Y-29414870D01*
X31653853Y-29242403D01*
X31686375Y-29129557D01*
X31700558Y-29082385D01*
X31695799Y-29038843D01*
X31687402Y-28956634D01*
X31680364Y-28875659D01*
X31674610Y-28794511D01*
X31670060Y-28711784D01*
X31666639Y-28626072D01*
X31664373Y-28539914D01*
X31959401Y-28539914D01*
X31959769Y-28610955D01*
X31960936Y-28678915D01*
X31962981Y-28744925D01*
X31965981Y-28810115D01*
X31970017Y-28875617D01*
X31975165Y-28942562D01*
X31981504Y-29012080D01*
X31989113Y-29085304D01*
X31998070Y-29163364D01*
X32008454Y-29247390D01*
X32008466Y-29247485D01*
X32024204Y-29367159D01*
X32040238Y-29480964D01*
X32056797Y-29590289D01*
X32074110Y-29696522D01*
X32092408Y-29801051D01*
X32111920Y-29905264D01*
X32132875Y-30010550D01*
X32141471Y-30052121D01*
X32160608Y-30143743D01*
X32170447Y-30143743D01*
X32176530Y-30143234D01*
X32188763Y-30141799D01*
X32206120Y-30139574D01*
X32227571Y-30136693D01*
X32252089Y-30133292D01*
X32278645Y-30129508D01*
X32281179Y-30129141D01*
X32319362Y-30123592D01*
X32350983Y-30118941D01*
X32376668Y-30115091D01*
X32397046Y-30111946D01*
X32412742Y-30109409D01*
X32424382Y-30107382D01*
X32432594Y-30105769D01*
X32433124Y-30105655D01*
X32434774Y-30105310D01*
X32436199Y-30104690D01*
X32437454Y-30103259D01*
X32438588Y-30100477D01*
X32439654Y-30095806D01*
X32440703Y-30088708D01*
X32441788Y-30078645D01*
X32442959Y-30065078D01*
X32444269Y-30047470D01*
X32445769Y-30025282D01*
X32447511Y-29997975D01*
X32449547Y-29965013D01*
X32451927Y-29925856D01*
X32454552Y-29882485D01*
X32460789Y-29772157D01*
X32466284Y-29659836D01*
X32471033Y-29546174D01*
X32475030Y-29431823D01*
X32478270Y-29317435D01*
X32480748Y-29203662D01*
X32482458Y-29091155D01*
X32483395Y-28980567D01*
X32483554Y-28872548D01*
X32482930Y-28767751D01*
X32481517Y-28666828D01*
X32479310Y-28570431D01*
X32476304Y-28479211D01*
X32472494Y-28393819D01*
X32467874Y-28314909D01*
X32467263Y-28305871D01*
X32451598Y-28128127D01*
X32428978Y-27949859D01*
X32399370Y-27770901D01*
X32362743Y-27591087D01*
X32319067Y-27410250D01*
X32283122Y-27281346D01*
X32565304Y-27281346D01*
X32565943Y-27285925D01*
X32566423Y-27288057D01*
X32568003Y-27296174D01*
X32570453Y-27310556D01*
X32573635Y-27330279D01*
X32577413Y-27354421D01*
X32581648Y-27382059D01*
X32586203Y-27412270D01*
X32590940Y-27444132D01*
X32595723Y-27476721D01*
X32600412Y-27509116D01*
X32604871Y-27540393D01*
X32608962Y-27569630D01*
X32612547Y-27595904D01*
X32614309Y-27609185D01*
X32638720Y-27809308D01*
X32658793Y-28004267D01*
X32674535Y-28194708D01*
X32685953Y-28381282D01*
X32693053Y-28564635D01*
X32695842Y-28745417D01*
X32694327Y-28924275D01*
X32688514Y-29101858D01*
X32678411Y-29278813D01*
X32664023Y-29455791D01*
X32645358Y-29633437D01*
X32636027Y-29710128D01*
X32631381Y-29745866D01*
X32626172Y-29784274D01*
X32620556Y-29824313D01*
X32614690Y-29864950D01*
X32608730Y-29905148D01*
X32602834Y-29943870D01*
X32597157Y-29980080D01*
X32591857Y-30012744D01*
X32587091Y-30040824D01*
X32583015Y-30063284D01*
X32581210Y-30072448D01*
X32580303Y-30079626D01*
X32583055Y-30081602D01*
X32589437Y-30080585D01*
X32596743Y-30079151D01*
X32609548Y-30076765D01*
X32626207Y-30073727D01*
X32645071Y-30070341D01*
X32650179Y-30069433D01*
X32668385Y-30066125D01*
X32683871Y-30063160D01*
X32695314Y-30060805D01*
X32701390Y-30059325D01*
X32702003Y-30059063D01*
X32703512Y-30054854D01*
X32705468Y-30047538D01*
X32764886Y-30047538D01*
X32768322Y-30047286D01*
X32778171Y-30045677D01*
X32793745Y-30042844D01*
X32814354Y-30038923D01*
X32839308Y-30034045D01*
X32867920Y-30028346D01*
X32899499Y-30021960D01*
X32933357Y-30015020D01*
X32951199Y-30011327D01*
X32976331Y-30006045D01*
X32999088Y-30001138D01*
X33018513Y-29996824D01*
X33033650Y-29993319D01*
X33043542Y-29990838D01*
X33047210Y-29989627D01*
X33047340Y-29984940D01*
X33044979Y-29974394D01*
X33040437Y-29958825D01*
X33034024Y-29939067D01*
X33026049Y-29915956D01*
X33016823Y-29890329D01*
X33006655Y-29863020D01*
X32995855Y-29834865D01*
X32984733Y-29806700D01*
X32973599Y-29779361D01*
X32962762Y-29753683D01*
X32952533Y-29730501D01*
X32945596Y-29715571D01*
X32923937Y-29670214D01*
X32909290Y-29708314D01*
X32896882Y-29739917D01*
X32882087Y-29776480D01*
X32865587Y-29816385D01*
X32848061Y-29858012D01*
X32830189Y-29899745D01*
X32812651Y-29939965D01*
X32799689Y-29969136D01*
X32789868Y-29991060D01*
X32781121Y-30010653D01*
X32773859Y-30026985D01*
X32768495Y-30039129D01*
X32765439Y-30046157D01*
X32764886Y-30047538D01*
X32705468Y-30047538D01*
X32706304Y-30044414D01*
X32710185Y-30028618D01*
X32714957Y-30008341D01*
X32720427Y-29984456D01*
X32726399Y-29957838D01*
X32732677Y-29929362D01*
X32739066Y-29899901D01*
X32745371Y-29870331D01*
X32751396Y-29841526D01*
X32756946Y-29814360D01*
X32759286Y-29802657D01*
X32780640Y-29691486D01*
X32799424Y-29585979D01*
X32815751Y-29485057D01*
X32829732Y-29387640D01*
X32841479Y-29292650D01*
X32851103Y-29199005D01*
X32858717Y-29105628D01*
X32864432Y-29011438D01*
X32868360Y-28915357D01*
X32870613Y-28816304D01*
X32871303Y-28721343D01*
X32871203Y-28669245D01*
X32870804Y-28623003D01*
X32870048Y-28581217D01*
X32868880Y-28542489D01*
X32867243Y-28505419D01*
X32865080Y-28468611D01*
X32862335Y-28430666D01*
X32858952Y-28390184D01*
X32857078Y-28369371D01*
X32839302Y-28215314D01*
X32814358Y-28062312D01*
X32782268Y-27910460D01*
X32743058Y-27759853D01*
X32696752Y-27610584D01*
X32643373Y-27462748D01*
X32592749Y-27338958D01*
X32582539Y-27315472D01*
X32574880Y-27298337D01*
X32569582Y-27287183D01*
X32566453Y-27281643D01*
X32565304Y-27281346D01*
X32283122Y-27281346D01*
X32268308Y-27228224D01*
X32254197Y-27181497D01*
X32247669Y-27160209D01*
X32214463Y-27228669D01*
X32160740Y-27347292D01*
X32113366Y-27468405D01*
X32072544Y-27591374D01*
X32038474Y-27715567D01*
X32011357Y-27840352D01*
X32001095Y-27898881D01*
X31990929Y-27969153D01*
X31982093Y-28045834D01*
X31974635Y-28128188D01*
X31968603Y-28215480D01*
X31964044Y-28306976D01*
X31961006Y-28401939D01*
X31959538Y-28499637D01*
X31959401Y-28539914D01*
X31664373Y-28539914D01*
X31664269Y-28535970D01*
X31662872Y-28440128D01*
X31662523Y-28335931D01*
X31663569Y-28238072D01*
X31666099Y-28145750D01*
X31670206Y-28058165D01*
X31675980Y-27974515D01*
X31683513Y-27893999D01*
X31692894Y-27815818D01*
X31704216Y-27739169D01*
X31717568Y-27663252D01*
X31733043Y-27587266D01*
X31750730Y-27510410D01*
X31770722Y-27431883D01*
X31782187Y-27389657D01*
X31828579Y-27235353D01*
X31881639Y-27083177D01*
X31941174Y-26933552D01*
X32006992Y-26786900D01*
X32078899Y-26643643D01*
X32156703Y-26504204D01*
X32240211Y-26369006D01*
X32265844Y-26330088D01*
X32283397Y-26304044D01*
X32301319Y-26277853D01*
X32318922Y-26252491D01*
X32335515Y-26228935D01*
X32350408Y-26208161D01*
X32362912Y-26191147D01*
X32372337Y-26178868D01*
X32374756Y-26175900D01*
X32383854Y-26165014D01*
X32392034Y-26175505D01*
X32402925Y-26189958D01*
X32417000Y-26209376D01*
X32433488Y-26232639D01*
X32451620Y-26258627D01*
X32470624Y-26286221D01*
X32489729Y-26314301D01*
X32508166Y-26341747D01*
X32525163Y-26367439D01*
X32539951Y-26390258D01*
X32541712Y-26393020D01*
X32625720Y-26531804D01*
X32703521Y-26674269D01*
X32775019Y-26820182D01*
X32840119Y-26969311D01*
X32898725Y-27121425D01*
X32950744Y-27276291D01*
X32996078Y-27433677D01*
X33034634Y-27593351D01*
X33034923Y-27594671D01*
X33048290Y-27660156D01*
X33060157Y-27727468D01*
X33070645Y-27797555D01*
X33079876Y-27871363D01*
X33087972Y-27949839D01*
X33095055Y-28033930D01*
X33099395Y-28095414D01*
X33100530Y-28117385D01*
X33101507Y-28145681D01*
X33102328Y-28179371D01*
X33102990Y-28217525D01*
X33103495Y-28259213D01*
X33103843Y-28303504D01*
X33104033Y-28349467D01*
X33104065Y-28396172D01*
X33103940Y-28442688D01*
X33103657Y-28488086D01*
X33103216Y-28531434D01*
X33102618Y-28571802D01*
X33101862Y-28608260D01*
X33100948Y-28639877D01*
X33099877Y-28665722D01*
X33099408Y-28674171D01*
X33095352Y-28738638D01*
X33091386Y-28797162D01*
X33087408Y-28851058D01*
X33083317Y-28901638D01*
X33079012Y-28950214D01*
X33074818Y-28993847D01*
X33065566Y-29086738D01*
X33086087Y-29144433D01*
X33124984Y-29263793D01*
X33157215Y-29384560D01*
X33182868Y-29507206D01*
X33202028Y-29632202D01*
X33214785Y-29760023D01*
X33220698Y-29872507D01*
X33221470Y-29895554D01*
X33222237Y-29915948D01*
X33222951Y-29932648D01*
X33223569Y-29944613D01*
X33224042Y-29950802D01*
X33224187Y-29951428D01*
X33228582Y-29950567D01*
X33239130Y-29948129D01*
X33254950Y-29944335D01*
X33275163Y-29939405D01*
X33298889Y-29933557D01*
X33325250Y-29927013D01*
X33353365Y-29919990D01*
X33382356Y-29912711D01*
X33411342Y-29905393D01*
X33439444Y-29898257D01*
X33465784Y-29891522D01*
X33489480Y-29885409D01*
X33509655Y-29880137D01*
X33512371Y-29879420D01*
X33695686Y-29829061D01*
X33874556Y-29776184D01*
X34048579Y-29720929D01*
X34217351Y-29663435D01*
X34380471Y-29603843D01*
X34537535Y-29542291D01*
X34688141Y-29478920D01*
X34766473Y-29444069D01*
X34782054Y-29436889D01*
X34801596Y-29427712D01*
X34824280Y-29416936D01*
X34849285Y-29404964D01*
X34875789Y-29392195D01*
X34902973Y-29379029D01*
X34930016Y-29365867D01*
X34956096Y-29353109D01*
X34980394Y-29341154D01*
X35002088Y-29330404D01*
X35020358Y-29321259D01*
X35034383Y-29314118D01*
X35043343Y-29309383D01*
X35046320Y-29307588D01*
X35047919Y-29303539D01*
X35050958Y-29293488D01*
X35055166Y-29278483D01*
X35060271Y-29259576D01*
X35066001Y-29237815D01*
X35072085Y-29214250D01*
X35078252Y-29189932D01*
X35084229Y-29165909D01*
X35089746Y-29143231D01*
X35094530Y-29122949D01*
X35096483Y-29114305D01*
X35365443Y-29114305D01*
X35377118Y-29107417D01*
X35383738Y-29103061D01*
X35394984Y-29095176D01*
X35409688Y-29084602D01*
X35426681Y-29072178D01*
X35443283Y-29059873D01*
X35514718Y-29004197D01*
X35579230Y-28948946D01*
X35636777Y-28894166D01*
X35687317Y-28839907D01*
X35730808Y-28786214D01*
X35767210Y-28733138D01*
X35796480Y-28680725D01*
X35818576Y-28629024D01*
X35819589Y-28626183D01*
X35833742Y-28576302D01*
X35840825Y-28527082D01*
X35840839Y-28478767D01*
X35833785Y-28431603D01*
X35819664Y-28385834D01*
X35818465Y-28382821D01*
X35806649Y-28356725D01*
X35792671Y-28332290D01*
X35775544Y-28308127D01*
X35754285Y-28282847D01*
X35727907Y-28255061D01*
X35727614Y-28254766D01*
X35693297Y-28222393D01*
X35657549Y-28193274D01*
X35618854Y-28166337D01*
X35575692Y-28140507D01*
X35536582Y-28119745D01*
X35517898Y-28110550D01*
X35497584Y-28101010D01*
X35476720Y-28091583D01*
X35456388Y-28082724D01*
X35437669Y-28074892D01*
X35421644Y-28068541D01*
X35409395Y-28064130D01*
X35402002Y-28062115D01*
X35400375Y-28062215D01*
X35400270Y-28066170D01*
X35401002Y-28076091D01*
X35402453Y-28090749D01*
X35404505Y-28108913D01*
X35406248Y-28123161D01*
X35420892Y-28266882D01*
X35428687Y-28410956D01*
X35429638Y-28554778D01*
X35423752Y-28697741D01*
X35411033Y-28839240D01*
X35398859Y-28931800D01*
X35395924Y-28950758D01*
X35392296Y-28972946D01*
X35388213Y-28997028D01*
X35383914Y-29021671D01*
X35379637Y-29045540D01*
X35375621Y-29067302D01*
X35372104Y-29085621D01*
X35369325Y-29099164D01*
X35367808Y-29105602D01*
X35365443Y-29114305D01*
X35096483Y-29114305D01*
X35097590Y-29109411D01*
X35118349Y-29006892D01*
X35134846Y-28906781D01*
X35147308Y-28807090D01*
X35155967Y-28705830D01*
X35161051Y-28601015D01*
X35162287Y-28548985D01*
X35161970Y-28424597D01*
X35156762Y-28304246D01*
X35146500Y-28186460D01*
X35131017Y-28069770D01*
X35110147Y-27952702D01*
X35083726Y-27833785D01*
X35080205Y-27819445D01*
X35042508Y-27682377D01*
X34998025Y-27547853D01*
X34946792Y-27415939D01*
X34888843Y-27286702D01*
X34824215Y-27160209D01*
X34752942Y-27036526D01*
X34675060Y-26915720D01*
X34590604Y-26797857D01*
X34499610Y-26683005D01*
X34439774Y-26613166D01*
X34418163Y-26589317D01*
X34392299Y-26561830D01*
X34363358Y-26531880D01*
X34332521Y-26500642D01*
X34300965Y-26469289D01*
X34269868Y-26438996D01*
X34240410Y-26410939D01*
X34213767Y-26386290D01*
X34198171Y-26372349D01*
X34084286Y-26277110D01*
X33966792Y-26188118D01*
X33845807Y-26105432D01*
X33721444Y-26029115D01*
X33593821Y-25959225D01*
X33463053Y-25895825D01*
X33329255Y-25838974D01*
X33192543Y-25788735D01*
X33053033Y-25745167D01*
X32955386Y-25719073D01*
X32812671Y-25687183D01*
X32669160Y-25662377D01*
X32525118Y-25644616D01*
X32380813Y-25633859D01*
X32236511Y-25630068D01*
X32092479Y-25633203D01*
X31948982Y-25643224D01*
X31806287Y-25660091D01*
X31664662Y-25683765D01*
X31524372Y-25714206D01*
X31385685Y-25751375D01*
X31248866Y-25795231D01*
X31114182Y-25845736D01*
X30981900Y-25902850D01*
X30852287Y-25966533D01*
X30725608Y-26036745D01*
X30694786Y-26055098D01*
X30578095Y-26129270D01*
X30465501Y-26208324D01*
X30357735Y-26291709D01*
X30255531Y-26378873D01*
X30212920Y-26417898D01*
X30198396Y-26431234D01*
X30185693Y-26442402D01*
X30175742Y-26450624D01*
X30169473Y-26455121D01*
X30167795Y-26455662D01*
X30169525Y-26452472D01*
X30175965Y-26444984D01*
X30186489Y-26433817D01*
X30200468Y-26419589D01*
X30217275Y-26402919D01*
X30236283Y-26384424D01*
X30256863Y-26364723D01*
X30278389Y-26344435D01*
X30300232Y-26324178D01*
X30314107Y-26311499D01*
X30425358Y-26215351D01*
X30540974Y-26124918D01*
X30660707Y-26040312D01*
X30784311Y-25961645D01*
X30911538Y-25889030D01*
X31042141Y-25822577D01*
X31175873Y-25762401D01*
X31312487Y-25708611D01*
X31451736Y-25661320D01*
X31593372Y-25620641D01*
X31737148Y-25586685D01*
X31882818Y-25559564D01*
X32014021Y-25541247D01*
X32049116Y-25537179D01*
X32080373Y-25533749D01*
X32108862Y-25530904D01*
X32135653Y-25528590D01*
X32161815Y-25526753D01*
X32188417Y-25525340D01*
X32216530Y-25524297D01*
X32247223Y-25523572D01*
X32281564Y-25523110D01*
X32320625Y-25522858D01*
X32365474Y-25522763D01*
X32383886Y-25522757D01*
X32429667Y-25522798D01*
G37*
X32429667Y-25522798D02*
X32469266Y-25522956D01*
X32503758Y-25523281D01*
X32534215Y-25523824D01*
X32561714Y-25524634D01*
X32587328Y-25525763D01*
X32612131Y-25527261D01*
X32637199Y-25529178D01*
X32663605Y-25531565D01*
X32692424Y-25534473D01*
X32724730Y-25537951D01*
X32737671Y-25539381D01*
X32884403Y-25559281D01*
X33029518Y-25586176D01*
X33172777Y-25619951D01*
X33313939Y-25660487D01*
X33452765Y-25707670D01*
X33589014Y-25761382D01*
X33722448Y-25821507D01*
X33852825Y-25887929D01*
X33979905Y-25960531D01*
X34103450Y-26039196D01*
X34223219Y-26123809D01*
X34338972Y-26214253D01*
X34450470Y-26310411D01*
X34557471Y-26412167D01*
X34577388Y-26432240D01*
X34674904Y-26535751D01*
X34765729Y-26641181D01*
X34850310Y-26749160D01*
X34929098Y-26860317D01*
X35002542Y-26975283D01*
X35071092Y-27094688D01*
X35127156Y-27202785D01*
X35186607Y-27330624D01*
X35239900Y-27461107D01*
X35286802Y-27593544D01*
X35327079Y-27727246D01*
X35360499Y-27861521D01*
X35377858Y-27945726D01*
X35390064Y-28010123D01*
X35413696Y-28017829D01*
X35441340Y-28027462D01*
X35473237Y-28039595D01*
X35507223Y-28053339D01*
X35541136Y-28067806D01*
X35572811Y-28082106D01*
X35589728Y-28090181D01*
X35641503Y-28116851D01*
X35687349Y-28143433D01*
X35728532Y-28170790D01*
X35766318Y-28199788D01*
X35801972Y-28231289D01*
X35815253Y-28244123D01*
X35849700Y-28280831D01*
X35877881Y-28316965D01*
X35900558Y-28353768D01*
X35918490Y-28392487D01*
X35932437Y-28434368D01*
X35933346Y-28437677D01*
X35937641Y-28459493D01*
X35940426Y-28486210D01*
X35941681Y-28515629D01*
X35941385Y-28545550D01*
X35939517Y-28573771D01*
X35936055Y-28598093D01*
X35934914Y-28603414D01*
X35918462Y-28659212D01*
X35895152Y-28715115D01*
X35864945Y-28771168D01*
X35827802Y-28827413D01*
X35783685Y-28883894D01*
X35732555Y-28940656D01*
X35674373Y-28997740D01*
X35609100Y-29055191D01*
X35536698Y-29113053D01*
X35457129Y-29171368D01*
X35387855Y-29218661D01*
X35332670Y-29255236D01*
X35313571Y-29321210D01*
X35270822Y-29456011D01*
X35221127Y-29589274D01*
X35164720Y-29720518D01*
X35101836Y-29849261D01*
X35032708Y-29975021D01*
X34957570Y-30097315D01*
X34883971Y-30205465D01*
X34795310Y-30323445D01*
X34701161Y-30436749D01*
X34601724Y-30545209D01*
X34497196Y-30648655D01*
X34387779Y-30746918D01*
X34273671Y-30839831D01*
X34155072Y-30927225D01*
X34032182Y-31008929D01*
X33905199Y-31084777D01*
X33774323Y-31154599D01*
X33744600Y-31169344D01*
X33610878Y-31230767D01*
X33474140Y-31285702D01*
X33334773Y-31334061D01*
X33193165Y-31375757D01*
X33049704Y-31410701D01*
X32904777Y-31438804D01*
X32758771Y-31459979D01*
X32612076Y-31474137D01*
X32465077Y-31481190D01*
X32371186Y-31481936D01*
X32345663Y-31481701D01*
X32321106Y-31481408D01*
X32298944Y-31481078D01*
X32280611Y-31480735D01*
X32267538Y-31480400D01*
X32264143Y-31480275D01*
X32110805Y-31470239D01*
X31959987Y-31453401D01*
X31811657Y-31429750D01*
X31665783Y-31399278D01*
X31522335Y-31361977D01*
X31381282Y-31317837D01*
X31242592Y-31266849D01*
X31106235Y-31209004D01*
X30972178Y-31144294D01*
X30842021Y-31073644D01*
X30717802Y-30998442D01*
X30597809Y-30917671D01*
X30481684Y-30831059D01*
X30369068Y-30738334D01*
X30259602Y-30639224D01*
X30223956Y-30604921D01*
X30205209Y-30586403D01*
X30190191Y-30571163D01*
X30179078Y-30559440D01*
X30172043Y-30551475D01*
X30169260Y-30547507D01*
X30170904Y-30547777D01*
X30177148Y-30552525D01*
X30188166Y-30561991D01*
X30201621Y-30574114D01*
X30294360Y-30656273D01*
X30386104Y-30732134D01*
X30477829Y-30802379D01*
X30570515Y-30867695D01*
X30665137Y-30928766D01*
X30762676Y-30986275D01*
X30864107Y-31040909D01*
X30879843Y-31048962D01*
X31003254Y-31108337D01*
X31127659Y-31161409D01*
X31253605Y-31208329D01*
X31381638Y-31249252D01*
X31512305Y-31284330D01*
X31646154Y-31313717D01*
X31783731Y-31337566D01*
X31925585Y-31356030D01*
X32002886Y-31363703D01*
X32024542Y-31365186D01*
X32052393Y-31366395D01*
X32085380Y-31367336D01*
X32122445Y-31368013D01*
X32162530Y-31368429D01*
X32204578Y-31368589D01*
X32247531Y-31368498D01*
X32290329Y-31368158D01*
X32331917Y-31367575D01*
X32371236Y-31366753D01*
X32407227Y-31365696D01*
X32438834Y-31364407D01*
X32464998Y-31362892D01*
X32478228Y-31361821D01*
X32622278Y-31345399D01*
X32761849Y-31323592D01*
X32897494Y-31296245D01*
X33029765Y-31263205D01*
X33159214Y-31224316D01*
X33286394Y-31179425D01*
X33411856Y-31128377D01*
X33536154Y-31071017D01*
X33559543Y-31059463D01*
X33688796Y-30990934D01*
X33814030Y-30916427D01*
X33935070Y-30836084D01*
X34051747Y-30750049D01*
X34163886Y-30658466D01*
X34271318Y-30561478D01*
X34373869Y-30459227D01*
X34471369Y-30351859D01*
X34563644Y-30239516D01*
X34600777Y-30190914D01*
X34682290Y-30076166D01*
X34757601Y-29958199D01*
X34826915Y-29836633D01*
X34890438Y-29711089D01*
X34948375Y-29581189D01*
X34993055Y-29467945D01*
X35003514Y-29439848D01*
X34955850Y-29463732D01*
X34863031Y-29508799D01*
X34763709Y-29554279D01*
X34658604Y-29599882D01*
X34548438Y-29645318D01*
X34433929Y-29690295D01*
X34315799Y-29734522D01*
X34194767Y-29777709D01*
X34089314Y-29813661D01*
X34003309Y-29841995D01*
X33920774Y-29868405D01*
X33840244Y-29893316D01*
X33760257Y-29917154D01*
X33679349Y-29940345D01*
X33596058Y-29963313D01*
X33508920Y-29986484D01*
X33416471Y-30010285D01*
X33390814Y-30016772D01*
X33220271Y-30059741D01*
X33217703Y-30077249D01*
X33216504Y-30086788D01*
X33214841Y-30101905D01*
X33212884Y-30120950D01*
X33210804Y-30142272D01*
X33209448Y-30156788D01*
X33197420Y-30261105D01*
X33180836Y-30362285D01*
X33179955Y-30366900D01*
X33176427Y-30384429D01*
X33171975Y-30405311D01*
X33166867Y-30428407D01*
X33161372Y-30452578D01*
X33155759Y-30476684D01*
X33150297Y-30499588D01*
X33145256Y-30520148D01*
X33140902Y-30537227D01*
X33137507Y-30549684D01*
X33135338Y-30556382D01*
X33135112Y-30556863D01*
X33134170Y-30554996D01*
X33133104Y-30546889D01*
X33131997Y-30533555D01*
X33130933Y-30516008D01*
X33129994Y-30495261D01*
X33129922Y-30493363D01*
X33123581Y-30388127D01*
X33112614Y-30285865D01*
X33097165Y-30187865D01*
X33092974Y-30165969D01*
X33088043Y-30141230D01*
X33084191Y-30122743D01*
X33081098Y-30109638D01*
X33078446Y-30101043D01*
X33075917Y-30096090D01*
X33073192Y-30093907D01*
X33069953Y-30093625D01*
X33066715Y-30094197D01*
X33040722Y-30099671D01*
X33011026Y-30105864D01*
X32978729Y-30112552D01*
X32944931Y-30119509D01*
X32910732Y-30126512D01*
X32877233Y-30133337D01*
X32845535Y-30139759D01*
X32816738Y-30145554D01*
X32791942Y-30150497D01*
X32772248Y-30154365D01*
X32760687Y-30156575D01*
X32707502Y-30166506D01*
X32675856Y-30232231D01*
X32666237Y-30251911D01*
X32657667Y-30268881D01*
X32650629Y-30282229D01*
X32645607Y-30291046D01*
X32643084Y-30294419D01*
X32642907Y-30294328D01*
X32643395Y-30289773D01*
X32645575Y-30279482D01*
X32649151Y-30264698D01*
X32653826Y-30246665D01*
X32657620Y-30232677D01*
X32662898Y-30213354D01*
X32667350Y-30196664D01*
X32670674Y-30183776D01*
X32672566Y-30175858D01*
X32672869Y-30173888D01*
X32669228Y-30174227D01*
X32659674Y-30175662D01*
X32645435Y-30177994D01*
X32627739Y-30181026D01*
X32615986Y-30183094D01*
X32559871Y-30193068D01*
X32548893Y-30245513D01*
X32537915Y-30297957D01*
X32470879Y-30437310D01*
X32456721Y-30466561D01*
X32443529Y-30493463D01*
X32431628Y-30517381D01*
X32421344Y-30537678D01*
X32413001Y-30553718D01*
X32406923Y-30564864D01*
X32403436Y-30570480D01*
X32402719Y-30570918D01*
X32402769Y-30566035D01*
X32403426Y-30554817D01*
X32404622Y-30538153D01*
X32406288Y-30516933D01*
X32408355Y-30492048D01*
X32410753Y-30464386D01*
X32412554Y-30444264D01*
X32416902Y-30396008D01*
X32420578Y-30354553D01*
X32423613Y-30319479D01*
X32426039Y-30290365D01*
X32427888Y-30266790D01*
X32429192Y-30248333D01*
X32429981Y-30234572D01*
X32430288Y-30225087D01*
X32430145Y-30219457D01*
X32429613Y-30217289D01*
X32425574Y-30217215D01*
X32415367Y-30218155D01*
X32399993Y-30219983D01*
X32380453Y-30222575D01*
X32357747Y-30225807D01*
X32339444Y-30228544D01*
X32312748Y-30232578D01*
X32286370Y-30236498D01*
X32261832Y-30240082D01*
X32240651Y-30243109D01*
X32224346Y-30245359D01*
X32218393Y-30246136D01*
X32202460Y-30248373D01*
X32192610Y-30250436D01*
X32187687Y-30252684D01*
X32186536Y-30255473D01*
X32186623Y-30255989D01*
X32187826Y-30261026D01*
X32190499Y-30272035D01*
X32194380Y-30287941D01*
X32199204Y-30307670D01*
X32204711Y-30330146D01*
X32207880Y-30343062D01*
X32213580Y-30366457D01*
X32218646Y-30387585D01*
X32222834Y-30405395D01*
X32225899Y-30418840D01*
X32227596Y-30426872D01*
X32227857Y-30428606D01*
X32225747Y-30433303D01*
X32220175Y-30441884D01*
X32212278Y-30452617D01*
X32211000Y-30454258D01*
X32186825Y-30487132D01*
X32161704Y-30524970D01*
X32136803Y-30565795D01*
X32113288Y-30607628D01*
X32092325Y-30648490D01*
X32077476Y-30680771D01*
X32067310Y-30704357D01*
X32047655Y-30646300D01*
X32031597Y-30598126D01*
X32014720Y-30546162D01*
X31997740Y-30492676D01*
X31981372Y-30439935D01*
X31966329Y-30390209D01*
X31957329Y-30359643D01*
X31950923Y-30337803D01*
X31945101Y-30318359D01*
X31940193Y-30302382D01*
X31936531Y-30290940D01*
X31934444Y-30285105D01*
X31934187Y-30284622D01*
X31930250Y-30284309D01*
X31920754Y-30284714D01*
X31907346Y-30285678D01*
X31891671Y-30287042D01*
X31875376Y-30288645D01*
X31860106Y-30290329D01*
X31847507Y-30291935D01*
X31839225Y-30293303D01*
X31836860Y-30294048D01*
X31835576Y-30298014D01*
X31833072Y-30307996D01*
X31829586Y-30322903D01*
X31825357Y-30341642D01*
X31820621Y-30363119D01*
X31815617Y-30386244D01*
X31810582Y-30409922D01*
X31805753Y-30433061D01*
X31801369Y-30454570D01*
X31797667Y-30473355D01*
X31796339Y-30480345D01*
X31791884Y-30505026D01*
X31786934Y-30533847D01*
X31781998Y-30563764D01*
X31777586Y-30591729D01*
X31776214Y-30600798D01*
X31766766Y-30664153D01*
X31746033Y-30682066D01*
X31728312Y-30698119D01*
X31707416Y-30718237D01*
X31684777Y-30740933D01*
X31661830Y-30764723D01*
X31640005Y-30788122D01*
X31620737Y-30809644D01*
X31605557Y-30827681D01*
X31593732Y-30843023D01*
X31579644Y-30862239D01*
X31564285Y-30883882D01*
X31548644Y-30906508D01*
X31533713Y-30928672D01*
X31520482Y-30948927D01*
X31509941Y-30965828D01*
X31504751Y-30974786D01*
X31500220Y-30981997D01*
X31497109Y-30985087D01*
X31496731Y-30984997D01*
X31495623Y-30980513D01*
X31494303Y-30969545D01*
X31492814Y-30952863D01*
X31491202Y-30931236D01*
X31489511Y-30905434D01*
X31487785Y-30876225D01*
X31486069Y-30844379D01*
X31484407Y-30810664D01*
X31482845Y-30775851D01*
X31481426Y-30740708D01*
X31480195Y-30706004D01*
X31479742Y-30691657D01*
X31478073Y-30624009D01*
X31477360Y-30561582D01*
X31477596Y-30502402D01*
X31478776Y-30444497D01*
X31478977Y-30437657D01*
X31479821Y-30409680D01*
X31480584Y-30384169D01*
X31481238Y-30361990D01*
X31481760Y-30344011D01*
X31482123Y-30331100D01*
X31482302Y-30324123D01*
X31482315Y-30323128D01*
X31478833Y-30323267D01*
X31469193Y-30323787D01*
X31454482Y-30324628D01*
X31435784Y-30325725D01*
X31414186Y-30327018D01*
X31409614Y-30327295D01*
X31286641Y-30333693D01*
X31161411Y-30338181D01*
X31035293Y-30340761D01*
X30909655Y-30341433D01*
X30785866Y-30340197D01*
X30665294Y-30337054D01*
X30549307Y-30332006D01*
X30464371Y-30326846D01*
X30340490Y-30316846D01*
X30220854Y-30304241D01*
X30105735Y-30289092D01*
X29995405Y-30271460D01*
X29890134Y-30251408D01*
X29790195Y-30228995D01*
X29695860Y-30204284D01*
X29607401Y-30177336D01*
X29525088Y-30148211D01*
X29449193Y-30116971D01*
X29379989Y-30083678D01*
X29375800Y-30081482D01*
X29313344Y-30045822D01*
X29257474Y-30008174D01*
X29208261Y-29968622D01*
X29165778Y-29927247D01*
X29130098Y-29884133D01*
X29101293Y-29839360D01*
X29079435Y-29793012D01*
X29064596Y-29745172D01*
X29060037Y-29722003D01*
X29057265Y-29694295D01*
X29056832Y-29662388D01*
X29058594Y-29628905D01*
X29062410Y-29596467D01*
X29068137Y-29567696D01*
X29068475Y-29566384D01*
X29086040Y-29512558D01*
X29110717Y-29458101D01*
X29142396Y-29403100D01*
X29180966Y-29347637D01*
X29226318Y-29291798D01*
X29278341Y-29235668D01*
X29336925Y-29179330D01*
X29401961Y-29122868D01*
X29473338Y-29066369D01*
X29550945Y-29009916D01*
X29634674Y-28953593D01*
X29724413Y-28897485D01*
X29820053Y-28841677D01*
X29921483Y-28786253D01*
X30028594Y-28731298D01*
X30141275Y-28676895D01*
X30259417Y-28623130D01*
X30347093Y-28585161D01*
X30368561Y-28575935D01*
X30384078Y-28568932D01*
X30394443Y-28563711D01*
X30400457Y-28559829D01*
X30402917Y-28556845D01*
X30402687Y-28554432D01*
X30400771Y-28552934D01*
X30396231Y-28551309D01*
X30388541Y-28549473D01*
X30377172Y-28547346D01*
X30361595Y-28544846D01*
X30341284Y-28541891D01*
X30315710Y-28538400D01*
X30284344Y-28534291D01*
X30246658Y-28529483D01*
X30216979Y-28525750D01*
X30181424Y-28521277D01*
X30148103Y-28517045D01*
X30117700Y-28513142D01*
X30090898Y-28509659D01*
X30068381Y-28506686D01*
X30050832Y-28504312D01*
X30038936Y-28502626D01*
X30033376Y-28501719D01*
X30033050Y-28501620D01*
X30032964Y-28500980D01*
X30034379Y-28500253D01*
X30037841Y-28499362D01*
X30043897Y-28498230D01*
X30053091Y-28496780D01*
X30065968Y-28494936D01*
X30083075Y-28492620D01*
X30104956Y-28489756D01*
X30132158Y-28486266D01*
X30165225Y-28482074D01*
X30204703Y-28477103D01*
X30224738Y-28474587D01*
X30259580Y-28470200D01*
X30292152Y-28466074D01*
X30321761Y-28462297D01*
X30347714Y-28458959D01*
X30369318Y-28456149D01*
X30385880Y-28453958D01*
X30396707Y-28452475D01*
X30401107Y-28451790D01*
X30401170Y-28451766D01*
X30403036Y-28448371D01*
X30406821Y-28441055D01*
X30407403Y-28439912D01*
X30415878Y-28427379D01*
X30428351Y-28413725D01*
X30442446Y-28401299D01*
X30454976Y-28392877D01*
X30465172Y-28385253D01*
X30469711Y-28375697D01*
X30469858Y-28374902D01*
X30470706Y-28369126D01*
X30472389Y-28356925D01*
X30474805Y-28339071D01*
X30477851Y-28316333D01*
X30481424Y-28289483D01*
X30485421Y-28259292D01*
X30489739Y-28226531D01*
X30493593Y-28197178D01*
X30498068Y-28163244D01*
X30502298Y-28131565D01*
X30506184Y-28102855D01*
X30509627Y-28077833D01*
X30512526Y-28057213D01*
X30514784Y-28041712D01*
X30516299Y-28032046D01*
X30516947Y-28028928D01*
X30517631Y-28028730D01*
X30518376Y-28029867D01*
X30519265Y-28032896D01*
X30520379Y-28038373D01*
X30521801Y-28046855D01*
X30523612Y-28058898D01*
X30525895Y-28075060D01*
X30528732Y-28095897D01*
X30532204Y-28121965D01*
X30536395Y-28153821D01*
X30541385Y-28192022D01*
X30544398Y-28215157D01*
X30548933Y-28249480D01*
X30553297Y-28281546D01*
X30557385Y-28310647D01*
X30561093Y-28336077D01*
X30564314Y-28357129D01*
X30566944Y-28373094D01*
X30568876Y-28383267D01*
X30569999Y-28386938D01*
X30584003Y-28394512D01*
X30599564Y-28406934D01*
X30614965Y-28422570D01*
X30628492Y-28439791D01*
X30633100Y-28446934D01*
X30635047Y-28448494D01*
X30639402Y-28450140D01*
X30646720Y-28451959D01*
X30657558Y-28454038D01*
X30672472Y-28456464D01*
X30692017Y-28459325D01*
X30716749Y-28462706D01*
X30747225Y-28466696D01*
X30784000Y-28471381D01*
X30810900Y-28474759D01*
X30853308Y-28480073D01*
X30889059Y-28484577D01*
X30918696Y-28488351D01*
X30942764Y-28491469D01*
X30961808Y-28494010D01*
X30976373Y-28496050D01*
X30987003Y-28497666D01*
X30994243Y-28498936D01*
X30998638Y-28499936D01*
X31000733Y-28500744D01*
X31001072Y-28501436D01*
X31000921Y-28501625D01*
X30997168Y-28502313D01*
X30986896Y-28503807D01*
X30970790Y-28506019D01*
X30949533Y-28508857D01*
X30923807Y-28512232D01*
X30894297Y-28516053D01*
X30861685Y-28520230D01*
X30826656Y-28524674D01*
X30816879Y-28525906D01*
X30634172Y-28548915D01*
X30627592Y-28561813D01*
X30619434Y-28573770D01*
X30607227Y-28587099D01*
X30593241Y-28599606D01*
X30579749Y-28609095D01*
X30577272Y-28610456D01*
X30569740Y-28615030D01*
X30566047Y-28618605D01*
X30565971Y-28618951D01*
X30565509Y-28623207D01*
X30564200Y-28633792D01*
X30562157Y-28649841D01*
X30559495Y-28670489D01*
X30556327Y-28694873D01*
X30552767Y-28722126D01*
X30548930Y-28751386D01*
X30544930Y-28781787D01*
X30540880Y-28812464D01*
X30536895Y-28842553D01*
X30533089Y-28871191D01*
X30529575Y-28897511D01*
X30526468Y-28920649D01*
X30523882Y-28939742D01*
X30521930Y-28953923D01*
X30520727Y-28962330D01*
X30520474Y-28963920D01*
X30518720Y-28971662D01*
X30517199Y-28974842D01*
X30517021Y-28974774D01*
X30516298Y-28971022D01*
X30514739Y-28960784D01*
X30512441Y-28944771D01*
X30509503Y-28923695D01*
X30506023Y-28898265D01*
X30502099Y-28869193D01*
X30497829Y-28837190D01*
X30493548Y-28804767D01*
X30488999Y-28770230D01*
X30484681Y-28737610D01*
X30480696Y-28707672D01*
X30477147Y-28681180D01*
X30474138Y-28658901D01*
X30471770Y-28641600D01*
X30470147Y-28630042D01*
X30469409Y-28625185D01*
X30464426Y-28614686D01*
X30455922Y-28608493D01*
X30450831Y-28606163D01*
X30446073Y-28605171D01*
X30440223Y-28605831D01*
X30431851Y-28608461D01*
X30419531Y-28613375D01*
X30403917Y-28620001D01*
X30299763Y-28665898D01*
X30197723Y-28713569D01*
X30098496Y-28762634D01*
X30002779Y-28812714D01*
X29911270Y-28863431D01*
X29824668Y-28914406D01*
X29743669Y-28965260D01*
X29668973Y-29015615D01*
X29649757Y-29029233D01*
X29604718Y-29062693D01*
X29559711Y-29098367D01*
X29515622Y-29135439D01*
X29473341Y-29173091D01*
X29433755Y-29210509D01*
X29397752Y-29246875D01*
X29366222Y-29281373D01*
X29340052Y-29313187D01*
X29338196Y-29315618D01*
X29300548Y-29369473D01*
X29270068Y-29422272D01*
X29246747Y-29473971D01*
X29230578Y-29524525D01*
X29221554Y-29573892D01*
X29219669Y-29622027D01*
X29224915Y-29668886D01*
X29237285Y-29714427D01*
X29256771Y-29758605D01*
X29283367Y-29801377D01*
X29317066Y-29842699D01*
X29357860Y-29882527D01*
X29405742Y-29920818D01*
X29441114Y-29945155D01*
X29494980Y-29977207D01*
X29555574Y-30007795D01*
X29622495Y-30036793D01*
X29695339Y-30064075D01*
X29773702Y-30089515D01*
X29857181Y-30112985D01*
X29945373Y-30134361D01*
X30037873Y-30153516D01*
X30134280Y-30170324D01*
X30185704Y-30178078D01*
X30251501Y-30187118D01*
X30314915Y-30195039D01*
X30377105Y-30201932D01*
X30439227Y-30207888D01*
X30502438Y-30212996D01*
X30567897Y-30217349D01*
X30636760Y-30221037D01*
X30710184Y-30224150D01*
X30789328Y-30226780D01*
X30816140Y-30227537D01*
X30875758Y-30228738D01*
X30940258Y-30229282D01*
X31008261Y-30229199D01*
X31078387Y-30228516D01*
X31149257Y-30227263D01*
X31219490Y-30225468D01*
X31287708Y-30223160D01*
X31352531Y-30220367D01*
X31412578Y-30217119D01*
X31455785Y-30214245D01*
X31487441Y-30211930D01*
X31489111Y-30200515D01*
X31489874Y-30193805D01*
X31491132Y-30180999D01*
X31491396Y-30178147D01*
X31868628Y-30178147D01*
X31871769Y-30179100D01*
X31879437Y-30179081D01*
X31889003Y-30178316D01*
X31897838Y-30177031D01*
X31903312Y-30175454D01*
X31903774Y-30175121D01*
X31903456Y-30171306D01*
X31901559Y-30162131D01*
X31898440Y-30149232D01*
X31896580Y-30142072D01*
X31888138Y-30110272D01*
X31878383Y-30142776D01*
X31874126Y-30157249D01*
X31870811Y-30169072D01*
X31868906Y-30176544D01*
X31868628Y-30178147D01*
X31491396Y-30178147D01*
X31492781Y-30163231D01*
X31494719Y-30141637D01*
X31496839Y-30117354D01*
X31498460Y-30098385D01*
X31516110Y-29929501D01*
X31540576Y-29758940D01*
X31571756Y-29587222D01*
X31609549Y-29414870D01*
X31653853Y-29242403D01*
X31686375Y-29129557D01*
X31700558Y-29082385D01*
X31695799Y-29038843D01*
X31687402Y-28956634D01*
X31680364Y-28875659D01*
X31674610Y-28794511D01*
X31670060Y-28711784D01*
X31666639Y-28626072D01*
X31664373Y-28539914D01*
X31959401Y-28539914D01*
X31959769Y-28610955D01*
X31960936Y-28678915D01*
X31962981Y-28744925D01*
X31965981Y-28810115D01*
X31970017Y-28875617D01*
X31975165Y-28942562D01*
X31981504Y-29012080D01*
X31989113Y-29085304D01*
X31998070Y-29163364D01*
X32008454Y-29247390D01*
X32008466Y-29247485D01*
X32024204Y-29367159D01*
X32040238Y-29480964D01*
X32056797Y-29590289D01*
X32074110Y-29696522D01*
X32092408Y-29801051D01*
X32111920Y-29905264D01*
X32132875Y-30010550D01*
X32141471Y-30052121D01*
X32160608Y-30143743D01*
X32170447Y-30143743D01*
X32176530Y-30143234D01*
X32188763Y-30141799D01*
X32206120Y-30139574D01*
X32227571Y-30136693D01*
X32252089Y-30133292D01*
X32278645Y-30129508D01*
X32281179Y-30129141D01*
X32319362Y-30123592D01*
X32350983Y-30118941D01*
X32376668Y-30115091D01*
X32397046Y-30111946D01*
X32412742Y-30109409D01*
X32424382Y-30107382D01*
X32432594Y-30105769D01*
X32433124Y-30105655D01*
X32434774Y-30105310D01*
X32436199Y-30104690D01*
X32437454Y-30103259D01*
X32438588Y-30100477D01*
X32439654Y-30095806D01*
X32440703Y-30088708D01*
X32441788Y-30078645D01*
X32442959Y-30065078D01*
X32444269Y-30047470D01*
X32445769Y-30025282D01*
X32447511Y-29997975D01*
X32449547Y-29965013D01*
X32451927Y-29925856D01*
X32454552Y-29882485D01*
X32460789Y-29772157D01*
X32466284Y-29659836D01*
X32471033Y-29546174D01*
X32475030Y-29431823D01*
X32478270Y-29317435D01*
X32480748Y-29203662D01*
X32482458Y-29091155D01*
X32483395Y-28980567D01*
X32483554Y-28872548D01*
X32482930Y-28767751D01*
X32481517Y-28666828D01*
X32479310Y-28570431D01*
X32476304Y-28479211D01*
X32472494Y-28393819D01*
X32467874Y-28314909D01*
X32467263Y-28305871D01*
X32451598Y-28128127D01*
X32428978Y-27949859D01*
X32399370Y-27770901D01*
X32362743Y-27591087D01*
X32319067Y-27410250D01*
X32283122Y-27281346D01*
X32565304Y-27281346D01*
X32565943Y-27285925D01*
X32566423Y-27288057D01*
X32568003Y-27296174D01*
X32570453Y-27310556D01*
X32573635Y-27330279D01*
X32577413Y-27354421D01*
X32581648Y-27382059D01*
X32586203Y-27412270D01*
X32590940Y-27444132D01*
X32595723Y-27476721D01*
X32600412Y-27509116D01*
X32604871Y-27540393D01*
X32608962Y-27569630D01*
X32612547Y-27595904D01*
X32614309Y-27609185D01*
X32638720Y-27809308D01*
X32658793Y-28004267D01*
X32674535Y-28194708D01*
X32685953Y-28381282D01*
X32693053Y-28564635D01*
X32695842Y-28745417D01*
X32694327Y-28924275D01*
X32688514Y-29101858D01*
X32678411Y-29278813D01*
X32664023Y-29455791D01*
X32645358Y-29633437D01*
X32636027Y-29710128D01*
X32631381Y-29745866D01*
X32626172Y-29784274D01*
X32620556Y-29824313D01*
X32614690Y-29864950D01*
X32608730Y-29905148D01*
X32602834Y-29943870D01*
X32597157Y-29980080D01*
X32591857Y-30012744D01*
X32587091Y-30040824D01*
X32583015Y-30063284D01*
X32581210Y-30072448D01*
X32580303Y-30079626D01*
X32583055Y-30081602D01*
X32589437Y-30080585D01*
X32596743Y-30079151D01*
X32609548Y-30076765D01*
X32626207Y-30073727D01*
X32645071Y-30070341D01*
X32650179Y-30069433D01*
X32668385Y-30066125D01*
X32683871Y-30063160D01*
X32695314Y-30060805D01*
X32701390Y-30059325D01*
X32702003Y-30059063D01*
X32703512Y-30054854D01*
X32705468Y-30047538D01*
X32764886Y-30047538D01*
X32768322Y-30047286D01*
X32778171Y-30045677D01*
X32793745Y-30042844D01*
X32814354Y-30038923D01*
X32839308Y-30034045D01*
X32867920Y-30028346D01*
X32899499Y-30021960D01*
X32933357Y-30015020D01*
X32951199Y-30011327D01*
X32976331Y-30006045D01*
X32999088Y-30001138D01*
X33018513Y-29996824D01*
X33033650Y-29993319D01*
X33043542Y-29990838D01*
X33047210Y-29989627D01*
X33047340Y-29984940D01*
X33044979Y-29974394D01*
X33040437Y-29958825D01*
X33034024Y-29939067D01*
X33026049Y-29915956D01*
X33016823Y-29890329D01*
X33006655Y-29863020D01*
X32995855Y-29834865D01*
X32984733Y-29806700D01*
X32973599Y-29779361D01*
X32962762Y-29753683D01*
X32952533Y-29730501D01*
X32945596Y-29715571D01*
X32923937Y-29670214D01*
X32909290Y-29708314D01*
X32896882Y-29739917D01*
X32882087Y-29776480D01*
X32865587Y-29816385D01*
X32848061Y-29858012D01*
X32830189Y-29899745D01*
X32812651Y-29939965D01*
X32799689Y-29969136D01*
X32789868Y-29991060D01*
X32781121Y-30010653D01*
X32773859Y-30026985D01*
X32768495Y-30039129D01*
X32765439Y-30046157D01*
X32764886Y-30047538D01*
X32705468Y-30047538D01*
X32706304Y-30044414D01*
X32710185Y-30028618D01*
X32714957Y-30008341D01*
X32720427Y-29984456D01*
X32726399Y-29957838D01*
X32732677Y-29929362D01*
X32739066Y-29899901D01*
X32745371Y-29870331D01*
X32751396Y-29841526D01*
X32756946Y-29814360D01*
X32759286Y-29802657D01*
X32780640Y-29691486D01*
X32799424Y-29585979D01*
X32815751Y-29485057D01*
X32829732Y-29387640D01*
X32841479Y-29292650D01*
X32851103Y-29199005D01*
X32858717Y-29105628D01*
X32864432Y-29011438D01*
X32868360Y-28915357D01*
X32870613Y-28816304D01*
X32871303Y-28721343D01*
X32871203Y-28669245D01*
X32870804Y-28623003D01*
X32870048Y-28581217D01*
X32868880Y-28542489D01*
X32867243Y-28505419D01*
X32865080Y-28468611D01*
X32862335Y-28430666D01*
X32858952Y-28390184D01*
X32857078Y-28369371D01*
X32839302Y-28215314D01*
X32814358Y-28062312D01*
X32782268Y-27910460D01*
X32743058Y-27759853D01*
X32696752Y-27610584D01*
X32643373Y-27462748D01*
X32592749Y-27338958D01*
X32582539Y-27315472D01*
X32574880Y-27298337D01*
X32569582Y-27287183D01*
X32566453Y-27281643D01*
X32565304Y-27281346D01*
X32283122Y-27281346D01*
X32268308Y-27228224D01*
X32254197Y-27181497D01*
X32247669Y-27160209D01*
X32214463Y-27228669D01*
X32160740Y-27347292D01*
X32113366Y-27468405D01*
X32072544Y-27591374D01*
X32038474Y-27715567D01*
X32011357Y-27840352D01*
X32001095Y-27898881D01*
X31990929Y-27969153D01*
X31982093Y-28045834D01*
X31974635Y-28128188D01*
X31968603Y-28215480D01*
X31964044Y-28306976D01*
X31961006Y-28401939D01*
X31959538Y-28499637D01*
X31959401Y-28539914D01*
X31664373Y-28539914D01*
X31664269Y-28535970D01*
X31662872Y-28440128D01*
X31662523Y-28335931D01*
X31663569Y-28238072D01*
X31666099Y-28145750D01*
X31670206Y-28058165D01*
X31675980Y-27974515D01*
X31683513Y-27893999D01*
X31692894Y-27815818D01*
X31704216Y-27739169D01*
X31717568Y-27663252D01*
X31733043Y-27587266D01*
X31750730Y-27510410D01*
X31770722Y-27431883D01*
X31782187Y-27389657D01*
X31828579Y-27235353D01*
X31881639Y-27083177D01*
X31941174Y-26933552D01*
X32006992Y-26786900D01*
X32078899Y-26643643D01*
X32156703Y-26504204D01*
X32240211Y-26369006D01*
X32265844Y-26330088D01*
X32283397Y-26304044D01*
X32301319Y-26277853D01*
X32318922Y-26252491D01*
X32335515Y-26228935D01*
X32350408Y-26208161D01*
X32362912Y-26191147D01*
X32372337Y-26178868D01*
X32374756Y-26175900D01*
X32383854Y-26165014D01*
X32392034Y-26175505D01*
X32402925Y-26189958D01*
X32417000Y-26209376D01*
X32433488Y-26232639D01*
X32451620Y-26258627D01*
X32470624Y-26286221D01*
X32489729Y-26314301D01*
X32508166Y-26341747D01*
X32525163Y-26367439D01*
X32539951Y-26390258D01*
X32541712Y-26393020D01*
X32625720Y-26531804D01*
X32703521Y-26674269D01*
X32775019Y-26820182D01*
X32840119Y-26969311D01*
X32898725Y-27121425D01*
X32950744Y-27276291D01*
X32996078Y-27433677D01*
X33034634Y-27593351D01*
X33034923Y-27594671D01*
X33048290Y-27660156D01*
X33060157Y-27727468D01*
X33070645Y-27797555D01*
X33079876Y-27871363D01*
X33087972Y-27949839D01*
X33095055Y-28033930D01*
X33099395Y-28095414D01*
X33100530Y-28117385D01*
X33101507Y-28145681D01*
X33102328Y-28179371D01*
X33102990Y-28217525D01*
X33103495Y-28259213D01*
X33103843Y-28303504D01*
X33104033Y-28349467D01*
X33104065Y-28396172D01*
X33103940Y-28442688D01*
X33103657Y-28488086D01*
X33103216Y-28531434D01*
X33102618Y-28571802D01*
X33101862Y-28608260D01*
X33100948Y-28639877D01*
X33099877Y-28665722D01*
X33099408Y-28674171D01*
X33095352Y-28738638D01*
X33091386Y-28797162D01*
X33087408Y-28851058D01*
X33083317Y-28901638D01*
X33079012Y-28950214D01*
X33074818Y-28993847D01*
X33065566Y-29086738D01*
X33086087Y-29144433D01*
X33124984Y-29263793D01*
X33157215Y-29384560D01*
X33182868Y-29507206D01*
X33202028Y-29632202D01*
X33214785Y-29760023D01*
X33220698Y-29872507D01*
X33221470Y-29895554D01*
X33222237Y-29915948D01*
X33222951Y-29932648D01*
X33223569Y-29944613D01*
X33224042Y-29950802D01*
X33224187Y-29951428D01*
X33228582Y-29950567D01*
X33239130Y-29948129D01*
X33254950Y-29944335D01*
X33275163Y-29939405D01*
X33298889Y-29933557D01*
X33325250Y-29927013D01*
X33353365Y-29919990D01*
X33382356Y-29912711D01*
X33411342Y-29905393D01*
X33439444Y-29898257D01*
X33465784Y-29891522D01*
X33489480Y-29885409D01*
X33509655Y-29880137D01*
X33512371Y-29879420D01*
X33695686Y-29829061D01*
X33874556Y-29776184D01*
X34048579Y-29720929D01*
X34217351Y-29663435D01*
X34380471Y-29603843D01*
X34537535Y-29542291D01*
X34688141Y-29478920D01*
X34766473Y-29444069D01*
X34782054Y-29436889D01*
X34801596Y-29427712D01*
X34824280Y-29416936D01*
X34849285Y-29404964D01*
X34875789Y-29392195D01*
X34902973Y-29379029D01*
X34930016Y-29365867D01*
X34956096Y-29353109D01*
X34980394Y-29341154D01*
X35002088Y-29330404D01*
X35020358Y-29321259D01*
X35034383Y-29314118D01*
X35043343Y-29309383D01*
X35046320Y-29307588D01*
X35047919Y-29303539D01*
X35050958Y-29293488D01*
X35055166Y-29278483D01*
X35060271Y-29259576D01*
X35066001Y-29237815D01*
X35072085Y-29214250D01*
X35078252Y-29189932D01*
X35084229Y-29165909D01*
X35089746Y-29143231D01*
X35094530Y-29122949D01*
X35096483Y-29114305D01*
X35365443Y-29114305D01*
X35377118Y-29107417D01*
X35383738Y-29103061D01*
X35394984Y-29095176D01*
X35409688Y-29084602D01*
X35426681Y-29072178D01*
X35443283Y-29059873D01*
X35514718Y-29004197D01*
X35579230Y-28948946D01*
X35636777Y-28894166D01*
X35687317Y-28839907D01*
X35730808Y-28786214D01*
X35767210Y-28733138D01*
X35796480Y-28680725D01*
X35818576Y-28629024D01*
X35819589Y-28626183D01*
X35833742Y-28576302D01*
X35840825Y-28527082D01*
X35840839Y-28478767D01*
X35833785Y-28431603D01*
X35819664Y-28385834D01*
X35818465Y-28382821D01*
X35806649Y-28356725D01*
X35792671Y-28332290D01*
X35775544Y-28308127D01*
X35754285Y-28282847D01*
X35727907Y-28255061D01*
X35727614Y-28254766D01*
X35693297Y-28222393D01*
X35657549Y-28193274D01*
X35618854Y-28166337D01*
X35575692Y-28140507D01*
X35536582Y-28119745D01*
X35517898Y-28110550D01*
X35497584Y-28101010D01*
X35476720Y-28091583D01*
X35456388Y-28082724D01*
X35437669Y-28074892D01*
X35421644Y-28068541D01*
X35409395Y-28064130D01*
X35402002Y-28062115D01*
X35400375Y-28062215D01*
X35400270Y-28066170D01*
X35401002Y-28076091D01*
X35402453Y-28090749D01*
X35404505Y-28108913D01*
X35406248Y-28123161D01*
X35420892Y-28266882D01*
X35428687Y-28410956D01*
X35429638Y-28554778D01*
X35423752Y-28697741D01*
X35411033Y-28839240D01*
X35398859Y-28931800D01*
X35395924Y-28950758D01*
X35392296Y-28972946D01*
X35388213Y-28997028D01*
X35383914Y-29021671D01*
X35379637Y-29045540D01*
X35375621Y-29067302D01*
X35372104Y-29085621D01*
X35369325Y-29099164D01*
X35367808Y-29105602D01*
X35365443Y-29114305D01*
X35096483Y-29114305D01*
X35097590Y-29109411D01*
X35118349Y-29006892D01*
X35134846Y-28906781D01*
X35147308Y-28807090D01*
X35155967Y-28705830D01*
X35161051Y-28601015D01*
X35162287Y-28548985D01*
X35161970Y-28424597D01*
X35156762Y-28304246D01*
X35146500Y-28186460D01*
X35131017Y-28069770D01*
X35110147Y-27952702D01*
X35083726Y-27833785D01*
X35080205Y-27819445D01*
X35042508Y-27682377D01*
X34998025Y-27547853D01*
X34946792Y-27415939D01*
X34888843Y-27286702D01*
X34824215Y-27160209D01*
X34752942Y-27036526D01*
X34675060Y-26915720D01*
X34590604Y-26797857D01*
X34499610Y-26683005D01*
X34439774Y-26613166D01*
X34418163Y-26589317D01*
X34392299Y-26561830D01*
X34363358Y-26531880D01*
X34332521Y-26500642D01*
X34300965Y-26469289D01*
X34269868Y-26438996D01*
X34240410Y-26410939D01*
X34213767Y-26386290D01*
X34198171Y-26372349D01*
X34084286Y-26277110D01*
X33966792Y-26188118D01*
X33845807Y-26105432D01*
X33721444Y-26029115D01*
X33593821Y-25959225D01*
X33463053Y-25895825D01*
X33329255Y-25838974D01*
X33192543Y-25788735D01*
X33053033Y-25745167D01*
X32955386Y-25719073D01*
X32812671Y-25687183D01*
X32669160Y-25662377D01*
X32525118Y-25644616D01*
X32380813Y-25633859D01*
X32236511Y-25630068D01*
X32092479Y-25633203D01*
X31948982Y-25643224D01*
X31806287Y-25660091D01*
X31664662Y-25683765D01*
X31524372Y-25714206D01*
X31385685Y-25751375D01*
X31248866Y-25795231D01*
X31114182Y-25845736D01*
X30981900Y-25902850D01*
X30852287Y-25966533D01*
X30725608Y-26036745D01*
X30694786Y-26055098D01*
X30578095Y-26129270D01*
X30465501Y-26208324D01*
X30357735Y-26291709D01*
X30255531Y-26378873D01*
X30212920Y-26417898D01*
X30198396Y-26431234D01*
X30185693Y-26442402D01*
X30175742Y-26450624D01*
X30169473Y-26455121D01*
X30167795Y-26455662D01*
X30169525Y-26452472D01*
X30175965Y-26444984D01*
X30186489Y-26433817D01*
X30200468Y-26419589D01*
X30217275Y-26402919D01*
X30236283Y-26384424D01*
X30256863Y-26364723D01*
X30278389Y-26344435D01*
X30300232Y-26324178D01*
X30314107Y-26311499D01*
X30425358Y-26215351D01*
X30540974Y-26124918D01*
X30660707Y-26040312D01*
X30784311Y-25961645D01*
X30911538Y-25889030D01*
X31042141Y-25822577D01*
X31175873Y-25762401D01*
X31312487Y-25708611D01*
X31451736Y-25661320D01*
X31593372Y-25620641D01*
X31737148Y-25586685D01*
X31882818Y-25559564D01*
X32014021Y-25541247D01*
X32049116Y-25537179D01*
X32080373Y-25533749D01*
X32108862Y-25530904D01*
X32135653Y-25528590D01*
X32161815Y-25526753D01*
X32188417Y-25525340D01*
X32216530Y-25524297D01*
X32247223Y-25523572D01*
X32281564Y-25523110D01*
X32320625Y-25522858D01*
X32365474Y-25522763D01*
X32383886Y-25522757D01*
X32429667Y-25522798D01*
D14*
X2705000Y-25655000D02*
X295000Y-25655000D01*
X2705000Y-25655000D02*
X2705000Y25655000D01*
X3600000Y24130000D02*
G75*
G03*
X3600000Y24130000I-100000J0D01*
G01*
X295000Y-25655000D02*
X295000Y25655000D01*
X295000Y25655000D02*
X2705000Y25655000D01*
D10*
X45500000Y28000000D02*
X45500000Y26000000D01*
X47500000Y32000000D02*
X47500000Y22000000D01*
X43500000Y24500000D02*
X45500000Y24500000D01*
X39500000Y24500000D02*
X41500000Y24500000D01*
X35500000Y24500000D02*
X37500000Y24500000D01*
X31500000Y24500000D02*
X33500000Y24500000D01*
X27500000Y24500000D02*
X29500000Y24500000D01*
X27500000Y28000000D02*
X27500000Y26000000D01*
X29500000Y29500000D02*
X27500000Y29500000D01*
X33500000Y29500000D02*
X31500000Y29500000D01*
X37500000Y29500000D02*
X35500000Y29500000D01*
X41500000Y29500000D02*
X39500000Y29500000D01*
X45500000Y29500000D02*
X43500000Y29500000D01*
X25500000Y27000000D02*
X25500000Y22000000D01*
X25500000Y27000000D02*
X25500000Y32000000D01*
X25500000Y32000000D02*
X52500000Y32000000D01*
X25500000Y22000000D02*
X52500000Y22000000D01*
X52500000Y22000000D02*
X52500000Y32000000D01*
D15*
G36*
X25500000Y22000000D02*
G01*
X25500000Y23000000D01*
X52500000Y23000000D01*
X52500000Y22000000D01*
X25500000Y22000000D01*
G37*
X25500000Y22000000D02*
X25500000Y23000000D01*
X52500000Y23000000D01*
X52500000Y22000000D01*
X25500000Y22000000D01*
D10*
X24500000Y30500000D02*
X24500000Y29500000D01*
X24500000Y24500000D02*
X24500000Y23500000D01*
X24000000Y30000000D02*
X25000000Y30000000D01*
X45500000Y17500000D02*
X45500000Y15500000D01*
X47500000Y21500000D02*
X47500000Y11500000D01*
X43500000Y14000000D02*
X45500000Y14000000D01*
X39500000Y14000000D02*
X41500000Y14000000D01*
X35500000Y14000000D02*
X37500000Y14000000D01*
X31500000Y14000000D02*
X33500000Y14000000D01*
X27500000Y14000000D02*
X29500000Y14000000D01*
X27500000Y17500000D02*
X27500000Y15500000D01*
X29500000Y19000000D02*
X27500000Y19000000D01*
X33500000Y19000000D02*
X31500000Y19000000D01*
X37500000Y19000000D02*
X35500000Y19000000D01*
X41500000Y19000000D02*
X39500000Y19000000D01*
X45500000Y19000000D02*
X43500000Y19000000D01*
X25500000Y16500000D02*
X25500000Y11500000D01*
X25500000Y16500000D02*
X25500000Y21500000D01*
X25500000Y21500000D02*
X52500000Y21500000D01*
X25500000Y11500000D02*
X52500000Y11500000D01*
X52500000Y11500000D02*
X52500000Y21500000D01*
D15*
G36*
X25500000Y11500000D02*
G01*
X25500000Y12500000D01*
X52500000Y12500000D01*
X52500000Y11500000D01*
X25500000Y11500000D01*
G37*
X25500000Y11500000D02*
X25500000Y12500000D01*
X52500000Y12500000D01*
X52500000Y11500000D01*
X25500000Y11500000D01*
D10*
X24500000Y20000000D02*
X24500000Y19000000D01*
X24500000Y14000000D02*
X24500000Y13000000D01*
X24000000Y19500000D02*
X25000000Y19500000D01*
X20250000Y-16500000D02*
X20250000Y-17008000D01*
X20250000Y-16500000D02*
X20250000Y-15992000D01*
X20250000Y-8626000D02*
X20250000Y-9134000D01*
X20250000Y-24374000D02*
X20250000Y-23866000D01*
X37395000Y-24374000D02*
X20250000Y-24374000D01*
X37395000Y-8626000D02*
X20250000Y-8626000D01*
X48393200Y-16500000D02*
X48393200Y-24374000D01*
X48393200Y-16500000D02*
X48393200Y-8626000D01*
X20250000Y-16500000D02*
X48393200Y-16500000D01*
X48393200Y-8626000D02*
X39554000Y-8626000D01*
X48393200Y-24374000D02*
X39554000Y-24374000D01*
D16*
X53500000Y18900000D02*
X53500000Y14100000D01*
X60250000Y13000000D02*
X56750000Y13000000D01*
X56750000Y20000000D02*
X60250000Y20000000D01*
X65000000Y20000000D02*
X63750000Y20000000D01*
X65000000Y13000000D02*
X65000000Y20000000D01*
X63750000Y13000000D02*
X65000000Y13000000D01*
D10*
X35800000Y-3850000D02*
X35800000Y-3550000D01*
X34500000Y-3950000D02*
X29500000Y-3950000D01*
X29500000Y450000D02*
X34500000Y450000D01*
X12000000Y-21800000D02*
X12000000Y-24400000D01*
X12000000Y-24400000D02*
X9000000Y-24400000D01*
X9000000Y-24400000D02*
X9000000Y-20600000D01*
X9000000Y-20600000D02*
X12000000Y-20600000D01*
X12000000Y-20600000D02*
X12000000Y-21800000D01*
D15*
X9550000Y22900000D02*
X8350000Y22900000D01*
X9750000Y23100000D02*
X9550000Y22900000D01*
X10050000Y23100000D02*
X9750000Y23100000D01*
X14150000Y23100000D02*
X13850000Y23100000D01*
X14150000Y22800000D02*
X14150000Y23100000D01*
X14150000Y14900000D02*
X13750000Y14900000D01*
X14150000Y15100000D02*
X14150000Y14900000D01*
X9350000Y14900000D02*
X9750000Y14900000D01*
X9350000Y15200000D02*
X9350000Y14900000D01*
D11*
X7625000Y6875000D02*
X7625000Y7050000D01*
X4375000Y6875000D02*
X4375000Y7150000D01*
X4375000Y10125000D02*
X4375000Y9850000D01*
X7625000Y10125000D02*
X7625000Y9850000D01*
X7625000Y6875000D02*
X4375000Y6875000D01*
X7625000Y10125000D02*
X4375000Y10125000D01*
X7625000Y7050000D02*
X8700000Y7050000D01*
D10*
X58750000Y-1850000D02*
X59050000Y-1850000D01*
X60500000Y1000000D02*
X60000000Y1000000D01*
X60000000Y-1000000D02*
X60500000Y-1000000D01*
X58000000Y1000000D02*
X58500000Y1000000D01*
X58000000Y-1000000D02*
X58500000Y-1000000D01*
D11*
X21650000Y-27250000D02*
G75*
G03*
X21650000Y-27250000I-1400000J0D01*
G01*
D10*
X16830000Y3870000D02*
X14170000Y3870000D01*
X16830000Y-1270000D02*
X16830000Y3870000D01*
X14170000Y-1270000D02*
X14170000Y3870000D01*
X16830000Y-1270000D02*
X14170000Y-1270000D01*
X16830000Y-2540000D02*
X16830000Y-3870000D01*
X16830000Y-3870000D02*
X15500000Y-3870000D01*
X6240000Y-18087221D02*
X6240000Y-18412779D01*
X7260000Y-18087221D02*
X7260000Y-18412779D01*
X14240000Y-18087221D02*
X14240000Y-18412779D01*
X15260000Y-18087221D02*
X15260000Y-18412779D01*
X60587221Y6260000D02*
X60912779Y6260000D01*
X60587221Y5240000D02*
X60912779Y5240000D01*
X60587221Y-6260000D02*
X60912779Y-6260000D01*
X60587221Y-5240000D02*
X60912779Y-5240000D01*
X57912779Y-3240000D02*
X57587221Y-3240000D01*
X57912779Y-4260000D02*
X57587221Y-4260000D01*
X55760000Y-1587221D02*
X55760000Y-1912779D01*
X54740000Y-1587221D02*
X54740000Y-1912779D01*
X46260000Y-2412779D02*
X46260000Y-2087221D01*
X45240000Y-2412779D02*
X45240000Y-2087221D01*
X37837221Y10000D02*
X38162779Y10000D01*
X37837221Y-1010000D02*
X38162779Y-1010000D01*
X34240000Y2662779D02*
X34240000Y2337221D01*
X35260000Y2662779D02*
X35260000Y2337221D01*
X27240000Y2337221D02*
X27240000Y2662779D01*
X28260000Y2337221D02*
X28260000Y2662779D01*
X37837221Y1760000D02*
X38162779Y1760000D01*
X37837221Y740000D02*
X38162779Y740000D01*
X22240000Y-4912779D02*
X22240000Y-4587221D01*
X23260000Y-4912779D02*
X23260000Y-4587221D01*
X49010000Y3837221D02*
X49010000Y4162779D01*
X47990000Y3837221D02*
X47990000Y4162779D01*
X49010000Y8162779D02*
X49010000Y7837221D01*
X47990000Y8162779D02*
X47990000Y7837221D01*
X17337221Y24740000D02*
X17662779Y24740000D01*
X17337221Y25760000D02*
X17662779Y25760000D01*
X4662779Y20240000D02*
X4337221Y20240000D01*
X4662779Y21260000D02*
X4337221Y21260000D01*
X9412779Y4010000D02*
X9087221Y4010000D01*
X9412779Y2990000D02*
X9087221Y2990000D01*
X5490000Y337221D02*
X5490000Y662779D01*
X6510000Y337221D02*
X6510000Y662779D01*
X50850000Y-4400000D02*
X50850000Y2500000D01*
X54150000Y-4400000D02*
X54150000Y2500000D01*
X50850000Y-4400000D02*
X54150000Y-4400000D01*
X27100000Y-4350000D02*
X27100000Y-7650000D01*
X27100000Y-7650000D02*
X34000000Y-7650000D01*
X27100000Y-4350000D02*
X34000000Y-4350000D01*
X20830000Y-3870000D02*
X19500000Y-3870000D01*
X20830000Y-2540000D02*
X20830000Y-3870000D01*
X20830000Y-1270000D02*
X18170000Y-1270000D01*
X18170000Y-1270000D02*
X18170000Y3870000D01*
X20830000Y-1270000D02*
X20830000Y3870000D01*
X20830000Y3870000D02*
X18170000Y3870000D01*
X43250000Y-7750000D02*
X37250000Y-7750000D01*
X37250000Y-1750000D02*
X43250000Y-1750000D01*
X43250000Y-7500000D02*
X43250000Y-7750000D01*
X43250000Y-1750000D02*
X43250000Y-2000000D01*
X37250000Y-1750000D02*
X37250000Y-2000000D01*
X37250000Y-7750000D02*
X37250000Y-7500000D01*
X21150000Y21750000D02*
X21150000Y16250000D01*
X15850000Y21750000D02*
X15850000Y16250000D01*
X21150000Y21750000D02*
X19500000Y21750000D01*
X15850000Y21750000D02*
X17500000Y21750000D01*
X17500000Y16250000D02*
X15850000Y16250000D01*
X21150000Y16250000D02*
X19500000Y16250000D01*
X14080000Y-13740000D02*
X14080000Y-15200000D01*
X10920000Y-13740000D02*
X10920000Y-15900000D01*
X10920000Y-13740000D02*
X11850000Y-13740000D01*
X14080000Y-13740000D02*
X13150000Y-13740000D01*
X27760000Y7420000D02*
X27760000Y8350000D01*
X27760000Y10580000D02*
X27760000Y9650000D01*
X27760000Y10580000D02*
X25600000Y10580000D01*
X27760000Y7420000D02*
X26300000Y7420000D01*
X14162779Y-9740000D02*
X13837221Y-9740000D01*
X14162779Y-10760000D02*
X13837221Y-10760000D01*
X14162779Y-12510000D02*
X13837221Y-12510000D01*
X14162779Y-11490000D02*
X13837221Y-11490000D01*
X15837221Y-16010000D02*
X16162779Y-16010000D01*
X15837221Y-14990000D02*
X16162779Y-14990000D01*
X15837221Y-12990000D02*
X16162779Y-12990000D01*
X15837221Y-14010000D02*
X16162779Y-14010000D01*
X60587221Y4260000D02*
X60912779Y4260000D01*
X60587221Y3240000D02*
X60912779Y3240000D01*
X62740000Y1912779D02*
X62740000Y1587221D01*
X63760000Y1912779D02*
X63760000Y1587221D01*
X60587221Y-3240000D02*
X60912779Y-3240000D01*
X60587221Y-4260000D02*
X60912779Y-4260000D01*
X63760000Y-1912779D02*
X63760000Y-1587221D01*
X62740000Y-1912779D02*
X62740000Y-1587221D01*
X55760000Y1587221D02*
X55760000Y1912779D01*
X54740000Y1587221D02*
X54740000Y1912779D01*
X29740000Y2337221D02*
X29740000Y2662779D01*
X30760000Y2337221D02*
X30760000Y2662779D01*
X24837221Y-1240000D02*
X25162779Y-1240000D01*
X24837221Y-2260000D02*
X25162779Y-2260000D01*
X24837221Y2260000D02*
X25162779Y2260000D01*
X24837221Y1240000D02*
X25162779Y1240000D01*
X25162779Y510000D02*
X24837221Y510000D01*
X25162779Y-510000D02*
X24837221Y-510000D01*
X41337221Y11210000D02*
X41662779Y11210000D01*
X41337221Y10190000D02*
X41662779Y10190000D01*
X44587221Y10190000D02*
X44912779Y10190000D01*
X44587221Y11210000D02*
X44912779Y11210000D01*
X4337221Y17760000D02*
X4662779Y17760000D01*
X4337221Y16740000D02*
X4662779Y16740000D01*
X4662779Y19510000D02*
X4337221Y19510000D01*
X4662779Y18490000D02*
X4337221Y18490000D01*
X24010000Y9337221D02*
X24010000Y9662779D01*
X22990000Y9337221D02*
X22990000Y9662779D01*
X4337221Y24760000D02*
X4662779Y24760000D01*
X4337221Y23740000D02*
X4662779Y23740000D01*
X4337221Y23010000D02*
X4662779Y23010000D01*
X4337221Y21990000D02*
X4662779Y21990000D01*
X4337221Y13240000D02*
X4662779Y13240000D01*
X4337221Y14260000D02*
X4662779Y14260000D01*
X4662779Y12510000D02*
X4337221Y12510000D01*
X4662779Y11490000D02*
X4337221Y11490000D01*
X4662779Y16010000D02*
X4337221Y16010000D01*
X4662779Y14990000D02*
X4337221Y14990000D01*
X9087221Y6010000D02*
X9412779Y6010000D01*
X9087221Y4990000D02*
X9412779Y4990000D01*
X46950000Y2450000D02*
X46350000Y2450000D01*
X47250000Y3500000D02*
X47000000Y3500000D01*
X47250000Y8500000D02*
X47250000Y3500000D01*
X47000000Y8500000D02*
X47250000Y8500000D01*
X41750000Y8500000D02*
X42000000Y8500000D01*
X41750000Y3500000D02*
X41750000Y8500000D01*
X42000000Y3500000D02*
X41750000Y3500000D01*
X10150000Y2110000D02*
X8350000Y2110000D01*
X8350000Y-1110000D02*
X10800000Y-1110000D01*
D11*
X64150000Y8500000D02*
G75*
G03*
X64150000Y8500000I-1400000J0D01*
G01*
X55650000Y8500000D02*
G75*
G03*
X55650000Y8500000I-1400000J0D01*
G01*
X31900000Y8250000D02*
G75*
G03*
X31900000Y8250000I-1400000J0D01*
G01*
X16900000Y-6000000D02*
G75*
G03*
X16900000Y-6000000I-1400000J0D01*
G01*
X16150000Y8250000D02*
G75*
G03*
X16150000Y8250000I-1400000J0D01*
G01*
X7400000Y4500000D02*
G75*
G03*
X7400000Y4500000I-1400000J0D01*
G01*
D10*
X13852064Y11840000D02*
X12647936Y11840000D01*
X13852064Y13660000D02*
X12647936Y13660000D01*
X26210000Y-5008578D02*
X26210000Y-4491422D01*
X24790000Y-5008578D02*
X24790000Y-4491422D01*
X39990000Y8162779D02*
X39990000Y7837221D01*
X41010000Y8162779D02*
X41010000Y7837221D01*
X37087221Y7760000D02*
X37412779Y7760000D01*
X37087221Y6740000D02*
X37412779Y6740000D01*
X39990000Y3837221D02*
X39990000Y4162779D01*
X41010000Y3837221D02*
X41010000Y4162779D01*
X37087221Y4240000D02*
X37412779Y4240000D01*
X37087221Y5260000D02*
X37412779Y5260000D01*
X9000000Y-16750000D02*
X12000000Y-16750000D01*
X12000000Y-19750000D02*
X9000000Y-19750000D01*
X7900000Y-17250000D02*
X7900000Y-16850000D01*
X57912779Y3240000D02*
X57587221Y3240000D01*
X57912779Y4260000D02*
X57587221Y4260000D01*
D11*
X17900000Y29500000D02*
G75*
G03*
X17900000Y29500000I-1400000J0D01*
G01*
X3061904Y-647619D02*
X3633333Y-647619D01*
X3747619Y-685714D01*
X3823809Y-761904D01*
X3861904Y-876190D01*
X3861904Y-952380D01*
X3861904Y152380D02*
X3861904Y-304761D01*
X3861904Y-76190D02*
X3061904Y-76190D01*
X3176190Y-152380D01*
X3252380Y-228571D01*
X3290476Y-304761D01*
X3061904Y419047D02*
X3061904Y914285D01*
X3366666Y647619D01*
X3366666Y761904D01*
X3404761Y838095D01*
X3442857Y876190D01*
X3519047Y914285D01*
X3709523Y914285D01*
X3785714Y876190D01*
X3823809Y838095D01*
X3861904Y761904D01*
X3861904Y533333D01*
X3823809Y457142D01*
X3785714Y419047D01*
X24785714Y26485714D02*
X24823809Y26447619D01*
X24861904Y26333333D01*
X24861904Y26257142D01*
X24823809Y26142857D01*
X24747619Y26066666D01*
X24671428Y26028571D01*
X24519047Y25990476D01*
X24404761Y25990476D01*
X24252380Y26028571D01*
X24176190Y26066666D01*
X24100000Y26142857D01*
X24061904Y26257142D01*
X24061904Y26333333D01*
X24100000Y26447619D01*
X24138095Y26485714D01*
X24061904Y27171428D02*
X24061904Y27019047D01*
X24100000Y26942857D01*
X24138095Y26904761D01*
X24252380Y26828571D01*
X24404761Y26790476D01*
X24709523Y26790476D01*
X24785714Y26828571D01*
X24823809Y26866666D01*
X24861904Y26942857D01*
X24861904Y27095238D01*
X24823809Y27171428D01*
X24785714Y27209523D01*
X24709523Y27247619D01*
X24519047Y27247619D01*
X24442857Y27209523D01*
X24404761Y27171428D01*
X24366666Y27095238D01*
X24366666Y26942857D01*
X24404761Y26866666D01*
X24442857Y26828571D01*
X24519047Y26790476D01*
X24861904Y28009523D02*
X24861904Y27552380D01*
X24861904Y27780952D02*
X24061904Y27780952D01*
X24176190Y27704761D01*
X24252380Y27628571D01*
X24290476Y27552380D01*
X30547619Y26833333D02*
X31023809Y26833333D01*
X30452380Y26547619D02*
X30785714Y27547619D01*
X31119047Y26547619D01*
X31452380Y26547619D02*
X31452380Y27547619D01*
X31833333Y27547619D01*
X31928571Y27500000D01*
X31976190Y27452380D01*
X32023809Y27357142D01*
X32023809Y27214285D01*
X31976190Y27119047D01*
X31928571Y27071428D01*
X31833333Y27023809D01*
X31452380Y27023809D01*
X32452380Y26547619D02*
X32452380Y27547619D01*
X32833333Y27547619D01*
X32928571Y27500000D01*
X32976190Y27452380D01*
X33023809Y27357142D01*
X33023809Y27214285D01*
X32976190Y27119047D01*
X32928571Y27071428D01*
X32833333Y27023809D01*
X32452380Y27023809D01*
X33928571Y26547619D02*
X33452380Y26547619D01*
X33452380Y27547619D01*
X34452380Y27023809D02*
X34452380Y26547619D01*
X34119047Y27547619D02*
X34452380Y27023809D01*
X34785714Y27547619D01*
X35833333Y26833333D02*
X36309523Y26833333D01*
X35738095Y26547619D02*
X36071428Y27547619D01*
X36404761Y26547619D01*
X36738095Y26547619D02*
X36738095Y27547619D01*
X36976190Y27547619D01*
X37119047Y27500000D01*
X37214285Y27404761D01*
X37261904Y27309523D01*
X37309523Y27119047D01*
X37309523Y26976190D01*
X37261904Y26785714D01*
X37214285Y26690476D01*
X37119047Y26595238D01*
X36976190Y26547619D01*
X36738095Y26547619D01*
X37738095Y26547619D02*
X37738095Y27547619D01*
X37738095Y27071428D02*
X38309523Y27071428D01*
X38309523Y26547619D02*
X38309523Y27547619D01*
X38785714Y27071428D02*
X39119047Y27071428D01*
X39261904Y26547619D02*
X38785714Y26547619D01*
X38785714Y27547619D01*
X39261904Y27547619D01*
X39642857Y26595238D02*
X39785714Y26547619D01*
X40023809Y26547619D01*
X40119047Y26595238D01*
X40166666Y26642857D01*
X40214285Y26738095D01*
X40214285Y26833333D01*
X40166666Y26928571D01*
X40119047Y26976190D01*
X40023809Y27023809D01*
X39833333Y27071428D01*
X39738095Y27119047D01*
X39690476Y27166666D01*
X39642857Y27261904D01*
X39642857Y27357142D01*
X39690476Y27452380D01*
X39738095Y27500000D01*
X39833333Y27547619D01*
X40071428Y27547619D01*
X40214285Y27500000D01*
X40642857Y26547619D02*
X40642857Y27547619D01*
X40976190Y27547619D02*
X41309523Y26547619D01*
X41642857Y27547619D01*
X41976190Y27071428D02*
X42309523Y27071428D01*
X42452380Y26547619D02*
X41976190Y26547619D01*
X41976190Y27547619D01*
X42452380Y27547619D01*
X24785714Y15985714D02*
X24823809Y15947619D01*
X24861904Y15833333D01*
X24861904Y15757142D01*
X24823809Y15642857D01*
X24747619Y15566666D01*
X24671428Y15528571D01*
X24519047Y15490476D01*
X24404761Y15490476D01*
X24252380Y15528571D01*
X24176190Y15566666D01*
X24100000Y15642857D01*
X24061904Y15757142D01*
X24061904Y15833333D01*
X24100000Y15947619D01*
X24138095Y15985714D01*
X24061904Y16671428D02*
X24061904Y16519047D01*
X24100000Y16442857D01*
X24138095Y16404761D01*
X24252380Y16328571D01*
X24404761Y16290476D01*
X24709523Y16290476D01*
X24785714Y16328571D01*
X24823809Y16366666D01*
X24861904Y16442857D01*
X24861904Y16595238D01*
X24823809Y16671428D01*
X24785714Y16709523D01*
X24709523Y16747619D01*
X24519047Y16747619D01*
X24442857Y16709523D01*
X24404761Y16671428D01*
X24366666Y16595238D01*
X24366666Y16442857D01*
X24404761Y16366666D01*
X24442857Y16328571D01*
X24519047Y16290476D01*
X24138095Y17052380D02*
X24100000Y17090476D01*
X24061904Y17166666D01*
X24061904Y17357142D01*
X24100000Y17433333D01*
X24138095Y17471428D01*
X24214285Y17509523D01*
X24290476Y17509523D01*
X24404761Y17471428D01*
X24861904Y17014285D01*
X24861904Y17509523D01*
X30547619Y16333333D02*
X31023809Y16333333D01*
X30452380Y16047619D02*
X30785714Y17047619D01*
X31119047Y16047619D01*
X31452380Y16047619D02*
X31452380Y17047619D01*
X31833333Y17047619D01*
X31928571Y17000000D01*
X31976190Y16952380D01*
X32023809Y16857142D01*
X32023809Y16714285D01*
X31976190Y16619047D01*
X31928571Y16571428D01*
X31833333Y16523809D01*
X31452380Y16523809D01*
X32452380Y16047619D02*
X32452380Y17047619D01*
X32833333Y17047619D01*
X32928571Y17000000D01*
X32976190Y16952380D01*
X33023809Y16857142D01*
X33023809Y16714285D01*
X32976190Y16619047D01*
X32928571Y16571428D01*
X32833333Y16523809D01*
X32452380Y16523809D01*
X33928571Y16047619D02*
X33452380Y16047619D01*
X33452380Y17047619D01*
X34452380Y16523809D02*
X34452380Y16047619D01*
X34119047Y17047619D02*
X34452380Y16523809D01*
X34785714Y17047619D01*
X35833333Y16333333D02*
X36309523Y16333333D01*
X35738095Y16047619D02*
X36071428Y17047619D01*
X36404761Y16047619D01*
X36738095Y16047619D02*
X36738095Y17047619D01*
X36976190Y17047619D01*
X37119047Y17000000D01*
X37214285Y16904761D01*
X37261904Y16809523D01*
X37309523Y16619047D01*
X37309523Y16476190D01*
X37261904Y16285714D01*
X37214285Y16190476D01*
X37119047Y16095238D01*
X36976190Y16047619D01*
X36738095Y16047619D01*
X37738095Y16047619D02*
X37738095Y17047619D01*
X37738095Y16571428D02*
X38309523Y16571428D01*
X38309523Y16047619D02*
X38309523Y17047619D01*
X38785714Y16571428D02*
X39119047Y16571428D01*
X39261904Y16047619D02*
X38785714Y16047619D01*
X38785714Y17047619D01*
X39261904Y17047619D01*
X39642857Y16095238D02*
X39785714Y16047619D01*
X40023809Y16047619D01*
X40119047Y16095238D01*
X40166666Y16142857D01*
X40214285Y16238095D01*
X40214285Y16333333D01*
X40166666Y16428571D01*
X40119047Y16476190D01*
X40023809Y16523809D01*
X39833333Y16571428D01*
X39738095Y16619047D01*
X39690476Y16666666D01*
X39642857Y16761904D01*
X39642857Y16857142D01*
X39690476Y16952380D01*
X39738095Y17000000D01*
X39833333Y17047619D01*
X40071428Y17047619D01*
X40214285Y17000000D01*
X40642857Y16047619D02*
X40642857Y17047619D01*
X40976190Y17047619D02*
X41309523Y16047619D01*
X41642857Y17047619D01*
X41976190Y16571428D02*
X42309523Y16571428D01*
X42452380Y16047619D02*
X41976190Y16047619D01*
X41976190Y17047619D01*
X42452380Y17047619D01*
X49061904Y-17147619D02*
X49633333Y-17147619D01*
X49747619Y-17185714D01*
X49823809Y-17261904D01*
X49861904Y-17376190D01*
X49861904Y-17452380D01*
X49861904Y-16347619D02*
X49861904Y-16804761D01*
X49861904Y-16576190D02*
X49061904Y-16576190D01*
X49176190Y-16652380D01*
X49252380Y-16728571D01*
X49290476Y-16804761D01*
X49861904Y-15585714D02*
X49861904Y-16042857D01*
X49861904Y-15814285D02*
X49061904Y-15814285D01*
X49176190Y-15890476D01*
X49252380Y-15966666D01*
X49290476Y-16042857D01*
D17*
X58102380Y21188095D02*
X58102380Y20616666D01*
X58064285Y20502380D01*
X57988095Y20426190D01*
X57873809Y20388095D01*
X57797619Y20388095D01*
X58902380Y20388095D02*
X58445238Y20388095D01*
X58673809Y20388095D02*
X58673809Y21188095D01*
X58597619Y21073809D01*
X58521428Y20997619D01*
X58445238Y20959523D01*
X59207142Y21111904D02*
X59245238Y21150000D01*
X59321428Y21188095D01*
X59511904Y21188095D01*
X59588095Y21150000D01*
X59626190Y21111904D01*
X59664285Y21035714D01*
X59664285Y20959523D01*
X59626190Y20845238D01*
X59169047Y20388095D01*
X59664285Y20388095D01*
X27061904Y-2740476D02*
X27709523Y-2740476D01*
X27785714Y-2702380D01*
X27823809Y-2664285D01*
X27861904Y-2588095D01*
X27861904Y-2435714D01*
X27823809Y-2359523D01*
X27785714Y-2321428D01*
X27709523Y-2283333D01*
X27061904Y-2283333D01*
X27328571Y-1559523D02*
X27861904Y-1559523D01*
X27023809Y-1750000D02*
X27595238Y-1940476D01*
X27595238Y-1445238D01*
X27861904Y-721428D02*
X27861904Y-1178571D01*
X27861904Y-950000D02*
X27061904Y-950000D01*
X27176190Y-1026190D01*
X27252380Y-1102380D01*
X27290476Y-1178571D01*
X12735714Y-22861904D02*
X12469047Y-22480952D01*
X12278571Y-22861904D02*
X12278571Y-22061904D01*
X12583333Y-22061904D01*
X12659523Y-22100000D01*
X12697619Y-22138095D01*
X12735714Y-22214285D01*
X12735714Y-22328571D01*
X12697619Y-22404761D01*
X12659523Y-22442857D01*
X12583333Y-22480952D01*
X12278571Y-22480952D01*
X13040476Y-22138095D02*
X13078571Y-22100000D01*
X13154761Y-22061904D01*
X13345238Y-22061904D01*
X13421428Y-22100000D01*
X13459523Y-22138095D01*
X13497619Y-22214285D01*
X13497619Y-22290476D01*
X13459523Y-22404761D01*
X13002380Y-22861904D01*
X13497619Y-22861904D01*
X14221428Y-22061904D02*
X13840476Y-22061904D01*
X13802380Y-22442857D01*
X13840476Y-22404761D01*
X13916666Y-22366666D01*
X14107142Y-22366666D01*
X14183333Y-22404761D01*
X14221428Y-22442857D01*
X14259523Y-22519047D01*
X14259523Y-22709523D01*
X14221428Y-22785714D01*
X14183333Y-22823809D01*
X14107142Y-22861904D01*
X13916666Y-22861904D01*
X13840476Y-22823809D01*
X13802380Y-22785714D01*
X10759523Y24188095D02*
X10759523Y23540476D01*
X10797619Y23464285D01*
X10835714Y23426190D01*
X10911904Y23388095D01*
X11064285Y23388095D01*
X11140476Y23426190D01*
X11178571Y23464285D01*
X11216666Y23540476D01*
X11216666Y24188095D01*
X11940476Y24188095D02*
X11788095Y24188095D01*
X11711904Y24150000D01*
X11673809Y24111904D01*
X11597619Y23997619D01*
X11559523Y23845238D01*
X11559523Y23540476D01*
X11597619Y23464285D01*
X11635714Y23426190D01*
X11711904Y23388095D01*
X11864285Y23388095D01*
X11940476Y23426190D01*
X11978571Y23464285D01*
X12016666Y23540476D01*
X12016666Y23730952D01*
X11978571Y23807142D01*
X11940476Y23845238D01*
X11864285Y23883333D01*
X11711904Y23883333D01*
X11635714Y23845238D01*
X11597619Y23807142D01*
X11559523Y23730952D01*
X12778571Y23388095D02*
X12321428Y23388095D01*
X12550000Y23388095D02*
X12550000Y24188095D01*
X12473809Y24073809D01*
X12397619Y23997619D01*
X12321428Y23959523D01*
X9061904Y7509523D02*
X9709523Y7509523D01*
X9785714Y7547619D01*
X9823809Y7585714D01*
X9861904Y7661904D01*
X9861904Y7814285D01*
X9823809Y7890476D01*
X9785714Y7928571D01*
X9709523Y7966666D01*
X9061904Y7966666D01*
X9061904Y8690476D02*
X9061904Y8538095D01*
X9100000Y8461904D01*
X9138095Y8423809D01*
X9252380Y8347619D01*
X9404761Y8309523D01*
X9709523Y8309523D01*
X9785714Y8347619D01*
X9823809Y8385714D01*
X9861904Y8461904D01*
X9861904Y8614285D01*
X9823809Y8690476D01*
X9785714Y8728571D01*
X9709523Y8766666D01*
X9519047Y8766666D01*
X9442857Y8728571D01*
X9404761Y8690476D01*
X9366666Y8614285D01*
X9366666Y8461904D01*
X9404761Y8385714D01*
X9442857Y8347619D01*
X9519047Y8309523D01*
X9138095Y9071428D02*
X9100000Y9109523D01*
X9061904Y9185714D01*
X9061904Y9376190D01*
X9100000Y9452380D01*
X9138095Y9490476D01*
X9214285Y9528571D01*
X9290476Y9528571D01*
X9404761Y9490476D01*
X9861904Y9033333D01*
X9861904Y9528571D01*
X58259523Y2688095D02*
X58259523Y2040476D01*
X58297619Y1964285D01*
X58335714Y1926190D01*
X58411904Y1888095D01*
X58564285Y1888095D01*
X58640476Y1926190D01*
X58678571Y1964285D01*
X58716666Y2040476D01*
X58716666Y2688095D01*
X59021428Y2688095D02*
X59516666Y2688095D01*
X59250000Y2383333D01*
X59364285Y2383333D01*
X59440476Y2345238D01*
X59478571Y2307142D01*
X59516666Y2230952D01*
X59516666Y2040476D01*
X59478571Y1964285D01*
X59440476Y1926190D01*
X59364285Y1888095D01*
X59135714Y1888095D01*
X59059523Y1926190D01*
X59021428Y1964285D01*
X60278571Y1888095D02*
X59821428Y1888095D01*
X60050000Y1888095D02*
X60050000Y2688095D01*
X59973809Y2573809D01*
X59897619Y2497619D01*
X59821428Y2459523D01*
X18592857Y-29557142D02*
X19202380Y-29557142D01*
X18897619Y-29861904D02*
X18897619Y-29252380D01*
X19850000Y-29442857D02*
X19964285Y-29480952D01*
X20002380Y-29519047D01*
X20040476Y-29595238D01*
X20040476Y-29709523D01*
X20002380Y-29785714D01*
X19964285Y-29823809D01*
X19888095Y-29861904D01*
X19583333Y-29861904D01*
X19583333Y-29061904D01*
X19850000Y-29061904D01*
X19926190Y-29100000D01*
X19964285Y-29138095D01*
X20002380Y-29214285D01*
X20002380Y-29290476D01*
X19964285Y-29366666D01*
X19926190Y-29404761D01*
X19850000Y-29442857D01*
X19583333Y-29442857D01*
X20345238Y-29633333D02*
X20726190Y-29633333D01*
X20269047Y-29861904D02*
X20535714Y-29061904D01*
X20802380Y-29861904D01*
X20954761Y-29061904D02*
X21411904Y-29061904D01*
X21183333Y-29861904D02*
X21183333Y-29061904D01*
X21564285Y-29061904D02*
X22021428Y-29061904D01*
X21792857Y-29861904D02*
X21792857Y-29061904D01*
X17061904Y-3547619D02*
X17633333Y-3547619D01*
X17747619Y-3585714D01*
X17823809Y-3661904D01*
X17861904Y-3776190D01*
X17861904Y-3852380D01*
X17861904Y-3166666D02*
X17061904Y-3166666D01*
X17061904Y-2861904D01*
X17100000Y-2785714D01*
X17138095Y-2747619D01*
X17214285Y-2709523D01*
X17328571Y-2709523D01*
X17404761Y-2747619D01*
X17442857Y-2785714D01*
X17480952Y-2861904D01*
X17480952Y-3166666D01*
X17328571Y-2023809D02*
X17861904Y-2023809D01*
X17023809Y-2214285D02*
X17595238Y-2404761D01*
X17595238Y-1909523D01*
X17138095Y-1642857D02*
X17100000Y-1604761D01*
X17061904Y-1528571D01*
X17061904Y-1338095D01*
X17100000Y-1261904D01*
X17138095Y-1223809D01*
X17214285Y-1185714D01*
X17290476Y-1185714D01*
X17404761Y-1223809D01*
X17861904Y-1680952D01*
X17861904Y-1185714D01*
X7035714Y-21264285D02*
X7073809Y-21302380D01*
X7111904Y-21416666D01*
X7111904Y-21492857D01*
X7073809Y-21607142D01*
X6997619Y-21683333D01*
X6921428Y-21721428D01*
X6769047Y-21759523D01*
X6654761Y-21759523D01*
X6502380Y-21721428D01*
X6426190Y-21683333D01*
X6350000Y-21607142D01*
X6311904Y-21492857D01*
X6311904Y-21416666D01*
X6350000Y-21302380D01*
X6388095Y-21264285D01*
X6388095Y-20959523D02*
X6350000Y-20921428D01*
X6311904Y-20845238D01*
X6311904Y-20654761D01*
X6350000Y-20578571D01*
X6388095Y-20540476D01*
X6464285Y-20502380D01*
X6540476Y-20502380D01*
X6654761Y-20540476D01*
X7111904Y-20997619D01*
X7111904Y-20502380D01*
X7111904Y-19740476D02*
X7111904Y-20197619D01*
X7111904Y-19969047D02*
X6311904Y-19969047D01*
X6426190Y-20045238D01*
X6502380Y-20121428D01*
X6540476Y-20197619D01*
X15035714Y-21264285D02*
X15073809Y-21302380D01*
X15111904Y-21416666D01*
X15111904Y-21492857D01*
X15073809Y-21607142D01*
X14997619Y-21683333D01*
X14921428Y-21721428D01*
X14769047Y-21759523D01*
X14654761Y-21759523D01*
X14502380Y-21721428D01*
X14426190Y-21683333D01*
X14350000Y-21607142D01*
X14311904Y-21492857D01*
X14311904Y-21416666D01*
X14350000Y-21302380D01*
X14388095Y-21264285D01*
X14388095Y-20959523D02*
X14350000Y-20921428D01*
X14311904Y-20845238D01*
X14311904Y-20654761D01*
X14350000Y-20578571D01*
X14388095Y-20540476D01*
X14464285Y-20502380D01*
X14540476Y-20502380D01*
X14654761Y-20540476D01*
X15111904Y-20997619D01*
X15111904Y-20502380D01*
X14388095Y-20197619D02*
X14350000Y-20159523D01*
X14311904Y-20083333D01*
X14311904Y-19892857D01*
X14350000Y-19816666D01*
X14388095Y-19778571D01*
X14464285Y-19740476D01*
X14540476Y-19740476D01*
X14654761Y-19778571D01*
X15111904Y-20235714D01*
X15111904Y-19740476D01*
X62735714Y5464285D02*
X62697619Y5426190D01*
X62583333Y5388095D01*
X62507142Y5388095D01*
X62392857Y5426190D01*
X62316666Y5502380D01*
X62278571Y5578571D01*
X62240476Y5730952D01*
X62240476Y5845238D01*
X62278571Y5997619D01*
X62316666Y6073809D01*
X62392857Y6150000D01*
X62507142Y6188095D01*
X62583333Y6188095D01*
X62697619Y6150000D01*
X62735714Y6111904D01*
X63002380Y6188095D02*
X63497619Y6188095D01*
X63230952Y5883333D01*
X63345238Y5883333D01*
X63421428Y5845238D01*
X63459523Y5807142D01*
X63497619Y5730952D01*
X63497619Y5540476D01*
X63459523Y5464285D01*
X63421428Y5426190D01*
X63345238Y5388095D01*
X63116666Y5388095D01*
X63040476Y5426190D01*
X63002380Y5464285D01*
X64259523Y5388095D02*
X63802380Y5388095D01*
X64030952Y5388095D02*
X64030952Y6188095D01*
X63954761Y6073809D01*
X63878571Y5997619D01*
X63802380Y5959523D01*
X62735714Y-6035714D02*
X62697619Y-6073809D01*
X62583333Y-6111904D01*
X62507142Y-6111904D01*
X62392857Y-6073809D01*
X62316666Y-5997619D01*
X62278571Y-5921428D01*
X62240476Y-5769047D01*
X62240476Y-5654761D01*
X62278571Y-5502380D01*
X62316666Y-5426190D01*
X62392857Y-5350000D01*
X62507142Y-5311904D01*
X62583333Y-5311904D01*
X62697619Y-5350000D01*
X62735714Y-5388095D01*
X63002380Y-5311904D02*
X63497619Y-5311904D01*
X63230952Y-5616666D01*
X63345238Y-5616666D01*
X63421428Y-5654761D01*
X63459523Y-5692857D01*
X63497619Y-5769047D01*
X63497619Y-5959523D01*
X63459523Y-6035714D01*
X63421428Y-6073809D01*
X63345238Y-6111904D01*
X63116666Y-6111904D01*
X63040476Y-6073809D01*
X63002380Y-6035714D01*
X63802380Y-5388095D02*
X63840476Y-5350000D01*
X63916666Y-5311904D01*
X64107142Y-5311904D01*
X64183333Y-5350000D01*
X64221428Y-5388095D01*
X64259523Y-5464285D01*
X64259523Y-5540476D01*
X64221428Y-5654761D01*
X63764285Y-6111904D01*
X64259523Y-6111904D01*
X57235714Y-5285714D02*
X57197619Y-5323809D01*
X57083333Y-5361904D01*
X57007142Y-5361904D01*
X56892857Y-5323809D01*
X56816666Y-5247619D01*
X56778571Y-5171428D01*
X56740476Y-5019047D01*
X56740476Y-4904761D01*
X56778571Y-4752380D01*
X56816666Y-4676190D01*
X56892857Y-4600000D01*
X57007142Y-4561904D01*
X57083333Y-4561904D01*
X57197619Y-4600000D01*
X57235714Y-4638095D01*
X57502380Y-4561904D02*
X57997619Y-4561904D01*
X57730952Y-4866666D01*
X57845238Y-4866666D01*
X57921428Y-4904761D01*
X57959523Y-4942857D01*
X57997619Y-5019047D01*
X57997619Y-5209523D01*
X57959523Y-5285714D01*
X57921428Y-5323809D01*
X57845238Y-5361904D01*
X57616666Y-5361904D01*
X57540476Y-5323809D01*
X57502380Y-5285714D01*
X58264285Y-4561904D02*
X58759523Y-4561904D01*
X58492857Y-4866666D01*
X58607142Y-4866666D01*
X58683333Y-4904761D01*
X58721428Y-4942857D01*
X58759523Y-5019047D01*
X58759523Y-5209523D01*
X58721428Y-5285714D01*
X58683333Y-5323809D01*
X58607142Y-5361904D01*
X58378571Y-5361904D01*
X58302380Y-5323809D01*
X58264285Y-5285714D01*
X56785714Y-2264285D02*
X56823809Y-2302380D01*
X56861904Y-2416666D01*
X56861904Y-2492857D01*
X56823809Y-2607142D01*
X56747619Y-2683333D01*
X56671428Y-2721428D01*
X56519047Y-2759523D01*
X56404761Y-2759523D01*
X56252380Y-2721428D01*
X56176190Y-2683333D01*
X56100000Y-2607142D01*
X56061904Y-2492857D01*
X56061904Y-2416666D01*
X56100000Y-2302380D01*
X56138095Y-2264285D01*
X56061904Y-1997619D02*
X56061904Y-1502380D01*
X56366666Y-1769047D01*
X56366666Y-1654761D01*
X56404761Y-1578571D01*
X56442857Y-1540476D01*
X56519047Y-1502380D01*
X56709523Y-1502380D01*
X56785714Y-1540476D01*
X56823809Y-1578571D01*
X56861904Y-1654761D01*
X56861904Y-1883333D01*
X56823809Y-1959523D01*
X56785714Y-1997619D01*
X56328571Y-816666D02*
X56861904Y-816666D01*
X56023809Y-1007142D02*
X56595238Y-1197619D01*
X56595238Y-702380D01*
X46035714Y-264285D02*
X46073809Y-302380D01*
X46111904Y-416666D01*
X46111904Y-492857D01*
X46073809Y-607142D01*
X45997619Y-683333D01*
X45921428Y-721428D01*
X45769047Y-759523D01*
X45654761Y-759523D01*
X45502380Y-721428D01*
X45426190Y-683333D01*
X45350000Y-607142D01*
X45311904Y-492857D01*
X45311904Y-416666D01*
X45350000Y-302380D01*
X45388095Y-264285D01*
X45578571Y421428D02*
X46111904Y421428D01*
X45273809Y230952D02*
X45845238Y40476D01*
X45845238Y535714D01*
X46111904Y1259523D02*
X46111904Y802380D01*
X46111904Y1030952D02*
X45311904Y1030952D01*
X45426190Y954761D01*
X45502380Y878571D01*
X45540476Y802380D01*
X39985714Y-785714D02*
X39947619Y-823809D01*
X39833333Y-861904D01*
X39757142Y-861904D01*
X39642857Y-823809D01*
X39566666Y-747619D01*
X39528571Y-671428D01*
X39490476Y-519047D01*
X39490476Y-404761D01*
X39528571Y-252380D01*
X39566666Y-176190D01*
X39642857Y-100000D01*
X39757142Y-61904D01*
X39833333Y-61904D01*
X39947619Y-100000D01*
X39985714Y-138095D01*
X40671428Y-328571D02*
X40671428Y-861904D01*
X40480952Y-23809D02*
X40290476Y-595238D01*
X40785714Y-595238D01*
X41052380Y-138095D02*
X41090476Y-100000D01*
X41166666Y-61904D01*
X41357142Y-61904D01*
X41433333Y-100000D01*
X41471428Y-138095D01*
X41509523Y-214285D01*
X41509523Y-290476D01*
X41471428Y-404761D01*
X41014285Y-861904D01*
X41509523Y-861904D01*
X34035714Y1985714D02*
X34073809Y1947619D01*
X34111904Y1833333D01*
X34111904Y1757142D01*
X34073809Y1642857D01*
X33997619Y1566666D01*
X33921428Y1528571D01*
X33769047Y1490476D01*
X33654761Y1490476D01*
X33502380Y1528571D01*
X33426190Y1566666D01*
X33350000Y1642857D01*
X33311904Y1757142D01*
X33311904Y1833333D01*
X33350000Y1947619D01*
X33388095Y1985714D01*
X33578571Y2671428D02*
X34111904Y2671428D01*
X33273809Y2480952D02*
X33845238Y2290476D01*
X33845238Y2785714D01*
X33311904Y3014285D02*
X33311904Y3509523D01*
X33616666Y3242857D01*
X33616666Y3357142D01*
X33654761Y3433333D01*
X33692857Y3471428D01*
X33769047Y3509523D01*
X33959523Y3509523D01*
X34035714Y3471428D01*
X34073809Y3433333D01*
X34111904Y3357142D01*
X34111904Y3128571D01*
X34073809Y3052380D01*
X34035714Y3014285D01*
X29285714Y1985714D02*
X29323809Y1947619D01*
X29361904Y1833333D01*
X29361904Y1757142D01*
X29323809Y1642857D01*
X29247619Y1566666D01*
X29171428Y1528571D01*
X29019047Y1490476D01*
X28904761Y1490476D01*
X28752380Y1528571D01*
X28676190Y1566666D01*
X28600000Y1642857D01*
X28561904Y1757142D01*
X28561904Y1833333D01*
X28600000Y1947619D01*
X28638095Y1985714D01*
X28828571Y2671428D02*
X29361904Y2671428D01*
X28523809Y2480952D02*
X29095238Y2290476D01*
X29095238Y2785714D01*
X28828571Y3433333D02*
X29361904Y3433333D01*
X28523809Y3242857D02*
X29095238Y3052380D01*
X29095238Y3547619D01*
X39985714Y964285D02*
X39947619Y926190D01*
X39833333Y888095D01*
X39757142Y888095D01*
X39642857Y926190D01*
X39566666Y1002380D01*
X39528571Y1078571D01*
X39490476Y1230952D01*
X39490476Y1345238D01*
X39528571Y1497619D01*
X39566666Y1573809D01*
X39642857Y1650000D01*
X39757142Y1688095D01*
X39833333Y1688095D01*
X39947619Y1650000D01*
X39985714Y1611904D01*
X40671428Y1421428D02*
X40671428Y888095D01*
X40480952Y1726190D02*
X40290476Y1154761D01*
X40785714Y1154761D01*
X41471428Y1688095D02*
X41090476Y1688095D01*
X41052380Y1307142D01*
X41090476Y1345238D01*
X41166666Y1383333D01*
X41357142Y1383333D01*
X41433333Y1345238D01*
X41471428Y1307142D01*
X41509523Y1230952D01*
X41509523Y1040476D01*
X41471428Y964285D01*
X41433333Y926190D01*
X41357142Y888095D01*
X41166666Y888095D01*
X41090476Y926190D01*
X41052380Y964285D01*
X21785714Y-5264285D02*
X21823809Y-5302380D01*
X21861904Y-5416666D01*
X21861904Y-5492857D01*
X21823809Y-5607142D01*
X21747619Y-5683333D01*
X21671428Y-5721428D01*
X21519047Y-5759523D01*
X21404761Y-5759523D01*
X21252380Y-5721428D01*
X21176190Y-5683333D01*
X21100000Y-5607142D01*
X21061904Y-5492857D01*
X21061904Y-5416666D01*
X21100000Y-5302380D01*
X21138095Y-5264285D01*
X21328571Y-4578571D02*
X21861904Y-4578571D01*
X21023809Y-4769047D02*
X21595238Y-4959523D01*
X21595238Y-4464285D01*
X21061904Y-4235714D02*
X21061904Y-3702380D01*
X21861904Y-4045238D01*
X50035714Y3485714D02*
X50073809Y3447619D01*
X50111904Y3333333D01*
X50111904Y3257142D01*
X50073809Y3142857D01*
X49997619Y3066666D01*
X49921428Y3028571D01*
X49769047Y2990476D01*
X49654761Y2990476D01*
X49502380Y3028571D01*
X49426190Y3066666D01*
X49350000Y3142857D01*
X49311904Y3257142D01*
X49311904Y3333333D01*
X49350000Y3447619D01*
X49388095Y3485714D01*
X49311904Y4209523D02*
X49311904Y3828571D01*
X49692857Y3790476D01*
X49654761Y3828571D01*
X49616666Y3904761D01*
X49616666Y4095238D01*
X49654761Y4171428D01*
X49692857Y4209523D01*
X49769047Y4247619D01*
X49959523Y4247619D01*
X50035714Y4209523D01*
X50073809Y4171428D01*
X50111904Y4095238D01*
X50111904Y3904761D01*
X50073809Y3828571D01*
X50035714Y3790476D01*
X50111904Y5009523D02*
X50111904Y4552380D01*
X50111904Y4780952D02*
X49311904Y4780952D01*
X49426190Y4704761D01*
X49502380Y4628571D01*
X49540476Y4552380D01*
X50035714Y7485714D02*
X50073809Y7447619D01*
X50111904Y7333333D01*
X50111904Y7257142D01*
X50073809Y7142857D01*
X49997619Y7066666D01*
X49921428Y7028571D01*
X49769047Y6990476D01*
X49654761Y6990476D01*
X49502380Y7028571D01*
X49426190Y7066666D01*
X49350000Y7142857D01*
X49311904Y7257142D01*
X49311904Y7333333D01*
X49350000Y7447619D01*
X49388095Y7485714D01*
X49311904Y8209523D02*
X49311904Y7828571D01*
X49692857Y7790476D01*
X49654761Y7828571D01*
X49616666Y7904761D01*
X49616666Y8095238D01*
X49654761Y8171428D01*
X49692857Y8209523D01*
X49769047Y8247619D01*
X49959523Y8247619D01*
X50035714Y8209523D01*
X50073809Y8171428D01*
X50111904Y8095238D01*
X50111904Y7904761D01*
X50073809Y7828571D01*
X50035714Y7790476D01*
X49388095Y8552380D02*
X49350000Y8590476D01*
X49311904Y8666666D01*
X49311904Y8857142D01*
X49350000Y8933333D01*
X49388095Y8971428D01*
X49464285Y9009523D01*
X49540476Y9009523D01*
X49654761Y8971428D01*
X50111904Y8514285D01*
X50111904Y9009523D01*
X19485714Y24964285D02*
X19447619Y24926190D01*
X19333333Y24888095D01*
X19257142Y24888095D01*
X19142857Y24926190D01*
X19066666Y25002380D01*
X19028571Y25078571D01*
X18990476Y25230952D01*
X18990476Y25345238D01*
X19028571Y25497619D01*
X19066666Y25573809D01*
X19142857Y25650000D01*
X19257142Y25688095D01*
X19333333Y25688095D01*
X19447619Y25650000D01*
X19485714Y25611904D01*
X20171428Y25688095D02*
X20019047Y25688095D01*
X19942857Y25650000D01*
X19904761Y25611904D01*
X19828571Y25497619D01*
X19790476Y25345238D01*
X19790476Y25040476D01*
X19828571Y24964285D01*
X19866666Y24926190D01*
X19942857Y24888095D01*
X20095238Y24888095D01*
X20171428Y24926190D01*
X20209523Y24964285D01*
X20247619Y25040476D01*
X20247619Y25230952D01*
X20209523Y25307142D01*
X20171428Y25345238D01*
X20095238Y25383333D01*
X19942857Y25383333D01*
X19866666Y25345238D01*
X19828571Y25307142D01*
X19790476Y25230952D01*
X20514285Y25688095D02*
X21009523Y25688095D01*
X20742857Y25383333D01*
X20857142Y25383333D01*
X20933333Y25345238D01*
X20971428Y25307142D01*
X21009523Y25230952D01*
X21009523Y25040476D01*
X20971428Y24964285D01*
X20933333Y24926190D01*
X20857142Y24888095D01*
X20628571Y24888095D01*
X20552380Y24926190D01*
X20514285Y24964285D01*
X6485714Y20464285D02*
X6447619Y20426190D01*
X6333333Y20388095D01*
X6257142Y20388095D01*
X6142857Y20426190D01*
X6066666Y20502380D01*
X6028571Y20578571D01*
X5990476Y20730952D01*
X5990476Y20845238D01*
X6028571Y20997619D01*
X6066666Y21073809D01*
X6142857Y21150000D01*
X6257142Y21188095D01*
X6333333Y21188095D01*
X6447619Y21150000D01*
X6485714Y21111904D01*
X7171428Y21188095D02*
X7019047Y21188095D01*
X6942857Y21150000D01*
X6904761Y21111904D01*
X6828571Y20997619D01*
X6790476Y20845238D01*
X6790476Y20540476D01*
X6828571Y20464285D01*
X6866666Y20426190D01*
X6942857Y20388095D01*
X7095238Y20388095D01*
X7171428Y20426190D01*
X7209523Y20464285D01*
X7247619Y20540476D01*
X7247619Y20730952D01*
X7209523Y20807142D01*
X7171428Y20845238D01*
X7095238Y20883333D01*
X6942857Y20883333D01*
X6866666Y20845238D01*
X6828571Y20807142D01*
X6790476Y20730952D01*
X7933333Y20921428D02*
X7933333Y20388095D01*
X7742857Y21226190D02*
X7552380Y20654761D01*
X8047619Y20654761D01*
X11485714Y3214285D02*
X11447619Y3176190D01*
X11333333Y3138095D01*
X11257142Y3138095D01*
X11142857Y3176190D01*
X11066666Y3252380D01*
X11028571Y3328571D01*
X10990476Y3480952D01*
X10990476Y3595238D01*
X11028571Y3747619D01*
X11066666Y3823809D01*
X11142857Y3900000D01*
X11257142Y3938095D01*
X11333333Y3938095D01*
X11447619Y3900000D01*
X11485714Y3861904D01*
X11752380Y3938095D02*
X12285714Y3938095D01*
X11942857Y3138095D01*
X13009523Y3138095D02*
X12552380Y3138095D01*
X12780952Y3138095D02*
X12780952Y3938095D01*
X12704761Y3823809D01*
X12628571Y3747619D01*
X12552380Y3709523D01*
X6285714Y-2514285D02*
X6323809Y-2552380D01*
X6361904Y-2666666D01*
X6361904Y-2742857D01*
X6323809Y-2857142D01*
X6247619Y-2933333D01*
X6171428Y-2971428D01*
X6019047Y-3009523D01*
X5904761Y-3009523D01*
X5752380Y-2971428D01*
X5676190Y-2933333D01*
X5600000Y-2857142D01*
X5561904Y-2742857D01*
X5561904Y-2666666D01*
X5600000Y-2552380D01*
X5638095Y-2514285D01*
X5561904Y-2247619D02*
X5561904Y-1714285D01*
X6361904Y-2057142D01*
X5638095Y-1447619D02*
X5600000Y-1409523D01*
X5561904Y-1333333D01*
X5561904Y-1142857D01*
X5600000Y-1066666D01*
X5638095Y-1028571D01*
X5714285Y-990476D01*
X5790476Y-990476D01*
X5904761Y-1028571D01*
X6361904Y-1485714D01*
X6361904Y-990476D01*
X51528571Y-5611904D02*
X51528571Y-4811904D01*
X51719047Y-4811904D01*
X51833333Y-4850000D01*
X51909523Y-4926190D01*
X51947619Y-5002380D01*
X51985714Y-5154761D01*
X51985714Y-5269047D01*
X51947619Y-5421428D01*
X51909523Y-5497619D01*
X51833333Y-5573809D01*
X51719047Y-5611904D01*
X51528571Y-5611904D01*
X52252380Y-4811904D02*
X52747619Y-4811904D01*
X52480952Y-5116666D01*
X52595238Y-5116666D01*
X52671428Y-5154761D01*
X52709523Y-5192857D01*
X52747619Y-5269047D01*
X52747619Y-5459523D01*
X52709523Y-5535714D01*
X52671428Y-5573809D01*
X52595238Y-5611904D01*
X52366666Y-5611904D01*
X52290476Y-5573809D01*
X52252380Y-5535714D01*
X53509523Y-5611904D02*
X53052380Y-5611904D01*
X53280952Y-5611904D02*
X53280952Y-4811904D01*
X53204761Y-4926190D01*
X53128571Y-5002380D01*
X53052380Y-5040476D01*
X24778571Y-7611904D02*
X24778571Y-6811904D01*
X24969047Y-6811904D01*
X25083333Y-6850000D01*
X25159523Y-6926190D01*
X25197619Y-7002380D01*
X25235714Y-7154761D01*
X25235714Y-7269047D01*
X25197619Y-7421428D01*
X25159523Y-7497619D01*
X25083333Y-7573809D01*
X24969047Y-7611904D01*
X24778571Y-7611904D01*
X25921428Y-7078571D02*
X25921428Y-7611904D01*
X25730952Y-6773809D02*
X25540476Y-7345238D01*
X26035714Y-7345238D01*
X26759523Y-7611904D02*
X26302380Y-7611904D01*
X26530952Y-7611904D02*
X26530952Y-6811904D01*
X26454761Y-6926190D01*
X26378571Y-7002380D01*
X26302380Y-7040476D01*
X17061904Y1452380D02*
X17633333Y1452380D01*
X17747619Y1414285D01*
X17823809Y1338095D01*
X17861904Y1223809D01*
X17861904Y1147619D01*
X17861904Y1833333D02*
X17061904Y1833333D01*
X17061904Y2138095D01*
X17100000Y2214285D01*
X17138095Y2252380D01*
X17214285Y2290476D01*
X17328571Y2290476D01*
X17404761Y2252380D01*
X17442857Y2214285D01*
X17480952Y2138095D01*
X17480952Y1833333D01*
X17328571Y2976190D02*
X17861904Y2976190D01*
X17023809Y2785714D02*
X17595238Y2595238D01*
X17595238Y3090476D01*
X17861904Y3814285D02*
X17861904Y3357142D01*
X17861904Y3585714D02*
X17061904Y3585714D01*
X17176190Y3509523D01*
X17252380Y3433333D01*
X17290476Y3357142D01*
X45111904Y-5264285D02*
X45111904Y-5645238D01*
X44311904Y-5645238D01*
X44578571Y-4654761D02*
X45111904Y-4654761D01*
X44273809Y-4845238D02*
X44845238Y-5035714D01*
X44845238Y-4540476D01*
X45111904Y-3816666D02*
X45111904Y-4273809D01*
X45111904Y-4045238D02*
X44311904Y-4045238D01*
X44426190Y-4121428D01*
X44502380Y-4197619D01*
X44540476Y-4273809D01*
X17985714Y14388095D02*
X17604761Y14388095D01*
X17604761Y15188095D01*
X18595238Y15188095D02*
X18442857Y15188095D01*
X18366666Y15150000D01*
X18328571Y15111904D01*
X18252380Y14997619D01*
X18214285Y14845238D01*
X18214285Y14540476D01*
X18252380Y14464285D01*
X18290476Y14426190D01*
X18366666Y14388095D01*
X18519047Y14388095D01*
X18595238Y14426190D01*
X18633333Y14464285D01*
X18671428Y14540476D01*
X18671428Y14730952D01*
X18633333Y14807142D01*
X18595238Y14845238D01*
X18519047Y14883333D01*
X18366666Y14883333D01*
X18290476Y14845238D01*
X18252380Y14807142D01*
X18214285Y14730952D01*
X19433333Y14388095D02*
X18976190Y14388095D01*
X19204761Y14388095D02*
X19204761Y15188095D01*
X19128571Y15073809D01*
X19052380Y14997619D01*
X18976190Y14959523D01*
X10688095Y-14957142D02*
X10650000Y-15033333D01*
X10573809Y-15109523D01*
X10459523Y-15223809D01*
X10421428Y-15300000D01*
X10421428Y-15376190D01*
X10611904Y-15338095D02*
X10573809Y-15414285D01*
X10497619Y-15490476D01*
X10345238Y-15528571D01*
X10078571Y-15528571D01*
X9926190Y-15490476D01*
X9850000Y-15414285D01*
X9811904Y-15338095D01*
X9811904Y-15185714D01*
X9850000Y-15109523D01*
X9926190Y-15033333D01*
X10078571Y-14995238D01*
X10345238Y-14995238D01*
X10497619Y-15033333D01*
X10573809Y-15109523D01*
X10611904Y-15185714D01*
X10611904Y-15338095D01*
X9888095Y-14690476D02*
X9850000Y-14652380D01*
X9811904Y-14576190D01*
X9811904Y-14385714D01*
X9850000Y-14309523D01*
X9888095Y-14271428D01*
X9964285Y-14233333D01*
X10040476Y-14233333D01*
X10154761Y-14271428D01*
X10611904Y-14728571D01*
X10611904Y-14233333D01*
X10611904Y-13471428D02*
X10611904Y-13928571D01*
X10611904Y-13700000D02*
X9811904Y-13700000D01*
X9926190Y-13776190D01*
X10002380Y-13852380D01*
X10040476Y-13928571D01*
X26542857Y6061904D02*
X26466666Y6100000D01*
X26390476Y6176190D01*
X26276190Y6290476D01*
X26200000Y6328571D01*
X26123809Y6328571D01*
X26161904Y6138095D02*
X26085714Y6176190D01*
X26009523Y6252380D01*
X25971428Y6404761D01*
X25971428Y6671428D01*
X26009523Y6823809D01*
X26085714Y6900000D01*
X26161904Y6938095D01*
X26314285Y6938095D01*
X26390476Y6900000D01*
X26466666Y6823809D01*
X26504761Y6671428D01*
X26504761Y6404761D01*
X26466666Y6252380D01*
X26390476Y6176190D01*
X26314285Y6138095D01*
X26161904Y6138095D01*
X27190476Y6938095D02*
X27038095Y6938095D01*
X26961904Y6900000D01*
X26923809Y6861904D01*
X26847619Y6747619D01*
X26809523Y6595238D01*
X26809523Y6290476D01*
X26847619Y6214285D01*
X26885714Y6176190D01*
X26961904Y6138095D01*
X27114285Y6138095D01*
X27190476Y6176190D01*
X27228571Y6214285D01*
X27266666Y6290476D01*
X27266666Y6480952D01*
X27228571Y6557142D01*
X27190476Y6595238D01*
X27114285Y6633333D01*
X26961904Y6633333D01*
X26885714Y6595238D01*
X26847619Y6557142D01*
X26809523Y6480952D01*
X28028571Y6138095D02*
X27571428Y6138095D01*
X27800000Y6138095D02*
X27800000Y6938095D01*
X27723809Y6823809D01*
X27647619Y6747619D01*
X27571428Y6709523D01*
X15985714Y-10611904D02*
X15719047Y-10230952D01*
X15528571Y-10611904D02*
X15528571Y-9811904D01*
X15833333Y-9811904D01*
X15909523Y-9850000D01*
X15947619Y-9888095D01*
X15985714Y-9964285D01*
X15985714Y-10078571D01*
X15947619Y-10154761D01*
X15909523Y-10192857D01*
X15833333Y-10230952D01*
X15528571Y-10230952D01*
X16290476Y-9888095D02*
X16328571Y-9850000D01*
X16404761Y-9811904D01*
X16595238Y-9811904D01*
X16671428Y-9850000D01*
X16709523Y-9888095D01*
X16747619Y-9964285D01*
X16747619Y-10040476D01*
X16709523Y-10154761D01*
X16252380Y-10611904D01*
X16747619Y-10611904D01*
X17509523Y-10611904D02*
X17052380Y-10611904D01*
X17280952Y-10611904D02*
X17280952Y-9811904D01*
X17204761Y-9926190D01*
X17128571Y-10002380D01*
X17052380Y-10040476D01*
X15985714Y-11611904D02*
X15719047Y-11230952D01*
X15528571Y-11611904D02*
X15528571Y-10811904D01*
X15833333Y-10811904D01*
X15909523Y-10850000D01*
X15947619Y-10888095D01*
X15985714Y-10964285D01*
X15985714Y-11078571D01*
X15947619Y-11154761D01*
X15909523Y-11192857D01*
X15833333Y-11230952D01*
X15528571Y-11230952D01*
X16290476Y-10888095D02*
X16328571Y-10850000D01*
X16404761Y-10811904D01*
X16595238Y-10811904D01*
X16671428Y-10850000D01*
X16709523Y-10888095D01*
X16747619Y-10964285D01*
X16747619Y-11040476D01*
X16709523Y-11154761D01*
X16252380Y-11611904D01*
X16747619Y-11611904D01*
X17052380Y-10888095D02*
X17090476Y-10850000D01*
X17166666Y-10811904D01*
X17357142Y-10811904D01*
X17433333Y-10850000D01*
X17471428Y-10888095D01*
X17509523Y-10964285D01*
X17509523Y-11040476D01*
X17471428Y-11154761D01*
X17014285Y-11611904D01*
X17509523Y-11611904D01*
X15985714Y-17111904D02*
X15719047Y-16730952D01*
X15528571Y-17111904D02*
X15528571Y-16311904D01*
X15833333Y-16311904D01*
X15909523Y-16350000D01*
X15947619Y-16388095D01*
X15985714Y-16464285D01*
X15985714Y-16578571D01*
X15947619Y-16654761D01*
X15909523Y-16692857D01*
X15833333Y-16730952D01*
X15528571Y-16730952D01*
X16290476Y-16388095D02*
X16328571Y-16350000D01*
X16404761Y-16311904D01*
X16595238Y-16311904D01*
X16671428Y-16350000D01*
X16709523Y-16388095D01*
X16747619Y-16464285D01*
X16747619Y-16540476D01*
X16709523Y-16654761D01*
X16252380Y-17111904D01*
X16747619Y-17111904D01*
X17014285Y-16311904D02*
X17509523Y-16311904D01*
X17242857Y-16616666D01*
X17357142Y-16616666D01*
X17433333Y-16654761D01*
X17471428Y-16692857D01*
X17509523Y-16769047D01*
X17509523Y-16959523D01*
X17471428Y-17035714D01*
X17433333Y-17073809D01*
X17357142Y-17111904D01*
X17128571Y-17111904D01*
X17052380Y-17073809D01*
X17014285Y-17035714D01*
X15985714Y-12611904D02*
X15719047Y-12230952D01*
X15528571Y-12611904D02*
X15528571Y-11811904D01*
X15833333Y-11811904D01*
X15909523Y-11850000D01*
X15947619Y-11888095D01*
X15985714Y-11964285D01*
X15985714Y-12078571D01*
X15947619Y-12154761D01*
X15909523Y-12192857D01*
X15833333Y-12230952D01*
X15528571Y-12230952D01*
X16290476Y-11888095D02*
X16328571Y-11850000D01*
X16404761Y-11811904D01*
X16595238Y-11811904D01*
X16671428Y-11850000D01*
X16709523Y-11888095D01*
X16747619Y-11964285D01*
X16747619Y-12040476D01*
X16709523Y-12154761D01*
X16252380Y-12611904D01*
X16747619Y-12611904D01*
X17433333Y-12078571D02*
X17433333Y-12611904D01*
X17242857Y-11773809D02*
X17052380Y-12345238D01*
X17547619Y-12345238D01*
X62735714Y3388095D02*
X62469047Y3769047D01*
X62278571Y3388095D02*
X62278571Y4188095D01*
X62583333Y4188095D01*
X62659523Y4150000D01*
X62697619Y4111904D01*
X62735714Y4035714D01*
X62735714Y3921428D01*
X62697619Y3845238D01*
X62659523Y3807142D01*
X62583333Y3769047D01*
X62278571Y3769047D01*
X63002380Y4188095D02*
X63497619Y4188095D01*
X63230952Y3883333D01*
X63345238Y3883333D01*
X63421428Y3845238D01*
X63459523Y3807142D01*
X63497619Y3730952D01*
X63497619Y3540476D01*
X63459523Y3464285D01*
X63421428Y3426190D01*
X63345238Y3388095D01*
X63116666Y3388095D01*
X63040476Y3426190D01*
X63002380Y3464285D01*
X64259523Y3388095D02*
X63802380Y3388095D01*
X64030952Y3388095D02*
X64030952Y4188095D01*
X63954761Y4073809D01*
X63878571Y3997619D01*
X63802380Y3959523D01*
X62361904Y1235714D02*
X61980952Y969047D01*
X62361904Y778571D02*
X61561904Y778571D01*
X61561904Y1083333D01*
X61600000Y1159523D01*
X61638095Y1197619D01*
X61714285Y1235714D01*
X61828571Y1235714D01*
X61904761Y1197619D01*
X61942857Y1159523D01*
X61980952Y1083333D01*
X61980952Y778571D01*
X61561904Y1502380D02*
X61561904Y1997619D01*
X61866666Y1730952D01*
X61866666Y1845238D01*
X61904761Y1921428D01*
X61942857Y1959523D01*
X62019047Y1997619D01*
X62209523Y1997619D01*
X62285714Y1959523D01*
X62323809Y1921428D01*
X62361904Y1845238D01*
X62361904Y1616666D01*
X62323809Y1540476D01*
X62285714Y1502380D01*
X61638095Y2302380D02*
X61600000Y2340476D01*
X61561904Y2416666D01*
X61561904Y2607142D01*
X61600000Y2683333D01*
X61638095Y2721428D01*
X61714285Y2759523D01*
X61790476Y2759523D01*
X61904761Y2721428D01*
X62361904Y2264285D01*
X62361904Y2759523D01*
X62735714Y-4111904D02*
X62469047Y-3730952D01*
X62278571Y-4111904D02*
X62278571Y-3311904D01*
X62583333Y-3311904D01*
X62659523Y-3350000D01*
X62697619Y-3388095D01*
X62735714Y-3464285D01*
X62735714Y-3578571D01*
X62697619Y-3654761D01*
X62659523Y-3692857D01*
X62583333Y-3730952D01*
X62278571Y-3730952D01*
X63002380Y-3311904D02*
X63497619Y-3311904D01*
X63230952Y-3616666D01*
X63345238Y-3616666D01*
X63421428Y-3654761D01*
X63459523Y-3692857D01*
X63497619Y-3769047D01*
X63497619Y-3959523D01*
X63459523Y-4035714D01*
X63421428Y-4073809D01*
X63345238Y-4111904D01*
X63116666Y-4111904D01*
X63040476Y-4073809D01*
X63002380Y-4035714D01*
X63764285Y-3311904D02*
X64259523Y-3311904D01*
X63992857Y-3616666D01*
X64107142Y-3616666D01*
X64183333Y-3654761D01*
X64221428Y-3692857D01*
X64259523Y-3769047D01*
X64259523Y-3959523D01*
X64221428Y-4035714D01*
X64183333Y-4073809D01*
X64107142Y-4111904D01*
X63878571Y-4111904D01*
X63802380Y-4073809D01*
X63764285Y-4035714D01*
X62361904Y-2264285D02*
X61980952Y-2530952D01*
X62361904Y-2721428D02*
X61561904Y-2721428D01*
X61561904Y-2416666D01*
X61600000Y-2340476D01*
X61638095Y-2302380D01*
X61714285Y-2264285D01*
X61828571Y-2264285D01*
X61904761Y-2302380D01*
X61942857Y-2340476D01*
X61980952Y-2416666D01*
X61980952Y-2721428D01*
X61561904Y-1997619D02*
X61561904Y-1502380D01*
X61866666Y-1769047D01*
X61866666Y-1654761D01*
X61904761Y-1578571D01*
X61942857Y-1540476D01*
X62019047Y-1502380D01*
X62209523Y-1502380D01*
X62285714Y-1540476D01*
X62323809Y-1578571D01*
X62361904Y-1654761D01*
X62361904Y-1883333D01*
X62323809Y-1959523D01*
X62285714Y-1997619D01*
X61828571Y-816666D02*
X62361904Y-816666D01*
X61523809Y-1007142D02*
X62095238Y-1197619D01*
X62095238Y-702380D01*
X56861904Y1235714D02*
X56480952Y969047D01*
X56861904Y778571D02*
X56061904Y778571D01*
X56061904Y1083333D01*
X56100000Y1159523D01*
X56138095Y1197619D01*
X56214285Y1235714D01*
X56328571Y1235714D01*
X56404761Y1197619D01*
X56442857Y1159523D01*
X56480952Y1083333D01*
X56480952Y778571D01*
X56061904Y1502380D02*
X56061904Y1997619D01*
X56366666Y1730952D01*
X56366666Y1845238D01*
X56404761Y1921428D01*
X56442857Y1959523D01*
X56519047Y1997619D01*
X56709523Y1997619D01*
X56785714Y1959523D01*
X56823809Y1921428D01*
X56861904Y1845238D01*
X56861904Y1616666D01*
X56823809Y1540476D01*
X56785714Y1502380D01*
X56061904Y2721428D02*
X56061904Y2340476D01*
X56442857Y2302380D01*
X56404761Y2340476D01*
X56366666Y2416666D01*
X56366666Y2607142D01*
X56404761Y2683333D01*
X56442857Y2721428D01*
X56519047Y2759523D01*
X56709523Y2759523D01*
X56785714Y2721428D01*
X56823809Y2683333D01*
X56861904Y2607142D01*
X56861904Y2416666D01*
X56823809Y2340476D01*
X56785714Y2302380D01*
X31861904Y1985714D02*
X31480952Y1719047D01*
X31861904Y1528571D02*
X31061904Y1528571D01*
X31061904Y1833333D01*
X31100000Y1909523D01*
X31138095Y1947619D01*
X31214285Y1985714D01*
X31328571Y1985714D01*
X31404761Y1947619D01*
X31442857Y1909523D01*
X31480952Y1833333D01*
X31480952Y1528571D01*
X31328571Y2671428D02*
X31861904Y2671428D01*
X31023809Y2480952D02*
X31595238Y2290476D01*
X31595238Y2785714D01*
X31861904Y3509523D02*
X31861904Y3052380D01*
X31861904Y3280952D02*
X31061904Y3280952D01*
X31176190Y3204761D01*
X31252380Y3128571D01*
X31290476Y3052380D01*
X21985714Y-2111904D02*
X21719047Y-1730952D01*
X21528571Y-2111904D02*
X21528571Y-1311904D01*
X21833333Y-1311904D01*
X21909523Y-1350000D01*
X21947619Y-1388095D01*
X21985714Y-1464285D01*
X21985714Y-1578571D01*
X21947619Y-1654761D01*
X21909523Y-1692857D01*
X21833333Y-1730952D01*
X21528571Y-1730952D01*
X22671428Y-1578571D02*
X22671428Y-2111904D01*
X22480952Y-1273809D02*
X22290476Y-1845238D01*
X22785714Y-1845238D01*
X23052380Y-1388095D02*
X23090476Y-1350000D01*
X23166666Y-1311904D01*
X23357142Y-1311904D01*
X23433333Y-1350000D01*
X23471428Y-1388095D01*
X23509523Y-1464285D01*
X23509523Y-1540476D01*
X23471428Y-1654761D01*
X23014285Y-2111904D01*
X23509523Y-2111904D01*
X21985714Y1388095D02*
X21719047Y1769047D01*
X21528571Y1388095D02*
X21528571Y2188095D01*
X21833333Y2188095D01*
X21909523Y2150000D01*
X21947619Y2111904D01*
X21985714Y2035714D01*
X21985714Y1921428D01*
X21947619Y1845238D01*
X21909523Y1807142D01*
X21833333Y1769047D01*
X21528571Y1769047D01*
X22671428Y1921428D02*
X22671428Y1388095D01*
X22480952Y2226190D02*
X22290476Y1654761D01*
X22785714Y1654761D01*
X23014285Y2188095D02*
X23509523Y2188095D01*
X23242857Y1883333D01*
X23357142Y1883333D01*
X23433333Y1845238D01*
X23471428Y1807142D01*
X23509523Y1730952D01*
X23509523Y1540476D01*
X23471428Y1464285D01*
X23433333Y1426190D01*
X23357142Y1388095D01*
X23128571Y1388095D01*
X23052380Y1426190D01*
X23014285Y1464285D01*
X21985714Y-361904D02*
X21719047Y19047D01*
X21528571Y-361904D02*
X21528571Y438095D01*
X21833333Y438095D01*
X21909523Y400000D01*
X21947619Y361904D01*
X21985714Y285714D01*
X21985714Y171428D01*
X21947619Y95238D01*
X21909523Y57142D01*
X21833333Y19047D01*
X21528571Y19047D01*
X22671428Y171428D02*
X22671428Y-361904D01*
X22480952Y476190D02*
X22290476Y-95238D01*
X22785714Y-95238D01*
X23433333Y171428D02*
X23433333Y-361904D01*
X23242857Y476190D02*
X23052380Y-95238D01*
X23547619Y-95238D01*
X38485714Y10338095D02*
X38219047Y10719047D01*
X38028571Y10338095D02*
X38028571Y11138095D01*
X38333333Y11138095D01*
X38409523Y11100000D01*
X38447619Y11061904D01*
X38485714Y10985714D01*
X38485714Y10871428D01*
X38447619Y10795238D01*
X38409523Y10757142D01*
X38333333Y10719047D01*
X38028571Y10719047D01*
X39209523Y11138095D02*
X38828571Y11138095D01*
X38790476Y10757142D01*
X38828571Y10795238D01*
X38904761Y10833333D01*
X39095238Y10833333D01*
X39171428Y10795238D01*
X39209523Y10757142D01*
X39247619Y10680952D01*
X39247619Y10490476D01*
X39209523Y10414285D01*
X39171428Y10376190D01*
X39095238Y10338095D01*
X38904761Y10338095D01*
X38828571Y10376190D01*
X38790476Y10414285D01*
X40009523Y10338095D02*
X39552380Y10338095D01*
X39780952Y10338095D02*
X39780952Y11138095D01*
X39704761Y11023809D01*
X39628571Y10947619D01*
X39552380Y10909523D01*
X46735714Y10338095D02*
X46469047Y10719047D01*
X46278571Y10338095D02*
X46278571Y11138095D01*
X46583333Y11138095D01*
X46659523Y11100000D01*
X46697619Y11061904D01*
X46735714Y10985714D01*
X46735714Y10871428D01*
X46697619Y10795238D01*
X46659523Y10757142D01*
X46583333Y10719047D01*
X46278571Y10719047D01*
X47459523Y11138095D02*
X47078571Y11138095D01*
X47040476Y10757142D01*
X47078571Y10795238D01*
X47154761Y10833333D01*
X47345238Y10833333D01*
X47421428Y10795238D01*
X47459523Y10757142D01*
X47497619Y10680952D01*
X47497619Y10490476D01*
X47459523Y10414285D01*
X47421428Y10376190D01*
X47345238Y10338095D01*
X47154761Y10338095D01*
X47078571Y10376190D01*
X47040476Y10414285D01*
X47802380Y11061904D02*
X47840476Y11100000D01*
X47916666Y11138095D01*
X48107142Y11138095D01*
X48183333Y11100000D01*
X48221428Y11061904D01*
X48259523Y10985714D01*
X48259523Y10909523D01*
X48221428Y10795238D01*
X47764285Y10338095D01*
X48259523Y10338095D01*
X6485714Y16888095D02*
X6219047Y17269047D01*
X6028571Y16888095D02*
X6028571Y17688095D01*
X6333333Y17688095D01*
X6409523Y17650000D01*
X6447619Y17611904D01*
X6485714Y17535714D01*
X6485714Y17421428D01*
X6447619Y17345238D01*
X6409523Y17307142D01*
X6333333Y17269047D01*
X6028571Y17269047D01*
X7171428Y17688095D02*
X7019047Y17688095D01*
X6942857Y17650000D01*
X6904761Y17611904D01*
X6828571Y17497619D01*
X6790476Y17345238D01*
X6790476Y17040476D01*
X6828571Y16964285D01*
X6866666Y16926190D01*
X6942857Y16888095D01*
X7095238Y16888095D01*
X7171428Y16926190D01*
X7209523Y16964285D01*
X7247619Y17040476D01*
X7247619Y17230952D01*
X7209523Y17307142D01*
X7171428Y17345238D01*
X7095238Y17383333D01*
X6942857Y17383333D01*
X6866666Y17345238D01*
X6828571Y17307142D01*
X6790476Y17230952D01*
X8009523Y16888095D02*
X7552380Y16888095D01*
X7780952Y16888095D02*
X7780952Y17688095D01*
X7704761Y17573809D01*
X7628571Y17497619D01*
X7552380Y17459523D01*
X6485714Y18638095D02*
X6219047Y19019047D01*
X6028571Y18638095D02*
X6028571Y19438095D01*
X6333333Y19438095D01*
X6409523Y19400000D01*
X6447619Y19361904D01*
X6485714Y19285714D01*
X6485714Y19171428D01*
X6447619Y19095238D01*
X6409523Y19057142D01*
X6333333Y19019047D01*
X6028571Y19019047D01*
X7171428Y19438095D02*
X7019047Y19438095D01*
X6942857Y19400000D01*
X6904761Y19361904D01*
X6828571Y19247619D01*
X6790476Y19095238D01*
X6790476Y18790476D01*
X6828571Y18714285D01*
X6866666Y18676190D01*
X6942857Y18638095D01*
X7095238Y18638095D01*
X7171428Y18676190D01*
X7209523Y18714285D01*
X7247619Y18790476D01*
X7247619Y18980952D01*
X7209523Y19057142D01*
X7171428Y19095238D01*
X7095238Y19133333D01*
X6942857Y19133333D01*
X6866666Y19095238D01*
X6828571Y19057142D01*
X6790476Y18980952D01*
X7552380Y19361904D02*
X7590476Y19400000D01*
X7666666Y19438095D01*
X7857142Y19438095D01*
X7933333Y19400000D01*
X7971428Y19361904D01*
X8009523Y19285714D01*
X8009523Y19209523D01*
X7971428Y19095238D01*
X7514285Y18638095D01*
X8009523Y18638095D01*
X23861904Y6235714D02*
X23480952Y5969047D01*
X23861904Y5778571D02*
X23061904Y5778571D01*
X23061904Y6083333D01*
X23100000Y6159523D01*
X23138095Y6197619D01*
X23214285Y6235714D01*
X23328571Y6235714D01*
X23404761Y6197619D01*
X23442857Y6159523D01*
X23480952Y6083333D01*
X23480952Y5778571D01*
X23061904Y6921428D02*
X23061904Y6769047D01*
X23100000Y6692857D01*
X23138095Y6654761D01*
X23252380Y6578571D01*
X23404761Y6540476D01*
X23709523Y6540476D01*
X23785714Y6578571D01*
X23823809Y6616666D01*
X23861904Y6692857D01*
X23861904Y6845238D01*
X23823809Y6921428D01*
X23785714Y6959523D01*
X23709523Y6997619D01*
X23519047Y6997619D01*
X23442857Y6959523D01*
X23404761Y6921428D01*
X23366666Y6845238D01*
X23366666Y6692857D01*
X23404761Y6616666D01*
X23442857Y6578571D01*
X23519047Y6540476D01*
X23061904Y7264285D02*
X23061904Y7759523D01*
X23366666Y7492857D01*
X23366666Y7607142D01*
X23404761Y7683333D01*
X23442857Y7721428D01*
X23519047Y7759523D01*
X23709523Y7759523D01*
X23785714Y7721428D01*
X23823809Y7683333D01*
X23861904Y7607142D01*
X23861904Y7378571D01*
X23823809Y7302380D01*
X23785714Y7264285D01*
X6485714Y23888095D02*
X6219047Y24269047D01*
X6028571Y23888095D02*
X6028571Y24688095D01*
X6333333Y24688095D01*
X6409523Y24650000D01*
X6447619Y24611904D01*
X6485714Y24535714D01*
X6485714Y24421428D01*
X6447619Y24345238D01*
X6409523Y24307142D01*
X6333333Y24269047D01*
X6028571Y24269047D01*
X7171428Y24688095D02*
X7019047Y24688095D01*
X6942857Y24650000D01*
X6904761Y24611904D01*
X6828571Y24497619D01*
X6790476Y24345238D01*
X6790476Y24040476D01*
X6828571Y23964285D01*
X6866666Y23926190D01*
X6942857Y23888095D01*
X7095238Y23888095D01*
X7171428Y23926190D01*
X7209523Y23964285D01*
X7247619Y24040476D01*
X7247619Y24230952D01*
X7209523Y24307142D01*
X7171428Y24345238D01*
X7095238Y24383333D01*
X6942857Y24383333D01*
X6866666Y24345238D01*
X6828571Y24307142D01*
X6790476Y24230952D01*
X7933333Y24421428D02*
X7933333Y23888095D01*
X7742857Y24726190D02*
X7552380Y24154761D01*
X8047619Y24154761D01*
X6485714Y22138095D02*
X6219047Y22519047D01*
X6028571Y22138095D02*
X6028571Y22938095D01*
X6333333Y22938095D01*
X6409523Y22900000D01*
X6447619Y22861904D01*
X6485714Y22785714D01*
X6485714Y22671428D01*
X6447619Y22595238D01*
X6409523Y22557142D01*
X6333333Y22519047D01*
X6028571Y22519047D01*
X7171428Y22938095D02*
X7019047Y22938095D01*
X6942857Y22900000D01*
X6904761Y22861904D01*
X6828571Y22747619D01*
X6790476Y22595238D01*
X6790476Y22290476D01*
X6828571Y22214285D01*
X6866666Y22176190D01*
X6942857Y22138095D01*
X7095238Y22138095D01*
X7171428Y22176190D01*
X7209523Y22214285D01*
X7247619Y22290476D01*
X7247619Y22480952D01*
X7209523Y22557142D01*
X7171428Y22595238D01*
X7095238Y22633333D01*
X6942857Y22633333D01*
X6866666Y22595238D01*
X6828571Y22557142D01*
X6790476Y22480952D01*
X7971428Y22938095D02*
X7590476Y22938095D01*
X7552380Y22557142D01*
X7590476Y22595238D01*
X7666666Y22633333D01*
X7857142Y22633333D01*
X7933333Y22595238D01*
X7971428Y22557142D01*
X8009523Y22480952D01*
X8009523Y22290476D01*
X7971428Y22214285D01*
X7933333Y22176190D01*
X7857142Y22138095D01*
X7666666Y22138095D01*
X7590476Y22176190D01*
X7552380Y22214285D01*
X6485714Y13388095D02*
X6219047Y13769047D01*
X6028571Y13388095D02*
X6028571Y14188095D01*
X6333333Y14188095D01*
X6409523Y14150000D01*
X6447619Y14111904D01*
X6485714Y14035714D01*
X6485714Y13921428D01*
X6447619Y13845238D01*
X6409523Y13807142D01*
X6333333Y13769047D01*
X6028571Y13769047D01*
X7171428Y14188095D02*
X7019047Y14188095D01*
X6942857Y14150000D01*
X6904761Y14111904D01*
X6828571Y13997619D01*
X6790476Y13845238D01*
X6790476Y13540476D01*
X6828571Y13464285D01*
X6866666Y13426190D01*
X6942857Y13388095D01*
X7095238Y13388095D01*
X7171428Y13426190D01*
X7209523Y13464285D01*
X7247619Y13540476D01*
X7247619Y13730952D01*
X7209523Y13807142D01*
X7171428Y13845238D01*
X7095238Y13883333D01*
X6942857Y13883333D01*
X6866666Y13845238D01*
X6828571Y13807142D01*
X6790476Y13730952D01*
X7933333Y14188095D02*
X7780952Y14188095D01*
X7704761Y14150000D01*
X7666666Y14111904D01*
X7590476Y13997619D01*
X7552380Y13845238D01*
X7552380Y13540476D01*
X7590476Y13464285D01*
X7628571Y13426190D01*
X7704761Y13388095D01*
X7857142Y13388095D01*
X7933333Y13426190D01*
X7971428Y13464285D01*
X8009523Y13540476D01*
X8009523Y13730952D01*
X7971428Y13807142D01*
X7933333Y13845238D01*
X7857142Y13883333D01*
X7704761Y13883333D01*
X7628571Y13845238D01*
X7590476Y13807142D01*
X7552380Y13730952D01*
X6485714Y11638095D02*
X6219047Y12019047D01*
X6028571Y11638095D02*
X6028571Y12438095D01*
X6333333Y12438095D01*
X6409523Y12400000D01*
X6447619Y12361904D01*
X6485714Y12285714D01*
X6485714Y12171428D01*
X6447619Y12095238D01*
X6409523Y12057142D01*
X6333333Y12019047D01*
X6028571Y12019047D01*
X7171428Y12438095D02*
X7019047Y12438095D01*
X6942857Y12400000D01*
X6904761Y12361904D01*
X6828571Y12247619D01*
X6790476Y12095238D01*
X6790476Y11790476D01*
X6828571Y11714285D01*
X6866666Y11676190D01*
X6942857Y11638095D01*
X7095238Y11638095D01*
X7171428Y11676190D01*
X7209523Y11714285D01*
X7247619Y11790476D01*
X7247619Y11980952D01*
X7209523Y12057142D01*
X7171428Y12095238D01*
X7095238Y12133333D01*
X6942857Y12133333D01*
X6866666Y12095238D01*
X6828571Y12057142D01*
X6790476Y11980952D01*
X7514285Y12438095D02*
X8047619Y12438095D01*
X7704761Y11638095D01*
X6485714Y15138095D02*
X6219047Y15519047D01*
X6028571Y15138095D02*
X6028571Y15938095D01*
X6333333Y15938095D01*
X6409523Y15900000D01*
X6447619Y15861904D01*
X6485714Y15785714D01*
X6485714Y15671428D01*
X6447619Y15595238D01*
X6409523Y15557142D01*
X6333333Y15519047D01*
X6028571Y15519047D01*
X7171428Y15938095D02*
X7019047Y15938095D01*
X6942857Y15900000D01*
X6904761Y15861904D01*
X6828571Y15747619D01*
X6790476Y15595238D01*
X6790476Y15290476D01*
X6828571Y15214285D01*
X6866666Y15176190D01*
X6942857Y15138095D01*
X7095238Y15138095D01*
X7171428Y15176190D01*
X7209523Y15214285D01*
X7247619Y15290476D01*
X7247619Y15480952D01*
X7209523Y15557142D01*
X7171428Y15595238D01*
X7095238Y15633333D01*
X6942857Y15633333D01*
X6866666Y15595238D01*
X6828571Y15557142D01*
X6790476Y15480952D01*
X7704761Y15595238D02*
X7628571Y15633333D01*
X7590476Y15671428D01*
X7552380Y15747619D01*
X7552380Y15785714D01*
X7590476Y15861904D01*
X7628571Y15900000D01*
X7704761Y15938095D01*
X7857142Y15938095D01*
X7933333Y15900000D01*
X7971428Y15861904D01*
X8009523Y15785714D01*
X8009523Y15747619D01*
X7971428Y15671428D01*
X7933333Y15633333D01*
X7857142Y15595238D01*
X7704761Y15595238D01*
X7628571Y15557142D01*
X7590476Y15519047D01*
X7552380Y15442857D01*
X7552380Y15290476D01*
X7590476Y15214285D01*
X7628571Y15176190D01*
X7704761Y15138095D01*
X7857142Y15138095D01*
X7933333Y15176190D01*
X7971428Y15214285D01*
X8009523Y15290476D01*
X8009523Y15442857D01*
X7971428Y15519047D01*
X7933333Y15557142D01*
X7857142Y15595238D01*
X11485714Y5138095D02*
X11219047Y5519047D01*
X11028571Y5138095D02*
X11028571Y5938095D01*
X11333333Y5938095D01*
X11409523Y5900000D01*
X11447619Y5861904D01*
X11485714Y5785714D01*
X11485714Y5671428D01*
X11447619Y5595238D01*
X11409523Y5557142D01*
X11333333Y5519047D01*
X11028571Y5519047D01*
X12171428Y5938095D02*
X12019047Y5938095D01*
X11942857Y5900000D01*
X11904761Y5861904D01*
X11828571Y5747619D01*
X11790476Y5595238D01*
X11790476Y5290476D01*
X11828571Y5214285D01*
X11866666Y5176190D01*
X11942857Y5138095D01*
X12095238Y5138095D01*
X12171428Y5176190D01*
X12209523Y5214285D01*
X12247619Y5290476D01*
X12247619Y5480952D01*
X12209523Y5557142D01*
X12171428Y5595238D01*
X12095238Y5633333D01*
X11942857Y5633333D01*
X11866666Y5595238D01*
X11828571Y5557142D01*
X11790476Y5480952D01*
X12628571Y5138095D02*
X12780952Y5138095D01*
X12857142Y5176190D01*
X12895238Y5214285D01*
X12971428Y5328571D01*
X13009523Y5480952D01*
X13009523Y5785714D01*
X12971428Y5861904D01*
X12933333Y5900000D01*
X12857142Y5938095D01*
X12704761Y5938095D01*
X12628571Y5900000D01*
X12590476Y5861904D01*
X12552380Y5785714D01*
X12552380Y5595238D01*
X12590476Y5519047D01*
X12628571Y5480952D01*
X12704761Y5442857D01*
X12857142Y5442857D01*
X12933333Y5480952D01*
X12971428Y5519047D01*
X13009523Y5595238D01*
X47509523Y6438095D02*
X47509523Y5790476D01*
X47547619Y5714285D01*
X47585714Y5676190D01*
X47661904Y5638095D01*
X47814285Y5638095D01*
X47890476Y5676190D01*
X47928571Y5714285D01*
X47966666Y5790476D01*
X47966666Y6438095D01*
X48728571Y6438095D02*
X48347619Y6438095D01*
X48309523Y6057142D01*
X48347619Y6095238D01*
X48423809Y6133333D01*
X48614285Y6133333D01*
X48690476Y6095238D01*
X48728571Y6057142D01*
X48766666Y5980952D01*
X48766666Y5790476D01*
X48728571Y5714285D01*
X48690476Y5676190D01*
X48614285Y5638095D01*
X48423809Y5638095D01*
X48347619Y5676190D01*
X48309523Y5714285D01*
X49528571Y5638095D02*
X49071428Y5638095D01*
X49300000Y5638095D02*
X49300000Y6438095D01*
X49223809Y6323809D01*
X49147619Y6247619D01*
X49071428Y6209523D01*
X8259523Y-1561904D02*
X8259523Y-2209523D01*
X8297619Y-2285714D01*
X8335714Y-2323809D01*
X8411904Y-2361904D01*
X8564285Y-2361904D01*
X8640476Y-2323809D01*
X8678571Y-2285714D01*
X8716666Y-2209523D01*
X8716666Y-1561904D01*
X9021428Y-1561904D02*
X9554761Y-1561904D01*
X9211904Y-2361904D01*
X10278571Y-2361904D02*
X9821428Y-2361904D01*
X10050000Y-2361904D02*
X10050000Y-1561904D01*
X9973809Y-1676190D01*
X9897619Y-1752380D01*
X9821428Y-1790476D01*
X61835714Y10938095D02*
X61835714Y10366666D01*
X61797619Y10252380D01*
X61721428Y10176190D01*
X61607142Y10138095D01*
X61530952Y10138095D01*
X62559523Y10138095D02*
X62559523Y10557142D01*
X62521428Y10633333D01*
X62445238Y10671428D01*
X62292857Y10671428D01*
X62216666Y10633333D01*
X62559523Y10176190D02*
X62483333Y10138095D01*
X62292857Y10138095D01*
X62216666Y10176190D01*
X62178571Y10252380D01*
X62178571Y10328571D01*
X62216666Y10404761D01*
X62292857Y10442857D01*
X62483333Y10442857D01*
X62559523Y10480952D01*
X63283333Y10176190D02*
X63207142Y10138095D01*
X63054761Y10138095D01*
X62978571Y10176190D01*
X62940476Y10214285D01*
X62902380Y10290476D01*
X62902380Y10519047D01*
X62940476Y10595238D01*
X62978571Y10633333D01*
X63054761Y10671428D01*
X63207142Y10671428D01*
X63283333Y10633333D01*
X63626190Y10138095D02*
X63626190Y10938095D01*
X63702380Y10442857D02*
X63930952Y10138095D01*
X63930952Y10671428D02*
X63626190Y10366666D01*
X53297619Y10138095D02*
X53297619Y10938095D01*
X53564285Y10366666D01*
X53830952Y10938095D01*
X53830952Y10138095D01*
X54554761Y10671428D02*
X54554761Y10138095D01*
X54211904Y10671428D02*
X54211904Y10252380D01*
X54250000Y10176190D01*
X54326190Y10138095D01*
X54440476Y10138095D01*
X54516666Y10176190D01*
X54554761Y10214285D01*
X54859523Y10138095D02*
X55278571Y10671428D01*
X54859523Y10671428D02*
X55278571Y10138095D01*
X30347619Y10688095D02*
X29966666Y10688095D01*
X29928571Y10307142D01*
X29966666Y10345238D01*
X30042857Y10383333D01*
X30233333Y10383333D01*
X30309523Y10345238D01*
X30347619Y10307142D01*
X30385714Y10230952D01*
X30385714Y10040476D01*
X30347619Y9964285D01*
X30309523Y9926190D01*
X30233333Y9888095D01*
X30042857Y9888095D01*
X29966666Y9926190D01*
X29928571Y9964285D01*
X30614285Y10688095D02*
X30880952Y9888095D01*
X31147619Y10688095D01*
X17226190Y-5638095D02*
X17264285Y-5600000D01*
X17340476Y-5561904D01*
X17530952Y-5561904D01*
X17607142Y-5600000D01*
X17645238Y-5638095D01*
X17683333Y-5714285D01*
X17683333Y-5790476D01*
X17645238Y-5904761D01*
X17188095Y-6361904D01*
X17683333Y-6361904D01*
X18064285Y-6361904D02*
X18216666Y-6361904D01*
X18292857Y-6323809D01*
X18330952Y-6285714D01*
X18407142Y-6171428D01*
X18445238Y-6019047D01*
X18445238Y-5714285D01*
X18407142Y-5638095D01*
X18369047Y-5600000D01*
X18292857Y-5561904D01*
X18140476Y-5561904D01*
X18064285Y-5600000D01*
X18026190Y-5638095D01*
X17988095Y-5714285D01*
X17988095Y-5904761D01*
X18026190Y-5980952D01*
X18064285Y-6019047D01*
X18140476Y-6057142D01*
X18292857Y-6057142D01*
X18369047Y-6019047D01*
X18407142Y-5980952D01*
X18445238Y-5904761D01*
X18788095Y-6285714D02*
X18826190Y-6323809D01*
X18788095Y-6361904D01*
X18750000Y-6323809D01*
X18788095Y-6285714D01*
X18788095Y-6361904D01*
X19550000Y-5561904D02*
X19169047Y-5561904D01*
X19130952Y-5942857D01*
X19169047Y-5904761D01*
X19245238Y-5866666D01*
X19435714Y-5866666D01*
X19511904Y-5904761D01*
X19550000Y-5942857D01*
X19588095Y-6019047D01*
X19588095Y-6209523D01*
X19550000Y-6285714D01*
X19511904Y-6323809D01*
X19435714Y-6361904D01*
X19245238Y-6361904D01*
X19169047Y-6323809D01*
X19130952Y-6285714D01*
X19816666Y-5561904D02*
X20083333Y-6361904D01*
X20350000Y-5561904D01*
X16804761Y8307142D02*
X16919047Y8269047D01*
X16957142Y8230952D01*
X16995238Y8154761D01*
X16995238Y8040476D01*
X16957142Y7964285D01*
X16919047Y7926190D01*
X16842857Y7888095D01*
X16538095Y7888095D01*
X16538095Y8688095D01*
X16804761Y8688095D01*
X16880952Y8650000D01*
X16919047Y8611904D01*
X16957142Y8535714D01*
X16957142Y8459523D01*
X16919047Y8383333D01*
X16880952Y8345238D01*
X16804761Y8307142D01*
X16538095Y8307142D01*
X17680952Y7888095D02*
X17680952Y8307142D01*
X17642857Y8383333D01*
X17566666Y8421428D01*
X17414285Y8421428D01*
X17338095Y8383333D01*
X17680952Y7926190D02*
X17604761Y7888095D01*
X17414285Y7888095D01*
X17338095Y7926190D01*
X17300000Y8002380D01*
X17300000Y8078571D01*
X17338095Y8154761D01*
X17414285Y8192857D01*
X17604761Y8192857D01*
X17680952Y8230952D01*
X18404761Y7926190D02*
X18328571Y7888095D01*
X18176190Y7888095D01*
X18100000Y7926190D01*
X18061904Y7964285D01*
X18023809Y8040476D01*
X18023809Y8269047D01*
X18061904Y8345238D01*
X18100000Y8383333D01*
X18176190Y8421428D01*
X18328571Y8421428D01*
X18404761Y8383333D01*
X18747619Y7888095D02*
X18747619Y8688095D01*
X18823809Y8192857D02*
X19052380Y7888095D01*
X19052380Y8421428D02*
X18747619Y8116666D01*
X19738095Y8421428D02*
X19738095Y7888095D01*
X19395238Y8421428D02*
X19395238Y8002380D01*
X19433333Y7926190D01*
X19509523Y7888095D01*
X19623809Y7888095D01*
X19700000Y7926190D01*
X19738095Y7964285D01*
X20119047Y8421428D02*
X20119047Y7621428D01*
X20119047Y8383333D02*
X20195238Y8421428D01*
X20347619Y8421428D01*
X20423809Y8383333D01*
X20461904Y8345238D01*
X20500000Y8269047D01*
X20500000Y8040476D01*
X20461904Y7964285D01*
X20423809Y7926190D01*
X20347619Y7888095D01*
X20195238Y7888095D01*
X20119047Y7926190D01*
X3069047Y2938095D02*
X3564285Y2938095D01*
X3297619Y2633333D01*
X3411904Y2633333D01*
X3488095Y2595238D01*
X3526190Y2557142D01*
X3564285Y2480952D01*
X3564285Y2290476D01*
X3526190Y2214285D01*
X3488095Y2176190D01*
X3411904Y2138095D01*
X3183333Y2138095D01*
X3107142Y2176190D01*
X3069047Y2214285D01*
X3907142Y2214285D02*
X3945238Y2176190D01*
X3907142Y2138095D01*
X3869047Y2176190D01*
X3907142Y2214285D01*
X3907142Y2138095D01*
X4211904Y2938095D02*
X4707142Y2938095D01*
X4440476Y2633333D01*
X4554761Y2633333D01*
X4630952Y2595238D01*
X4669047Y2557142D01*
X4707142Y2480952D01*
X4707142Y2290476D01*
X4669047Y2214285D01*
X4630952Y2176190D01*
X4554761Y2138095D01*
X4326190Y2138095D01*
X4250000Y2176190D01*
X4211904Y2214285D01*
X4935714Y2938095D02*
X5202380Y2138095D01*
X5469047Y2938095D01*
X15985714Y12464285D02*
X15947619Y12426190D01*
X15833333Y12388095D01*
X15757142Y12388095D01*
X15642857Y12426190D01*
X15566666Y12502380D01*
X15528571Y12578571D01*
X15490476Y12730952D01*
X15490476Y12845238D01*
X15528571Y12997619D01*
X15566666Y13073809D01*
X15642857Y13150000D01*
X15757142Y13188095D01*
X15833333Y13188095D01*
X15947619Y13150000D01*
X15985714Y13111904D01*
X16671428Y13188095D02*
X16519047Y13188095D01*
X16442857Y13150000D01*
X16404761Y13111904D01*
X16328571Y12997619D01*
X16290476Y12845238D01*
X16290476Y12540476D01*
X16328571Y12464285D01*
X16366666Y12426190D01*
X16442857Y12388095D01*
X16595238Y12388095D01*
X16671428Y12426190D01*
X16709523Y12464285D01*
X16747619Y12540476D01*
X16747619Y12730952D01*
X16709523Y12807142D01*
X16671428Y12845238D01*
X16595238Y12883333D01*
X16442857Y12883333D01*
X16366666Y12845238D01*
X16328571Y12807142D01*
X16290476Y12730952D01*
X17471428Y13188095D02*
X17090476Y13188095D01*
X17052380Y12807142D01*
X17090476Y12845238D01*
X17166666Y12883333D01*
X17357142Y12883333D01*
X17433333Y12845238D01*
X17471428Y12807142D01*
X17509523Y12730952D01*
X17509523Y12540476D01*
X17471428Y12464285D01*
X17433333Y12426190D01*
X17357142Y12388095D01*
X17166666Y12388095D01*
X17090476Y12426190D01*
X17052380Y12464285D01*
X24285714Y-5264285D02*
X24323809Y-5302380D01*
X24361904Y-5416666D01*
X24361904Y-5492857D01*
X24323809Y-5607142D01*
X24247619Y-5683333D01*
X24171428Y-5721428D01*
X24019047Y-5759523D01*
X23904761Y-5759523D01*
X23752380Y-5721428D01*
X23676190Y-5683333D01*
X23600000Y-5607142D01*
X23561904Y-5492857D01*
X23561904Y-5416666D01*
X23600000Y-5302380D01*
X23638095Y-5264285D01*
X23828571Y-4578571D02*
X24361904Y-4578571D01*
X23523809Y-4769047D02*
X24095238Y-4959523D01*
X24095238Y-4464285D01*
X23561904Y-3816666D02*
X23561904Y-3969047D01*
X23600000Y-4045238D01*
X23638095Y-4083333D01*
X23752380Y-4159523D01*
X23904761Y-4197619D01*
X24209523Y-4197619D01*
X24285714Y-4159523D01*
X24323809Y-4121428D01*
X24361904Y-4045238D01*
X24361904Y-3892857D01*
X24323809Y-3816666D01*
X24285714Y-3778571D01*
X24209523Y-3740476D01*
X24019047Y-3740476D01*
X23942857Y-3778571D01*
X23904761Y-3816666D01*
X23866666Y-3892857D01*
X23866666Y-4045238D01*
X23904761Y-4121428D01*
X23942857Y-4159523D01*
X24019047Y-4197619D01*
X39535714Y7485714D02*
X39573809Y7447619D01*
X39611904Y7333333D01*
X39611904Y7257142D01*
X39573809Y7142857D01*
X39497619Y7066666D01*
X39421428Y7028571D01*
X39269047Y6990476D01*
X39154761Y6990476D01*
X39002380Y7028571D01*
X38926190Y7066666D01*
X38850000Y7142857D01*
X38811904Y7257142D01*
X38811904Y7333333D01*
X38850000Y7447619D01*
X38888095Y7485714D01*
X38811904Y8209523D02*
X38811904Y7828571D01*
X39192857Y7790476D01*
X39154761Y7828571D01*
X39116666Y7904761D01*
X39116666Y8095238D01*
X39154761Y8171428D01*
X39192857Y8209523D01*
X39269047Y8247619D01*
X39459523Y8247619D01*
X39535714Y8209523D01*
X39573809Y8171428D01*
X39611904Y8095238D01*
X39611904Y7904761D01*
X39573809Y7828571D01*
X39535714Y7790476D01*
X38811904Y8514285D02*
X38811904Y9009523D01*
X39116666Y8742857D01*
X39116666Y8857142D01*
X39154761Y8933333D01*
X39192857Y8971428D01*
X39269047Y9009523D01*
X39459523Y9009523D01*
X39535714Y8971428D01*
X39573809Y8933333D01*
X39611904Y8857142D01*
X39611904Y8628571D01*
X39573809Y8552380D01*
X39535714Y8514285D01*
X36735714Y8214285D02*
X36697619Y8176190D01*
X36583333Y8138095D01*
X36507142Y8138095D01*
X36392857Y8176190D01*
X36316666Y8252380D01*
X36278571Y8328571D01*
X36240476Y8480952D01*
X36240476Y8595238D01*
X36278571Y8747619D01*
X36316666Y8823809D01*
X36392857Y8900000D01*
X36507142Y8938095D01*
X36583333Y8938095D01*
X36697619Y8900000D01*
X36735714Y8861904D01*
X37459523Y8938095D02*
X37078571Y8938095D01*
X37040476Y8557142D01*
X37078571Y8595238D01*
X37154761Y8633333D01*
X37345238Y8633333D01*
X37421428Y8595238D01*
X37459523Y8557142D01*
X37497619Y8480952D01*
X37497619Y8290476D01*
X37459523Y8214285D01*
X37421428Y8176190D01*
X37345238Y8138095D01*
X37154761Y8138095D01*
X37078571Y8176190D01*
X37040476Y8214285D01*
X38183333Y8671428D02*
X38183333Y8138095D01*
X37992857Y8976190D02*
X37802380Y8404761D01*
X38297619Y8404761D01*
X39535714Y3485714D02*
X39573809Y3447619D01*
X39611904Y3333333D01*
X39611904Y3257142D01*
X39573809Y3142857D01*
X39497619Y3066666D01*
X39421428Y3028571D01*
X39269047Y2990476D01*
X39154761Y2990476D01*
X39002380Y3028571D01*
X38926190Y3066666D01*
X38850000Y3142857D01*
X38811904Y3257142D01*
X38811904Y3333333D01*
X38850000Y3447619D01*
X38888095Y3485714D01*
X38811904Y4209523D02*
X38811904Y3828571D01*
X39192857Y3790476D01*
X39154761Y3828571D01*
X39116666Y3904761D01*
X39116666Y4095238D01*
X39154761Y4171428D01*
X39192857Y4209523D01*
X39269047Y4247619D01*
X39459523Y4247619D01*
X39535714Y4209523D01*
X39573809Y4171428D01*
X39611904Y4095238D01*
X39611904Y3904761D01*
X39573809Y3828571D01*
X39535714Y3790476D01*
X38811904Y4971428D02*
X38811904Y4590476D01*
X39192857Y4552380D01*
X39154761Y4590476D01*
X39116666Y4666666D01*
X39116666Y4857142D01*
X39154761Y4933333D01*
X39192857Y4971428D01*
X39269047Y5009523D01*
X39459523Y5009523D01*
X39535714Y4971428D01*
X39573809Y4933333D01*
X39611904Y4857142D01*
X39611904Y4666666D01*
X39573809Y4590476D01*
X39535714Y4552380D01*
X36735714Y3214285D02*
X36697619Y3176190D01*
X36583333Y3138095D01*
X36507142Y3138095D01*
X36392857Y3176190D01*
X36316666Y3252380D01*
X36278571Y3328571D01*
X36240476Y3480952D01*
X36240476Y3595238D01*
X36278571Y3747619D01*
X36316666Y3823809D01*
X36392857Y3900000D01*
X36507142Y3938095D01*
X36583333Y3938095D01*
X36697619Y3900000D01*
X36735714Y3861904D01*
X37459523Y3938095D02*
X37078571Y3938095D01*
X37040476Y3557142D01*
X37078571Y3595238D01*
X37154761Y3633333D01*
X37345238Y3633333D01*
X37421428Y3595238D01*
X37459523Y3557142D01*
X37497619Y3480952D01*
X37497619Y3290476D01*
X37459523Y3214285D01*
X37421428Y3176190D01*
X37345238Y3138095D01*
X37154761Y3138095D01*
X37078571Y3176190D01*
X37040476Y3214285D01*
X38183333Y3938095D02*
X38030952Y3938095D01*
X37954761Y3900000D01*
X37916666Y3861904D01*
X37840476Y3747619D01*
X37802380Y3595238D01*
X37802380Y3290476D01*
X37840476Y3214285D01*
X37878571Y3176190D01*
X37954761Y3138095D01*
X38107142Y3138095D01*
X38183333Y3176190D01*
X38221428Y3214285D01*
X38259523Y3290476D01*
X38259523Y3480952D01*
X38221428Y3557142D01*
X38183333Y3595238D01*
X38107142Y3633333D01*
X37954761Y3633333D01*
X37878571Y3595238D01*
X37840476Y3557142D01*
X37802380Y3480952D01*
X7759523Y-15561904D02*
X7759523Y-16209523D01*
X7797619Y-16285714D01*
X7835714Y-16323809D01*
X7911904Y-16361904D01*
X8064285Y-16361904D01*
X8140476Y-16323809D01*
X8178571Y-16285714D01*
X8216666Y-16209523D01*
X8216666Y-15561904D01*
X8559523Y-15638095D02*
X8597619Y-15600000D01*
X8673809Y-15561904D01*
X8864285Y-15561904D01*
X8940476Y-15600000D01*
X8978571Y-15638095D01*
X9016666Y-15714285D01*
X9016666Y-15790476D01*
X8978571Y-15904761D01*
X8521428Y-16361904D01*
X9016666Y-16361904D01*
X9778571Y-16361904D02*
X9321428Y-16361904D01*
X9550000Y-16361904D02*
X9550000Y-15561904D01*
X9473809Y-15676190D01*
X9397619Y-15752380D01*
X9321428Y-15790476D01*
X57235714Y4714285D02*
X57197619Y4676190D01*
X57083333Y4638095D01*
X57007142Y4638095D01*
X56892857Y4676190D01*
X56816666Y4752380D01*
X56778571Y4828571D01*
X56740476Y4980952D01*
X56740476Y5095238D01*
X56778571Y5247619D01*
X56816666Y5323809D01*
X56892857Y5400000D01*
X57007142Y5438095D01*
X57083333Y5438095D01*
X57197619Y5400000D01*
X57235714Y5361904D01*
X57502380Y5438095D02*
X57997619Y5438095D01*
X57730952Y5133333D01*
X57845238Y5133333D01*
X57921428Y5095238D01*
X57959523Y5057142D01*
X57997619Y4980952D01*
X57997619Y4790476D01*
X57959523Y4714285D01*
X57921428Y4676190D01*
X57845238Y4638095D01*
X57616666Y4638095D01*
X57540476Y4676190D01*
X57502380Y4714285D01*
X58721428Y5438095D02*
X58340476Y5438095D01*
X58302380Y5057142D01*
X58340476Y5095238D01*
X58416666Y5133333D01*
X58607142Y5133333D01*
X58683333Y5095238D01*
X58721428Y5057142D01*
X58759523Y4980952D01*
X58759523Y4790476D01*
X58721428Y4714285D01*
X58683333Y4676190D01*
X58607142Y4638095D01*
X58416666Y4638095D01*
X58340476Y4676190D01*
X58302380Y4714285D01*
X12166666Y29938095D02*
X12433333Y29138095D01*
X12700000Y29938095D01*
X13309523Y29176190D02*
X13233333Y29138095D01*
X13080952Y29138095D01*
X13004761Y29176190D01*
X12966666Y29214285D01*
X12928571Y29290476D01*
X12928571Y29519047D01*
X12966666Y29595238D01*
X13004761Y29633333D01*
X13080952Y29671428D01*
X13233333Y29671428D01*
X13309523Y29633333D01*
X13995238Y29138095D02*
X13995238Y29557142D01*
X13957142Y29633333D01*
X13880952Y29671428D01*
X13728571Y29671428D01*
X13652380Y29633333D01*
X13995238Y29176190D02*
X13919047Y29138095D01*
X13728571Y29138095D01*
X13652380Y29176190D01*
X13614285Y29252380D01*
X13614285Y29328571D01*
X13652380Y29404761D01*
X13728571Y29442857D01*
X13919047Y29442857D01*
X13995238Y29480952D01*
X14376190Y29671428D02*
X14376190Y28871428D01*
X14376190Y29633333D02*
X14452380Y29671428D01*
X14604761Y29671428D01*
X14680952Y29633333D01*
X14719047Y29595238D01*
X14757142Y29519047D01*
X14757142Y29290476D01*
X14719047Y29214285D01*
X14680952Y29176190D01*
X14604761Y29138095D01*
X14452380Y29138095D01*
X14376190Y29176190D01*
M02*
