G04 #@! TF.GenerationSoftware,KiCad,Pcbnew,(5.1.8)-1*
G04 #@! TF.CreationDate,2020-11-12T22:50:39-08:00*
G04 #@! TF.ProjectId,IRIS-power,49524953-2d70-46f7-9765-722e6b696361,rev?*
G04 #@! TF.SameCoordinates,Original*
G04 #@! TF.FileFunction,Copper,L2,Bot*
G04 #@! TF.FilePolarity,Positive*
%FSLAX46Y46*%
G04 Gerber Fmt 4.6, Leading zero omitted, Abs format (unit mm)*
G04 Created by KiCad (PCBNEW (5.1.8)-1) date 2020-11-12 22:50:39*
%MOMM*%
%LPD*%
G01*
G04 APERTURE LIST*
G04 #@! TA.AperFunction,ComponentPad*
%ADD10C,1.500000*%
G04 #@! TD*
G04 #@! TA.AperFunction,ComponentPad*
%ADD11C,0.800000*%
G04 #@! TD*
G04 #@! TA.AperFunction,ComponentPad*
%ADD12C,6.400000*%
G04 #@! TD*
G04 #@! TA.AperFunction,ComponentPad*
%ADD13C,1.370000*%
G04 #@! TD*
G04 #@! TA.AperFunction,ComponentPad*
%ADD14R,1.370000X1.370000*%
G04 #@! TD*
G04 #@! TA.AperFunction,ComponentPad*
%ADD15C,2.000000*%
G04 #@! TD*
G04 #@! TA.AperFunction,ComponentPad*
%ADD16O,2.540000X6.502400*%
G04 #@! TD*
G04 #@! TA.AperFunction,ComponentPad*
%ADD17R,1.700000X1.700000*%
G04 #@! TD*
G04 #@! TA.AperFunction,ComponentPad*
%ADD18O,1.700000X1.700000*%
G04 #@! TD*
G04 #@! TA.AperFunction,ComponentPad*
%ADD19C,0.700000*%
G04 #@! TD*
G04 #@! TA.AperFunction,ComponentPad*
%ADD20O,2.400000X0.900000*%
G04 #@! TD*
G04 #@! TA.AperFunction,ComponentPad*
%ADD21O,1.700000X0.900000*%
G04 #@! TD*
G04 #@! TA.AperFunction,ViaPad*
%ADD22C,0.558800*%
G04 #@! TD*
G04 #@! TA.AperFunction,Conductor*
%ADD23C,0.250000*%
G04 #@! TD*
G04 #@! TA.AperFunction,Conductor*
%ADD24C,0.200000*%
G04 #@! TD*
G04 #@! TA.AperFunction,Conductor*
%ADD25C,0.160000*%
G04 #@! TD*
G04 #@! TA.AperFunction,Conductor*
%ADD26C,0.400000*%
G04 #@! TD*
G04 #@! TA.AperFunction,Conductor*
%ADD27C,0.154000*%
G04 #@! TD*
G04 #@! TA.AperFunction,Conductor*
%ADD28C,0.100000*%
G04 #@! TD*
G04 APERTURE END LIST*
D10*
X22500000Y29500000D03*
X22500000Y24500000D03*
X22500000Y19000000D03*
X22500000Y14000000D03*
D11*
X5900000Y29000000D03*
D12*
X3500000Y29000000D03*
D11*
X3500000Y26600000D03*
X1802944Y30697056D03*
X1802944Y27302944D03*
X1100000Y29000000D03*
X3500000Y31400000D03*
X5197056Y27302944D03*
X5197056Y30697056D03*
X63900000Y29000000D03*
D12*
X61500000Y29000000D03*
D11*
X61500000Y26600000D03*
X59802944Y30697056D03*
X59802944Y27302944D03*
X59100000Y29000000D03*
X61500000Y31400000D03*
X63197056Y27302944D03*
X63197056Y30697056D03*
X63900000Y-29000000D03*
D12*
X61500000Y-29000000D03*
D11*
X61500000Y-31400000D03*
X59802944Y-27302944D03*
X59802944Y-30697056D03*
X59100000Y-29000000D03*
X61500000Y-26600000D03*
X63197056Y-30697056D03*
X63197056Y-27302944D03*
X5900000Y-29000000D03*
X1802944Y-30697056D03*
D12*
X3500000Y-29000000D03*
D11*
X3500000Y-26600000D03*
X5197056Y-27302944D03*
X1100000Y-29000000D03*
X1802944Y-27302944D03*
X5197056Y-30697056D03*
X3500000Y-31400000D03*
D13*
X1500000Y-13970000D03*
X1500000Y-16510000D03*
X1500000Y-3810000D03*
X1500000Y11430000D03*
X1500000Y8890000D03*
X1500000Y1270000D03*
X1500000Y19050000D03*
X1500000Y-1270000D03*
X1500000Y-11430000D03*
D14*
X1500000Y24130000D03*
D13*
X1500000Y13970000D03*
X1500000Y3810000D03*
X1500000Y-8890000D03*
X1500000Y-19050000D03*
X1500000Y-24130000D03*
X1500000Y-6350000D03*
X1500000Y6350000D03*
X1500000Y-21590000D03*
X1500000Y21590000D03*
X1500000Y16510000D03*
D15*
X38480000Y-9100000D03*
X38480000Y-23900000D03*
D16*
X20250000Y-12563000D03*
X20250000Y-20437000D03*
D15*
X20250000Y-27250000D03*
D17*
X15500000Y-2540000D03*
D18*
X15500000Y0D03*
X15500000Y2540000D03*
X19500000Y2540000D03*
X19500000Y0D03*
D17*
X19500000Y-2540000D03*
D15*
X49500000Y-2500000D03*
X30500000Y8250000D03*
X15500000Y-6000000D03*
X14750000Y8250000D03*
X6000000Y4500000D03*
X16500000Y29500000D03*
X55500000Y30000000D03*
D19*
X56250000Y9500000D03*
X56250000Y10350000D03*
X56250000Y11200000D03*
X56250000Y12050000D03*
X56250000Y12900000D03*
X56250000Y13750000D03*
X56250000Y14600000D03*
X56250000Y15450000D03*
X57600000Y10350000D03*
X57600000Y12050000D03*
X57600000Y11200000D03*
X57600000Y9500000D03*
X57600000Y13750000D03*
X57600000Y14600000D03*
X57600000Y15450000D03*
X57600000Y12900000D03*
D20*
X57230000Y8150000D03*
X57230000Y16800000D03*
D21*
X60610000Y8150000D03*
X60610000Y16800000D03*
D22*
X54750000Y-2500000D03*
X58750000Y-2500000D03*
X57750000Y-1500000D03*
X57750000Y-2500000D03*
X57750000Y-3500000D03*
X56750000Y-3500000D03*
X55750000Y-3500000D03*
X55750000Y-2500000D03*
X55750000Y-1500000D03*
X56750000Y-1500000D03*
X10750000Y18000000D03*
X11750000Y18000000D03*
X12750000Y18000000D03*
X12750000Y19000000D03*
X12750000Y20000000D03*
X11750000Y20000000D03*
X10750000Y20000000D03*
X10750000Y19000000D03*
X11750000Y19000000D03*
X17500000Y-27500000D03*
X20000000Y-30000000D03*
X22500000Y-27500000D03*
X25000000Y-30000000D03*
X27500000Y-27500000D03*
X30000000Y-30000000D03*
X32500000Y-27500000D03*
X35000000Y-30000000D03*
X37500000Y-27500000D03*
X40000000Y-30000000D03*
X42500000Y-27500000D03*
X45000000Y-30000000D03*
X47500000Y-27500000D03*
X50000000Y-30000000D03*
X52500000Y-27500000D03*
X55000000Y-30000000D03*
X50000000Y-25000000D03*
X45000000Y-25000000D03*
X40000000Y-25000000D03*
X35000000Y-25000000D03*
X30000000Y-25000000D03*
X25000000Y-25000000D03*
X55000000Y-25000000D03*
X60000000Y-25000000D03*
X57500000Y-27500000D03*
X45000000Y30000000D03*
X40000000Y30000000D03*
X35000000Y30000000D03*
X37500000Y27500000D03*
X42500000Y27500000D03*
X47500000Y27500000D03*
X50000000Y30000000D03*
X50000000Y25000000D03*
X45000000Y25000000D03*
X40000000Y25000000D03*
X35000000Y25000000D03*
X37500000Y22500000D03*
X42500000Y22500000D03*
X47500000Y22500000D03*
X50000000Y20000000D03*
X45000000Y20000000D03*
X40000000Y20000000D03*
X35000000Y20000000D03*
X37500000Y17500000D03*
X42500000Y17500000D03*
X47500000Y17500000D03*
X32500000Y17500000D03*
X32500000Y22500000D03*
X32500000Y27500000D03*
X27500000Y27500000D03*
X25000000Y25000000D03*
X25000000Y-15000000D03*
X25000000Y-10000000D03*
X27500000Y-12500000D03*
X30000000Y-10000000D03*
X30000000Y-15000000D03*
X32500000Y-12500000D03*
X35000000Y-15000000D03*
X35000000Y-10000000D03*
X37500000Y-12500000D03*
X40000000Y-10000000D03*
X40000000Y-15000000D03*
X42500000Y-12500000D03*
X45000000Y-10000000D03*
X45000000Y-15000000D03*
X47500000Y-12500000D03*
X50000000Y-10000000D03*
X15000000Y-30000000D03*
X56750000Y-2500000D03*
X50000000Y15000000D03*
X8000000Y10250000D03*
X9500000Y9250000D03*
X10000000Y-30000000D03*
X12500000Y-27500000D03*
X15000000Y-25000000D03*
X30000000Y20000000D03*
X27500000Y22500000D03*
X30000000Y25000000D03*
X30000000Y30000000D03*
X25000000Y30000000D03*
X45000000Y15000000D03*
X40000000Y15000000D03*
X35000000Y15000000D03*
X30000000Y15000000D03*
X25000000Y15000000D03*
X27500000Y17500000D03*
X25000000Y20000000D03*
X32500000Y12500000D03*
X37500000Y12500000D03*
X42500000Y12500000D03*
X47500000Y12500000D03*
X17500000Y-1500000D03*
X17500000Y-4000000D03*
X21250000Y-4000000D03*
X9750000Y12750000D03*
X4750000Y-3000000D03*
X4750000Y-1000000D03*
X4750000Y1500000D03*
X8000000Y500000D03*
X9500000Y7500000D03*
X10000000Y30000000D03*
X10000000Y25000000D03*
X12500000Y27500000D03*
X7500000Y27500000D03*
X22500000Y27500000D03*
X20000000Y15000000D03*
X22500000Y17500000D03*
X30000000Y5000000D03*
X25000000Y5000000D03*
X20000000Y5000000D03*
X15000000Y5000000D03*
X35000000Y5000000D03*
X25000000Y11500000D03*
X20000000Y11500000D03*
X9500000Y-2000000D03*
X5250000Y-6500000D03*
X3250000Y-8500000D03*
X7750000Y-21500000D03*
X7750000Y-22750000D03*
X7750000Y-24000000D03*
X7750000Y-25250000D03*
X9000000Y-25250000D03*
X10250000Y-25250000D03*
X8500000Y-14500000D03*
X11500000Y-11500000D03*
X14500000Y-8500000D03*
X5500000Y-17500000D03*
X5500000Y-11250000D03*
X7500000Y-9250000D03*
X3500000Y-13250000D03*
X8500000Y2500000D03*
X50000000Y-15000000D03*
X52500000Y-12500000D03*
X55000000Y-10000000D03*
X55000000Y-15000000D03*
X60750000Y-2500000D03*
X51250000Y-2500000D03*
X56750000Y1750000D03*
X57250000Y-6750000D03*
X55750000Y-6750000D03*
X45000000Y-5000000D03*
X45000000Y0D03*
X47500000Y-7500000D03*
X47500000Y-2500000D03*
X52500000Y12500000D03*
X53500000Y4500000D03*
X56500000Y4500000D03*
X59500000Y4500000D03*
X62500000Y4500000D03*
X62500000Y12500000D03*
X55000000Y25000000D03*
X59000000Y12500000D03*
X52500000Y27500000D03*
X52500000Y17500000D03*
X35000000Y10000000D03*
X40000000Y10000000D03*
X45000000Y10000000D03*
X29000000Y-2000000D03*
X25250000Y-2500000D03*
X47500000Y2500000D03*
X7000000Y21279400D03*
X8000000Y14500000D03*
X7000000Y18020600D03*
X15000000Y24500000D03*
X6750000Y-16500000D03*
X8000000Y-20250000D03*
X13000000Y-20250000D03*
X1500000Y7675597D03*
X2991197Y-4750000D03*
X12500000Y-16500000D03*
X13500000Y-16500000D03*
X3750000Y-4750000D03*
X7000000Y9750000D03*
X7000000Y14500000D03*
X17000000Y10750000D03*
X11000000Y8500000D03*
X5500000Y9750000D03*
X7000000Y23250000D03*
X7000000Y22250000D03*
X6250000Y9250000D03*
X59750000Y14500000D03*
X39750000Y5425000D03*
X43350000Y6900000D03*
X4500000Y16375000D03*
X10250000Y10000000D03*
X4500000Y11000000D03*
X17000000Y12250000D03*
X15500000Y-10250000D03*
X28000000Y-4500000D03*
X28000000Y-7750000D03*
D23*
X57600000Y15450000D02*
X58950000Y15450000D01*
X56250000Y15450000D02*
X54800000Y15450000D01*
X56250000Y9500000D02*
X55000000Y9500000D01*
X57600000Y9500000D02*
X58356520Y9500000D01*
X58356520Y9500000D02*
X58678260Y9821740D01*
X56250000Y15450000D02*
X57600000Y15450000D01*
X56250000Y15450000D02*
X56250000Y16500000D01*
X56930000Y16500000D02*
X57230000Y16800000D01*
X56250000Y16500000D02*
X56930000Y16500000D01*
X57600000Y16430000D02*
X57230000Y16800000D01*
X57600000Y15450000D02*
X57600000Y16430000D01*
X56250000Y9500000D02*
X56250000Y8500000D01*
X56600000Y8150000D02*
X56250000Y8500000D01*
X57230000Y8150000D02*
X56600000Y8150000D01*
X7000000Y21279400D02*
X7000000Y20000000D01*
X7000000Y20000000D02*
X7000000Y16250000D01*
X7000000Y16250000D02*
X7000000Y15500000D01*
X7000000Y15500000D02*
X8000000Y14500000D01*
X15000000Y24500000D02*
X22500000Y24500000D01*
X6750000Y-14140000D02*
X1500000Y-8890000D01*
X6750000Y-16500000D02*
X6750000Y-14140000D01*
D24*
X8000000Y-20250000D02*
X13000000Y-20250000D01*
X1500000Y7675597D02*
X2074403Y7675597D01*
X2074403Y7675597D02*
X2750000Y7000000D01*
X2750000Y5060000D02*
X1500000Y3810000D01*
X2750000Y7000000D02*
X2750000Y5060000D01*
X2991197Y-6991197D02*
X2991197Y-4750000D01*
X12500000Y-16500000D02*
X2991197Y-6991197D01*
X13500000Y-16500000D02*
X3750000Y-6750000D01*
X3750000Y-6750000D02*
X3750000Y-4750000D01*
D23*
X7000000Y14000000D02*
X7000000Y14500000D01*
X7000000Y9750000D02*
X7000000Y14500000D01*
X12750000Y10250000D02*
X13250000Y10750000D01*
X13250000Y10750000D02*
X17000000Y10750000D01*
X12500000Y10000000D02*
X12750000Y10250000D01*
X12500000Y10000000D02*
X11000000Y8500000D01*
X6250000Y23250000D02*
X5500000Y22500000D01*
X7000000Y23250000D02*
X6250000Y23250000D01*
X5500000Y22500000D02*
X5500000Y15750000D01*
X5500000Y15750000D02*
X5500000Y9750000D01*
X6500000Y22250000D02*
X7000000Y22250000D01*
X6250000Y10250000D02*
X6250000Y22000000D01*
X6250000Y22000000D02*
X6500000Y22250000D01*
X6250000Y10250000D02*
X6250000Y9250000D01*
D25*
X59750000Y10250000D02*
X59750000Y14500000D01*
X59750000Y10000000D02*
X59750000Y10250000D01*
X58625000Y8875000D02*
X59750000Y10000000D01*
X57200000Y8875000D02*
X58625000Y8875000D01*
X56925000Y9150000D02*
X57200000Y8875000D01*
X56925000Y10525000D02*
X56925000Y9150000D01*
X56250000Y11200000D02*
X56925000Y10525000D01*
D23*
X39750000Y5425000D02*
X41225000Y6900000D01*
X43350000Y6900000D02*
X41400000Y6900000D01*
X41225000Y6900000D02*
X41400000Y6900000D01*
X4500000Y16375000D02*
X4500000Y15500000D01*
X4500000Y15500000D02*
X4500000Y11000000D01*
X11500000Y11250000D02*
X10250000Y10000000D01*
X12500000Y12250000D02*
X12250000Y12000000D01*
X17000000Y12250000D02*
X12500000Y12250000D01*
X11500000Y11250000D02*
X12250000Y12000000D01*
D26*
X20250000Y-18250000D02*
X20250000Y-20437000D01*
X15500000Y-13500000D02*
X20250000Y-18250000D01*
X15500000Y-10250000D02*
X15500000Y-13500000D01*
D23*
X28000000Y-4500000D02*
X28000000Y-7750000D01*
D27*
X62106246Y32061749D02*
X62689392Y31885687D01*
X63227241Y31599707D01*
X63699297Y31214709D01*
X64087585Y30745350D01*
X64377312Y30209512D01*
X64557442Y29627606D01*
X64622983Y29004022D01*
X64623000Y28999264D01*
X64623001Y-28981548D01*
X64561749Y-29606241D01*
X64385686Y-30189392D01*
X64099707Y-30727240D01*
X63714709Y-31199297D01*
X63245347Y-31587586D01*
X62709510Y-31877312D01*
X62127604Y-32057442D01*
X61504022Y-32122983D01*
X61499264Y-32123000D01*
X3518441Y-32123000D01*
X2893759Y-32061749D01*
X2310608Y-31885686D01*
X1772760Y-31599707D01*
X1300703Y-31214709D01*
X912414Y-30745347D01*
X622688Y-30209510D01*
X442558Y-29627604D01*
X377017Y-29004022D01*
X377000Y-28999264D01*
X377000Y-27119302D01*
X18923000Y-27119302D01*
X18923000Y-27380698D01*
X18973996Y-27637072D01*
X19074028Y-27878570D01*
X19219252Y-28095913D01*
X19404087Y-28280748D01*
X19621430Y-28425972D01*
X19862928Y-28526004D01*
X20119302Y-28577000D01*
X20380698Y-28577000D01*
X20637072Y-28526004D01*
X20878570Y-28425972D01*
X21095913Y-28280748D01*
X21280748Y-28095913D01*
X21425972Y-27878570D01*
X21526004Y-27637072D01*
X21577000Y-27380698D01*
X21577000Y-27119302D01*
X21526004Y-26862928D01*
X21425972Y-26621430D01*
X21280748Y-26404087D01*
X21095913Y-26219252D01*
X20878570Y-26074028D01*
X20637072Y-25973996D01*
X20380698Y-25923000D01*
X20119302Y-25923000D01*
X19862928Y-25973996D01*
X19621430Y-26074028D01*
X19404087Y-26219252D01*
X19219252Y-26404087D01*
X19074028Y-26621430D01*
X18973996Y-26862928D01*
X18923000Y-27119302D01*
X377000Y-27119302D01*
X377000Y-24872478D01*
X931470Y-24872478D01*
X1006180Y-25018944D01*
X1189093Y-25098202D01*
X1383954Y-25140253D01*
X1583274Y-25143481D01*
X1779394Y-25107761D01*
X1964778Y-25034467D01*
X1993820Y-25018944D01*
X2068530Y-24872478D01*
X1500000Y-24303948D01*
X931470Y-24872478D01*
X377000Y-24872478D01*
X377000Y-24213274D01*
X486519Y-24213274D01*
X522239Y-24409394D01*
X595533Y-24594778D01*
X611056Y-24623820D01*
X757522Y-24698530D01*
X1326052Y-24130000D01*
X1673948Y-24130000D01*
X2242478Y-24698530D01*
X2388944Y-24623820D01*
X2468202Y-24440907D01*
X2510253Y-24246046D01*
X2513481Y-24046726D01*
X2477761Y-23850606D01*
X2404467Y-23665222D01*
X2388944Y-23636180D01*
X2242478Y-23561470D01*
X1673948Y-24130000D01*
X1326052Y-24130000D01*
X757522Y-23561470D01*
X611056Y-23636180D01*
X531798Y-23819093D01*
X489747Y-24013954D01*
X486519Y-24213274D01*
X377000Y-24213274D01*
X377000Y-23387522D01*
X931470Y-23387522D01*
X1500000Y-23956052D01*
X2068530Y-23387522D01*
X1993820Y-23241056D01*
X1810907Y-23161798D01*
X1616046Y-23119747D01*
X1416726Y-23116519D01*
X1220606Y-23152239D01*
X1035222Y-23225533D01*
X1006180Y-23241056D01*
X931470Y-23387522D01*
X377000Y-23387522D01*
X377000Y-22332478D01*
X931470Y-22332478D01*
X1006180Y-22478944D01*
X1189093Y-22558202D01*
X1383954Y-22600253D01*
X1583274Y-22603481D01*
X1779394Y-22567761D01*
X1964778Y-22494467D01*
X1993820Y-22478944D01*
X2068530Y-22332478D01*
X1500000Y-21763948D01*
X931470Y-22332478D01*
X377000Y-22332478D01*
X377000Y-21673274D01*
X486519Y-21673274D01*
X522239Y-21869394D01*
X595533Y-22054778D01*
X611056Y-22083820D01*
X757522Y-22158530D01*
X1326052Y-21590000D01*
X1673948Y-21590000D01*
X2242478Y-22158530D01*
X2388944Y-22083820D01*
X2468202Y-21900907D01*
X2510253Y-21706046D01*
X2513481Y-21506726D01*
X2477761Y-21310606D01*
X2404467Y-21125222D01*
X2388944Y-21096180D01*
X2242478Y-21021470D01*
X1673948Y-21590000D01*
X1326052Y-21590000D01*
X757522Y-21021470D01*
X611056Y-21096180D01*
X531798Y-21279093D01*
X489747Y-21473954D01*
X486519Y-21673274D01*
X377000Y-21673274D01*
X377000Y-20847522D01*
X931470Y-20847522D01*
X1500000Y-21416052D01*
X2068530Y-20847522D01*
X1993820Y-20701056D01*
X1810907Y-20621798D01*
X1616046Y-20579747D01*
X1416726Y-20576519D01*
X1220606Y-20612239D01*
X1035222Y-20685533D01*
X1006180Y-20701056D01*
X931470Y-20847522D01*
X377000Y-20847522D01*
X377000Y-20190275D01*
X7393600Y-20190275D01*
X7393600Y-20309725D01*
X7416904Y-20426880D01*
X7462615Y-20537238D01*
X7528978Y-20636557D01*
X7613443Y-20721022D01*
X7712762Y-20787385D01*
X7823120Y-20833096D01*
X7940275Y-20856400D01*
X8059725Y-20856400D01*
X8176880Y-20833096D01*
X8287238Y-20787385D01*
X8386557Y-20721022D01*
X8430579Y-20677000D01*
X12569421Y-20677000D01*
X12613443Y-20721022D01*
X12712762Y-20787385D01*
X12823120Y-20833096D01*
X12940275Y-20856400D01*
X13059725Y-20856400D01*
X13176880Y-20833096D01*
X13287238Y-20787385D01*
X13386557Y-20721022D01*
X13471022Y-20636557D01*
X13537385Y-20537238D01*
X13583096Y-20426880D01*
X13606400Y-20309725D01*
X13606400Y-20190275D01*
X13583096Y-20073120D01*
X13537385Y-19962762D01*
X13471022Y-19863443D01*
X13386557Y-19778978D01*
X13287238Y-19712615D01*
X13176880Y-19666904D01*
X13059725Y-19643600D01*
X12940275Y-19643600D01*
X12823120Y-19666904D01*
X12712762Y-19712615D01*
X12613443Y-19778978D01*
X12569421Y-19823000D01*
X8430579Y-19823000D01*
X8386557Y-19778978D01*
X8287238Y-19712615D01*
X8176880Y-19666904D01*
X8059725Y-19643600D01*
X7940275Y-19643600D01*
X7823120Y-19666904D01*
X7712762Y-19712615D01*
X7613443Y-19778978D01*
X7528978Y-19863443D01*
X7462615Y-19962762D01*
X7416904Y-20073120D01*
X7393600Y-20190275D01*
X377000Y-20190275D01*
X377000Y-18950327D01*
X488000Y-18950327D01*
X488000Y-19149673D01*
X526890Y-19345190D01*
X603177Y-19529362D01*
X713928Y-19695113D01*
X854887Y-19836072D01*
X1020638Y-19946823D01*
X1204810Y-20023110D01*
X1400327Y-20062000D01*
X1599673Y-20062000D01*
X1795190Y-20023110D01*
X1979362Y-19946823D01*
X2145113Y-19836072D01*
X2286072Y-19695113D01*
X2396823Y-19529362D01*
X2473110Y-19345190D01*
X2512000Y-19149673D01*
X2512000Y-18950327D01*
X2473110Y-18754810D01*
X2396823Y-18570638D01*
X2286072Y-18404887D01*
X2145113Y-18263928D01*
X1979362Y-18153177D01*
X1795190Y-18076890D01*
X1599673Y-18038000D01*
X1400327Y-18038000D01*
X1204810Y-18076890D01*
X1020638Y-18153177D01*
X854887Y-18263928D01*
X713928Y-18404887D01*
X603177Y-18570638D01*
X526890Y-18754810D01*
X488000Y-18950327D01*
X377000Y-18950327D01*
X377000Y-16410327D01*
X488000Y-16410327D01*
X488000Y-16609673D01*
X526890Y-16805190D01*
X603177Y-16989362D01*
X713928Y-17155113D01*
X854887Y-17296072D01*
X1020638Y-17406823D01*
X1204810Y-17483110D01*
X1400327Y-17522000D01*
X1599673Y-17522000D01*
X1795190Y-17483110D01*
X1979362Y-17406823D01*
X2145113Y-17296072D01*
X2286072Y-17155113D01*
X2396823Y-16989362D01*
X2473110Y-16805190D01*
X2512000Y-16609673D01*
X2512000Y-16410327D01*
X2473110Y-16214810D01*
X2396823Y-16030638D01*
X2286072Y-15864887D01*
X2145113Y-15723928D01*
X1979362Y-15613177D01*
X1795190Y-15536890D01*
X1599673Y-15498000D01*
X1400327Y-15498000D01*
X1204810Y-15536890D01*
X1020638Y-15613177D01*
X854887Y-15723928D01*
X713928Y-15864887D01*
X603177Y-16030638D01*
X526890Y-16214810D01*
X488000Y-16410327D01*
X377000Y-16410327D01*
X377000Y-13870327D01*
X488000Y-13870327D01*
X488000Y-14069673D01*
X526890Y-14265190D01*
X603177Y-14449362D01*
X713928Y-14615113D01*
X854887Y-14756072D01*
X1020638Y-14866823D01*
X1204810Y-14943110D01*
X1400327Y-14982000D01*
X1599673Y-14982000D01*
X1795190Y-14943110D01*
X1979362Y-14866823D01*
X2145113Y-14756072D01*
X2286072Y-14615113D01*
X2396823Y-14449362D01*
X2473110Y-14265190D01*
X2512000Y-14069673D01*
X2512000Y-13870327D01*
X2473110Y-13674810D01*
X2396823Y-13490638D01*
X2286072Y-13324887D01*
X2145113Y-13183928D01*
X1979362Y-13073177D01*
X1795190Y-12996890D01*
X1599673Y-12958000D01*
X1400327Y-12958000D01*
X1204810Y-12996890D01*
X1020638Y-13073177D01*
X854887Y-13183928D01*
X713928Y-13324887D01*
X603177Y-13490638D01*
X526890Y-13674810D01*
X488000Y-13870327D01*
X377000Y-13870327D01*
X377000Y-11330327D01*
X488000Y-11330327D01*
X488000Y-11529673D01*
X526890Y-11725190D01*
X603177Y-11909362D01*
X713928Y-12075113D01*
X854887Y-12216072D01*
X1020638Y-12326823D01*
X1204810Y-12403110D01*
X1400327Y-12442000D01*
X1599673Y-12442000D01*
X1795190Y-12403110D01*
X1979362Y-12326823D01*
X2145113Y-12216072D01*
X2286072Y-12075113D01*
X2396823Y-11909362D01*
X2473110Y-11725190D01*
X2512000Y-11529673D01*
X2512000Y-11330327D01*
X2473110Y-11134810D01*
X2396823Y-10950638D01*
X2286072Y-10784887D01*
X2145113Y-10643928D01*
X1979362Y-10533177D01*
X1795190Y-10456890D01*
X1599673Y-10418000D01*
X1400327Y-10418000D01*
X1204810Y-10456890D01*
X1020638Y-10533177D01*
X854887Y-10643928D01*
X713928Y-10784887D01*
X603177Y-10950638D01*
X526890Y-11134810D01*
X488000Y-11330327D01*
X377000Y-11330327D01*
X377000Y-8790327D01*
X488000Y-8790327D01*
X488000Y-8989673D01*
X526890Y-9185190D01*
X603177Y-9369362D01*
X713928Y-9535113D01*
X854887Y-9676072D01*
X1020638Y-9786823D01*
X1204810Y-9863110D01*
X1400327Y-9902000D01*
X1599673Y-9902000D01*
X1795190Y-9863110D01*
X1822553Y-9851776D01*
X6298001Y-14327226D01*
X6298000Y-16094421D01*
X6278978Y-16113443D01*
X6212615Y-16212762D01*
X6166904Y-16323120D01*
X6143600Y-16440275D01*
X6143600Y-16559725D01*
X6166904Y-16676880D01*
X6212615Y-16787238D01*
X6278978Y-16886557D01*
X6363443Y-16971022D01*
X6462762Y-17037385D01*
X6573120Y-17083096D01*
X6690275Y-17106400D01*
X6809725Y-17106400D01*
X6926880Y-17083096D01*
X7037238Y-17037385D01*
X7136557Y-16971022D01*
X7221022Y-16886557D01*
X7287385Y-16787238D01*
X7333096Y-16676880D01*
X7356400Y-16559725D01*
X7356400Y-16440275D01*
X7333096Y-16323120D01*
X7287385Y-16212762D01*
X7221022Y-16113443D01*
X7202000Y-16094421D01*
X7202000Y-14162204D01*
X7204187Y-14139999D01*
X7195460Y-14051392D01*
X7185747Y-14019374D01*
X7169614Y-13966190D01*
X7127643Y-13887667D01*
X7071159Y-13818841D01*
X7053911Y-13804686D01*
X2461776Y-9212553D01*
X2473110Y-9185190D01*
X2512000Y-8989673D01*
X2512000Y-8790327D01*
X2473110Y-8594810D01*
X2396823Y-8410638D01*
X2286072Y-8244887D01*
X2145113Y-8103928D01*
X1979362Y-7993177D01*
X1795190Y-7916890D01*
X1599673Y-7878000D01*
X1400327Y-7878000D01*
X1204810Y-7916890D01*
X1020638Y-7993177D01*
X854887Y-8103928D01*
X713928Y-8244887D01*
X603177Y-8410638D01*
X526890Y-8594810D01*
X488000Y-8790327D01*
X377000Y-8790327D01*
X377000Y-7092478D01*
X931470Y-7092478D01*
X1006180Y-7238944D01*
X1189093Y-7318202D01*
X1383954Y-7360253D01*
X1583274Y-7363481D01*
X1779394Y-7327761D01*
X1964778Y-7254467D01*
X1993820Y-7238944D01*
X2068530Y-7092478D01*
X1500000Y-6523948D01*
X931470Y-7092478D01*
X377000Y-7092478D01*
X377000Y-6433274D01*
X486519Y-6433274D01*
X522239Y-6629394D01*
X595533Y-6814778D01*
X611056Y-6843820D01*
X757522Y-6918530D01*
X1326052Y-6350000D01*
X1673948Y-6350000D01*
X2242478Y-6918530D01*
X2388944Y-6843820D01*
X2468202Y-6660907D01*
X2510253Y-6466046D01*
X2513481Y-6266726D01*
X2477761Y-6070606D01*
X2404467Y-5885222D01*
X2388944Y-5856180D01*
X2242478Y-5781470D01*
X1673948Y-6350000D01*
X1326052Y-6350000D01*
X757522Y-5781470D01*
X611056Y-5856180D01*
X531798Y-6039093D01*
X489747Y-6233954D01*
X486519Y-6433274D01*
X377000Y-6433274D01*
X377000Y-5607522D01*
X931470Y-5607522D01*
X1500000Y-6176052D01*
X2068530Y-5607522D01*
X1993820Y-5461056D01*
X1810907Y-5381798D01*
X1616046Y-5339747D01*
X1416726Y-5336519D01*
X1220606Y-5372239D01*
X1035222Y-5445533D01*
X1006180Y-5461056D01*
X931470Y-5607522D01*
X377000Y-5607522D01*
X377000Y-3710327D01*
X488000Y-3710327D01*
X488000Y-3909673D01*
X526890Y-4105190D01*
X603177Y-4289362D01*
X713928Y-4455113D01*
X854887Y-4596072D01*
X1020638Y-4706823D01*
X1204810Y-4783110D01*
X1400327Y-4822000D01*
X1599673Y-4822000D01*
X1795190Y-4783110D01*
X1979362Y-4706823D01*
X2004127Y-4690275D01*
X2384797Y-4690275D01*
X2384797Y-4809725D01*
X2408101Y-4926880D01*
X2453812Y-5037238D01*
X2520175Y-5136557D01*
X2564198Y-5180580D01*
X2564197Y-6970230D01*
X2562132Y-6991197D01*
X2564197Y-7012164D01*
X2564197Y-7012174D01*
X2570375Y-7074903D01*
X2594792Y-7155392D01*
X2607446Y-7179066D01*
X2634442Y-7229573D01*
X2674429Y-7278297D01*
X2687802Y-7294592D01*
X2704097Y-7307965D01*
X11893600Y-16497470D01*
X11893600Y-16559725D01*
X11916904Y-16676880D01*
X11962615Y-16787238D01*
X12028978Y-16886557D01*
X12113443Y-16971022D01*
X12212762Y-17037385D01*
X12323120Y-17083096D01*
X12440275Y-17106400D01*
X12559725Y-17106400D01*
X12676880Y-17083096D01*
X12787238Y-17037385D01*
X12886557Y-16971022D01*
X12971022Y-16886557D01*
X13000000Y-16843188D01*
X13028978Y-16886557D01*
X13113443Y-16971022D01*
X13212762Y-17037385D01*
X13323120Y-17083096D01*
X13440275Y-17106400D01*
X13559725Y-17106400D01*
X13676880Y-17083096D01*
X13787238Y-17037385D01*
X13886557Y-16971022D01*
X13971022Y-16886557D01*
X14037385Y-16787238D01*
X14083096Y-16676880D01*
X14106400Y-16559725D01*
X14106400Y-16440275D01*
X14083096Y-16323120D01*
X14037385Y-16212762D01*
X13971022Y-16113443D01*
X13886557Y-16028978D01*
X13787238Y-15962615D01*
X13676880Y-15916904D01*
X13559725Y-15893600D01*
X13497470Y-15893600D01*
X7794144Y-10190275D01*
X14893600Y-10190275D01*
X14893600Y-10309725D01*
X14916904Y-10426880D01*
X14962615Y-10537238D01*
X14973000Y-10552780D01*
X14973001Y-13474109D01*
X14970451Y-13500000D01*
X14980626Y-13603309D01*
X15010761Y-13702649D01*
X15059696Y-13794201D01*
X15059697Y-13794202D01*
X15125553Y-13874448D01*
X15145662Y-13890951D01*
X18771181Y-17516471D01*
X18628175Y-17784018D01*
X18528280Y-18113328D01*
X18503001Y-18369987D01*
X18503000Y-22504012D01*
X18528279Y-22760671D01*
X18628174Y-23089981D01*
X18790395Y-23393476D01*
X19008708Y-23659492D01*
X19274723Y-23877805D01*
X19578218Y-24040026D01*
X19907528Y-24139921D01*
X20250000Y-24173652D01*
X20592471Y-24139921D01*
X20921781Y-24040026D01*
X21225276Y-23877805D01*
X21491292Y-23659492D01*
X21709605Y-23393477D01*
X21871826Y-23089982D01*
X21971721Y-22760672D01*
X21997000Y-22504013D01*
X21997000Y-18369987D01*
X21971721Y-18113328D01*
X21871826Y-17784018D01*
X21709605Y-17480523D01*
X21491292Y-17214508D01*
X21225277Y-16996195D01*
X20921782Y-16833974D01*
X20592472Y-16734079D01*
X20250000Y-16700348D01*
X19907529Y-16734079D01*
X19579021Y-16833731D01*
X17375302Y-14630012D01*
X18503000Y-14630012D01*
X18528279Y-14886671D01*
X18628174Y-15215981D01*
X18790395Y-15519476D01*
X19008708Y-15785492D01*
X19274723Y-16003805D01*
X19578218Y-16166026D01*
X19907528Y-16265921D01*
X20250000Y-16299652D01*
X20592471Y-16265921D01*
X20921781Y-16166026D01*
X21225276Y-16003805D01*
X21491292Y-15785492D01*
X21709605Y-15519477D01*
X21871826Y-15215982D01*
X21971721Y-14886672D01*
X21997000Y-14630013D01*
X21997000Y-10495987D01*
X21971721Y-10239328D01*
X21871826Y-9910018D01*
X21709605Y-9606523D01*
X21491292Y-9340508D01*
X21225277Y-9122195D01*
X20921782Y-8959974D01*
X20592472Y-8860079D01*
X20250000Y-8826348D01*
X19907529Y-8860079D01*
X19578219Y-8959974D01*
X19274724Y-9122195D01*
X19008709Y-9340508D01*
X18790396Y-9606523D01*
X18628175Y-9910018D01*
X18528280Y-10239328D01*
X18503001Y-10495987D01*
X18503000Y-14630012D01*
X17375302Y-14630012D01*
X16027000Y-13281711D01*
X16027000Y-10552780D01*
X16037385Y-10537238D01*
X16083096Y-10426880D01*
X16106400Y-10309725D01*
X16106400Y-10190275D01*
X16083096Y-10073120D01*
X16037385Y-9962762D01*
X15971022Y-9863443D01*
X15886557Y-9778978D01*
X15787238Y-9712615D01*
X15676880Y-9666904D01*
X15559725Y-9643600D01*
X15440275Y-9643600D01*
X15323120Y-9666904D01*
X15212762Y-9712615D01*
X15113443Y-9778978D01*
X15028978Y-9863443D01*
X14962615Y-9962762D01*
X14916904Y-10073120D01*
X14893600Y-10190275D01*
X7794144Y-10190275D01*
X4177000Y-6573132D01*
X4177000Y-5854528D01*
X14023000Y-5854528D01*
X14023000Y-6145472D01*
X14079760Y-6430825D01*
X14191099Y-6699622D01*
X14352739Y-6941533D01*
X14558467Y-7147261D01*
X14800378Y-7308901D01*
X15069175Y-7420240D01*
X15354528Y-7477000D01*
X15645472Y-7477000D01*
X15930825Y-7420240D01*
X16199622Y-7308901D01*
X16441533Y-7147261D01*
X16647261Y-6941533D01*
X16808901Y-6699622D01*
X16920240Y-6430825D01*
X16977000Y-6145472D01*
X16977000Y-5854528D01*
X16920240Y-5569175D01*
X16808901Y-5300378D01*
X16647261Y-5058467D01*
X16441533Y-4852739D01*
X16199622Y-4691099D01*
X15930825Y-4579760D01*
X15645472Y-4523000D01*
X15354528Y-4523000D01*
X15069175Y-4579760D01*
X14800378Y-4691099D01*
X14558467Y-4852739D01*
X14352739Y-5058467D01*
X14191099Y-5300378D01*
X14079760Y-5569175D01*
X14023000Y-5854528D01*
X4177000Y-5854528D01*
X4177000Y-5180579D01*
X4221022Y-5136557D01*
X4287385Y-5037238D01*
X4333096Y-4926880D01*
X4356400Y-4809725D01*
X4356400Y-4690275D01*
X4333096Y-4573120D01*
X4287385Y-4462762D01*
X4272360Y-4440275D01*
X27393600Y-4440275D01*
X27393600Y-4559725D01*
X27416904Y-4676880D01*
X27462615Y-4787238D01*
X27528978Y-4886557D01*
X27548000Y-4905579D01*
X27548001Y-7344420D01*
X27528978Y-7363443D01*
X27462615Y-7462762D01*
X27416904Y-7573120D01*
X27393600Y-7690275D01*
X27393600Y-7809725D01*
X27416904Y-7926880D01*
X27462615Y-8037238D01*
X27528978Y-8136557D01*
X27613443Y-8221022D01*
X27712762Y-8287385D01*
X27823120Y-8333096D01*
X27940275Y-8356400D01*
X28059725Y-8356400D01*
X28176880Y-8333096D01*
X28287238Y-8287385D01*
X28386557Y-8221022D01*
X28471022Y-8136557D01*
X28537385Y-8037238D01*
X28583096Y-7926880D01*
X28606400Y-7809725D01*
X28606400Y-7690275D01*
X28583096Y-7573120D01*
X28537385Y-7462762D01*
X28471022Y-7363443D01*
X28452000Y-7344421D01*
X28452000Y-4905579D01*
X28471022Y-4886557D01*
X28537385Y-4787238D01*
X28583096Y-4676880D01*
X28606400Y-4559725D01*
X28606400Y-4440275D01*
X28583096Y-4323120D01*
X28537385Y-4212762D01*
X28471022Y-4113443D01*
X28386557Y-4028978D01*
X28287238Y-3962615D01*
X28176880Y-3916904D01*
X28059725Y-3893600D01*
X27940275Y-3893600D01*
X27823120Y-3916904D01*
X27712762Y-3962615D01*
X27613443Y-4028978D01*
X27528978Y-4113443D01*
X27462615Y-4212762D01*
X27416904Y-4323120D01*
X27393600Y-4440275D01*
X4272360Y-4440275D01*
X4221022Y-4363443D01*
X4136557Y-4278978D01*
X4037238Y-4212615D01*
X3926880Y-4166904D01*
X3809725Y-4143600D01*
X3690275Y-4143600D01*
X3573120Y-4166904D01*
X3462762Y-4212615D01*
X3370599Y-4274197D01*
X3278435Y-4212615D01*
X3168077Y-4166904D01*
X3050922Y-4143600D01*
X2931472Y-4143600D01*
X2814317Y-4166904D01*
X2703959Y-4212615D01*
X2604640Y-4278978D01*
X2520175Y-4363443D01*
X2453812Y-4462762D01*
X2408101Y-4573120D01*
X2384797Y-4690275D01*
X2004127Y-4690275D01*
X2145113Y-4596072D01*
X2286072Y-4455113D01*
X2396823Y-4289362D01*
X2473110Y-4105190D01*
X2512000Y-3909673D01*
X2512000Y-3710327D01*
X2473110Y-3514810D01*
X2396823Y-3330638D01*
X2286072Y-3164887D01*
X2145113Y-3023928D01*
X1979362Y-2913177D01*
X1795190Y-2836890D01*
X1599673Y-2798000D01*
X1400327Y-2798000D01*
X1204810Y-2836890D01*
X1020638Y-2913177D01*
X854887Y-3023928D01*
X713928Y-3164887D01*
X603177Y-3330638D01*
X526890Y-3514810D01*
X488000Y-3710327D01*
X377000Y-3710327D01*
X377000Y-1170327D01*
X488000Y-1170327D01*
X488000Y-1369673D01*
X526890Y-1565190D01*
X603177Y-1749362D01*
X713928Y-1915113D01*
X854887Y-2056072D01*
X1020638Y-2166823D01*
X1204810Y-2243110D01*
X1400327Y-2282000D01*
X1599673Y-2282000D01*
X1795190Y-2243110D01*
X1979362Y-2166823D01*
X2145113Y-2056072D01*
X2286072Y-1915113D01*
X2396823Y-1749362D01*
X2421411Y-1690000D01*
X14321418Y-1690000D01*
X14321418Y-3390000D01*
X14327732Y-3454103D01*
X14346430Y-3515743D01*
X14376794Y-3572550D01*
X14417657Y-3622343D01*
X14467450Y-3663206D01*
X14524257Y-3693570D01*
X14585897Y-3712268D01*
X14650000Y-3718582D01*
X16350000Y-3718582D01*
X16414103Y-3712268D01*
X16475743Y-3693570D01*
X16532550Y-3663206D01*
X16582343Y-3622343D01*
X16623206Y-3572550D01*
X16653570Y-3515743D01*
X16672268Y-3454103D01*
X16678582Y-3390000D01*
X18321418Y-3390000D01*
X18327732Y-3454103D01*
X18346430Y-3515743D01*
X18376794Y-3572550D01*
X18417657Y-3622343D01*
X18467450Y-3663206D01*
X18524257Y-3693570D01*
X18585897Y-3712268D01*
X18650000Y-3718582D01*
X19395250Y-3717000D01*
X19477000Y-3635250D01*
X19477000Y-2563000D01*
X19523000Y-2563000D01*
X19523000Y-3635250D01*
X19604750Y-3717000D01*
X20350000Y-3718582D01*
X20414103Y-3712268D01*
X20475743Y-3693570D01*
X20532550Y-3663206D01*
X20582343Y-3622343D01*
X20623206Y-3572550D01*
X20653570Y-3515743D01*
X20672268Y-3454103D01*
X20678582Y-3390000D01*
X20677000Y-2644750D01*
X20595250Y-2563000D01*
X19523000Y-2563000D01*
X19477000Y-2563000D01*
X18404750Y-2563000D01*
X18323000Y-2644750D01*
X18321418Y-3390000D01*
X16678582Y-3390000D01*
X16678582Y-1690000D01*
X18321418Y-1690000D01*
X18323000Y-2435250D01*
X18404750Y-2517000D01*
X19477000Y-2517000D01*
X19477000Y-1444750D01*
X19523000Y-1444750D01*
X19523000Y-2517000D01*
X20595250Y-2517000D01*
X20677000Y-2435250D01*
X20677139Y-2369302D01*
X48173000Y-2369302D01*
X48173000Y-2630698D01*
X48223996Y-2887072D01*
X48324028Y-3128570D01*
X48469252Y-3345913D01*
X48654087Y-3530748D01*
X48871430Y-3675972D01*
X49112928Y-3776004D01*
X49369302Y-3827000D01*
X49630698Y-3827000D01*
X49887072Y-3776004D01*
X50128570Y-3675972D01*
X50345913Y-3530748D01*
X50530748Y-3345913D01*
X50675972Y-3128570D01*
X50776004Y-2887072D01*
X50827000Y-2630698D01*
X50827000Y-2369302D01*
X50776004Y-2112928D01*
X50675972Y-1871430D01*
X50530748Y-1654087D01*
X50345913Y-1469252D01*
X50128570Y-1324028D01*
X49887072Y-1223996D01*
X49630698Y-1173000D01*
X49369302Y-1173000D01*
X49112928Y-1223996D01*
X48871430Y-1324028D01*
X48654087Y-1469252D01*
X48469252Y-1654087D01*
X48324028Y-1871430D01*
X48223996Y-2112928D01*
X48173000Y-2369302D01*
X20677139Y-2369302D01*
X20678582Y-1690000D01*
X20672268Y-1625897D01*
X20653570Y-1564257D01*
X20623206Y-1507450D01*
X20582343Y-1457657D01*
X20532550Y-1416794D01*
X20475743Y-1386430D01*
X20414103Y-1367732D01*
X20350000Y-1361418D01*
X19604750Y-1363000D01*
X19523000Y-1444750D01*
X19477000Y-1444750D01*
X19395250Y-1363000D01*
X18650000Y-1361418D01*
X18585897Y-1367732D01*
X18524257Y-1386430D01*
X18467450Y-1416794D01*
X18417657Y-1457657D01*
X18376794Y-1507450D01*
X18346430Y-1564257D01*
X18327732Y-1625897D01*
X18321418Y-1690000D01*
X16678582Y-1690000D01*
X16672268Y-1625897D01*
X16653570Y-1564257D01*
X16623206Y-1507450D01*
X16582343Y-1457657D01*
X16532550Y-1416794D01*
X16475743Y-1386430D01*
X16414103Y-1367732D01*
X16350000Y-1361418D01*
X14650000Y-1361418D01*
X14585897Y-1367732D01*
X14524257Y-1386430D01*
X14467450Y-1416794D01*
X14417657Y-1457657D01*
X14376794Y-1507450D01*
X14346430Y-1564257D01*
X14327732Y-1625897D01*
X14321418Y-1690000D01*
X2421411Y-1690000D01*
X2473110Y-1565190D01*
X2512000Y-1369673D01*
X2512000Y-1170327D01*
X2473110Y-974810D01*
X2396823Y-790638D01*
X2286072Y-624887D01*
X2145113Y-483928D01*
X1979362Y-373177D01*
X1795190Y-296890D01*
X1599673Y-258000D01*
X1400327Y-258000D01*
X1204810Y-296890D01*
X1020638Y-373177D01*
X854887Y-483928D01*
X713928Y-624887D01*
X603177Y-790638D01*
X526890Y-974810D01*
X488000Y-1170327D01*
X377000Y-1170327D01*
X377000Y115924D01*
X14323000Y115924D01*
X14323000Y-115924D01*
X14368231Y-343318D01*
X14456956Y-557519D01*
X14585764Y-750294D01*
X14749706Y-914236D01*
X14942481Y-1043044D01*
X15156682Y-1131769D01*
X15384076Y-1177000D01*
X15615924Y-1177000D01*
X15843318Y-1131769D01*
X16057519Y-1043044D01*
X16250294Y-914236D01*
X16414236Y-750294D01*
X16543044Y-557519D01*
X16631769Y-343318D01*
X16677000Y-115924D01*
X16677000Y115924D01*
X18323000Y115924D01*
X18323000Y-115924D01*
X18368231Y-343318D01*
X18456956Y-557519D01*
X18585764Y-750294D01*
X18749706Y-914236D01*
X18942481Y-1043044D01*
X19156682Y-1131769D01*
X19384076Y-1177000D01*
X19615924Y-1177000D01*
X19843318Y-1131769D01*
X20057519Y-1043044D01*
X20250294Y-914236D01*
X20414236Y-750294D01*
X20543044Y-557519D01*
X20631769Y-343318D01*
X20677000Y-115924D01*
X20677000Y115924D01*
X20631769Y343318D01*
X20543044Y557519D01*
X20414236Y750294D01*
X20250294Y914236D01*
X20057519Y1043044D01*
X19843318Y1131769D01*
X19615924Y1177000D01*
X19384076Y1177000D01*
X19156682Y1131769D01*
X18942481Y1043044D01*
X18749706Y914236D01*
X18585764Y750294D01*
X18456956Y557519D01*
X18368231Y343318D01*
X18323000Y115924D01*
X16677000Y115924D01*
X16631769Y343318D01*
X16543044Y557519D01*
X16414236Y750294D01*
X16250294Y914236D01*
X16057519Y1043044D01*
X15843318Y1131769D01*
X15615924Y1177000D01*
X15384076Y1177000D01*
X15156682Y1131769D01*
X14942481Y1043044D01*
X14749706Y914236D01*
X14585764Y750294D01*
X14456956Y557519D01*
X14368231Y343318D01*
X14323000Y115924D01*
X377000Y115924D01*
X377000Y1369673D01*
X488000Y1369673D01*
X488000Y1170327D01*
X526890Y974810D01*
X603177Y790638D01*
X713928Y624887D01*
X854887Y483928D01*
X1020638Y373177D01*
X1204810Y296890D01*
X1400327Y258000D01*
X1599673Y258000D01*
X1795190Y296890D01*
X1979362Y373177D01*
X2145113Y483928D01*
X2286072Y624887D01*
X2396823Y790638D01*
X2473110Y974810D01*
X2512000Y1170327D01*
X2512000Y1369673D01*
X2473110Y1565190D01*
X2396823Y1749362D01*
X2286072Y1915113D01*
X2145113Y2056072D01*
X1979362Y2166823D01*
X1795190Y2243110D01*
X1599673Y2282000D01*
X1400327Y2282000D01*
X1204810Y2243110D01*
X1020638Y2166823D01*
X854887Y2056072D01*
X713928Y1915113D01*
X603177Y1749362D01*
X526890Y1565190D01*
X488000Y1369673D01*
X377000Y1369673D01*
X377000Y2655924D01*
X14323000Y2655924D01*
X14323000Y2424076D01*
X14368231Y2196682D01*
X14456956Y1982481D01*
X14585764Y1789706D01*
X14749706Y1625764D01*
X14942481Y1496956D01*
X15156682Y1408231D01*
X15384076Y1363000D01*
X15615924Y1363000D01*
X15843318Y1408231D01*
X16057519Y1496956D01*
X16250294Y1625764D01*
X16414236Y1789706D01*
X16543044Y1982481D01*
X16631769Y2196682D01*
X16677000Y2424076D01*
X16677000Y2655924D01*
X18323000Y2655924D01*
X18323000Y2424076D01*
X18368231Y2196682D01*
X18456956Y1982481D01*
X18585764Y1789706D01*
X18749706Y1625764D01*
X18942481Y1496956D01*
X19156682Y1408231D01*
X19384076Y1363000D01*
X19615924Y1363000D01*
X19843318Y1408231D01*
X20057519Y1496956D01*
X20250294Y1625764D01*
X20414236Y1789706D01*
X20543044Y1982481D01*
X20631769Y2196682D01*
X20677000Y2424076D01*
X20677000Y2655924D01*
X20631769Y2883318D01*
X20543044Y3097519D01*
X20414236Y3290294D01*
X20250294Y3454236D01*
X20057519Y3583044D01*
X19843318Y3671769D01*
X19615924Y3717000D01*
X19384076Y3717000D01*
X19156682Y3671769D01*
X18942481Y3583044D01*
X18749706Y3454236D01*
X18585764Y3290294D01*
X18456956Y3097519D01*
X18368231Y2883318D01*
X18323000Y2655924D01*
X16677000Y2655924D01*
X16631769Y2883318D01*
X16543044Y3097519D01*
X16414236Y3290294D01*
X16250294Y3454236D01*
X16057519Y3583044D01*
X15843318Y3671769D01*
X15615924Y3717000D01*
X15384076Y3717000D01*
X15156682Y3671769D01*
X14942481Y3583044D01*
X14749706Y3454236D01*
X14585764Y3290294D01*
X14456956Y3097519D01*
X14368231Y2883318D01*
X14323000Y2655924D01*
X377000Y2655924D01*
X377000Y8989673D01*
X488000Y8989673D01*
X488000Y8790327D01*
X526890Y8594810D01*
X603177Y8410638D01*
X713928Y8244887D01*
X854887Y8103928D01*
X994540Y8010615D01*
X962615Y7962835D01*
X916904Y7852477D01*
X893600Y7735322D01*
X893600Y7615872D01*
X916904Y7498717D01*
X962615Y7388359D01*
X1028978Y7289040D01*
X1056387Y7261631D01*
X1020638Y7246823D01*
X854887Y7136072D01*
X713928Y6995113D01*
X603177Y6829362D01*
X526890Y6645190D01*
X488000Y6449673D01*
X488000Y6250327D01*
X526890Y6054810D01*
X603177Y5870638D01*
X713928Y5704887D01*
X854887Y5563928D01*
X1020638Y5453177D01*
X1204810Y5376890D01*
X1400327Y5338000D01*
X1599673Y5338000D01*
X1795190Y5376890D01*
X1979362Y5453177D01*
X2145113Y5563928D01*
X2286072Y5704887D01*
X2323001Y5760155D01*
X2323001Y5236870D01*
X1847552Y4761421D01*
X1795190Y4783110D01*
X1599673Y4822000D01*
X1400327Y4822000D01*
X1204810Y4783110D01*
X1020638Y4706823D01*
X854887Y4596072D01*
X713928Y4455113D01*
X603177Y4289362D01*
X526890Y4105190D01*
X488000Y3909673D01*
X488000Y3710327D01*
X526890Y3514810D01*
X603177Y3330638D01*
X713928Y3164887D01*
X854887Y3023928D01*
X1020638Y2913177D01*
X1204810Y2836890D01*
X1400327Y2798000D01*
X1599673Y2798000D01*
X1795190Y2836890D01*
X1979362Y2913177D01*
X2145113Y3023928D01*
X2286072Y3164887D01*
X2396823Y3330638D01*
X2473110Y3514810D01*
X2512000Y3710327D01*
X2512000Y3909673D01*
X2473110Y4105190D01*
X2451421Y4157552D01*
X2924567Y4630698D01*
X4673000Y4630698D01*
X4673000Y4369302D01*
X4723996Y4112928D01*
X4824028Y3871430D01*
X4969252Y3654087D01*
X5154087Y3469252D01*
X5371430Y3324028D01*
X5612928Y3223996D01*
X5869302Y3173000D01*
X6130698Y3173000D01*
X6387072Y3223996D01*
X6628570Y3324028D01*
X6845913Y3469252D01*
X7030748Y3654087D01*
X7175972Y3871430D01*
X7276004Y4112928D01*
X7327000Y4369302D01*
X7327000Y4630698D01*
X7276004Y4887072D01*
X7175972Y5128570D01*
X7030748Y5345913D01*
X6891936Y5484725D01*
X39143600Y5484725D01*
X39143600Y5365275D01*
X39166904Y5248120D01*
X39212615Y5137762D01*
X39278978Y5038443D01*
X39363443Y4953978D01*
X39462762Y4887615D01*
X39573120Y4841904D01*
X39690275Y4818600D01*
X39809725Y4818600D01*
X39926880Y4841904D01*
X40037238Y4887615D01*
X40136557Y4953978D01*
X40221022Y5038443D01*
X40287385Y5137762D01*
X40333096Y5248120D01*
X40356400Y5365275D01*
X40356400Y5392177D01*
X41412224Y6448000D01*
X42944421Y6448000D01*
X42963443Y6428978D01*
X43062762Y6362615D01*
X43173120Y6316904D01*
X43290275Y6293600D01*
X43409725Y6293600D01*
X43526880Y6316904D01*
X43637238Y6362615D01*
X43736557Y6428978D01*
X43821022Y6513443D01*
X43887385Y6612762D01*
X43933096Y6723120D01*
X43956400Y6840275D01*
X43956400Y6959725D01*
X43933096Y7076880D01*
X43887385Y7187238D01*
X43821022Y7286557D01*
X43736557Y7371022D01*
X43637238Y7437385D01*
X43526880Y7483096D01*
X43409725Y7506400D01*
X43290275Y7506400D01*
X43173120Y7483096D01*
X43062762Y7437385D01*
X42963443Y7371022D01*
X42944421Y7352000D01*
X41247204Y7352000D01*
X41224999Y7354187D01*
X41136392Y7345460D01*
X41062715Y7323110D01*
X41051190Y7319614D01*
X40972667Y7277643D01*
X40903841Y7221159D01*
X40889681Y7203905D01*
X39717177Y6031400D01*
X39690275Y6031400D01*
X39573120Y6008096D01*
X39462762Y5962385D01*
X39363443Y5896022D01*
X39278978Y5811557D01*
X39212615Y5712238D01*
X39166904Y5601880D01*
X39143600Y5484725D01*
X6891936Y5484725D01*
X6845913Y5530748D01*
X6628570Y5675972D01*
X6387072Y5776004D01*
X6130698Y5827000D01*
X5869302Y5827000D01*
X5612928Y5776004D01*
X5371430Y5675972D01*
X5154087Y5530748D01*
X4969252Y5345913D01*
X4824028Y5128570D01*
X4723996Y4887072D01*
X4673000Y4630698D01*
X2924567Y4630698D01*
X3037105Y4743236D01*
X3053395Y4756605D01*
X3066764Y4772895D01*
X3066768Y4772899D01*
X3106755Y4821623D01*
X3127948Y4861273D01*
X3146405Y4895804D01*
X3170822Y4976293D01*
X3177000Y5039022D01*
X3177000Y5039033D01*
X3179065Y5060000D01*
X3177000Y5080967D01*
X3177000Y6979036D01*
X3179065Y7000001D01*
X3177000Y7020966D01*
X3177000Y7020978D01*
X3170822Y7083707D01*
X3146405Y7164196D01*
X3116977Y7219252D01*
X3106755Y7238377D01*
X3066767Y7287102D01*
X3066764Y7287105D01*
X3053395Y7303395D01*
X3037106Y7316763D01*
X2391171Y7962697D01*
X2377798Y7978992D01*
X2312779Y8032352D01*
X2238599Y8072002D01*
X2158110Y8096419D01*
X2136988Y8098499D01*
X2145113Y8103928D01*
X2286072Y8244887D01*
X2396823Y8410638D01*
X2458577Y8559725D01*
X10393600Y8559725D01*
X10393600Y8440275D01*
X10416904Y8323120D01*
X10462615Y8212762D01*
X10528978Y8113443D01*
X10613443Y8028978D01*
X10712762Y7962615D01*
X10823120Y7916904D01*
X10940275Y7893600D01*
X11059725Y7893600D01*
X11176880Y7916904D01*
X11287238Y7962615D01*
X11386557Y8028978D01*
X11471022Y8113443D01*
X11537385Y8212762D01*
X11583096Y8323120D01*
X11594549Y8380698D01*
X13423000Y8380698D01*
X13423000Y8119302D01*
X13473996Y7862928D01*
X13574028Y7621430D01*
X13719252Y7404087D01*
X13904087Y7219252D01*
X14121430Y7074028D01*
X14362928Y6973996D01*
X14619302Y6923000D01*
X14880698Y6923000D01*
X15137072Y6973996D01*
X15378570Y7074028D01*
X15595913Y7219252D01*
X15780748Y7404087D01*
X15925972Y7621430D01*
X16026004Y7862928D01*
X16077000Y8119302D01*
X16077000Y8380698D01*
X29173000Y8380698D01*
X29173000Y8119302D01*
X29223996Y7862928D01*
X29324028Y7621430D01*
X29469252Y7404087D01*
X29654087Y7219252D01*
X29871430Y7074028D01*
X30112928Y6973996D01*
X30369302Y6923000D01*
X30630698Y6923000D01*
X30887072Y6973996D01*
X31128570Y7074028D01*
X31345913Y7219252D01*
X31530748Y7404087D01*
X31675972Y7621430D01*
X31776004Y7862928D01*
X31804420Y8005787D01*
X55716500Y8005787D01*
X55753343Y7873904D01*
X55821169Y7737445D01*
X55914314Y7616841D01*
X56029198Y7516726D01*
X56161406Y7440947D01*
X56305857Y7392417D01*
X56457000Y7373000D01*
X57207000Y7373000D01*
X57207000Y8127000D01*
X57253000Y8127000D01*
X57253000Y7373000D01*
X58003000Y7373000D01*
X58154143Y7392417D01*
X58298594Y7440947D01*
X58430802Y7516726D01*
X58545686Y7616841D01*
X58638831Y7737445D01*
X58706657Y7873904D01*
X58743500Y8005787D01*
X59446500Y8005787D01*
X59483343Y7873904D01*
X59551169Y7737445D01*
X59644314Y7616841D01*
X59759198Y7516726D01*
X59891406Y7440947D01*
X60035857Y7392417D01*
X60187000Y7373000D01*
X60587000Y7373000D01*
X60587000Y8127000D01*
X60633000Y8127000D01*
X60633000Y7373000D01*
X61033000Y7373000D01*
X61184143Y7392417D01*
X61328594Y7440947D01*
X61460802Y7516726D01*
X61575686Y7616841D01*
X61668831Y7737445D01*
X61736657Y7873904D01*
X61773500Y8005787D01*
X61704869Y8127000D01*
X60633000Y8127000D01*
X60587000Y8127000D01*
X59515131Y8127000D01*
X59446500Y8005787D01*
X58743500Y8005787D01*
X58674869Y8127000D01*
X57253000Y8127000D01*
X57207000Y8127000D01*
X55785131Y8127000D01*
X55716500Y8005787D01*
X31804420Y8005787D01*
X31827000Y8119302D01*
X31827000Y8380698D01*
X31776004Y8637072D01*
X31675972Y8878570D01*
X31530748Y9095913D01*
X31345913Y9280748D01*
X31128570Y9425972D01*
X30887072Y9526004D01*
X30630698Y9577000D01*
X30369302Y9577000D01*
X30112928Y9526004D01*
X29871430Y9425972D01*
X29654087Y9280748D01*
X29469252Y9095913D01*
X29324028Y8878570D01*
X29223996Y8637072D01*
X29173000Y8380698D01*
X16077000Y8380698D01*
X16026004Y8637072D01*
X15925972Y8878570D01*
X15780748Y9095913D01*
X15595913Y9280748D01*
X15378570Y9425972D01*
X15137072Y9526004D01*
X14880698Y9577000D01*
X14619302Y9577000D01*
X14362928Y9526004D01*
X14121430Y9425972D01*
X13904087Y9280748D01*
X13719252Y9095913D01*
X13574028Y8878570D01*
X13473996Y8637072D01*
X13423000Y8380698D01*
X11594549Y8380698D01*
X11606400Y8440275D01*
X11606400Y8467177D01*
X12835313Y9696088D01*
X12835322Y9696099D01*
X13085313Y9946089D01*
X13085317Y9946094D01*
X13437224Y10298000D01*
X16594421Y10298000D01*
X16613443Y10278978D01*
X16712762Y10212615D01*
X16823120Y10166904D01*
X16940275Y10143600D01*
X17059725Y10143600D01*
X17176880Y10166904D01*
X17287238Y10212615D01*
X17386557Y10278978D01*
X17471022Y10363443D01*
X17537385Y10462762D01*
X17583096Y10573120D01*
X17606400Y10690275D01*
X17606400Y10809725D01*
X17583096Y10926880D01*
X17537385Y11037238D01*
X17471022Y11136557D01*
X17386557Y11221022D01*
X17287238Y11287385D01*
X17176880Y11333096D01*
X17059725Y11356400D01*
X16940275Y11356400D01*
X16823120Y11333096D01*
X16712762Y11287385D01*
X16613443Y11221022D01*
X16594421Y11202000D01*
X13272205Y11202000D01*
X13250000Y11204187D01*
X13161392Y11195460D01*
X13100143Y11176880D01*
X13076190Y11169614D01*
X12997667Y11127643D01*
X12928841Y11071159D01*
X12914681Y11053905D01*
X12446094Y10585317D01*
X12446089Y10585313D01*
X12196099Y10335322D01*
X12196088Y10335313D01*
X10967177Y9106400D01*
X10940275Y9106400D01*
X10823120Y9083096D01*
X10712762Y9037385D01*
X10613443Y8971022D01*
X10528978Y8886557D01*
X10462615Y8787238D01*
X10416904Y8676880D01*
X10393600Y8559725D01*
X2458577Y8559725D01*
X2473110Y8594810D01*
X2512000Y8790327D01*
X2512000Y8989673D01*
X2473110Y9185190D01*
X2396823Y9369362D01*
X2286072Y9535113D01*
X2145113Y9676072D01*
X1979362Y9786823D01*
X1795190Y9863110D01*
X1599673Y9902000D01*
X1400327Y9902000D01*
X1204810Y9863110D01*
X1020638Y9786823D01*
X854887Y9676072D01*
X713928Y9535113D01*
X603177Y9369362D01*
X526890Y9185190D01*
X488000Y8989673D01*
X377000Y8989673D01*
X377000Y11529673D01*
X488000Y11529673D01*
X488000Y11330327D01*
X526890Y11134810D01*
X603177Y10950638D01*
X713928Y10784887D01*
X854887Y10643928D01*
X1020638Y10533177D01*
X1204810Y10456890D01*
X1400327Y10418000D01*
X1599673Y10418000D01*
X1795190Y10456890D01*
X1979362Y10533177D01*
X2145113Y10643928D01*
X2286072Y10784887D01*
X2396823Y10950638D01*
X2473110Y11134810D01*
X2512000Y11330327D01*
X2512000Y11529673D01*
X2473110Y11725190D01*
X2396823Y11909362D01*
X2286072Y12075113D01*
X2145113Y12216072D01*
X1979362Y12326823D01*
X1795190Y12403110D01*
X1599673Y12442000D01*
X1400327Y12442000D01*
X1204810Y12403110D01*
X1020638Y12326823D01*
X854887Y12216072D01*
X713928Y12075113D01*
X603177Y11909362D01*
X526890Y11725190D01*
X488000Y11529673D01*
X377000Y11529673D01*
X377000Y14069673D01*
X488000Y14069673D01*
X488000Y13870327D01*
X526890Y13674810D01*
X603177Y13490638D01*
X713928Y13324887D01*
X854887Y13183928D01*
X1020638Y13073177D01*
X1204810Y12996890D01*
X1400327Y12958000D01*
X1599673Y12958000D01*
X1795190Y12996890D01*
X1979362Y13073177D01*
X2145113Y13183928D01*
X2286072Y13324887D01*
X2396823Y13490638D01*
X2473110Y13674810D01*
X2512000Y13870327D01*
X2512000Y14069673D01*
X2473110Y14265190D01*
X2396823Y14449362D01*
X2286072Y14615113D01*
X2145113Y14756072D01*
X1979362Y14866823D01*
X1795190Y14943110D01*
X1599673Y14982000D01*
X1400327Y14982000D01*
X1204810Y14943110D01*
X1020638Y14866823D01*
X854887Y14756072D01*
X713928Y14615113D01*
X603177Y14449362D01*
X526890Y14265190D01*
X488000Y14069673D01*
X377000Y14069673D01*
X377000Y16609673D01*
X488000Y16609673D01*
X488000Y16410327D01*
X526890Y16214810D01*
X603177Y16030638D01*
X713928Y15864887D01*
X854887Y15723928D01*
X1020638Y15613177D01*
X1204810Y15536890D01*
X1400327Y15498000D01*
X1599673Y15498000D01*
X1795190Y15536890D01*
X1979362Y15613177D01*
X2145113Y15723928D01*
X2286072Y15864887D01*
X2396823Y16030638D01*
X2473110Y16214810D01*
X2512000Y16410327D01*
X2512000Y16434725D01*
X3893600Y16434725D01*
X3893600Y16315275D01*
X3916904Y16198120D01*
X3962615Y16087762D01*
X4028978Y15988443D01*
X4048000Y15969421D01*
X4048001Y15522214D01*
X4048000Y15522204D01*
X4048001Y11405580D01*
X4028978Y11386557D01*
X3962615Y11287238D01*
X3916904Y11176880D01*
X3893600Y11059725D01*
X3893600Y10940275D01*
X3916904Y10823120D01*
X3962615Y10712762D01*
X4028978Y10613443D01*
X4113443Y10528978D01*
X4212762Y10462615D01*
X4323120Y10416904D01*
X4440275Y10393600D01*
X4559725Y10393600D01*
X4676880Y10416904D01*
X4787238Y10462615D01*
X4886557Y10528978D01*
X4971022Y10613443D01*
X5037385Y10712762D01*
X5048001Y10738391D01*
X5048001Y10155580D01*
X5028978Y10136557D01*
X4962615Y10037238D01*
X4916904Y9926880D01*
X4893600Y9809725D01*
X4893600Y9690275D01*
X4916904Y9573120D01*
X4962615Y9462762D01*
X5028978Y9363443D01*
X5113443Y9278978D01*
X5212762Y9212615D01*
X5323120Y9166904D01*
X5440275Y9143600D01*
X5559725Y9143600D01*
X5649339Y9161426D01*
X5666904Y9073120D01*
X5712615Y8962762D01*
X5778978Y8863443D01*
X5863443Y8778978D01*
X5962762Y8712615D01*
X6073120Y8666904D01*
X6190275Y8643600D01*
X6309725Y8643600D01*
X6426880Y8666904D01*
X6537238Y8712615D01*
X6636557Y8778978D01*
X6721022Y8863443D01*
X6787385Y8962762D01*
X6833096Y9073120D01*
X6850661Y9161426D01*
X6940275Y9143600D01*
X7059725Y9143600D01*
X7176880Y9166904D01*
X7287238Y9212615D01*
X7386557Y9278978D01*
X7471022Y9363443D01*
X7537385Y9462762D01*
X7583096Y9573120D01*
X7606400Y9690275D01*
X7606400Y9809725D01*
X7583096Y9926880D01*
X7537385Y10037238D01*
X7522360Y10059725D01*
X9643600Y10059725D01*
X9643600Y9940275D01*
X9666904Y9823120D01*
X9712615Y9712762D01*
X9778978Y9613443D01*
X9863443Y9528978D01*
X9962762Y9462615D01*
X10073120Y9416904D01*
X10190275Y9393600D01*
X10309725Y9393600D01*
X10426880Y9416904D01*
X10537238Y9462615D01*
X10636557Y9528978D01*
X10721022Y9613443D01*
X10787385Y9712762D01*
X10833096Y9823120D01*
X10856400Y9940275D01*
X10856400Y9967177D01*
X11835313Y10946089D01*
X11835317Y10946094D01*
X12585313Y11696088D01*
X12585322Y11696099D01*
X12687223Y11798000D01*
X16594421Y11798000D01*
X16613443Y11778978D01*
X16712762Y11712615D01*
X16823120Y11666904D01*
X16940275Y11643600D01*
X17059725Y11643600D01*
X17176880Y11666904D01*
X17287238Y11712615D01*
X17386557Y11778978D01*
X17471022Y11863443D01*
X17537385Y11962762D01*
X17583096Y12073120D01*
X17606400Y12190275D01*
X17606400Y12309725D01*
X17583096Y12426880D01*
X17537385Y12537238D01*
X17471022Y12636557D01*
X17386557Y12721022D01*
X17287238Y12787385D01*
X17176880Y12833096D01*
X17059725Y12856400D01*
X16940275Y12856400D01*
X16823120Y12833096D01*
X16712762Y12787385D01*
X16613443Y12721022D01*
X16594421Y12702000D01*
X12522204Y12702000D01*
X12499999Y12704187D01*
X12411392Y12695460D01*
X12391562Y12689444D01*
X12326190Y12669614D01*
X12247667Y12627643D01*
X12178841Y12571159D01*
X12164681Y12553904D01*
X11946099Y12335322D01*
X11946088Y12335313D01*
X11196094Y11585317D01*
X11196089Y11585313D01*
X10217177Y10606400D01*
X10190275Y10606400D01*
X10073120Y10583096D01*
X9962762Y10537385D01*
X9863443Y10471022D01*
X9778978Y10386557D01*
X9712615Y10287238D01*
X9666904Y10176880D01*
X9643600Y10059725D01*
X7522360Y10059725D01*
X7471022Y10136557D01*
X7452000Y10155579D01*
X7452000Y13276490D01*
X21809017Y13276490D01*
X21882643Y13111151D01*
X22067912Y13007790D01*
X22269784Y12942559D01*
X22480504Y12917965D01*
X22691973Y12934952D01*
X22896065Y12992869D01*
X23084936Y13089490D01*
X23117357Y13111151D01*
X23190983Y13276490D01*
X22500000Y13967473D01*
X21809017Y13276490D01*
X7452000Y13276490D01*
X7452000Y14094421D01*
X7471022Y14113443D01*
X7500000Y14156812D01*
X7528978Y14113443D01*
X7613443Y14028978D01*
X7712762Y13962615D01*
X7823120Y13916904D01*
X7940275Y13893600D01*
X8059725Y13893600D01*
X8176880Y13916904D01*
X8287238Y13962615D01*
X8372366Y14019496D01*
X21417965Y14019496D01*
X21434952Y13808027D01*
X21492869Y13603935D01*
X21589490Y13415064D01*
X21611151Y13382643D01*
X21776490Y13309017D01*
X22467473Y14000000D01*
X22532527Y14000000D01*
X23223510Y13309017D01*
X23388849Y13382643D01*
X23492210Y13567912D01*
X23557441Y13769784D01*
X23582035Y13980504D01*
X23565048Y14191973D01*
X23507131Y14396065D01*
X23410510Y14584936D01*
X23388849Y14617357D01*
X23223510Y14690983D01*
X22532527Y14000000D01*
X22467473Y14000000D01*
X21776490Y14690983D01*
X21611151Y14617357D01*
X21507790Y14432088D01*
X21442559Y14230216D01*
X21417965Y14019496D01*
X8372366Y14019496D01*
X8386557Y14028978D01*
X8471022Y14113443D01*
X8537385Y14212762D01*
X8583096Y14323120D01*
X8606400Y14440275D01*
X8606400Y14559725D01*
X8583096Y14676880D01*
X8563782Y14723510D01*
X21809017Y14723510D01*
X22500000Y14032527D01*
X23190983Y14723510D01*
X23117357Y14888849D01*
X22932088Y14992210D01*
X22730216Y15057441D01*
X22519496Y15082035D01*
X22308027Y15065048D01*
X22103935Y15007131D01*
X21915064Y14910510D01*
X21882643Y14888849D01*
X21809017Y14723510D01*
X8563782Y14723510D01*
X8537385Y14787238D01*
X8471022Y14886557D01*
X8386557Y14971022D01*
X8287238Y15037385D01*
X8176880Y15083096D01*
X8059725Y15106400D01*
X8032824Y15106400D01*
X7452000Y15687223D01*
X7452000Y16050000D01*
X55423000Y16050000D01*
X55423000Y8950000D01*
X55424480Y8934978D01*
X55439704Y8858441D01*
X55444085Y8843997D01*
X55451201Y8830683D01*
X55494556Y8765799D01*
X55504132Y8754131D01*
X55515799Y8744556D01*
X55580683Y8701201D01*
X55593996Y8694086D01*
X55608441Y8689704D01*
X55684978Y8674480D01*
X55700000Y8673000D01*
X55906468Y8673000D01*
X55821169Y8562555D01*
X55753343Y8426096D01*
X55716500Y8294213D01*
X55785131Y8173000D01*
X57207000Y8173000D01*
X57207000Y8193000D01*
X57253000Y8193000D01*
X57253000Y8173000D01*
X58674869Y8173000D01*
X58743500Y8294213D01*
X59446500Y8294213D01*
X59515131Y8173000D01*
X60587000Y8173000D01*
X60587000Y8927000D01*
X60633000Y8927000D01*
X60633000Y8173000D01*
X61704869Y8173000D01*
X61773500Y8294213D01*
X61736657Y8426096D01*
X61668831Y8562555D01*
X61575686Y8683159D01*
X61460802Y8783274D01*
X61328594Y8859053D01*
X61184143Y8907583D01*
X61033000Y8927000D01*
X60633000Y8927000D01*
X60587000Y8927000D01*
X60187000Y8927000D01*
X60035857Y8907583D01*
X59891406Y8859053D01*
X59759198Y8783274D01*
X59644314Y8683159D01*
X59551169Y8562555D01*
X59483343Y8426096D01*
X59446500Y8294213D01*
X58743500Y8294213D01*
X58706657Y8426096D01*
X58683923Y8471834D01*
X58704786Y8473889D01*
X58781506Y8497162D01*
X58852211Y8534955D01*
X58914185Y8585815D01*
X58926939Y8601356D01*
X60023656Y9698071D01*
X60039185Y9710815D01*
X60062452Y9739166D01*
X60090045Y9772788D01*
X60127838Y9843494D01*
X60131753Y9856400D01*
X60151111Y9920214D01*
X60157000Y9980008D01*
X60157000Y9980010D01*
X60158969Y9999999D01*
X60157000Y10019989D01*
X60157000Y14049421D01*
X60221022Y14113443D01*
X60287385Y14212762D01*
X60333096Y14323120D01*
X60356400Y14440275D01*
X60356400Y14559725D01*
X60333096Y14676880D01*
X60287385Y14787238D01*
X60221022Y14886557D01*
X60136557Y14971022D01*
X60037238Y15037385D01*
X59926880Y15083096D01*
X59809725Y15106400D01*
X59690275Y15106400D01*
X59573120Y15083096D01*
X59462762Y15037385D01*
X59363443Y14971022D01*
X59278978Y14886557D01*
X59212615Y14787238D01*
X59166904Y14676880D01*
X59143600Y14559725D01*
X59143600Y14440275D01*
X59166904Y14323120D01*
X59212615Y14212762D01*
X59278978Y14113443D01*
X59343001Y14049420D01*
X59343000Y10269992D01*
X59343000Y10168585D01*
X58456417Y9282000D01*
X58327000Y9282000D01*
X58327000Y16050000D01*
X58325520Y16065022D01*
X58318135Y16102148D01*
X58430802Y16166726D01*
X58545686Y16266841D01*
X58638831Y16387445D01*
X58706657Y16523904D01*
X58743500Y16655787D01*
X59446500Y16655787D01*
X59483343Y16523904D01*
X59551169Y16387445D01*
X59644314Y16266841D01*
X59759198Y16166726D01*
X59891406Y16090947D01*
X60035857Y16042417D01*
X60187000Y16023000D01*
X60587000Y16023000D01*
X60587000Y16777000D01*
X60633000Y16777000D01*
X60633000Y16023000D01*
X61033000Y16023000D01*
X61184143Y16042417D01*
X61328594Y16090947D01*
X61460802Y16166726D01*
X61575686Y16266841D01*
X61668831Y16387445D01*
X61736657Y16523904D01*
X61773500Y16655787D01*
X61704869Y16777000D01*
X60633000Y16777000D01*
X60587000Y16777000D01*
X59515131Y16777000D01*
X59446500Y16655787D01*
X58743500Y16655787D01*
X58674869Y16777000D01*
X57253000Y16777000D01*
X57253000Y16757000D01*
X57207000Y16757000D01*
X57207000Y16777000D01*
X55785131Y16777000D01*
X55716500Y16655787D01*
X55753343Y16523904D01*
X55821169Y16387445D01*
X55867852Y16327000D01*
X55700000Y16327000D01*
X55684978Y16325520D01*
X55608441Y16310296D01*
X55593997Y16305915D01*
X55580683Y16298799D01*
X55515799Y16255444D01*
X55504131Y16245868D01*
X55494556Y16234201D01*
X55451201Y16169317D01*
X55444086Y16156004D01*
X55439704Y16141559D01*
X55424480Y16065022D01*
X55423000Y16050000D01*
X7452000Y16050000D01*
X7452000Y16944213D01*
X55716500Y16944213D01*
X55785131Y16823000D01*
X57207000Y16823000D01*
X57207000Y17577000D01*
X57253000Y17577000D01*
X57253000Y16823000D01*
X58674869Y16823000D01*
X58743500Y16944213D01*
X59446500Y16944213D01*
X59515131Y16823000D01*
X60587000Y16823000D01*
X60587000Y17577000D01*
X60633000Y17577000D01*
X60633000Y16823000D01*
X61704869Y16823000D01*
X61773500Y16944213D01*
X61736657Y17076096D01*
X61668831Y17212555D01*
X61575686Y17333159D01*
X61460802Y17433274D01*
X61328594Y17509053D01*
X61184143Y17557583D01*
X61033000Y17577000D01*
X60633000Y17577000D01*
X60587000Y17577000D01*
X60187000Y17577000D01*
X60035857Y17557583D01*
X59891406Y17509053D01*
X59759198Y17433274D01*
X59644314Y17333159D01*
X59551169Y17212555D01*
X59483343Y17076096D01*
X59446500Y16944213D01*
X58743500Y16944213D01*
X58706657Y17076096D01*
X58638831Y17212555D01*
X58545686Y17333159D01*
X58430802Y17433274D01*
X58298594Y17509053D01*
X58154143Y17557583D01*
X58003000Y17577000D01*
X57253000Y17577000D01*
X57207000Y17577000D01*
X56457000Y17577000D01*
X56305857Y17557583D01*
X56161406Y17509053D01*
X56029198Y17433274D01*
X55914314Y17333159D01*
X55821169Y17212555D01*
X55753343Y17076096D01*
X55716500Y16944213D01*
X7452000Y16944213D01*
X7452000Y17615021D01*
X7471022Y17634043D01*
X7537385Y17733362D01*
X7583096Y17843720D01*
X7606400Y17960875D01*
X7606400Y18080325D01*
X7583096Y18197480D01*
X7537385Y18307838D01*
X7471022Y18407157D01*
X7452000Y18426179D01*
X7452000Y19106075D01*
X21423000Y19106075D01*
X21423000Y18893925D01*
X21464389Y18685851D01*
X21545575Y18489849D01*
X21663440Y18313453D01*
X21813453Y18163440D01*
X21989849Y18045575D01*
X22185851Y17964389D01*
X22393925Y17923000D01*
X22606075Y17923000D01*
X22814149Y17964389D01*
X23010151Y18045575D01*
X23186547Y18163440D01*
X23336560Y18313453D01*
X23454425Y18489849D01*
X23535611Y18685851D01*
X23577000Y18893925D01*
X23577000Y19106075D01*
X23535611Y19314149D01*
X23454425Y19510151D01*
X23336560Y19686547D01*
X23186547Y19836560D01*
X23010151Y19954425D01*
X22814149Y20035611D01*
X22606075Y20077000D01*
X22393925Y20077000D01*
X22185851Y20035611D01*
X21989849Y19954425D01*
X21813453Y19836560D01*
X21663440Y19686547D01*
X21545575Y19510151D01*
X21464389Y19314149D01*
X21423000Y19106075D01*
X7452000Y19106075D01*
X7452000Y20873821D01*
X7471022Y20892843D01*
X7537385Y20992162D01*
X7583096Y21102520D01*
X7606400Y21219675D01*
X7606400Y21339125D01*
X7583096Y21456280D01*
X7537385Y21566638D01*
X7471022Y21665957D01*
X7386557Y21750422D01*
X7365189Y21764700D01*
X7386557Y21778978D01*
X7471022Y21863443D01*
X7537385Y21962762D01*
X7583096Y22073120D01*
X7606400Y22190275D01*
X7606400Y22309725D01*
X7583096Y22426880D01*
X7537385Y22537238D01*
X7471022Y22636557D01*
X7386557Y22721022D01*
X7343188Y22750000D01*
X7386557Y22778978D01*
X7471022Y22863443D01*
X7537385Y22962762D01*
X7583096Y23073120D01*
X7606400Y23190275D01*
X7606400Y23309725D01*
X7583096Y23426880D01*
X7537385Y23537238D01*
X7471022Y23636557D01*
X7386557Y23721022D01*
X7287238Y23787385D01*
X7176880Y23833096D01*
X7059725Y23856400D01*
X6940275Y23856400D01*
X6823120Y23833096D01*
X6712762Y23787385D01*
X6613443Y23721022D01*
X6594421Y23702000D01*
X6272204Y23702000D01*
X6249999Y23704187D01*
X6161392Y23695460D01*
X6076190Y23669614D01*
X5997667Y23627643D01*
X5928841Y23571159D01*
X5914685Y23553910D01*
X5196100Y22835323D01*
X5178841Y22821159D01*
X5122358Y22752333D01*
X5080386Y22673809D01*
X5054540Y22588607D01*
X5045813Y22500000D01*
X5048000Y22477795D01*
X5048001Y16636609D01*
X5037385Y16662238D01*
X4971022Y16761557D01*
X4886557Y16846022D01*
X4787238Y16912385D01*
X4676880Y16958096D01*
X4559725Y16981400D01*
X4440275Y16981400D01*
X4323120Y16958096D01*
X4212762Y16912385D01*
X4113443Y16846022D01*
X4028978Y16761557D01*
X3962615Y16662238D01*
X3916904Y16551880D01*
X3893600Y16434725D01*
X2512000Y16434725D01*
X2512000Y16609673D01*
X2473110Y16805190D01*
X2396823Y16989362D01*
X2286072Y17155113D01*
X2145113Y17296072D01*
X1979362Y17406823D01*
X1795190Y17483110D01*
X1599673Y17522000D01*
X1400327Y17522000D01*
X1204810Y17483110D01*
X1020638Y17406823D01*
X854887Y17296072D01*
X713928Y17155113D01*
X603177Y16989362D01*
X526890Y16805190D01*
X488000Y16609673D01*
X377000Y16609673D01*
X377000Y19149673D01*
X488000Y19149673D01*
X488000Y18950327D01*
X526890Y18754810D01*
X603177Y18570638D01*
X713928Y18404887D01*
X854887Y18263928D01*
X1020638Y18153177D01*
X1204810Y18076890D01*
X1400327Y18038000D01*
X1599673Y18038000D01*
X1795190Y18076890D01*
X1979362Y18153177D01*
X2145113Y18263928D01*
X2286072Y18404887D01*
X2396823Y18570638D01*
X2473110Y18754810D01*
X2512000Y18950327D01*
X2512000Y19149673D01*
X2473110Y19345190D01*
X2396823Y19529362D01*
X2286072Y19695113D01*
X2145113Y19836072D01*
X1979362Y19946823D01*
X1795190Y20023110D01*
X1599673Y20062000D01*
X1400327Y20062000D01*
X1204810Y20023110D01*
X1020638Y19946823D01*
X854887Y19836072D01*
X713928Y19695113D01*
X603177Y19529362D01*
X526890Y19345190D01*
X488000Y19149673D01*
X377000Y19149673D01*
X377000Y21689673D01*
X488000Y21689673D01*
X488000Y21490327D01*
X526890Y21294810D01*
X603177Y21110638D01*
X713928Y20944887D01*
X854887Y20803928D01*
X1020638Y20693177D01*
X1204810Y20616890D01*
X1400327Y20578000D01*
X1599673Y20578000D01*
X1795190Y20616890D01*
X1979362Y20693177D01*
X2145113Y20803928D01*
X2286072Y20944887D01*
X2396823Y21110638D01*
X2473110Y21294810D01*
X2512000Y21490327D01*
X2512000Y21689673D01*
X2473110Y21885190D01*
X2396823Y22069362D01*
X2286072Y22235113D01*
X2145113Y22376072D01*
X1979362Y22486823D01*
X1795190Y22563110D01*
X1599673Y22602000D01*
X1400327Y22602000D01*
X1204810Y22563110D01*
X1020638Y22486823D01*
X854887Y22376072D01*
X713928Y22235113D01*
X603177Y22069362D01*
X526890Y21885190D01*
X488000Y21689673D01*
X377000Y21689673D01*
X377000Y23445000D01*
X486418Y23445000D01*
X492732Y23380897D01*
X511430Y23319257D01*
X541794Y23262450D01*
X582657Y23212657D01*
X632450Y23171794D01*
X689257Y23141430D01*
X750897Y23122732D01*
X815000Y23116418D01*
X1295250Y23118000D01*
X1377000Y23199750D01*
X1377000Y24007000D01*
X1623000Y24007000D01*
X1623000Y23199750D01*
X1704750Y23118000D01*
X2185000Y23116418D01*
X2249103Y23122732D01*
X2310743Y23141430D01*
X2367550Y23171794D01*
X2417343Y23212657D01*
X2458206Y23262450D01*
X2488570Y23319257D01*
X2507268Y23380897D01*
X2513582Y23445000D01*
X2512000Y23925250D01*
X2430250Y24007000D01*
X1623000Y24007000D01*
X1377000Y24007000D01*
X569750Y24007000D01*
X488000Y23925250D01*
X486418Y23445000D01*
X377000Y23445000D01*
X377000Y24815000D01*
X486418Y24815000D01*
X488000Y24334750D01*
X569750Y24253000D01*
X1377000Y24253000D01*
X1377000Y25060250D01*
X1623000Y25060250D01*
X1623000Y24253000D01*
X2430250Y24253000D01*
X2512000Y24334750D01*
X2512741Y24559725D01*
X14393600Y24559725D01*
X14393600Y24440275D01*
X14416904Y24323120D01*
X14462615Y24212762D01*
X14528978Y24113443D01*
X14613443Y24028978D01*
X14712762Y23962615D01*
X14823120Y23916904D01*
X14940275Y23893600D01*
X15059725Y23893600D01*
X15176880Y23916904D01*
X15287238Y23962615D01*
X15386557Y24028978D01*
X15405579Y24048000D01*
X21521488Y24048000D01*
X21545575Y23989849D01*
X21663440Y23813453D01*
X21813453Y23663440D01*
X21989849Y23545575D01*
X22185851Y23464389D01*
X22393925Y23423000D01*
X22606075Y23423000D01*
X22814149Y23464389D01*
X23010151Y23545575D01*
X23186547Y23663440D01*
X23336560Y23813453D01*
X23454425Y23989849D01*
X23535611Y24185851D01*
X23577000Y24393925D01*
X23577000Y24606075D01*
X23535611Y24814149D01*
X23454425Y25010151D01*
X23336560Y25186547D01*
X23186547Y25336560D01*
X23010151Y25454425D01*
X22814149Y25535611D01*
X22606075Y25577000D01*
X22393925Y25577000D01*
X22185851Y25535611D01*
X21989849Y25454425D01*
X21813453Y25336560D01*
X21663440Y25186547D01*
X21545575Y25010151D01*
X21521488Y24952000D01*
X15405579Y24952000D01*
X15386557Y24971022D01*
X15287238Y25037385D01*
X15176880Y25083096D01*
X15059725Y25106400D01*
X14940275Y25106400D01*
X14823120Y25083096D01*
X14712762Y25037385D01*
X14613443Y24971022D01*
X14528978Y24886557D01*
X14462615Y24787238D01*
X14416904Y24676880D01*
X14393600Y24559725D01*
X2512741Y24559725D01*
X2513582Y24815000D01*
X2507268Y24879103D01*
X2488570Y24940743D01*
X2458206Y24997550D01*
X2417343Y25047343D01*
X2367550Y25088206D01*
X2310743Y25118570D01*
X2249103Y25137268D01*
X2185000Y25143582D01*
X1704750Y25142000D01*
X1623000Y25060250D01*
X1377000Y25060250D01*
X1295250Y25142000D01*
X815000Y25143582D01*
X750897Y25137268D01*
X689257Y25118570D01*
X632450Y25088206D01*
X582657Y25047343D01*
X541794Y24997550D01*
X511430Y24940743D01*
X492732Y24879103D01*
X486418Y24815000D01*
X377000Y24815000D01*
X377000Y28981559D01*
X438251Y29606246D01*
X445633Y29630698D01*
X15173000Y29630698D01*
X15173000Y29369302D01*
X15223996Y29112928D01*
X15324028Y28871430D01*
X15469252Y28654087D01*
X15654087Y28469252D01*
X15871430Y28324028D01*
X16112928Y28223996D01*
X16369302Y28173000D01*
X16630698Y28173000D01*
X16887072Y28223996D01*
X17128570Y28324028D01*
X17345913Y28469252D01*
X17530748Y28654087D01*
X17675972Y28871430D01*
X17776004Y29112928D01*
X17827000Y29369302D01*
X17827000Y29606075D01*
X21423000Y29606075D01*
X21423000Y29393925D01*
X21464389Y29185851D01*
X21545575Y28989849D01*
X21663440Y28813453D01*
X21813453Y28663440D01*
X21989849Y28545575D01*
X22185851Y28464389D01*
X22393925Y28423000D01*
X22606075Y28423000D01*
X22814149Y28464389D01*
X23010151Y28545575D01*
X23186547Y28663440D01*
X23336560Y28813453D01*
X23454425Y28989849D01*
X23535611Y29185851D01*
X23577000Y29393925D01*
X23577000Y29606075D01*
X23535611Y29814149D01*
X23454425Y30010151D01*
X23373878Y30130698D01*
X54173000Y30130698D01*
X54173000Y29869302D01*
X54223996Y29612928D01*
X54324028Y29371430D01*
X54469252Y29154087D01*
X54654087Y28969252D01*
X54871430Y28824028D01*
X55112928Y28723996D01*
X55369302Y28673000D01*
X55630698Y28673000D01*
X55887072Y28723996D01*
X56128570Y28824028D01*
X56345913Y28969252D01*
X56530748Y29154087D01*
X56675972Y29371430D01*
X56776004Y29612928D01*
X56827000Y29869302D01*
X56827000Y30130698D01*
X56776004Y30387072D01*
X56675972Y30628570D01*
X56530748Y30845913D01*
X56345913Y31030748D01*
X56128570Y31175972D01*
X55887072Y31276004D01*
X55630698Y31327000D01*
X55369302Y31327000D01*
X55112928Y31276004D01*
X54871430Y31175972D01*
X54654087Y31030748D01*
X54469252Y30845913D01*
X54324028Y30628570D01*
X54223996Y30387072D01*
X54173000Y30130698D01*
X23373878Y30130698D01*
X23336560Y30186547D01*
X23186547Y30336560D01*
X23010151Y30454425D01*
X22814149Y30535611D01*
X22606075Y30577000D01*
X22393925Y30577000D01*
X22185851Y30535611D01*
X21989849Y30454425D01*
X21813453Y30336560D01*
X21663440Y30186547D01*
X21545575Y30010151D01*
X21464389Y29814149D01*
X21423000Y29606075D01*
X17827000Y29606075D01*
X17827000Y29630698D01*
X17776004Y29887072D01*
X17675972Y30128570D01*
X17530748Y30345913D01*
X17345913Y30530748D01*
X17128570Y30675972D01*
X16887072Y30776004D01*
X16630698Y30827000D01*
X16369302Y30827000D01*
X16112928Y30776004D01*
X15871430Y30675972D01*
X15654087Y30530748D01*
X15469252Y30345913D01*
X15324028Y30128570D01*
X15223996Y29887072D01*
X15173000Y29630698D01*
X445633Y29630698D01*
X614313Y30189392D01*
X900293Y30727241D01*
X1285291Y31199297D01*
X1754650Y31587585D01*
X2290488Y31877312D01*
X2872394Y32057442D01*
X3495978Y32122983D01*
X3500736Y32123000D01*
X61481559Y32123000D01*
X62106246Y32061749D01*
G04 #@! TA.AperFunction,Conductor*
D28*
G36*
X62106246Y32061749D02*
G01*
X62689392Y31885687D01*
X63227241Y31599707D01*
X63699297Y31214709D01*
X64087585Y30745350D01*
X64377312Y30209512D01*
X64557442Y29627606D01*
X64622983Y29004022D01*
X64623000Y28999264D01*
X64623001Y-28981548D01*
X64561749Y-29606241D01*
X64385686Y-30189392D01*
X64099707Y-30727240D01*
X63714709Y-31199297D01*
X63245347Y-31587586D01*
X62709510Y-31877312D01*
X62127604Y-32057442D01*
X61504022Y-32122983D01*
X61499264Y-32123000D01*
X3518441Y-32123000D01*
X2893759Y-32061749D01*
X2310608Y-31885686D01*
X1772760Y-31599707D01*
X1300703Y-31214709D01*
X912414Y-30745347D01*
X622688Y-30209510D01*
X442558Y-29627604D01*
X377017Y-29004022D01*
X377000Y-28999264D01*
X377000Y-27119302D01*
X18923000Y-27119302D01*
X18923000Y-27380698D01*
X18973996Y-27637072D01*
X19074028Y-27878570D01*
X19219252Y-28095913D01*
X19404087Y-28280748D01*
X19621430Y-28425972D01*
X19862928Y-28526004D01*
X20119302Y-28577000D01*
X20380698Y-28577000D01*
X20637072Y-28526004D01*
X20878570Y-28425972D01*
X21095913Y-28280748D01*
X21280748Y-28095913D01*
X21425972Y-27878570D01*
X21526004Y-27637072D01*
X21577000Y-27380698D01*
X21577000Y-27119302D01*
X21526004Y-26862928D01*
X21425972Y-26621430D01*
X21280748Y-26404087D01*
X21095913Y-26219252D01*
X20878570Y-26074028D01*
X20637072Y-25973996D01*
X20380698Y-25923000D01*
X20119302Y-25923000D01*
X19862928Y-25973996D01*
X19621430Y-26074028D01*
X19404087Y-26219252D01*
X19219252Y-26404087D01*
X19074028Y-26621430D01*
X18973996Y-26862928D01*
X18923000Y-27119302D01*
X377000Y-27119302D01*
X377000Y-24872478D01*
X931470Y-24872478D01*
X1006180Y-25018944D01*
X1189093Y-25098202D01*
X1383954Y-25140253D01*
X1583274Y-25143481D01*
X1779394Y-25107761D01*
X1964778Y-25034467D01*
X1993820Y-25018944D01*
X2068530Y-24872478D01*
X1500000Y-24303948D01*
X931470Y-24872478D01*
X377000Y-24872478D01*
X377000Y-24213274D01*
X486519Y-24213274D01*
X522239Y-24409394D01*
X595533Y-24594778D01*
X611056Y-24623820D01*
X757522Y-24698530D01*
X1326052Y-24130000D01*
X1673948Y-24130000D01*
X2242478Y-24698530D01*
X2388944Y-24623820D01*
X2468202Y-24440907D01*
X2510253Y-24246046D01*
X2513481Y-24046726D01*
X2477761Y-23850606D01*
X2404467Y-23665222D01*
X2388944Y-23636180D01*
X2242478Y-23561470D01*
X1673948Y-24130000D01*
X1326052Y-24130000D01*
X757522Y-23561470D01*
X611056Y-23636180D01*
X531798Y-23819093D01*
X489747Y-24013954D01*
X486519Y-24213274D01*
X377000Y-24213274D01*
X377000Y-23387522D01*
X931470Y-23387522D01*
X1500000Y-23956052D01*
X2068530Y-23387522D01*
X1993820Y-23241056D01*
X1810907Y-23161798D01*
X1616046Y-23119747D01*
X1416726Y-23116519D01*
X1220606Y-23152239D01*
X1035222Y-23225533D01*
X1006180Y-23241056D01*
X931470Y-23387522D01*
X377000Y-23387522D01*
X377000Y-22332478D01*
X931470Y-22332478D01*
X1006180Y-22478944D01*
X1189093Y-22558202D01*
X1383954Y-22600253D01*
X1583274Y-22603481D01*
X1779394Y-22567761D01*
X1964778Y-22494467D01*
X1993820Y-22478944D01*
X2068530Y-22332478D01*
X1500000Y-21763948D01*
X931470Y-22332478D01*
X377000Y-22332478D01*
X377000Y-21673274D01*
X486519Y-21673274D01*
X522239Y-21869394D01*
X595533Y-22054778D01*
X611056Y-22083820D01*
X757522Y-22158530D01*
X1326052Y-21590000D01*
X1673948Y-21590000D01*
X2242478Y-22158530D01*
X2388944Y-22083820D01*
X2468202Y-21900907D01*
X2510253Y-21706046D01*
X2513481Y-21506726D01*
X2477761Y-21310606D01*
X2404467Y-21125222D01*
X2388944Y-21096180D01*
X2242478Y-21021470D01*
X1673948Y-21590000D01*
X1326052Y-21590000D01*
X757522Y-21021470D01*
X611056Y-21096180D01*
X531798Y-21279093D01*
X489747Y-21473954D01*
X486519Y-21673274D01*
X377000Y-21673274D01*
X377000Y-20847522D01*
X931470Y-20847522D01*
X1500000Y-21416052D01*
X2068530Y-20847522D01*
X1993820Y-20701056D01*
X1810907Y-20621798D01*
X1616046Y-20579747D01*
X1416726Y-20576519D01*
X1220606Y-20612239D01*
X1035222Y-20685533D01*
X1006180Y-20701056D01*
X931470Y-20847522D01*
X377000Y-20847522D01*
X377000Y-20190275D01*
X7393600Y-20190275D01*
X7393600Y-20309725D01*
X7416904Y-20426880D01*
X7462615Y-20537238D01*
X7528978Y-20636557D01*
X7613443Y-20721022D01*
X7712762Y-20787385D01*
X7823120Y-20833096D01*
X7940275Y-20856400D01*
X8059725Y-20856400D01*
X8176880Y-20833096D01*
X8287238Y-20787385D01*
X8386557Y-20721022D01*
X8430579Y-20677000D01*
X12569421Y-20677000D01*
X12613443Y-20721022D01*
X12712762Y-20787385D01*
X12823120Y-20833096D01*
X12940275Y-20856400D01*
X13059725Y-20856400D01*
X13176880Y-20833096D01*
X13287238Y-20787385D01*
X13386557Y-20721022D01*
X13471022Y-20636557D01*
X13537385Y-20537238D01*
X13583096Y-20426880D01*
X13606400Y-20309725D01*
X13606400Y-20190275D01*
X13583096Y-20073120D01*
X13537385Y-19962762D01*
X13471022Y-19863443D01*
X13386557Y-19778978D01*
X13287238Y-19712615D01*
X13176880Y-19666904D01*
X13059725Y-19643600D01*
X12940275Y-19643600D01*
X12823120Y-19666904D01*
X12712762Y-19712615D01*
X12613443Y-19778978D01*
X12569421Y-19823000D01*
X8430579Y-19823000D01*
X8386557Y-19778978D01*
X8287238Y-19712615D01*
X8176880Y-19666904D01*
X8059725Y-19643600D01*
X7940275Y-19643600D01*
X7823120Y-19666904D01*
X7712762Y-19712615D01*
X7613443Y-19778978D01*
X7528978Y-19863443D01*
X7462615Y-19962762D01*
X7416904Y-20073120D01*
X7393600Y-20190275D01*
X377000Y-20190275D01*
X377000Y-18950327D01*
X488000Y-18950327D01*
X488000Y-19149673D01*
X526890Y-19345190D01*
X603177Y-19529362D01*
X713928Y-19695113D01*
X854887Y-19836072D01*
X1020638Y-19946823D01*
X1204810Y-20023110D01*
X1400327Y-20062000D01*
X1599673Y-20062000D01*
X1795190Y-20023110D01*
X1979362Y-19946823D01*
X2145113Y-19836072D01*
X2286072Y-19695113D01*
X2396823Y-19529362D01*
X2473110Y-19345190D01*
X2512000Y-19149673D01*
X2512000Y-18950327D01*
X2473110Y-18754810D01*
X2396823Y-18570638D01*
X2286072Y-18404887D01*
X2145113Y-18263928D01*
X1979362Y-18153177D01*
X1795190Y-18076890D01*
X1599673Y-18038000D01*
X1400327Y-18038000D01*
X1204810Y-18076890D01*
X1020638Y-18153177D01*
X854887Y-18263928D01*
X713928Y-18404887D01*
X603177Y-18570638D01*
X526890Y-18754810D01*
X488000Y-18950327D01*
X377000Y-18950327D01*
X377000Y-16410327D01*
X488000Y-16410327D01*
X488000Y-16609673D01*
X526890Y-16805190D01*
X603177Y-16989362D01*
X713928Y-17155113D01*
X854887Y-17296072D01*
X1020638Y-17406823D01*
X1204810Y-17483110D01*
X1400327Y-17522000D01*
X1599673Y-17522000D01*
X1795190Y-17483110D01*
X1979362Y-17406823D01*
X2145113Y-17296072D01*
X2286072Y-17155113D01*
X2396823Y-16989362D01*
X2473110Y-16805190D01*
X2512000Y-16609673D01*
X2512000Y-16410327D01*
X2473110Y-16214810D01*
X2396823Y-16030638D01*
X2286072Y-15864887D01*
X2145113Y-15723928D01*
X1979362Y-15613177D01*
X1795190Y-15536890D01*
X1599673Y-15498000D01*
X1400327Y-15498000D01*
X1204810Y-15536890D01*
X1020638Y-15613177D01*
X854887Y-15723928D01*
X713928Y-15864887D01*
X603177Y-16030638D01*
X526890Y-16214810D01*
X488000Y-16410327D01*
X377000Y-16410327D01*
X377000Y-13870327D01*
X488000Y-13870327D01*
X488000Y-14069673D01*
X526890Y-14265190D01*
X603177Y-14449362D01*
X713928Y-14615113D01*
X854887Y-14756072D01*
X1020638Y-14866823D01*
X1204810Y-14943110D01*
X1400327Y-14982000D01*
X1599673Y-14982000D01*
X1795190Y-14943110D01*
X1979362Y-14866823D01*
X2145113Y-14756072D01*
X2286072Y-14615113D01*
X2396823Y-14449362D01*
X2473110Y-14265190D01*
X2512000Y-14069673D01*
X2512000Y-13870327D01*
X2473110Y-13674810D01*
X2396823Y-13490638D01*
X2286072Y-13324887D01*
X2145113Y-13183928D01*
X1979362Y-13073177D01*
X1795190Y-12996890D01*
X1599673Y-12958000D01*
X1400327Y-12958000D01*
X1204810Y-12996890D01*
X1020638Y-13073177D01*
X854887Y-13183928D01*
X713928Y-13324887D01*
X603177Y-13490638D01*
X526890Y-13674810D01*
X488000Y-13870327D01*
X377000Y-13870327D01*
X377000Y-11330327D01*
X488000Y-11330327D01*
X488000Y-11529673D01*
X526890Y-11725190D01*
X603177Y-11909362D01*
X713928Y-12075113D01*
X854887Y-12216072D01*
X1020638Y-12326823D01*
X1204810Y-12403110D01*
X1400327Y-12442000D01*
X1599673Y-12442000D01*
X1795190Y-12403110D01*
X1979362Y-12326823D01*
X2145113Y-12216072D01*
X2286072Y-12075113D01*
X2396823Y-11909362D01*
X2473110Y-11725190D01*
X2512000Y-11529673D01*
X2512000Y-11330327D01*
X2473110Y-11134810D01*
X2396823Y-10950638D01*
X2286072Y-10784887D01*
X2145113Y-10643928D01*
X1979362Y-10533177D01*
X1795190Y-10456890D01*
X1599673Y-10418000D01*
X1400327Y-10418000D01*
X1204810Y-10456890D01*
X1020638Y-10533177D01*
X854887Y-10643928D01*
X713928Y-10784887D01*
X603177Y-10950638D01*
X526890Y-11134810D01*
X488000Y-11330327D01*
X377000Y-11330327D01*
X377000Y-8790327D01*
X488000Y-8790327D01*
X488000Y-8989673D01*
X526890Y-9185190D01*
X603177Y-9369362D01*
X713928Y-9535113D01*
X854887Y-9676072D01*
X1020638Y-9786823D01*
X1204810Y-9863110D01*
X1400327Y-9902000D01*
X1599673Y-9902000D01*
X1795190Y-9863110D01*
X1822553Y-9851776D01*
X6298001Y-14327226D01*
X6298000Y-16094421D01*
X6278978Y-16113443D01*
X6212615Y-16212762D01*
X6166904Y-16323120D01*
X6143600Y-16440275D01*
X6143600Y-16559725D01*
X6166904Y-16676880D01*
X6212615Y-16787238D01*
X6278978Y-16886557D01*
X6363443Y-16971022D01*
X6462762Y-17037385D01*
X6573120Y-17083096D01*
X6690275Y-17106400D01*
X6809725Y-17106400D01*
X6926880Y-17083096D01*
X7037238Y-17037385D01*
X7136557Y-16971022D01*
X7221022Y-16886557D01*
X7287385Y-16787238D01*
X7333096Y-16676880D01*
X7356400Y-16559725D01*
X7356400Y-16440275D01*
X7333096Y-16323120D01*
X7287385Y-16212762D01*
X7221022Y-16113443D01*
X7202000Y-16094421D01*
X7202000Y-14162204D01*
X7204187Y-14139999D01*
X7195460Y-14051392D01*
X7185747Y-14019374D01*
X7169614Y-13966190D01*
X7127643Y-13887667D01*
X7071159Y-13818841D01*
X7053911Y-13804686D01*
X2461776Y-9212553D01*
X2473110Y-9185190D01*
X2512000Y-8989673D01*
X2512000Y-8790327D01*
X2473110Y-8594810D01*
X2396823Y-8410638D01*
X2286072Y-8244887D01*
X2145113Y-8103928D01*
X1979362Y-7993177D01*
X1795190Y-7916890D01*
X1599673Y-7878000D01*
X1400327Y-7878000D01*
X1204810Y-7916890D01*
X1020638Y-7993177D01*
X854887Y-8103928D01*
X713928Y-8244887D01*
X603177Y-8410638D01*
X526890Y-8594810D01*
X488000Y-8790327D01*
X377000Y-8790327D01*
X377000Y-7092478D01*
X931470Y-7092478D01*
X1006180Y-7238944D01*
X1189093Y-7318202D01*
X1383954Y-7360253D01*
X1583274Y-7363481D01*
X1779394Y-7327761D01*
X1964778Y-7254467D01*
X1993820Y-7238944D01*
X2068530Y-7092478D01*
X1500000Y-6523948D01*
X931470Y-7092478D01*
X377000Y-7092478D01*
X377000Y-6433274D01*
X486519Y-6433274D01*
X522239Y-6629394D01*
X595533Y-6814778D01*
X611056Y-6843820D01*
X757522Y-6918530D01*
X1326052Y-6350000D01*
X1673948Y-6350000D01*
X2242478Y-6918530D01*
X2388944Y-6843820D01*
X2468202Y-6660907D01*
X2510253Y-6466046D01*
X2513481Y-6266726D01*
X2477761Y-6070606D01*
X2404467Y-5885222D01*
X2388944Y-5856180D01*
X2242478Y-5781470D01*
X1673948Y-6350000D01*
X1326052Y-6350000D01*
X757522Y-5781470D01*
X611056Y-5856180D01*
X531798Y-6039093D01*
X489747Y-6233954D01*
X486519Y-6433274D01*
X377000Y-6433274D01*
X377000Y-5607522D01*
X931470Y-5607522D01*
X1500000Y-6176052D01*
X2068530Y-5607522D01*
X1993820Y-5461056D01*
X1810907Y-5381798D01*
X1616046Y-5339747D01*
X1416726Y-5336519D01*
X1220606Y-5372239D01*
X1035222Y-5445533D01*
X1006180Y-5461056D01*
X931470Y-5607522D01*
X377000Y-5607522D01*
X377000Y-3710327D01*
X488000Y-3710327D01*
X488000Y-3909673D01*
X526890Y-4105190D01*
X603177Y-4289362D01*
X713928Y-4455113D01*
X854887Y-4596072D01*
X1020638Y-4706823D01*
X1204810Y-4783110D01*
X1400327Y-4822000D01*
X1599673Y-4822000D01*
X1795190Y-4783110D01*
X1979362Y-4706823D01*
X2004127Y-4690275D01*
X2384797Y-4690275D01*
X2384797Y-4809725D01*
X2408101Y-4926880D01*
X2453812Y-5037238D01*
X2520175Y-5136557D01*
X2564198Y-5180580D01*
X2564197Y-6970230D01*
X2562132Y-6991197D01*
X2564197Y-7012164D01*
X2564197Y-7012174D01*
X2570375Y-7074903D01*
X2594792Y-7155392D01*
X2607446Y-7179066D01*
X2634442Y-7229573D01*
X2674429Y-7278297D01*
X2687802Y-7294592D01*
X2704097Y-7307965D01*
X11893600Y-16497470D01*
X11893600Y-16559725D01*
X11916904Y-16676880D01*
X11962615Y-16787238D01*
X12028978Y-16886557D01*
X12113443Y-16971022D01*
X12212762Y-17037385D01*
X12323120Y-17083096D01*
X12440275Y-17106400D01*
X12559725Y-17106400D01*
X12676880Y-17083096D01*
X12787238Y-17037385D01*
X12886557Y-16971022D01*
X12971022Y-16886557D01*
X13000000Y-16843188D01*
X13028978Y-16886557D01*
X13113443Y-16971022D01*
X13212762Y-17037385D01*
X13323120Y-17083096D01*
X13440275Y-17106400D01*
X13559725Y-17106400D01*
X13676880Y-17083096D01*
X13787238Y-17037385D01*
X13886557Y-16971022D01*
X13971022Y-16886557D01*
X14037385Y-16787238D01*
X14083096Y-16676880D01*
X14106400Y-16559725D01*
X14106400Y-16440275D01*
X14083096Y-16323120D01*
X14037385Y-16212762D01*
X13971022Y-16113443D01*
X13886557Y-16028978D01*
X13787238Y-15962615D01*
X13676880Y-15916904D01*
X13559725Y-15893600D01*
X13497470Y-15893600D01*
X7794144Y-10190275D01*
X14893600Y-10190275D01*
X14893600Y-10309725D01*
X14916904Y-10426880D01*
X14962615Y-10537238D01*
X14973000Y-10552780D01*
X14973001Y-13474109D01*
X14970451Y-13500000D01*
X14980626Y-13603309D01*
X15010761Y-13702649D01*
X15059696Y-13794201D01*
X15059697Y-13794202D01*
X15125553Y-13874448D01*
X15145662Y-13890951D01*
X18771181Y-17516471D01*
X18628175Y-17784018D01*
X18528280Y-18113328D01*
X18503001Y-18369987D01*
X18503000Y-22504012D01*
X18528279Y-22760671D01*
X18628174Y-23089981D01*
X18790395Y-23393476D01*
X19008708Y-23659492D01*
X19274723Y-23877805D01*
X19578218Y-24040026D01*
X19907528Y-24139921D01*
X20250000Y-24173652D01*
X20592471Y-24139921D01*
X20921781Y-24040026D01*
X21225276Y-23877805D01*
X21491292Y-23659492D01*
X21709605Y-23393477D01*
X21871826Y-23089982D01*
X21971721Y-22760672D01*
X21997000Y-22504013D01*
X21997000Y-18369987D01*
X21971721Y-18113328D01*
X21871826Y-17784018D01*
X21709605Y-17480523D01*
X21491292Y-17214508D01*
X21225277Y-16996195D01*
X20921782Y-16833974D01*
X20592472Y-16734079D01*
X20250000Y-16700348D01*
X19907529Y-16734079D01*
X19579021Y-16833731D01*
X17375302Y-14630012D01*
X18503000Y-14630012D01*
X18528279Y-14886671D01*
X18628174Y-15215981D01*
X18790395Y-15519476D01*
X19008708Y-15785492D01*
X19274723Y-16003805D01*
X19578218Y-16166026D01*
X19907528Y-16265921D01*
X20250000Y-16299652D01*
X20592471Y-16265921D01*
X20921781Y-16166026D01*
X21225276Y-16003805D01*
X21491292Y-15785492D01*
X21709605Y-15519477D01*
X21871826Y-15215982D01*
X21971721Y-14886672D01*
X21997000Y-14630013D01*
X21997000Y-10495987D01*
X21971721Y-10239328D01*
X21871826Y-9910018D01*
X21709605Y-9606523D01*
X21491292Y-9340508D01*
X21225277Y-9122195D01*
X20921782Y-8959974D01*
X20592472Y-8860079D01*
X20250000Y-8826348D01*
X19907529Y-8860079D01*
X19578219Y-8959974D01*
X19274724Y-9122195D01*
X19008709Y-9340508D01*
X18790396Y-9606523D01*
X18628175Y-9910018D01*
X18528280Y-10239328D01*
X18503001Y-10495987D01*
X18503000Y-14630012D01*
X17375302Y-14630012D01*
X16027000Y-13281711D01*
X16027000Y-10552780D01*
X16037385Y-10537238D01*
X16083096Y-10426880D01*
X16106400Y-10309725D01*
X16106400Y-10190275D01*
X16083096Y-10073120D01*
X16037385Y-9962762D01*
X15971022Y-9863443D01*
X15886557Y-9778978D01*
X15787238Y-9712615D01*
X15676880Y-9666904D01*
X15559725Y-9643600D01*
X15440275Y-9643600D01*
X15323120Y-9666904D01*
X15212762Y-9712615D01*
X15113443Y-9778978D01*
X15028978Y-9863443D01*
X14962615Y-9962762D01*
X14916904Y-10073120D01*
X14893600Y-10190275D01*
X7794144Y-10190275D01*
X4177000Y-6573132D01*
X4177000Y-5854528D01*
X14023000Y-5854528D01*
X14023000Y-6145472D01*
X14079760Y-6430825D01*
X14191099Y-6699622D01*
X14352739Y-6941533D01*
X14558467Y-7147261D01*
X14800378Y-7308901D01*
X15069175Y-7420240D01*
X15354528Y-7477000D01*
X15645472Y-7477000D01*
X15930825Y-7420240D01*
X16199622Y-7308901D01*
X16441533Y-7147261D01*
X16647261Y-6941533D01*
X16808901Y-6699622D01*
X16920240Y-6430825D01*
X16977000Y-6145472D01*
X16977000Y-5854528D01*
X16920240Y-5569175D01*
X16808901Y-5300378D01*
X16647261Y-5058467D01*
X16441533Y-4852739D01*
X16199622Y-4691099D01*
X15930825Y-4579760D01*
X15645472Y-4523000D01*
X15354528Y-4523000D01*
X15069175Y-4579760D01*
X14800378Y-4691099D01*
X14558467Y-4852739D01*
X14352739Y-5058467D01*
X14191099Y-5300378D01*
X14079760Y-5569175D01*
X14023000Y-5854528D01*
X4177000Y-5854528D01*
X4177000Y-5180579D01*
X4221022Y-5136557D01*
X4287385Y-5037238D01*
X4333096Y-4926880D01*
X4356400Y-4809725D01*
X4356400Y-4690275D01*
X4333096Y-4573120D01*
X4287385Y-4462762D01*
X4272360Y-4440275D01*
X27393600Y-4440275D01*
X27393600Y-4559725D01*
X27416904Y-4676880D01*
X27462615Y-4787238D01*
X27528978Y-4886557D01*
X27548000Y-4905579D01*
X27548001Y-7344420D01*
X27528978Y-7363443D01*
X27462615Y-7462762D01*
X27416904Y-7573120D01*
X27393600Y-7690275D01*
X27393600Y-7809725D01*
X27416904Y-7926880D01*
X27462615Y-8037238D01*
X27528978Y-8136557D01*
X27613443Y-8221022D01*
X27712762Y-8287385D01*
X27823120Y-8333096D01*
X27940275Y-8356400D01*
X28059725Y-8356400D01*
X28176880Y-8333096D01*
X28287238Y-8287385D01*
X28386557Y-8221022D01*
X28471022Y-8136557D01*
X28537385Y-8037238D01*
X28583096Y-7926880D01*
X28606400Y-7809725D01*
X28606400Y-7690275D01*
X28583096Y-7573120D01*
X28537385Y-7462762D01*
X28471022Y-7363443D01*
X28452000Y-7344421D01*
X28452000Y-4905579D01*
X28471022Y-4886557D01*
X28537385Y-4787238D01*
X28583096Y-4676880D01*
X28606400Y-4559725D01*
X28606400Y-4440275D01*
X28583096Y-4323120D01*
X28537385Y-4212762D01*
X28471022Y-4113443D01*
X28386557Y-4028978D01*
X28287238Y-3962615D01*
X28176880Y-3916904D01*
X28059725Y-3893600D01*
X27940275Y-3893600D01*
X27823120Y-3916904D01*
X27712762Y-3962615D01*
X27613443Y-4028978D01*
X27528978Y-4113443D01*
X27462615Y-4212762D01*
X27416904Y-4323120D01*
X27393600Y-4440275D01*
X4272360Y-4440275D01*
X4221022Y-4363443D01*
X4136557Y-4278978D01*
X4037238Y-4212615D01*
X3926880Y-4166904D01*
X3809725Y-4143600D01*
X3690275Y-4143600D01*
X3573120Y-4166904D01*
X3462762Y-4212615D01*
X3370599Y-4274197D01*
X3278435Y-4212615D01*
X3168077Y-4166904D01*
X3050922Y-4143600D01*
X2931472Y-4143600D01*
X2814317Y-4166904D01*
X2703959Y-4212615D01*
X2604640Y-4278978D01*
X2520175Y-4363443D01*
X2453812Y-4462762D01*
X2408101Y-4573120D01*
X2384797Y-4690275D01*
X2004127Y-4690275D01*
X2145113Y-4596072D01*
X2286072Y-4455113D01*
X2396823Y-4289362D01*
X2473110Y-4105190D01*
X2512000Y-3909673D01*
X2512000Y-3710327D01*
X2473110Y-3514810D01*
X2396823Y-3330638D01*
X2286072Y-3164887D01*
X2145113Y-3023928D01*
X1979362Y-2913177D01*
X1795190Y-2836890D01*
X1599673Y-2798000D01*
X1400327Y-2798000D01*
X1204810Y-2836890D01*
X1020638Y-2913177D01*
X854887Y-3023928D01*
X713928Y-3164887D01*
X603177Y-3330638D01*
X526890Y-3514810D01*
X488000Y-3710327D01*
X377000Y-3710327D01*
X377000Y-1170327D01*
X488000Y-1170327D01*
X488000Y-1369673D01*
X526890Y-1565190D01*
X603177Y-1749362D01*
X713928Y-1915113D01*
X854887Y-2056072D01*
X1020638Y-2166823D01*
X1204810Y-2243110D01*
X1400327Y-2282000D01*
X1599673Y-2282000D01*
X1795190Y-2243110D01*
X1979362Y-2166823D01*
X2145113Y-2056072D01*
X2286072Y-1915113D01*
X2396823Y-1749362D01*
X2421411Y-1690000D01*
X14321418Y-1690000D01*
X14321418Y-3390000D01*
X14327732Y-3454103D01*
X14346430Y-3515743D01*
X14376794Y-3572550D01*
X14417657Y-3622343D01*
X14467450Y-3663206D01*
X14524257Y-3693570D01*
X14585897Y-3712268D01*
X14650000Y-3718582D01*
X16350000Y-3718582D01*
X16414103Y-3712268D01*
X16475743Y-3693570D01*
X16532550Y-3663206D01*
X16582343Y-3622343D01*
X16623206Y-3572550D01*
X16653570Y-3515743D01*
X16672268Y-3454103D01*
X16678582Y-3390000D01*
X18321418Y-3390000D01*
X18327732Y-3454103D01*
X18346430Y-3515743D01*
X18376794Y-3572550D01*
X18417657Y-3622343D01*
X18467450Y-3663206D01*
X18524257Y-3693570D01*
X18585897Y-3712268D01*
X18650000Y-3718582D01*
X19395250Y-3717000D01*
X19477000Y-3635250D01*
X19477000Y-2563000D01*
X19523000Y-2563000D01*
X19523000Y-3635250D01*
X19604750Y-3717000D01*
X20350000Y-3718582D01*
X20414103Y-3712268D01*
X20475743Y-3693570D01*
X20532550Y-3663206D01*
X20582343Y-3622343D01*
X20623206Y-3572550D01*
X20653570Y-3515743D01*
X20672268Y-3454103D01*
X20678582Y-3390000D01*
X20677000Y-2644750D01*
X20595250Y-2563000D01*
X19523000Y-2563000D01*
X19477000Y-2563000D01*
X18404750Y-2563000D01*
X18323000Y-2644750D01*
X18321418Y-3390000D01*
X16678582Y-3390000D01*
X16678582Y-1690000D01*
X18321418Y-1690000D01*
X18323000Y-2435250D01*
X18404750Y-2517000D01*
X19477000Y-2517000D01*
X19477000Y-1444750D01*
X19523000Y-1444750D01*
X19523000Y-2517000D01*
X20595250Y-2517000D01*
X20677000Y-2435250D01*
X20677139Y-2369302D01*
X48173000Y-2369302D01*
X48173000Y-2630698D01*
X48223996Y-2887072D01*
X48324028Y-3128570D01*
X48469252Y-3345913D01*
X48654087Y-3530748D01*
X48871430Y-3675972D01*
X49112928Y-3776004D01*
X49369302Y-3827000D01*
X49630698Y-3827000D01*
X49887072Y-3776004D01*
X50128570Y-3675972D01*
X50345913Y-3530748D01*
X50530748Y-3345913D01*
X50675972Y-3128570D01*
X50776004Y-2887072D01*
X50827000Y-2630698D01*
X50827000Y-2369302D01*
X50776004Y-2112928D01*
X50675972Y-1871430D01*
X50530748Y-1654087D01*
X50345913Y-1469252D01*
X50128570Y-1324028D01*
X49887072Y-1223996D01*
X49630698Y-1173000D01*
X49369302Y-1173000D01*
X49112928Y-1223996D01*
X48871430Y-1324028D01*
X48654087Y-1469252D01*
X48469252Y-1654087D01*
X48324028Y-1871430D01*
X48223996Y-2112928D01*
X48173000Y-2369302D01*
X20677139Y-2369302D01*
X20678582Y-1690000D01*
X20672268Y-1625897D01*
X20653570Y-1564257D01*
X20623206Y-1507450D01*
X20582343Y-1457657D01*
X20532550Y-1416794D01*
X20475743Y-1386430D01*
X20414103Y-1367732D01*
X20350000Y-1361418D01*
X19604750Y-1363000D01*
X19523000Y-1444750D01*
X19477000Y-1444750D01*
X19395250Y-1363000D01*
X18650000Y-1361418D01*
X18585897Y-1367732D01*
X18524257Y-1386430D01*
X18467450Y-1416794D01*
X18417657Y-1457657D01*
X18376794Y-1507450D01*
X18346430Y-1564257D01*
X18327732Y-1625897D01*
X18321418Y-1690000D01*
X16678582Y-1690000D01*
X16672268Y-1625897D01*
X16653570Y-1564257D01*
X16623206Y-1507450D01*
X16582343Y-1457657D01*
X16532550Y-1416794D01*
X16475743Y-1386430D01*
X16414103Y-1367732D01*
X16350000Y-1361418D01*
X14650000Y-1361418D01*
X14585897Y-1367732D01*
X14524257Y-1386430D01*
X14467450Y-1416794D01*
X14417657Y-1457657D01*
X14376794Y-1507450D01*
X14346430Y-1564257D01*
X14327732Y-1625897D01*
X14321418Y-1690000D01*
X2421411Y-1690000D01*
X2473110Y-1565190D01*
X2512000Y-1369673D01*
X2512000Y-1170327D01*
X2473110Y-974810D01*
X2396823Y-790638D01*
X2286072Y-624887D01*
X2145113Y-483928D01*
X1979362Y-373177D01*
X1795190Y-296890D01*
X1599673Y-258000D01*
X1400327Y-258000D01*
X1204810Y-296890D01*
X1020638Y-373177D01*
X854887Y-483928D01*
X713928Y-624887D01*
X603177Y-790638D01*
X526890Y-974810D01*
X488000Y-1170327D01*
X377000Y-1170327D01*
X377000Y115924D01*
X14323000Y115924D01*
X14323000Y-115924D01*
X14368231Y-343318D01*
X14456956Y-557519D01*
X14585764Y-750294D01*
X14749706Y-914236D01*
X14942481Y-1043044D01*
X15156682Y-1131769D01*
X15384076Y-1177000D01*
X15615924Y-1177000D01*
X15843318Y-1131769D01*
X16057519Y-1043044D01*
X16250294Y-914236D01*
X16414236Y-750294D01*
X16543044Y-557519D01*
X16631769Y-343318D01*
X16677000Y-115924D01*
X16677000Y115924D01*
X18323000Y115924D01*
X18323000Y-115924D01*
X18368231Y-343318D01*
X18456956Y-557519D01*
X18585764Y-750294D01*
X18749706Y-914236D01*
X18942481Y-1043044D01*
X19156682Y-1131769D01*
X19384076Y-1177000D01*
X19615924Y-1177000D01*
X19843318Y-1131769D01*
X20057519Y-1043044D01*
X20250294Y-914236D01*
X20414236Y-750294D01*
X20543044Y-557519D01*
X20631769Y-343318D01*
X20677000Y-115924D01*
X20677000Y115924D01*
X20631769Y343318D01*
X20543044Y557519D01*
X20414236Y750294D01*
X20250294Y914236D01*
X20057519Y1043044D01*
X19843318Y1131769D01*
X19615924Y1177000D01*
X19384076Y1177000D01*
X19156682Y1131769D01*
X18942481Y1043044D01*
X18749706Y914236D01*
X18585764Y750294D01*
X18456956Y557519D01*
X18368231Y343318D01*
X18323000Y115924D01*
X16677000Y115924D01*
X16631769Y343318D01*
X16543044Y557519D01*
X16414236Y750294D01*
X16250294Y914236D01*
X16057519Y1043044D01*
X15843318Y1131769D01*
X15615924Y1177000D01*
X15384076Y1177000D01*
X15156682Y1131769D01*
X14942481Y1043044D01*
X14749706Y914236D01*
X14585764Y750294D01*
X14456956Y557519D01*
X14368231Y343318D01*
X14323000Y115924D01*
X377000Y115924D01*
X377000Y1369673D01*
X488000Y1369673D01*
X488000Y1170327D01*
X526890Y974810D01*
X603177Y790638D01*
X713928Y624887D01*
X854887Y483928D01*
X1020638Y373177D01*
X1204810Y296890D01*
X1400327Y258000D01*
X1599673Y258000D01*
X1795190Y296890D01*
X1979362Y373177D01*
X2145113Y483928D01*
X2286072Y624887D01*
X2396823Y790638D01*
X2473110Y974810D01*
X2512000Y1170327D01*
X2512000Y1369673D01*
X2473110Y1565190D01*
X2396823Y1749362D01*
X2286072Y1915113D01*
X2145113Y2056072D01*
X1979362Y2166823D01*
X1795190Y2243110D01*
X1599673Y2282000D01*
X1400327Y2282000D01*
X1204810Y2243110D01*
X1020638Y2166823D01*
X854887Y2056072D01*
X713928Y1915113D01*
X603177Y1749362D01*
X526890Y1565190D01*
X488000Y1369673D01*
X377000Y1369673D01*
X377000Y2655924D01*
X14323000Y2655924D01*
X14323000Y2424076D01*
X14368231Y2196682D01*
X14456956Y1982481D01*
X14585764Y1789706D01*
X14749706Y1625764D01*
X14942481Y1496956D01*
X15156682Y1408231D01*
X15384076Y1363000D01*
X15615924Y1363000D01*
X15843318Y1408231D01*
X16057519Y1496956D01*
X16250294Y1625764D01*
X16414236Y1789706D01*
X16543044Y1982481D01*
X16631769Y2196682D01*
X16677000Y2424076D01*
X16677000Y2655924D01*
X18323000Y2655924D01*
X18323000Y2424076D01*
X18368231Y2196682D01*
X18456956Y1982481D01*
X18585764Y1789706D01*
X18749706Y1625764D01*
X18942481Y1496956D01*
X19156682Y1408231D01*
X19384076Y1363000D01*
X19615924Y1363000D01*
X19843318Y1408231D01*
X20057519Y1496956D01*
X20250294Y1625764D01*
X20414236Y1789706D01*
X20543044Y1982481D01*
X20631769Y2196682D01*
X20677000Y2424076D01*
X20677000Y2655924D01*
X20631769Y2883318D01*
X20543044Y3097519D01*
X20414236Y3290294D01*
X20250294Y3454236D01*
X20057519Y3583044D01*
X19843318Y3671769D01*
X19615924Y3717000D01*
X19384076Y3717000D01*
X19156682Y3671769D01*
X18942481Y3583044D01*
X18749706Y3454236D01*
X18585764Y3290294D01*
X18456956Y3097519D01*
X18368231Y2883318D01*
X18323000Y2655924D01*
X16677000Y2655924D01*
X16631769Y2883318D01*
X16543044Y3097519D01*
X16414236Y3290294D01*
X16250294Y3454236D01*
X16057519Y3583044D01*
X15843318Y3671769D01*
X15615924Y3717000D01*
X15384076Y3717000D01*
X15156682Y3671769D01*
X14942481Y3583044D01*
X14749706Y3454236D01*
X14585764Y3290294D01*
X14456956Y3097519D01*
X14368231Y2883318D01*
X14323000Y2655924D01*
X377000Y2655924D01*
X377000Y8989673D01*
X488000Y8989673D01*
X488000Y8790327D01*
X526890Y8594810D01*
X603177Y8410638D01*
X713928Y8244887D01*
X854887Y8103928D01*
X994540Y8010615D01*
X962615Y7962835D01*
X916904Y7852477D01*
X893600Y7735322D01*
X893600Y7615872D01*
X916904Y7498717D01*
X962615Y7388359D01*
X1028978Y7289040D01*
X1056387Y7261631D01*
X1020638Y7246823D01*
X854887Y7136072D01*
X713928Y6995113D01*
X603177Y6829362D01*
X526890Y6645190D01*
X488000Y6449673D01*
X488000Y6250327D01*
X526890Y6054810D01*
X603177Y5870638D01*
X713928Y5704887D01*
X854887Y5563928D01*
X1020638Y5453177D01*
X1204810Y5376890D01*
X1400327Y5338000D01*
X1599673Y5338000D01*
X1795190Y5376890D01*
X1979362Y5453177D01*
X2145113Y5563928D01*
X2286072Y5704887D01*
X2323001Y5760155D01*
X2323001Y5236870D01*
X1847552Y4761421D01*
X1795190Y4783110D01*
X1599673Y4822000D01*
X1400327Y4822000D01*
X1204810Y4783110D01*
X1020638Y4706823D01*
X854887Y4596072D01*
X713928Y4455113D01*
X603177Y4289362D01*
X526890Y4105190D01*
X488000Y3909673D01*
X488000Y3710327D01*
X526890Y3514810D01*
X603177Y3330638D01*
X713928Y3164887D01*
X854887Y3023928D01*
X1020638Y2913177D01*
X1204810Y2836890D01*
X1400327Y2798000D01*
X1599673Y2798000D01*
X1795190Y2836890D01*
X1979362Y2913177D01*
X2145113Y3023928D01*
X2286072Y3164887D01*
X2396823Y3330638D01*
X2473110Y3514810D01*
X2512000Y3710327D01*
X2512000Y3909673D01*
X2473110Y4105190D01*
X2451421Y4157552D01*
X2924567Y4630698D01*
X4673000Y4630698D01*
X4673000Y4369302D01*
X4723996Y4112928D01*
X4824028Y3871430D01*
X4969252Y3654087D01*
X5154087Y3469252D01*
X5371430Y3324028D01*
X5612928Y3223996D01*
X5869302Y3173000D01*
X6130698Y3173000D01*
X6387072Y3223996D01*
X6628570Y3324028D01*
X6845913Y3469252D01*
X7030748Y3654087D01*
X7175972Y3871430D01*
X7276004Y4112928D01*
X7327000Y4369302D01*
X7327000Y4630698D01*
X7276004Y4887072D01*
X7175972Y5128570D01*
X7030748Y5345913D01*
X6891936Y5484725D01*
X39143600Y5484725D01*
X39143600Y5365275D01*
X39166904Y5248120D01*
X39212615Y5137762D01*
X39278978Y5038443D01*
X39363443Y4953978D01*
X39462762Y4887615D01*
X39573120Y4841904D01*
X39690275Y4818600D01*
X39809725Y4818600D01*
X39926880Y4841904D01*
X40037238Y4887615D01*
X40136557Y4953978D01*
X40221022Y5038443D01*
X40287385Y5137762D01*
X40333096Y5248120D01*
X40356400Y5365275D01*
X40356400Y5392177D01*
X41412224Y6448000D01*
X42944421Y6448000D01*
X42963443Y6428978D01*
X43062762Y6362615D01*
X43173120Y6316904D01*
X43290275Y6293600D01*
X43409725Y6293600D01*
X43526880Y6316904D01*
X43637238Y6362615D01*
X43736557Y6428978D01*
X43821022Y6513443D01*
X43887385Y6612762D01*
X43933096Y6723120D01*
X43956400Y6840275D01*
X43956400Y6959725D01*
X43933096Y7076880D01*
X43887385Y7187238D01*
X43821022Y7286557D01*
X43736557Y7371022D01*
X43637238Y7437385D01*
X43526880Y7483096D01*
X43409725Y7506400D01*
X43290275Y7506400D01*
X43173120Y7483096D01*
X43062762Y7437385D01*
X42963443Y7371022D01*
X42944421Y7352000D01*
X41247204Y7352000D01*
X41224999Y7354187D01*
X41136392Y7345460D01*
X41062715Y7323110D01*
X41051190Y7319614D01*
X40972667Y7277643D01*
X40903841Y7221159D01*
X40889681Y7203905D01*
X39717177Y6031400D01*
X39690275Y6031400D01*
X39573120Y6008096D01*
X39462762Y5962385D01*
X39363443Y5896022D01*
X39278978Y5811557D01*
X39212615Y5712238D01*
X39166904Y5601880D01*
X39143600Y5484725D01*
X6891936Y5484725D01*
X6845913Y5530748D01*
X6628570Y5675972D01*
X6387072Y5776004D01*
X6130698Y5827000D01*
X5869302Y5827000D01*
X5612928Y5776004D01*
X5371430Y5675972D01*
X5154087Y5530748D01*
X4969252Y5345913D01*
X4824028Y5128570D01*
X4723996Y4887072D01*
X4673000Y4630698D01*
X2924567Y4630698D01*
X3037105Y4743236D01*
X3053395Y4756605D01*
X3066764Y4772895D01*
X3066768Y4772899D01*
X3106755Y4821623D01*
X3127948Y4861273D01*
X3146405Y4895804D01*
X3170822Y4976293D01*
X3177000Y5039022D01*
X3177000Y5039033D01*
X3179065Y5060000D01*
X3177000Y5080967D01*
X3177000Y6979036D01*
X3179065Y7000001D01*
X3177000Y7020966D01*
X3177000Y7020978D01*
X3170822Y7083707D01*
X3146405Y7164196D01*
X3116977Y7219252D01*
X3106755Y7238377D01*
X3066767Y7287102D01*
X3066764Y7287105D01*
X3053395Y7303395D01*
X3037106Y7316763D01*
X2391171Y7962697D01*
X2377798Y7978992D01*
X2312779Y8032352D01*
X2238599Y8072002D01*
X2158110Y8096419D01*
X2136988Y8098499D01*
X2145113Y8103928D01*
X2286072Y8244887D01*
X2396823Y8410638D01*
X2458577Y8559725D01*
X10393600Y8559725D01*
X10393600Y8440275D01*
X10416904Y8323120D01*
X10462615Y8212762D01*
X10528978Y8113443D01*
X10613443Y8028978D01*
X10712762Y7962615D01*
X10823120Y7916904D01*
X10940275Y7893600D01*
X11059725Y7893600D01*
X11176880Y7916904D01*
X11287238Y7962615D01*
X11386557Y8028978D01*
X11471022Y8113443D01*
X11537385Y8212762D01*
X11583096Y8323120D01*
X11594549Y8380698D01*
X13423000Y8380698D01*
X13423000Y8119302D01*
X13473996Y7862928D01*
X13574028Y7621430D01*
X13719252Y7404087D01*
X13904087Y7219252D01*
X14121430Y7074028D01*
X14362928Y6973996D01*
X14619302Y6923000D01*
X14880698Y6923000D01*
X15137072Y6973996D01*
X15378570Y7074028D01*
X15595913Y7219252D01*
X15780748Y7404087D01*
X15925972Y7621430D01*
X16026004Y7862928D01*
X16077000Y8119302D01*
X16077000Y8380698D01*
X29173000Y8380698D01*
X29173000Y8119302D01*
X29223996Y7862928D01*
X29324028Y7621430D01*
X29469252Y7404087D01*
X29654087Y7219252D01*
X29871430Y7074028D01*
X30112928Y6973996D01*
X30369302Y6923000D01*
X30630698Y6923000D01*
X30887072Y6973996D01*
X31128570Y7074028D01*
X31345913Y7219252D01*
X31530748Y7404087D01*
X31675972Y7621430D01*
X31776004Y7862928D01*
X31804420Y8005787D01*
X55716500Y8005787D01*
X55753343Y7873904D01*
X55821169Y7737445D01*
X55914314Y7616841D01*
X56029198Y7516726D01*
X56161406Y7440947D01*
X56305857Y7392417D01*
X56457000Y7373000D01*
X57207000Y7373000D01*
X57207000Y8127000D01*
X57253000Y8127000D01*
X57253000Y7373000D01*
X58003000Y7373000D01*
X58154143Y7392417D01*
X58298594Y7440947D01*
X58430802Y7516726D01*
X58545686Y7616841D01*
X58638831Y7737445D01*
X58706657Y7873904D01*
X58743500Y8005787D01*
X59446500Y8005787D01*
X59483343Y7873904D01*
X59551169Y7737445D01*
X59644314Y7616841D01*
X59759198Y7516726D01*
X59891406Y7440947D01*
X60035857Y7392417D01*
X60187000Y7373000D01*
X60587000Y7373000D01*
X60587000Y8127000D01*
X60633000Y8127000D01*
X60633000Y7373000D01*
X61033000Y7373000D01*
X61184143Y7392417D01*
X61328594Y7440947D01*
X61460802Y7516726D01*
X61575686Y7616841D01*
X61668831Y7737445D01*
X61736657Y7873904D01*
X61773500Y8005787D01*
X61704869Y8127000D01*
X60633000Y8127000D01*
X60587000Y8127000D01*
X59515131Y8127000D01*
X59446500Y8005787D01*
X58743500Y8005787D01*
X58674869Y8127000D01*
X57253000Y8127000D01*
X57207000Y8127000D01*
X55785131Y8127000D01*
X55716500Y8005787D01*
X31804420Y8005787D01*
X31827000Y8119302D01*
X31827000Y8380698D01*
X31776004Y8637072D01*
X31675972Y8878570D01*
X31530748Y9095913D01*
X31345913Y9280748D01*
X31128570Y9425972D01*
X30887072Y9526004D01*
X30630698Y9577000D01*
X30369302Y9577000D01*
X30112928Y9526004D01*
X29871430Y9425972D01*
X29654087Y9280748D01*
X29469252Y9095913D01*
X29324028Y8878570D01*
X29223996Y8637072D01*
X29173000Y8380698D01*
X16077000Y8380698D01*
X16026004Y8637072D01*
X15925972Y8878570D01*
X15780748Y9095913D01*
X15595913Y9280748D01*
X15378570Y9425972D01*
X15137072Y9526004D01*
X14880698Y9577000D01*
X14619302Y9577000D01*
X14362928Y9526004D01*
X14121430Y9425972D01*
X13904087Y9280748D01*
X13719252Y9095913D01*
X13574028Y8878570D01*
X13473996Y8637072D01*
X13423000Y8380698D01*
X11594549Y8380698D01*
X11606400Y8440275D01*
X11606400Y8467177D01*
X12835313Y9696088D01*
X12835322Y9696099D01*
X13085313Y9946089D01*
X13085317Y9946094D01*
X13437224Y10298000D01*
X16594421Y10298000D01*
X16613443Y10278978D01*
X16712762Y10212615D01*
X16823120Y10166904D01*
X16940275Y10143600D01*
X17059725Y10143600D01*
X17176880Y10166904D01*
X17287238Y10212615D01*
X17386557Y10278978D01*
X17471022Y10363443D01*
X17537385Y10462762D01*
X17583096Y10573120D01*
X17606400Y10690275D01*
X17606400Y10809725D01*
X17583096Y10926880D01*
X17537385Y11037238D01*
X17471022Y11136557D01*
X17386557Y11221022D01*
X17287238Y11287385D01*
X17176880Y11333096D01*
X17059725Y11356400D01*
X16940275Y11356400D01*
X16823120Y11333096D01*
X16712762Y11287385D01*
X16613443Y11221022D01*
X16594421Y11202000D01*
X13272205Y11202000D01*
X13250000Y11204187D01*
X13161392Y11195460D01*
X13100143Y11176880D01*
X13076190Y11169614D01*
X12997667Y11127643D01*
X12928841Y11071159D01*
X12914681Y11053905D01*
X12446094Y10585317D01*
X12446089Y10585313D01*
X12196099Y10335322D01*
X12196088Y10335313D01*
X10967177Y9106400D01*
X10940275Y9106400D01*
X10823120Y9083096D01*
X10712762Y9037385D01*
X10613443Y8971022D01*
X10528978Y8886557D01*
X10462615Y8787238D01*
X10416904Y8676880D01*
X10393600Y8559725D01*
X2458577Y8559725D01*
X2473110Y8594810D01*
X2512000Y8790327D01*
X2512000Y8989673D01*
X2473110Y9185190D01*
X2396823Y9369362D01*
X2286072Y9535113D01*
X2145113Y9676072D01*
X1979362Y9786823D01*
X1795190Y9863110D01*
X1599673Y9902000D01*
X1400327Y9902000D01*
X1204810Y9863110D01*
X1020638Y9786823D01*
X854887Y9676072D01*
X713928Y9535113D01*
X603177Y9369362D01*
X526890Y9185190D01*
X488000Y8989673D01*
X377000Y8989673D01*
X377000Y11529673D01*
X488000Y11529673D01*
X488000Y11330327D01*
X526890Y11134810D01*
X603177Y10950638D01*
X713928Y10784887D01*
X854887Y10643928D01*
X1020638Y10533177D01*
X1204810Y10456890D01*
X1400327Y10418000D01*
X1599673Y10418000D01*
X1795190Y10456890D01*
X1979362Y10533177D01*
X2145113Y10643928D01*
X2286072Y10784887D01*
X2396823Y10950638D01*
X2473110Y11134810D01*
X2512000Y11330327D01*
X2512000Y11529673D01*
X2473110Y11725190D01*
X2396823Y11909362D01*
X2286072Y12075113D01*
X2145113Y12216072D01*
X1979362Y12326823D01*
X1795190Y12403110D01*
X1599673Y12442000D01*
X1400327Y12442000D01*
X1204810Y12403110D01*
X1020638Y12326823D01*
X854887Y12216072D01*
X713928Y12075113D01*
X603177Y11909362D01*
X526890Y11725190D01*
X488000Y11529673D01*
X377000Y11529673D01*
X377000Y14069673D01*
X488000Y14069673D01*
X488000Y13870327D01*
X526890Y13674810D01*
X603177Y13490638D01*
X713928Y13324887D01*
X854887Y13183928D01*
X1020638Y13073177D01*
X1204810Y12996890D01*
X1400327Y12958000D01*
X1599673Y12958000D01*
X1795190Y12996890D01*
X1979362Y13073177D01*
X2145113Y13183928D01*
X2286072Y13324887D01*
X2396823Y13490638D01*
X2473110Y13674810D01*
X2512000Y13870327D01*
X2512000Y14069673D01*
X2473110Y14265190D01*
X2396823Y14449362D01*
X2286072Y14615113D01*
X2145113Y14756072D01*
X1979362Y14866823D01*
X1795190Y14943110D01*
X1599673Y14982000D01*
X1400327Y14982000D01*
X1204810Y14943110D01*
X1020638Y14866823D01*
X854887Y14756072D01*
X713928Y14615113D01*
X603177Y14449362D01*
X526890Y14265190D01*
X488000Y14069673D01*
X377000Y14069673D01*
X377000Y16609673D01*
X488000Y16609673D01*
X488000Y16410327D01*
X526890Y16214810D01*
X603177Y16030638D01*
X713928Y15864887D01*
X854887Y15723928D01*
X1020638Y15613177D01*
X1204810Y15536890D01*
X1400327Y15498000D01*
X1599673Y15498000D01*
X1795190Y15536890D01*
X1979362Y15613177D01*
X2145113Y15723928D01*
X2286072Y15864887D01*
X2396823Y16030638D01*
X2473110Y16214810D01*
X2512000Y16410327D01*
X2512000Y16434725D01*
X3893600Y16434725D01*
X3893600Y16315275D01*
X3916904Y16198120D01*
X3962615Y16087762D01*
X4028978Y15988443D01*
X4048000Y15969421D01*
X4048001Y15522214D01*
X4048000Y15522204D01*
X4048001Y11405580D01*
X4028978Y11386557D01*
X3962615Y11287238D01*
X3916904Y11176880D01*
X3893600Y11059725D01*
X3893600Y10940275D01*
X3916904Y10823120D01*
X3962615Y10712762D01*
X4028978Y10613443D01*
X4113443Y10528978D01*
X4212762Y10462615D01*
X4323120Y10416904D01*
X4440275Y10393600D01*
X4559725Y10393600D01*
X4676880Y10416904D01*
X4787238Y10462615D01*
X4886557Y10528978D01*
X4971022Y10613443D01*
X5037385Y10712762D01*
X5048001Y10738391D01*
X5048001Y10155580D01*
X5028978Y10136557D01*
X4962615Y10037238D01*
X4916904Y9926880D01*
X4893600Y9809725D01*
X4893600Y9690275D01*
X4916904Y9573120D01*
X4962615Y9462762D01*
X5028978Y9363443D01*
X5113443Y9278978D01*
X5212762Y9212615D01*
X5323120Y9166904D01*
X5440275Y9143600D01*
X5559725Y9143600D01*
X5649339Y9161426D01*
X5666904Y9073120D01*
X5712615Y8962762D01*
X5778978Y8863443D01*
X5863443Y8778978D01*
X5962762Y8712615D01*
X6073120Y8666904D01*
X6190275Y8643600D01*
X6309725Y8643600D01*
X6426880Y8666904D01*
X6537238Y8712615D01*
X6636557Y8778978D01*
X6721022Y8863443D01*
X6787385Y8962762D01*
X6833096Y9073120D01*
X6850661Y9161426D01*
X6940275Y9143600D01*
X7059725Y9143600D01*
X7176880Y9166904D01*
X7287238Y9212615D01*
X7386557Y9278978D01*
X7471022Y9363443D01*
X7537385Y9462762D01*
X7583096Y9573120D01*
X7606400Y9690275D01*
X7606400Y9809725D01*
X7583096Y9926880D01*
X7537385Y10037238D01*
X7522360Y10059725D01*
X9643600Y10059725D01*
X9643600Y9940275D01*
X9666904Y9823120D01*
X9712615Y9712762D01*
X9778978Y9613443D01*
X9863443Y9528978D01*
X9962762Y9462615D01*
X10073120Y9416904D01*
X10190275Y9393600D01*
X10309725Y9393600D01*
X10426880Y9416904D01*
X10537238Y9462615D01*
X10636557Y9528978D01*
X10721022Y9613443D01*
X10787385Y9712762D01*
X10833096Y9823120D01*
X10856400Y9940275D01*
X10856400Y9967177D01*
X11835313Y10946089D01*
X11835317Y10946094D01*
X12585313Y11696088D01*
X12585322Y11696099D01*
X12687223Y11798000D01*
X16594421Y11798000D01*
X16613443Y11778978D01*
X16712762Y11712615D01*
X16823120Y11666904D01*
X16940275Y11643600D01*
X17059725Y11643600D01*
X17176880Y11666904D01*
X17287238Y11712615D01*
X17386557Y11778978D01*
X17471022Y11863443D01*
X17537385Y11962762D01*
X17583096Y12073120D01*
X17606400Y12190275D01*
X17606400Y12309725D01*
X17583096Y12426880D01*
X17537385Y12537238D01*
X17471022Y12636557D01*
X17386557Y12721022D01*
X17287238Y12787385D01*
X17176880Y12833096D01*
X17059725Y12856400D01*
X16940275Y12856400D01*
X16823120Y12833096D01*
X16712762Y12787385D01*
X16613443Y12721022D01*
X16594421Y12702000D01*
X12522204Y12702000D01*
X12499999Y12704187D01*
X12411392Y12695460D01*
X12391562Y12689444D01*
X12326190Y12669614D01*
X12247667Y12627643D01*
X12178841Y12571159D01*
X12164681Y12553904D01*
X11946099Y12335322D01*
X11946088Y12335313D01*
X11196094Y11585317D01*
X11196089Y11585313D01*
X10217177Y10606400D01*
X10190275Y10606400D01*
X10073120Y10583096D01*
X9962762Y10537385D01*
X9863443Y10471022D01*
X9778978Y10386557D01*
X9712615Y10287238D01*
X9666904Y10176880D01*
X9643600Y10059725D01*
X7522360Y10059725D01*
X7471022Y10136557D01*
X7452000Y10155579D01*
X7452000Y13276490D01*
X21809017Y13276490D01*
X21882643Y13111151D01*
X22067912Y13007790D01*
X22269784Y12942559D01*
X22480504Y12917965D01*
X22691973Y12934952D01*
X22896065Y12992869D01*
X23084936Y13089490D01*
X23117357Y13111151D01*
X23190983Y13276490D01*
X22500000Y13967473D01*
X21809017Y13276490D01*
X7452000Y13276490D01*
X7452000Y14094421D01*
X7471022Y14113443D01*
X7500000Y14156812D01*
X7528978Y14113443D01*
X7613443Y14028978D01*
X7712762Y13962615D01*
X7823120Y13916904D01*
X7940275Y13893600D01*
X8059725Y13893600D01*
X8176880Y13916904D01*
X8287238Y13962615D01*
X8372366Y14019496D01*
X21417965Y14019496D01*
X21434952Y13808027D01*
X21492869Y13603935D01*
X21589490Y13415064D01*
X21611151Y13382643D01*
X21776490Y13309017D01*
X22467473Y14000000D01*
X22532527Y14000000D01*
X23223510Y13309017D01*
X23388849Y13382643D01*
X23492210Y13567912D01*
X23557441Y13769784D01*
X23582035Y13980504D01*
X23565048Y14191973D01*
X23507131Y14396065D01*
X23410510Y14584936D01*
X23388849Y14617357D01*
X23223510Y14690983D01*
X22532527Y14000000D01*
X22467473Y14000000D01*
X21776490Y14690983D01*
X21611151Y14617357D01*
X21507790Y14432088D01*
X21442559Y14230216D01*
X21417965Y14019496D01*
X8372366Y14019496D01*
X8386557Y14028978D01*
X8471022Y14113443D01*
X8537385Y14212762D01*
X8583096Y14323120D01*
X8606400Y14440275D01*
X8606400Y14559725D01*
X8583096Y14676880D01*
X8563782Y14723510D01*
X21809017Y14723510D01*
X22500000Y14032527D01*
X23190983Y14723510D01*
X23117357Y14888849D01*
X22932088Y14992210D01*
X22730216Y15057441D01*
X22519496Y15082035D01*
X22308027Y15065048D01*
X22103935Y15007131D01*
X21915064Y14910510D01*
X21882643Y14888849D01*
X21809017Y14723510D01*
X8563782Y14723510D01*
X8537385Y14787238D01*
X8471022Y14886557D01*
X8386557Y14971022D01*
X8287238Y15037385D01*
X8176880Y15083096D01*
X8059725Y15106400D01*
X8032824Y15106400D01*
X7452000Y15687223D01*
X7452000Y16050000D01*
X55423000Y16050000D01*
X55423000Y8950000D01*
X55424480Y8934978D01*
X55439704Y8858441D01*
X55444085Y8843997D01*
X55451201Y8830683D01*
X55494556Y8765799D01*
X55504132Y8754131D01*
X55515799Y8744556D01*
X55580683Y8701201D01*
X55593996Y8694086D01*
X55608441Y8689704D01*
X55684978Y8674480D01*
X55700000Y8673000D01*
X55906468Y8673000D01*
X55821169Y8562555D01*
X55753343Y8426096D01*
X55716500Y8294213D01*
X55785131Y8173000D01*
X57207000Y8173000D01*
X57207000Y8193000D01*
X57253000Y8193000D01*
X57253000Y8173000D01*
X58674869Y8173000D01*
X58743500Y8294213D01*
X59446500Y8294213D01*
X59515131Y8173000D01*
X60587000Y8173000D01*
X60587000Y8927000D01*
X60633000Y8927000D01*
X60633000Y8173000D01*
X61704869Y8173000D01*
X61773500Y8294213D01*
X61736657Y8426096D01*
X61668831Y8562555D01*
X61575686Y8683159D01*
X61460802Y8783274D01*
X61328594Y8859053D01*
X61184143Y8907583D01*
X61033000Y8927000D01*
X60633000Y8927000D01*
X60587000Y8927000D01*
X60187000Y8927000D01*
X60035857Y8907583D01*
X59891406Y8859053D01*
X59759198Y8783274D01*
X59644314Y8683159D01*
X59551169Y8562555D01*
X59483343Y8426096D01*
X59446500Y8294213D01*
X58743500Y8294213D01*
X58706657Y8426096D01*
X58683923Y8471834D01*
X58704786Y8473889D01*
X58781506Y8497162D01*
X58852211Y8534955D01*
X58914185Y8585815D01*
X58926939Y8601356D01*
X60023656Y9698071D01*
X60039185Y9710815D01*
X60062452Y9739166D01*
X60090045Y9772788D01*
X60127838Y9843494D01*
X60131753Y9856400D01*
X60151111Y9920214D01*
X60157000Y9980008D01*
X60157000Y9980010D01*
X60158969Y9999999D01*
X60157000Y10019989D01*
X60157000Y14049421D01*
X60221022Y14113443D01*
X60287385Y14212762D01*
X60333096Y14323120D01*
X60356400Y14440275D01*
X60356400Y14559725D01*
X60333096Y14676880D01*
X60287385Y14787238D01*
X60221022Y14886557D01*
X60136557Y14971022D01*
X60037238Y15037385D01*
X59926880Y15083096D01*
X59809725Y15106400D01*
X59690275Y15106400D01*
X59573120Y15083096D01*
X59462762Y15037385D01*
X59363443Y14971022D01*
X59278978Y14886557D01*
X59212615Y14787238D01*
X59166904Y14676880D01*
X59143600Y14559725D01*
X59143600Y14440275D01*
X59166904Y14323120D01*
X59212615Y14212762D01*
X59278978Y14113443D01*
X59343001Y14049420D01*
X59343000Y10269992D01*
X59343000Y10168585D01*
X58456417Y9282000D01*
X58327000Y9282000D01*
X58327000Y16050000D01*
X58325520Y16065022D01*
X58318135Y16102148D01*
X58430802Y16166726D01*
X58545686Y16266841D01*
X58638831Y16387445D01*
X58706657Y16523904D01*
X58743500Y16655787D01*
X59446500Y16655787D01*
X59483343Y16523904D01*
X59551169Y16387445D01*
X59644314Y16266841D01*
X59759198Y16166726D01*
X59891406Y16090947D01*
X60035857Y16042417D01*
X60187000Y16023000D01*
X60587000Y16023000D01*
X60587000Y16777000D01*
X60633000Y16777000D01*
X60633000Y16023000D01*
X61033000Y16023000D01*
X61184143Y16042417D01*
X61328594Y16090947D01*
X61460802Y16166726D01*
X61575686Y16266841D01*
X61668831Y16387445D01*
X61736657Y16523904D01*
X61773500Y16655787D01*
X61704869Y16777000D01*
X60633000Y16777000D01*
X60587000Y16777000D01*
X59515131Y16777000D01*
X59446500Y16655787D01*
X58743500Y16655787D01*
X58674869Y16777000D01*
X57253000Y16777000D01*
X57253000Y16757000D01*
X57207000Y16757000D01*
X57207000Y16777000D01*
X55785131Y16777000D01*
X55716500Y16655787D01*
X55753343Y16523904D01*
X55821169Y16387445D01*
X55867852Y16327000D01*
X55700000Y16327000D01*
X55684978Y16325520D01*
X55608441Y16310296D01*
X55593997Y16305915D01*
X55580683Y16298799D01*
X55515799Y16255444D01*
X55504131Y16245868D01*
X55494556Y16234201D01*
X55451201Y16169317D01*
X55444086Y16156004D01*
X55439704Y16141559D01*
X55424480Y16065022D01*
X55423000Y16050000D01*
X7452000Y16050000D01*
X7452000Y16944213D01*
X55716500Y16944213D01*
X55785131Y16823000D01*
X57207000Y16823000D01*
X57207000Y17577000D01*
X57253000Y17577000D01*
X57253000Y16823000D01*
X58674869Y16823000D01*
X58743500Y16944213D01*
X59446500Y16944213D01*
X59515131Y16823000D01*
X60587000Y16823000D01*
X60587000Y17577000D01*
X60633000Y17577000D01*
X60633000Y16823000D01*
X61704869Y16823000D01*
X61773500Y16944213D01*
X61736657Y17076096D01*
X61668831Y17212555D01*
X61575686Y17333159D01*
X61460802Y17433274D01*
X61328594Y17509053D01*
X61184143Y17557583D01*
X61033000Y17577000D01*
X60633000Y17577000D01*
X60587000Y17577000D01*
X60187000Y17577000D01*
X60035857Y17557583D01*
X59891406Y17509053D01*
X59759198Y17433274D01*
X59644314Y17333159D01*
X59551169Y17212555D01*
X59483343Y17076096D01*
X59446500Y16944213D01*
X58743500Y16944213D01*
X58706657Y17076096D01*
X58638831Y17212555D01*
X58545686Y17333159D01*
X58430802Y17433274D01*
X58298594Y17509053D01*
X58154143Y17557583D01*
X58003000Y17577000D01*
X57253000Y17577000D01*
X57207000Y17577000D01*
X56457000Y17577000D01*
X56305857Y17557583D01*
X56161406Y17509053D01*
X56029198Y17433274D01*
X55914314Y17333159D01*
X55821169Y17212555D01*
X55753343Y17076096D01*
X55716500Y16944213D01*
X7452000Y16944213D01*
X7452000Y17615021D01*
X7471022Y17634043D01*
X7537385Y17733362D01*
X7583096Y17843720D01*
X7606400Y17960875D01*
X7606400Y18080325D01*
X7583096Y18197480D01*
X7537385Y18307838D01*
X7471022Y18407157D01*
X7452000Y18426179D01*
X7452000Y19106075D01*
X21423000Y19106075D01*
X21423000Y18893925D01*
X21464389Y18685851D01*
X21545575Y18489849D01*
X21663440Y18313453D01*
X21813453Y18163440D01*
X21989849Y18045575D01*
X22185851Y17964389D01*
X22393925Y17923000D01*
X22606075Y17923000D01*
X22814149Y17964389D01*
X23010151Y18045575D01*
X23186547Y18163440D01*
X23336560Y18313453D01*
X23454425Y18489849D01*
X23535611Y18685851D01*
X23577000Y18893925D01*
X23577000Y19106075D01*
X23535611Y19314149D01*
X23454425Y19510151D01*
X23336560Y19686547D01*
X23186547Y19836560D01*
X23010151Y19954425D01*
X22814149Y20035611D01*
X22606075Y20077000D01*
X22393925Y20077000D01*
X22185851Y20035611D01*
X21989849Y19954425D01*
X21813453Y19836560D01*
X21663440Y19686547D01*
X21545575Y19510151D01*
X21464389Y19314149D01*
X21423000Y19106075D01*
X7452000Y19106075D01*
X7452000Y20873821D01*
X7471022Y20892843D01*
X7537385Y20992162D01*
X7583096Y21102520D01*
X7606400Y21219675D01*
X7606400Y21339125D01*
X7583096Y21456280D01*
X7537385Y21566638D01*
X7471022Y21665957D01*
X7386557Y21750422D01*
X7365189Y21764700D01*
X7386557Y21778978D01*
X7471022Y21863443D01*
X7537385Y21962762D01*
X7583096Y22073120D01*
X7606400Y22190275D01*
X7606400Y22309725D01*
X7583096Y22426880D01*
X7537385Y22537238D01*
X7471022Y22636557D01*
X7386557Y22721022D01*
X7343188Y22750000D01*
X7386557Y22778978D01*
X7471022Y22863443D01*
X7537385Y22962762D01*
X7583096Y23073120D01*
X7606400Y23190275D01*
X7606400Y23309725D01*
X7583096Y23426880D01*
X7537385Y23537238D01*
X7471022Y23636557D01*
X7386557Y23721022D01*
X7287238Y23787385D01*
X7176880Y23833096D01*
X7059725Y23856400D01*
X6940275Y23856400D01*
X6823120Y23833096D01*
X6712762Y23787385D01*
X6613443Y23721022D01*
X6594421Y23702000D01*
X6272204Y23702000D01*
X6249999Y23704187D01*
X6161392Y23695460D01*
X6076190Y23669614D01*
X5997667Y23627643D01*
X5928841Y23571159D01*
X5914685Y23553910D01*
X5196100Y22835323D01*
X5178841Y22821159D01*
X5122358Y22752333D01*
X5080386Y22673809D01*
X5054540Y22588607D01*
X5045813Y22500000D01*
X5048000Y22477795D01*
X5048001Y16636609D01*
X5037385Y16662238D01*
X4971022Y16761557D01*
X4886557Y16846022D01*
X4787238Y16912385D01*
X4676880Y16958096D01*
X4559725Y16981400D01*
X4440275Y16981400D01*
X4323120Y16958096D01*
X4212762Y16912385D01*
X4113443Y16846022D01*
X4028978Y16761557D01*
X3962615Y16662238D01*
X3916904Y16551880D01*
X3893600Y16434725D01*
X2512000Y16434725D01*
X2512000Y16609673D01*
X2473110Y16805190D01*
X2396823Y16989362D01*
X2286072Y17155113D01*
X2145113Y17296072D01*
X1979362Y17406823D01*
X1795190Y17483110D01*
X1599673Y17522000D01*
X1400327Y17522000D01*
X1204810Y17483110D01*
X1020638Y17406823D01*
X854887Y17296072D01*
X713928Y17155113D01*
X603177Y16989362D01*
X526890Y16805190D01*
X488000Y16609673D01*
X377000Y16609673D01*
X377000Y19149673D01*
X488000Y19149673D01*
X488000Y18950327D01*
X526890Y18754810D01*
X603177Y18570638D01*
X713928Y18404887D01*
X854887Y18263928D01*
X1020638Y18153177D01*
X1204810Y18076890D01*
X1400327Y18038000D01*
X1599673Y18038000D01*
X1795190Y18076890D01*
X1979362Y18153177D01*
X2145113Y18263928D01*
X2286072Y18404887D01*
X2396823Y18570638D01*
X2473110Y18754810D01*
X2512000Y18950327D01*
X2512000Y19149673D01*
X2473110Y19345190D01*
X2396823Y19529362D01*
X2286072Y19695113D01*
X2145113Y19836072D01*
X1979362Y19946823D01*
X1795190Y20023110D01*
X1599673Y20062000D01*
X1400327Y20062000D01*
X1204810Y20023110D01*
X1020638Y19946823D01*
X854887Y19836072D01*
X713928Y19695113D01*
X603177Y19529362D01*
X526890Y19345190D01*
X488000Y19149673D01*
X377000Y19149673D01*
X377000Y21689673D01*
X488000Y21689673D01*
X488000Y21490327D01*
X526890Y21294810D01*
X603177Y21110638D01*
X713928Y20944887D01*
X854887Y20803928D01*
X1020638Y20693177D01*
X1204810Y20616890D01*
X1400327Y20578000D01*
X1599673Y20578000D01*
X1795190Y20616890D01*
X1979362Y20693177D01*
X2145113Y20803928D01*
X2286072Y20944887D01*
X2396823Y21110638D01*
X2473110Y21294810D01*
X2512000Y21490327D01*
X2512000Y21689673D01*
X2473110Y21885190D01*
X2396823Y22069362D01*
X2286072Y22235113D01*
X2145113Y22376072D01*
X1979362Y22486823D01*
X1795190Y22563110D01*
X1599673Y22602000D01*
X1400327Y22602000D01*
X1204810Y22563110D01*
X1020638Y22486823D01*
X854887Y22376072D01*
X713928Y22235113D01*
X603177Y22069362D01*
X526890Y21885190D01*
X488000Y21689673D01*
X377000Y21689673D01*
X377000Y23445000D01*
X486418Y23445000D01*
X492732Y23380897D01*
X511430Y23319257D01*
X541794Y23262450D01*
X582657Y23212657D01*
X632450Y23171794D01*
X689257Y23141430D01*
X750897Y23122732D01*
X815000Y23116418D01*
X1295250Y23118000D01*
X1377000Y23199750D01*
X1377000Y24007000D01*
X1623000Y24007000D01*
X1623000Y23199750D01*
X1704750Y23118000D01*
X2185000Y23116418D01*
X2249103Y23122732D01*
X2310743Y23141430D01*
X2367550Y23171794D01*
X2417343Y23212657D01*
X2458206Y23262450D01*
X2488570Y23319257D01*
X2507268Y23380897D01*
X2513582Y23445000D01*
X2512000Y23925250D01*
X2430250Y24007000D01*
X1623000Y24007000D01*
X1377000Y24007000D01*
X569750Y24007000D01*
X488000Y23925250D01*
X486418Y23445000D01*
X377000Y23445000D01*
X377000Y24815000D01*
X486418Y24815000D01*
X488000Y24334750D01*
X569750Y24253000D01*
X1377000Y24253000D01*
X1377000Y25060250D01*
X1623000Y25060250D01*
X1623000Y24253000D01*
X2430250Y24253000D01*
X2512000Y24334750D01*
X2512741Y24559725D01*
X14393600Y24559725D01*
X14393600Y24440275D01*
X14416904Y24323120D01*
X14462615Y24212762D01*
X14528978Y24113443D01*
X14613443Y24028978D01*
X14712762Y23962615D01*
X14823120Y23916904D01*
X14940275Y23893600D01*
X15059725Y23893600D01*
X15176880Y23916904D01*
X15287238Y23962615D01*
X15386557Y24028978D01*
X15405579Y24048000D01*
X21521488Y24048000D01*
X21545575Y23989849D01*
X21663440Y23813453D01*
X21813453Y23663440D01*
X21989849Y23545575D01*
X22185851Y23464389D01*
X22393925Y23423000D01*
X22606075Y23423000D01*
X22814149Y23464389D01*
X23010151Y23545575D01*
X23186547Y23663440D01*
X23336560Y23813453D01*
X23454425Y23989849D01*
X23535611Y24185851D01*
X23577000Y24393925D01*
X23577000Y24606075D01*
X23535611Y24814149D01*
X23454425Y25010151D01*
X23336560Y25186547D01*
X23186547Y25336560D01*
X23010151Y25454425D01*
X22814149Y25535611D01*
X22606075Y25577000D01*
X22393925Y25577000D01*
X22185851Y25535611D01*
X21989849Y25454425D01*
X21813453Y25336560D01*
X21663440Y25186547D01*
X21545575Y25010151D01*
X21521488Y24952000D01*
X15405579Y24952000D01*
X15386557Y24971022D01*
X15287238Y25037385D01*
X15176880Y25083096D01*
X15059725Y25106400D01*
X14940275Y25106400D01*
X14823120Y25083096D01*
X14712762Y25037385D01*
X14613443Y24971022D01*
X14528978Y24886557D01*
X14462615Y24787238D01*
X14416904Y24676880D01*
X14393600Y24559725D01*
X2512741Y24559725D01*
X2513582Y24815000D01*
X2507268Y24879103D01*
X2488570Y24940743D01*
X2458206Y24997550D01*
X2417343Y25047343D01*
X2367550Y25088206D01*
X2310743Y25118570D01*
X2249103Y25137268D01*
X2185000Y25143582D01*
X1704750Y25142000D01*
X1623000Y25060250D01*
X1377000Y25060250D01*
X1295250Y25142000D01*
X815000Y25143582D01*
X750897Y25137268D01*
X689257Y25118570D01*
X632450Y25088206D01*
X582657Y25047343D01*
X541794Y24997550D01*
X511430Y24940743D01*
X492732Y24879103D01*
X486418Y24815000D01*
X377000Y24815000D01*
X377000Y28981559D01*
X438251Y29606246D01*
X445633Y29630698D01*
X15173000Y29630698D01*
X15173000Y29369302D01*
X15223996Y29112928D01*
X15324028Y28871430D01*
X15469252Y28654087D01*
X15654087Y28469252D01*
X15871430Y28324028D01*
X16112928Y28223996D01*
X16369302Y28173000D01*
X16630698Y28173000D01*
X16887072Y28223996D01*
X17128570Y28324028D01*
X17345913Y28469252D01*
X17530748Y28654087D01*
X17675972Y28871430D01*
X17776004Y29112928D01*
X17827000Y29369302D01*
X17827000Y29606075D01*
X21423000Y29606075D01*
X21423000Y29393925D01*
X21464389Y29185851D01*
X21545575Y28989849D01*
X21663440Y28813453D01*
X21813453Y28663440D01*
X21989849Y28545575D01*
X22185851Y28464389D01*
X22393925Y28423000D01*
X22606075Y28423000D01*
X22814149Y28464389D01*
X23010151Y28545575D01*
X23186547Y28663440D01*
X23336560Y28813453D01*
X23454425Y28989849D01*
X23535611Y29185851D01*
X23577000Y29393925D01*
X23577000Y29606075D01*
X23535611Y29814149D01*
X23454425Y30010151D01*
X23373878Y30130698D01*
X54173000Y30130698D01*
X54173000Y29869302D01*
X54223996Y29612928D01*
X54324028Y29371430D01*
X54469252Y29154087D01*
X54654087Y28969252D01*
X54871430Y28824028D01*
X55112928Y28723996D01*
X55369302Y28673000D01*
X55630698Y28673000D01*
X55887072Y28723996D01*
X56128570Y28824028D01*
X56345913Y28969252D01*
X56530748Y29154087D01*
X56675972Y29371430D01*
X56776004Y29612928D01*
X56827000Y29869302D01*
X56827000Y30130698D01*
X56776004Y30387072D01*
X56675972Y30628570D01*
X56530748Y30845913D01*
X56345913Y31030748D01*
X56128570Y31175972D01*
X55887072Y31276004D01*
X55630698Y31327000D01*
X55369302Y31327000D01*
X55112928Y31276004D01*
X54871430Y31175972D01*
X54654087Y31030748D01*
X54469252Y30845913D01*
X54324028Y30628570D01*
X54223996Y30387072D01*
X54173000Y30130698D01*
X23373878Y30130698D01*
X23336560Y30186547D01*
X23186547Y30336560D01*
X23010151Y30454425D01*
X22814149Y30535611D01*
X22606075Y30577000D01*
X22393925Y30577000D01*
X22185851Y30535611D01*
X21989849Y30454425D01*
X21813453Y30336560D01*
X21663440Y30186547D01*
X21545575Y30010151D01*
X21464389Y29814149D01*
X21423000Y29606075D01*
X17827000Y29606075D01*
X17827000Y29630698D01*
X17776004Y29887072D01*
X17675972Y30128570D01*
X17530748Y30345913D01*
X17345913Y30530748D01*
X17128570Y30675972D01*
X16887072Y30776004D01*
X16630698Y30827000D01*
X16369302Y30827000D01*
X16112928Y30776004D01*
X15871430Y30675972D01*
X15654087Y30530748D01*
X15469252Y30345913D01*
X15324028Y30128570D01*
X15223996Y29887072D01*
X15173000Y29630698D01*
X445633Y29630698D01*
X614313Y30189392D01*
X900293Y30727241D01*
X1285291Y31199297D01*
X1754650Y31587585D01*
X2290488Y31877312D01*
X2872394Y32057442D01*
X3495978Y32122983D01*
X3500736Y32123000D01*
X61481559Y32123000D01*
X62106246Y32061749D01*
G37*
G04 #@! TD.AperFunction*
M02*
