G04 #@! TF.GenerationSoftware,KiCad,Pcbnew,(5.1.8)-1*
G04 #@! TF.CreationDate,2020-11-12T22:50:39-08:00*
G04 #@! TF.ProjectId,IRIS-power,49524953-2d70-46f7-9765-722e6b696361,rev?*
G04 #@! TF.SameCoordinates,Original*
G04 #@! TF.FileFunction,Paste,Top*
G04 #@! TF.FilePolarity,Positive*
%FSLAX46Y46*%
G04 Gerber Fmt 4.6, Leading zero omitted, Abs format (unit mm)*
G04 Created by KiCad (PCBNEW (5.1.8)-1) date 2020-11-12 22:50:39*
%MOMM*%
%LPD*%
G01*
G04 APERTURE LIST*
%ADD10C,0.100000*%
%ADD11R,1.600000X0.300000*%
%ADD12R,1.200000X0.200000*%
%ADD13R,1.000000X0.800000*%
%ADD14R,1.000000X2.300000*%
%ADD15R,3.500000X2.000000*%
%ADD16R,1.100000X0.250000*%
%ADD17R,1.600000X2.300000*%
%ADD18R,0.800000X0.900000*%
%ADD19R,1.060000X0.650000*%
%ADD20R,0.900000X0.800000*%
%ADD21R,0.650000X1.220000*%
G04 APERTURE END LIST*
D10*
G36*
X11950000Y19200000D02*
G01*
X11950000Y20400000D01*
X12850000Y20400000D01*
X12850000Y19200000D01*
X11950000Y19200000D01*
G37*
X11950000Y19200000D02*
X11950000Y20400000D01*
X12850000Y20400000D01*
X12850000Y19200000D01*
X11950000Y19200000D01*
G36*
X10650000Y19200000D02*
G01*
X10650000Y20400000D01*
X11550000Y20400000D01*
X11550000Y19200000D01*
X10650000Y19200000D01*
G37*
X10650000Y19200000D02*
X10650000Y20400000D01*
X11550000Y20400000D01*
X11550000Y19200000D01*
X10650000Y19200000D01*
G36*
X11950000Y17600000D02*
G01*
X11950000Y18800000D01*
X12850000Y18800000D01*
X12850000Y17600000D01*
X11950000Y17600000D01*
G37*
X11950000Y17600000D02*
X11950000Y18800000D01*
X12850000Y18800000D01*
X12850000Y17600000D01*
X11950000Y17600000D01*
G36*
X10650000Y17600000D02*
G01*
X10650000Y18800000D01*
X11550000Y18800000D01*
X11550000Y17600000D01*
X10650000Y17600000D01*
G37*
X10650000Y17600000D02*
X10650000Y18800000D01*
X11550000Y18800000D01*
X11550000Y17600000D01*
X10650000Y17600000D01*
G36*
X10300000Y-18050000D02*
G01*
X9800000Y-18050000D01*
X9800000Y-17250000D01*
X10300000Y-17250000D01*
X10300000Y-18050000D01*
G37*
X10300000Y-18050000D02*
X9800000Y-18050000D01*
X9800000Y-17250000D01*
X10300000Y-17250000D01*
X10300000Y-18050000D01*
G36*
X11200000Y-18050000D02*
G01*
X10700000Y-18050000D01*
X10700000Y-17250000D01*
X11200000Y-17250000D01*
X11200000Y-18050000D01*
G37*
X11200000Y-18050000D02*
X10700000Y-18050000D01*
X10700000Y-17250000D01*
X11200000Y-17250000D01*
X11200000Y-18050000D01*
G36*
X10300000Y-19250000D02*
G01*
X9800000Y-19250000D01*
X9800000Y-18450000D01*
X10300000Y-18450000D01*
X10300000Y-19250000D01*
G37*
X10300000Y-19250000D02*
X9800000Y-19250000D01*
X9800000Y-18450000D01*
X10300000Y-18450000D01*
X10300000Y-19250000D01*
G36*
X11200000Y-19250000D02*
G01*
X10700000Y-19250000D01*
X10700000Y-18450000D01*
X11200000Y-18450000D01*
X11200000Y-19250000D01*
G37*
X11200000Y-19250000D02*
X10700000Y-19250000D01*
X10700000Y-18450000D01*
X11200000Y-18450000D01*
X11200000Y-19250000D01*
G36*
X57500000Y-2700000D02*
G01*
X57500000Y-3550000D01*
X56950000Y-3550000D01*
X56950000Y-2700000D01*
X57500000Y-2700000D01*
G37*
X57500000Y-2700000D02*
X57500000Y-3550000D01*
X56950000Y-3550000D01*
X56950000Y-2700000D01*
X57500000Y-2700000D01*
G36*
X57500000Y-1450000D02*
G01*
X57500000Y-2300000D01*
X56950000Y-2300000D01*
X56950000Y-1450000D01*
X57500000Y-1450000D01*
G37*
X57500000Y-1450000D02*
X57500000Y-2300000D01*
X56950000Y-2300000D01*
X56950000Y-1450000D01*
X57500000Y-1450000D01*
G36*
X56550000Y-2700000D02*
G01*
X56550000Y-3550000D01*
X56000000Y-3550000D01*
X56000000Y-2700000D01*
X56550000Y-2700000D01*
G37*
X56550000Y-2700000D02*
X56550000Y-3550000D01*
X56000000Y-3550000D01*
X56000000Y-2700000D01*
X56550000Y-2700000D01*
G36*
X56550000Y-1450000D02*
G01*
X56550000Y-2300000D01*
X56000000Y-2300000D01*
X56000000Y-1450000D01*
X56550000Y-1450000D01*
G37*
X56550000Y-1450000D02*
X56550000Y-2300000D01*
X56000000Y-2300000D01*
X56000000Y-1450000D01*
X56550000Y-1450000D01*
G36*
X55600000Y-2650000D02*
G01*
X55600000Y-3150000D01*
X54550000Y-3150000D01*
X54550000Y-2650000D01*
X55600000Y-2650000D01*
G37*
X55600000Y-2650000D02*
X55600000Y-3150000D01*
X54550000Y-3150000D01*
X54550000Y-2650000D01*
X55600000Y-2650000D01*
G36*
X55600000Y-1850000D02*
G01*
X55600000Y-2350000D01*
X54550000Y-2350000D01*
X54550000Y-1850000D01*
X55600000Y-1850000D01*
G37*
X55600000Y-1850000D02*
X55600000Y-2350000D01*
X54550000Y-2350000D01*
X54550000Y-1850000D01*
X55600000Y-1850000D01*
G36*
X58950000Y-2650000D02*
G01*
X58950000Y-3150000D01*
X57900000Y-3150000D01*
X57900000Y-2650000D01*
X58950000Y-2650000D01*
G37*
X58950000Y-2650000D02*
X58950000Y-3150000D01*
X57900000Y-3150000D01*
X57900000Y-2650000D01*
X58950000Y-2650000D01*
G36*
X58950000Y-1850000D02*
G01*
X58950000Y-2350000D01*
X57900000Y-2350000D01*
X57900000Y-1850000D01*
X58950000Y-1850000D01*
G37*
X58950000Y-1850000D02*
X58950000Y-2350000D01*
X57900000Y-2350000D01*
X57900000Y-1850000D01*
X58950000Y-1850000D01*
D11*
X14550000Y22575000D03*
X14550000Y21925000D03*
X14550000Y21275000D03*
X14550000Y20625000D03*
X14550000Y19975000D03*
X14550000Y19325000D03*
X14550000Y18675000D03*
X14550000Y18025000D03*
X14550000Y17375000D03*
X14550000Y16725000D03*
X14550000Y16075000D03*
X14550000Y15425000D03*
X8950000Y15425000D03*
X8950000Y16075000D03*
X8950000Y16725000D03*
X8950000Y17375000D03*
X8950000Y18025000D03*
X8950000Y18675000D03*
X8950000Y19325000D03*
X8950000Y19975000D03*
X8950000Y20625000D03*
X8950000Y21275000D03*
X8950000Y21925000D03*
X8950000Y22575000D03*
D12*
X12225000Y-17050000D03*
X12225000Y-17450000D03*
X12225000Y-17850000D03*
X12225000Y-18250000D03*
X12225000Y-18650000D03*
X12225000Y-19050000D03*
X12225000Y-19450000D03*
X8775000Y-19450000D03*
X8775000Y-19050000D03*
X8775000Y-18650000D03*
X8775000Y-18250000D03*
X8775000Y-17850000D03*
X8775000Y-17450000D03*
X8775000Y-17050000D03*
G36*
G01*
X58320000Y-500000D02*
X58040000Y-500000D01*
G75*
G02*
X58005000Y-465000I0J35000D01*
G01*
X58005000Y865000D01*
G75*
G02*
X58040000Y900000I35000J0D01*
G01*
X58320000Y900000D01*
G75*
G02*
X58355000Y865000I0J-35000D01*
G01*
X58355000Y-465000D01*
G75*
G02*
X58320000Y-500000I-35000J0D01*
G01*
G37*
G36*
G01*
X57670000Y-500000D02*
X57390000Y-500000D01*
G75*
G02*
X57355000Y-465000I0J35000D01*
G01*
X57355000Y865000D01*
G75*
G02*
X57390000Y900000I35000J0D01*
G01*
X57670000Y900000D01*
G75*
G02*
X57705000Y865000I0J-35000D01*
G01*
X57705000Y-465000D01*
G75*
G02*
X57670000Y-500000I-35000J0D01*
G01*
G37*
G36*
G01*
X57020000Y-500000D02*
X56740000Y-500000D01*
G75*
G02*
X56705000Y-465000I0J35000D01*
G01*
X56705000Y865000D01*
G75*
G02*
X56740000Y900000I35000J0D01*
G01*
X57020000Y900000D01*
G75*
G02*
X57055000Y865000I0J-35000D01*
G01*
X57055000Y-465000D01*
G75*
G02*
X57020000Y-500000I-35000J0D01*
G01*
G37*
G36*
G01*
X56370000Y-500000D02*
X56090000Y-500000D01*
G75*
G02*
X56055000Y-465000I0J35000D01*
G01*
X56055000Y865000D01*
G75*
G02*
X56090000Y900000I35000J0D01*
G01*
X56370000Y900000D01*
G75*
G02*
X56405000Y865000I0J-35000D01*
G01*
X56405000Y-465000D01*
G75*
G02*
X56370000Y-500000I-35000J0D01*
G01*
G37*
G36*
G01*
X55720000Y-500000D02*
X55440000Y-500000D01*
G75*
G02*
X55405000Y-465000I0J35000D01*
G01*
X55405000Y865000D01*
G75*
G02*
X55440000Y900000I35000J0D01*
G01*
X55720000Y900000D01*
G75*
G02*
X55755000Y865000I0J-35000D01*
G01*
X55755000Y-465000D01*
G75*
G02*
X55720000Y-500000I-35000J0D01*
G01*
G37*
G36*
G01*
X55720000Y-5900000D02*
X55440000Y-5900000D01*
G75*
G02*
X55405000Y-5865000I0J35000D01*
G01*
X55405000Y-4535000D01*
G75*
G02*
X55440000Y-4500000I35000J0D01*
G01*
X55720000Y-4500000D01*
G75*
G02*
X55755000Y-4535000I0J-35000D01*
G01*
X55755000Y-5865000D01*
G75*
G02*
X55720000Y-5900000I-35000J0D01*
G01*
G37*
G36*
G01*
X56370000Y-5900000D02*
X56090000Y-5900000D01*
G75*
G02*
X56055000Y-5865000I0J35000D01*
G01*
X56055000Y-4535000D01*
G75*
G02*
X56090000Y-4500000I35000J0D01*
G01*
X56370000Y-4500000D01*
G75*
G02*
X56405000Y-4535000I0J-35000D01*
G01*
X56405000Y-5865000D01*
G75*
G02*
X56370000Y-5900000I-35000J0D01*
G01*
G37*
G36*
G01*
X57020000Y-5900000D02*
X56740000Y-5900000D01*
G75*
G02*
X56705000Y-5865000I0J35000D01*
G01*
X56705000Y-4535000D01*
G75*
G02*
X56740000Y-4500000I35000J0D01*
G01*
X57020000Y-4500000D01*
G75*
G02*
X57055000Y-4535000I0J-35000D01*
G01*
X57055000Y-5865000D01*
G75*
G02*
X57020000Y-5900000I-35000J0D01*
G01*
G37*
G36*
G01*
X57670000Y-5900000D02*
X57390000Y-5900000D01*
G75*
G02*
X57355000Y-5865000I0J35000D01*
G01*
X57355000Y-4535000D01*
G75*
G02*
X57390000Y-4500000I35000J0D01*
G01*
X57670000Y-4500000D01*
G75*
G02*
X57705000Y-4535000I0J-35000D01*
G01*
X57705000Y-5865000D01*
G75*
G02*
X57670000Y-5900000I-35000J0D01*
G01*
G37*
G36*
G01*
X58320000Y-5900000D02*
X58040000Y-5900000D01*
G75*
G02*
X58005000Y-5865000I0J35000D01*
G01*
X58005000Y-4535000D01*
G75*
G02*
X58040000Y-4500000I35000J0D01*
G01*
X58320000Y-4500000D01*
G75*
G02*
X58355000Y-4535000I0J-35000D01*
G01*
X58355000Y-5865000D01*
G75*
G02*
X58320000Y-5900000I-35000J0D01*
G01*
G37*
G36*
G01*
X54805000Y-1200000D02*
X54405000Y-1200000D01*
G75*
G02*
X54355000Y-1150000I0J50000D01*
G01*
X54355000Y850000D01*
G75*
G02*
X54405000Y900000I50000J0D01*
G01*
X54805000Y900000D01*
G75*
G02*
X54855000Y850000I0J-50000D01*
G01*
X54855000Y-1150000D01*
G75*
G02*
X54805000Y-1200000I-50000J0D01*
G01*
G37*
G36*
G01*
X59105000Y-1200000D02*
X58705000Y-1200000D01*
G75*
G02*
X58655000Y-1150000I0J50000D01*
G01*
X58655000Y850000D01*
G75*
G02*
X58705000Y900000I50000J0D01*
G01*
X59105000Y900000D01*
G75*
G02*
X59155000Y850000I0J-50000D01*
G01*
X59155000Y-1150000D01*
G75*
G02*
X59105000Y-1200000I-50000J0D01*
G01*
G37*
G36*
G01*
X54805000Y-5900000D02*
X54405000Y-5900000D01*
G75*
G02*
X54355000Y-5850000I0J50000D01*
G01*
X54355000Y-3850000D01*
G75*
G02*
X54405000Y-3800000I50000J0D01*
G01*
X54805000Y-3800000D01*
G75*
G02*
X54855000Y-3850000I0J-50000D01*
G01*
X54855000Y-5850000D01*
G75*
G02*
X54805000Y-5900000I-50000J0D01*
G01*
G37*
G36*
G01*
X59105000Y-5900000D02*
X58705000Y-5900000D01*
G75*
G02*
X58655000Y-5850000I0J50000D01*
G01*
X58655000Y-3850000D01*
G75*
G02*
X58705000Y-3800000I50000J0D01*
G01*
X59105000Y-3800000D01*
G75*
G02*
X59155000Y-3850000I0J-50000D01*
G01*
X59155000Y-5850000D01*
G75*
G02*
X59105000Y-5900000I-50000J0D01*
G01*
G37*
D13*
X9650000Y-21150000D03*
X11350000Y-21150000D03*
D14*
X9650000Y-23100000D03*
X11350000Y-23100000D03*
G36*
G01*
X13575000Y-9975000D02*
X13575000Y-10525000D01*
G75*
G02*
X13375000Y-10725000I-200000J0D01*
G01*
X12975000Y-10725000D01*
G75*
G02*
X12775000Y-10525000I0J200000D01*
G01*
X12775000Y-9975000D01*
G75*
G02*
X12975000Y-9775000I200000J0D01*
G01*
X13375000Y-9775000D01*
G75*
G02*
X13575000Y-9975000I0J-200000D01*
G01*
G37*
G36*
G01*
X15225000Y-9975000D02*
X15225000Y-10525000D01*
G75*
G02*
X15025000Y-10725000I-200000J0D01*
G01*
X14625000Y-10725000D01*
G75*
G02*
X14425000Y-10525000I0J200000D01*
G01*
X14425000Y-9975000D01*
G75*
G02*
X14625000Y-9775000I200000J0D01*
G01*
X15025000Y-9775000D01*
G75*
G02*
X15225000Y-9975000I0J-200000D01*
G01*
G37*
G36*
G01*
X13575000Y-11725000D02*
X13575000Y-12275000D01*
G75*
G02*
X13375000Y-12475000I-200000J0D01*
G01*
X12975000Y-12475000D01*
G75*
G02*
X12775000Y-12275000I0J200000D01*
G01*
X12775000Y-11725000D01*
G75*
G02*
X12975000Y-11525000I200000J0D01*
G01*
X13375000Y-11525000D01*
G75*
G02*
X13575000Y-11725000I0J-200000D01*
G01*
G37*
G36*
G01*
X15225000Y-11725000D02*
X15225000Y-12275000D01*
G75*
G02*
X15025000Y-12475000I-200000J0D01*
G01*
X14625000Y-12475000D01*
G75*
G02*
X14425000Y-12275000I0J200000D01*
G01*
X14425000Y-11725000D01*
G75*
G02*
X14625000Y-11525000I200000J0D01*
G01*
X15025000Y-11525000D01*
G75*
G02*
X15225000Y-11725000I0J-200000D01*
G01*
G37*
G36*
G01*
X16425000Y-15775000D02*
X16425000Y-15225000D01*
G75*
G02*
X16625000Y-15025000I200000J0D01*
G01*
X17025000Y-15025000D01*
G75*
G02*
X17225000Y-15225000I0J-200000D01*
G01*
X17225000Y-15775000D01*
G75*
G02*
X17025000Y-15975000I-200000J0D01*
G01*
X16625000Y-15975000D01*
G75*
G02*
X16425000Y-15775000I0J200000D01*
G01*
G37*
G36*
G01*
X14775000Y-15775000D02*
X14775000Y-15225000D01*
G75*
G02*
X14975000Y-15025000I200000J0D01*
G01*
X15375000Y-15025000D01*
G75*
G02*
X15575000Y-15225000I0J-200000D01*
G01*
X15575000Y-15775000D01*
G75*
G02*
X15375000Y-15975000I-200000J0D01*
G01*
X14975000Y-15975000D01*
G75*
G02*
X14775000Y-15775000I0J200000D01*
G01*
G37*
G36*
G01*
X16425000Y-13775000D02*
X16425000Y-13225000D01*
G75*
G02*
X16625000Y-13025000I200000J0D01*
G01*
X17025000Y-13025000D01*
G75*
G02*
X17225000Y-13225000I0J-200000D01*
G01*
X17225000Y-13775000D01*
G75*
G02*
X17025000Y-13975000I-200000J0D01*
G01*
X16625000Y-13975000D01*
G75*
G02*
X16425000Y-13775000I0J200000D01*
G01*
G37*
G36*
G01*
X14775000Y-13775000D02*
X14775000Y-13225000D01*
G75*
G02*
X14975000Y-13025000I200000J0D01*
G01*
X15375000Y-13025000D01*
G75*
G02*
X15575000Y-13225000I0J-200000D01*
G01*
X15575000Y-13775000D01*
G75*
G02*
X15375000Y-13975000I-200000J0D01*
G01*
X14975000Y-13975000D01*
G75*
G02*
X14775000Y-13775000I0J200000D01*
G01*
G37*
G36*
G01*
X55675000Y2725000D02*
X55675000Y3275000D01*
G75*
G02*
X55875000Y3475000I200000J0D01*
G01*
X56275000Y3475000D01*
G75*
G02*
X56475000Y3275000I0J-200000D01*
G01*
X56475000Y2725000D01*
G75*
G02*
X56275000Y2525000I-200000J0D01*
G01*
X55875000Y2525000D01*
G75*
G02*
X55675000Y2725000I0J200000D01*
G01*
G37*
G36*
G01*
X54025000Y2725000D02*
X54025000Y3275000D01*
G75*
G02*
X54225000Y3475000I200000J0D01*
G01*
X54625000Y3475000D01*
G75*
G02*
X54825000Y3275000I0J-200000D01*
G01*
X54825000Y2725000D01*
G75*
G02*
X54625000Y2525000I-200000J0D01*
G01*
X54225000Y2525000D01*
G75*
G02*
X54025000Y2725000I0J200000D01*
G01*
G37*
G36*
G01*
X58925000Y2725000D02*
X58925000Y3275000D01*
G75*
G02*
X59125000Y3475000I200000J0D01*
G01*
X59525000Y3475000D01*
G75*
G02*
X59725000Y3275000I0J-200000D01*
G01*
X59725000Y2725000D01*
G75*
G02*
X59525000Y2525000I-200000J0D01*
G01*
X59125000Y2525000D01*
G75*
G02*
X58925000Y2725000I0J200000D01*
G01*
G37*
G36*
G01*
X57275000Y2725000D02*
X57275000Y3275000D01*
G75*
G02*
X57475000Y3475000I200000J0D01*
G01*
X57875000Y3475000D01*
G75*
G02*
X58075000Y3275000I0J-200000D01*
G01*
X58075000Y2725000D01*
G75*
G02*
X57875000Y2525000I-200000J0D01*
G01*
X57475000Y2525000D01*
G75*
G02*
X57275000Y2725000I0J200000D01*
G01*
G37*
G36*
G01*
X4925000Y16975000D02*
X4925000Y17525000D01*
G75*
G02*
X5125000Y17725000I200000J0D01*
G01*
X5525000Y17725000D01*
G75*
G02*
X5725000Y17525000I0J-200000D01*
G01*
X5725000Y16975000D01*
G75*
G02*
X5525000Y16775000I-200000J0D01*
G01*
X5125000Y16775000D01*
G75*
G02*
X4925000Y16975000I0J200000D01*
G01*
G37*
G36*
G01*
X3275000Y16975000D02*
X3275000Y17525000D01*
G75*
G02*
X3475000Y17725000I200000J0D01*
G01*
X3875000Y17725000D01*
G75*
G02*
X4075000Y17525000I0J-200000D01*
G01*
X4075000Y16975000D01*
G75*
G02*
X3875000Y16775000I-200000J0D01*
G01*
X3475000Y16775000D01*
G75*
G02*
X3275000Y16975000I0J200000D01*
G01*
G37*
G36*
G01*
X4075000Y19275000D02*
X4075000Y18725000D01*
G75*
G02*
X3875000Y18525000I-200000J0D01*
G01*
X3475000Y18525000D01*
G75*
G02*
X3275000Y18725000I0J200000D01*
G01*
X3275000Y19275000D01*
G75*
G02*
X3475000Y19475000I200000J0D01*
G01*
X3875000Y19475000D01*
G75*
G02*
X4075000Y19275000I0J-200000D01*
G01*
G37*
G36*
G01*
X5725000Y19275000D02*
X5725000Y18725000D01*
G75*
G02*
X5525000Y18525000I-200000J0D01*
G01*
X5125000Y18525000D01*
G75*
G02*
X4925000Y18725000I0J200000D01*
G01*
X4925000Y19275000D01*
G75*
G02*
X5125000Y19475000I200000J0D01*
G01*
X5525000Y19475000D01*
G75*
G02*
X5725000Y19275000I0J-200000D01*
G01*
G37*
G36*
G01*
X23775000Y9925000D02*
X23225000Y9925000D01*
G75*
G02*
X23025000Y10125000I0J200000D01*
G01*
X23025000Y10525000D01*
G75*
G02*
X23225000Y10725000I200000J0D01*
G01*
X23775000Y10725000D01*
G75*
G02*
X23975000Y10525000I0J-200000D01*
G01*
X23975000Y10125000D01*
G75*
G02*
X23775000Y9925000I-200000J0D01*
G01*
G37*
G36*
G01*
X23775000Y8275000D02*
X23225000Y8275000D01*
G75*
G02*
X23025000Y8475000I0J200000D01*
G01*
X23025000Y8875000D01*
G75*
G02*
X23225000Y9075000I200000J0D01*
G01*
X23775000Y9075000D01*
G75*
G02*
X23975000Y8875000I0J-200000D01*
G01*
X23975000Y8475000D01*
G75*
G02*
X23775000Y8275000I-200000J0D01*
G01*
G37*
G36*
G01*
X4925000Y23975000D02*
X4925000Y24525000D01*
G75*
G02*
X5125000Y24725000I200000J0D01*
G01*
X5525000Y24725000D01*
G75*
G02*
X5725000Y24525000I0J-200000D01*
G01*
X5725000Y23975000D01*
G75*
G02*
X5525000Y23775000I-200000J0D01*
G01*
X5125000Y23775000D01*
G75*
G02*
X4925000Y23975000I0J200000D01*
G01*
G37*
G36*
G01*
X3275000Y23975000D02*
X3275000Y24525000D01*
G75*
G02*
X3475000Y24725000I200000J0D01*
G01*
X3875000Y24725000D01*
G75*
G02*
X4075000Y24525000I0J-200000D01*
G01*
X4075000Y23975000D01*
G75*
G02*
X3875000Y23775000I-200000J0D01*
G01*
X3475000Y23775000D01*
G75*
G02*
X3275000Y23975000I0J200000D01*
G01*
G37*
G36*
G01*
X4925000Y22225000D02*
X4925000Y22775000D01*
G75*
G02*
X5125000Y22975000I200000J0D01*
G01*
X5525000Y22975000D01*
G75*
G02*
X5725000Y22775000I0J-200000D01*
G01*
X5725000Y22225000D01*
G75*
G02*
X5525000Y22025000I-200000J0D01*
G01*
X5125000Y22025000D01*
G75*
G02*
X4925000Y22225000I0J200000D01*
G01*
G37*
G36*
G01*
X3275000Y22225000D02*
X3275000Y22775000D01*
G75*
G02*
X3475000Y22975000I200000J0D01*
G01*
X3875000Y22975000D01*
G75*
G02*
X4075000Y22775000I0J-200000D01*
G01*
X4075000Y22225000D01*
G75*
G02*
X3875000Y22025000I-200000J0D01*
G01*
X3475000Y22025000D01*
G75*
G02*
X3275000Y22225000I0J200000D01*
G01*
G37*
G36*
G01*
X4925000Y13475000D02*
X4925000Y14025000D01*
G75*
G02*
X5125000Y14225000I200000J0D01*
G01*
X5525000Y14225000D01*
G75*
G02*
X5725000Y14025000I0J-200000D01*
G01*
X5725000Y13475000D01*
G75*
G02*
X5525000Y13275000I-200000J0D01*
G01*
X5125000Y13275000D01*
G75*
G02*
X4925000Y13475000I0J200000D01*
G01*
G37*
G36*
G01*
X3275000Y13475000D02*
X3275000Y14025000D01*
G75*
G02*
X3475000Y14225000I200000J0D01*
G01*
X3875000Y14225000D01*
G75*
G02*
X4075000Y14025000I0J-200000D01*
G01*
X4075000Y13475000D01*
G75*
G02*
X3875000Y13275000I-200000J0D01*
G01*
X3475000Y13275000D01*
G75*
G02*
X3275000Y13475000I0J200000D01*
G01*
G37*
G36*
G01*
X4075000Y12275000D02*
X4075000Y11725000D01*
G75*
G02*
X3875000Y11525000I-200000J0D01*
G01*
X3475000Y11525000D01*
G75*
G02*
X3275000Y11725000I0J200000D01*
G01*
X3275000Y12275000D01*
G75*
G02*
X3475000Y12475000I200000J0D01*
G01*
X3875000Y12475000D01*
G75*
G02*
X4075000Y12275000I0J-200000D01*
G01*
G37*
G36*
G01*
X5725000Y12275000D02*
X5725000Y11725000D01*
G75*
G02*
X5525000Y11525000I-200000J0D01*
G01*
X5125000Y11525000D01*
G75*
G02*
X4925000Y11725000I0J200000D01*
G01*
X4925000Y12275000D01*
G75*
G02*
X5125000Y12475000I200000J0D01*
G01*
X5525000Y12475000D01*
G75*
G02*
X5725000Y12275000I0J-200000D01*
G01*
G37*
G36*
G01*
X4075000Y15775000D02*
X4075000Y15225000D01*
G75*
G02*
X3875000Y15025000I-200000J0D01*
G01*
X3475000Y15025000D01*
G75*
G02*
X3275000Y15225000I0J200000D01*
G01*
X3275000Y15775000D01*
G75*
G02*
X3475000Y15975000I200000J0D01*
G01*
X3875000Y15975000D01*
G75*
G02*
X4075000Y15775000I0J-200000D01*
G01*
G37*
G36*
G01*
X5725000Y15775000D02*
X5725000Y15225000D01*
G75*
G02*
X5525000Y15025000I-200000J0D01*
G01*
X5125000Y15025000D01*
G75*
G02*
X4925000Y15225000I0J200000D01*
G01*
X4925000Y15775000D01*
G75*
G02*
X5125000Y15975000I200000J0D01*
G01*
X5525000Y15975000D01*
G75*
G02*
X5725000Y15775000I0J-200000D01*
G01*
G37*
G36*
G01*
X9675000Y5225000D02*
X9675000Y5775000D01*
G75*
G02*
X9875000Y5975000I200000J0D01*
G01*
X10275000Y5975000D01*
G75*
G02*
X10475000Y5775000I0J-200000D01*
G01*
X10475000Y5225000D01*
G75*
G02*
X10275000Y5025000I-200000J0D01*
G01*
X9875000Y5025000D01*
G75*
G02*
X9675000Y5225000I0J200000D01*
G01*
G37*
G36*
G01*
X8025000Y5225000D02*
X8025000Y5775000D01*
G75*
G02*
X8225000Y5975000I200000J0D01*
G01*
X8625000Y5975000D01*
G75*
G02*
X8825000Y5775000I0J-200000D01*
G01*
X8825000Y5225000D01*
G75*
G02*
X8625000Y5025000I-200000J0D01*
G01*
X8225000Y5025000D01*
G75*
G02*
X8025000Y5225000I0J200000D01*
G01*
G37*
G36*
G01*
X53775000Y21925000D02*
X53225000Y21925000D01*
G75*
G02*
X53025000Y22125000I0J200000D01*
G01*
X53025000Y22525000D01*
G75*
G02*
X53225000Y22725000I200000J0D01*
G01*
X53775000Y22725000D01*
G75*
G02*
X53975000Y22525000I0J-200000D01*
G01*
X53975000Y22125000D01*
G75*
G02*
X53775000Y21925000I-200000J0D01*
G01*
G37*
G36*
G01*
X53775000Y20275000D02*
X53225000Y20275000D01*
G75*
G02*
X53025000Y20475000I0J200000D01*
G01*
X53025000Y20875000D01*
G75*
G02*
X53225000Y21075000I200000J0D01*
G01*
X53775000Y21075000D01*
G75*
G02*
X53975000Y20875000I0J-200000D01*
G01*
X53975000Y20475000D01*
G75*
G02*
X53775000Y20275000I-200000J0D01*
G01*
G37*
G36*
G01*
X53475000Y7325000D02*
X54025000Y7325000D01*
G75*
G02*
X54225000Y7125000I0J-200000D01*
G01*
X54225000Y6725000D01*
G75*
G02*
X54025000Y6525000I-200000J0D01*
G01*
X53475000Y6525000D01*
G75*
G02*
X53275000Y6725000I0J200000D01*
G01*
X53275000Y7125000D01*
G75*
G02*
X53475000Y7325000I200000J0D01*
G01*
G37*
G36*
G01*
X53475000Y8975000D02*
X54025000Y8975000D01*
G75*
G02*
X54225000Y8775000I0J-200000D01*
G01*
X54225000Y8375000D01*
G75*
G02*
X54025000Y8175000I-200000J0D01*
G01*
X53475000Y8175000D01*
G75*
G02*
X53275000Y8375000I0J200000D01*
G01*
X53275000Y8775000D01*
G75*
G02*
X53475000Y8975000I200000J0D01*
G01*
G37*
G36*
G01*
X54025000Y16425000D02*
X53475000Y16425000D01*
G75*
G02*
X53275000Y16625000I0J200000D01*
G01*
X53275000Y17025000D01*
G75*
G02*
X53475000Y17225000I200000J0D01*
G01*
X54025000Y17225000D01*
G75*
G02*
X54225000Y17025000I0J-200000D01*
G01*
X54225000Y16625000D01*
G75*
G02*
X54025000Y16425000I-200000J0D01*
G01*
G37*
G36*
G01*
X54025000Y14775000D02*
X53475000Y14775000D01*
G75*
G02*
X53275000Y14975000I0J200000D01*
G01*
X53275000Y15375000D01*
G75*
G02*
X53475000Y15575000I200000J0D01*
G01*
X54025000Y15575000D01*
G75*
G02*
X54225000Y15375000I0J-200000D01*
G01*
X54225000Y14975000D01*
G75*
G02*
X54025000Y14775000I-200000J0D01*
G01*
G37*
G36*
G01*
X56675000Y26225000D02*
X56675000Y26775000D01*
G75*
G02*
X56875000Y26975000I200000J0D01*
G01*
X57275000Y26975000D01*
G75*
G02*
X57475000Y26775000I0J-200000D01*
G01*
X57475000Y26225000D01*
G75*
G02*
X57275000Y26025000I-200000J0D01*
G01*
X56875000Y26025000D01*
G75*
G02*
X56675000Y26225000I0J200000D01*
G01*
G37*
G36*
G01*
X55025000Y26225000D02*
X55025000Y26775000D01*
G75*
G02*
X55225000Y26975000I200000J0D01*
G01*
X55625000Y26975000D01*
G75*
G02*
X55825000Y26775000I0J-200000D01*
G01*
X55825000Y26225000D01*
G75*
G02*
X55625000Y26025000I-200000J0D01*
G01*
X55225000Y26025000D01*
G75*
G02*
X55025000Y26225000I0J200000D01*
G01*
G37*
G36*
G01*
X36775000Y6175000D02*
X36225000Y6175000D01*
G75*
G02*
X36025000Y6375000I0J200000D01*
G01*
X36025000Y6775000D01*
G75*
G02*
X36225000Y6975000I200000J0D01*
G01*
X36775000Y6975000D01*
G75*
G02*
X36975000Y6775000I0J-200000D01*
G01*
X36975000Y6375000D01*
G75*
G02*
X36775000Y6175000I-200000J0D01*
G01*
G37*
G36*
G01*
X36775000Y4525000D02*
X36225000Y4525000D01*
G75*
G02*
X36025000Y4725000I0J200000D01*
G01*
X36025000Y5125000D01*
G75*
G02*
X36225000Y5325000I200000J0D01*
G01*
X36775000Y5325000D01*
G75*
G02*
X36975000Y5125000I0J-200000D01*
G01*
X36975000Y4725000D01*
G75*
G02*
X36775000Y4525000I-200000J0D01*
G01*
G37*
G36*
G01*
X19575000Y11025000D02*
X19575000Y10475000D01*
G75*
G02*
X19375000Y10275000I-200000J0D01*
G01*
X18975000Y10275000D01*
G75*
G02*
X18775000Y10475000I0J200000D01*
G01*
X18775000Y11025000D01*
G75*
G02*
X18975000Y11225000I200000J0D01*
G01*
X19375000Y11225000D01*
G75*
G02*
X19575000Y11025000I0J-200000D01*
G01*
G37*
G36*
G01*
X21225000Y11025000D02*
X21225000Y10475000D01*
G75*
G02*
X21025000Y10275000I-200000J0D01*
G01*
X20625000Y10275000D01*
G75*
G02*
X20425000Y10475000I0J200000D01*
G01*
X20425000Y11025000D01*
G75*
G02*
X20625000Y11225000I200000J0D01*
G01*
X21025000Y11225000D01*
G75*
G02*
X21225000Y11025000I0J-200000D01*
G01*
G37*
G36*
G01*
X29325000Y-7475000D02*
X29325000Y-8025000D01*
G75*
G02*
X29125000Y-8225000I-200000J0D01*
G01*
X28725000Y-8225000D01*
G75*
G02*
X28525000Y-8025000I0J200000D01*
G01*
X28525000Y-7475000D01*
G75*
G02*
X28725000Y-7275000I200000J0D01*
G01*
X29125000Y-7275000D01*
G75*
G02*
X29325000Y-7475000I0J-200000D01*
G01*
G37*
G36*
G01*
X30975000Y-7475000D02*
X30975000Y-8025000D01*
G75*
G02*
X30775000Y-8225000I-200000J0D01*
G01*
X30375000Y-8225000D01*
G75*
G02*
X30175000Y-8025000I0J200000D01*
G01*
X30175000Y-7475000D01*
G75*
G02*
X30375000Y-7275000I200000J0D01*
G01*
X30775000Y-7275000D01*
G75*
G02*
X30975000Y-7475000I0J-200000D01*
G01*
G37*
G36*
G01*
X25650000Y1049998D02*
X25650000Y1950002D01*
G75*
G02*
X25899998Y2200000I249998J0D01*
G01*
X26425002Y2200000D01*
G75*
G02*
X26675000Y1950002I0J-249998D01*
G01*
X26675000Y1049998D01*
G75*
G02*
X26425002Y800000I-249998J0D01*
G01*
X25899998Y800000D01*
G75*
G02*
X25650000Y1049998I0J249998D01*
G01*
G37*
G36*
G01*
X23825000Y1049998D02*
X23825000Y1950002D01*
G75*
G02*
X24074998Y2200000I249998J0D01*
G01*
X24600002Y2200000D01*
G75*
G02*
X24850000Y1950002I0J-249998D01*
G01*
X24850000Y1049998D01*
G75*
G02*
X24600002Y800000I-249998J0D01*
G01*
X24074998Y800000D01*
G75*
G02*
X23825000Y1049998I0J249998D01*
G01*
G37*
G36*
G01*
X24850000Y-299998D02*
X24850000Y-1200002D01*
G75*
G02*
X24600002Y-1450000I-249998J0D01*
G01*
X24074998Y-1450000D01*
G75*
G02*
X23825000Y-1200002I0J249998D01*
G01*
X23825000Y-299998D01*
G75*
G02*
X24074998Y-50000I249998J0D01*
G01*
X24600002Y-50000D01*
G75*
G02*
X24850000Y-299998I0J-249998D01*
G01*
G37*
G36*
G01*
X26675000Y-299998D02*
X26675000Y-1200002D01*
G75*
G02*
X26425002Y-1450000I-249998J0D01*
G01*
X25899998Y-1450000D01*
G75*
G02*
X25650000Y-1200002I0J249998D01*
G01*
X25650000Y-299998D01*
G75*
G02*
X25899998Y-50000I249998J0D01*
G01*
X26425002Y-50000D01*
G75*
G02*
X26675000Y-299998I0J-249998D01*
G01*
G37*
G36*
G01*
X6500000Y-18575000D02*
X7000000Y-18575000D01*
G75*
G02*
X7225000Y-18800000I0J-225000D01*
G01*
X7225000Y-19250000D01*
G75*
G02*
X7000000Y-19475000I-225000J0D01*
G01*
X6500000Y-19475000D01*
G75*
G02*
X6275000Y-19250000I0J225000D01*
G01*
X6275000Y-18800000D01*
G75*
G02*
X6500000Y-18575000I225000J0D01*
G01*
G37*
G36*
G01*
X6500000Y-17025000D02*
X7000000Y-17025000D01*
G75*
G02*
X7225000Y-17250000I0J-225000D01*
G01*
X7225000Y-17700000D01*
G75*
G02*
X7000000Y-17925000I-225000J0D01*
G01*
X6500000Y-17925000D01*
G75*
G02*
X6275000Y-17700000I0J225000D01*
G01*
X6275000Y-17250000D01*
G75*
G02*
X6500000Y-17025000I225000J0D01*
G01*
G37*
G36*
G01*
X14500000Y-18575000D02*
X15000000Y-18575000D01*
G75*
G02*
X15225000Y-18800000I0J-225000D01*
G01*
X15225000Y-19250000D01*
G75*
G02*
X15000000Y-19475000I-225000J0D01*
G01*
X14500000Y-19475000D01*
G75*
G02*
X14275000Y-19250000I0J225000D01*
G01*
X14275000Y-18800000D01*
G75*
G02*
X14500000Y-18575000I225000J0D01*
G01*
G37*
G36*
G01*
X14500000Y-17025000D02*
X15000000Y-17025000D01*
G75*
G02*
X15225000Y-17250000I0J-225000D01*
G01*
X15225000Y-17700000D01*
G75*
G02*
X15000000Y-17925000I-225000J0D01*
G01*
X14500000Y-17925000D01*
G75*
G02*
X14275000Y-17700000I0J225000D01*
G01*
X14275000Y-17250000D01*
G75*
G02*
X14500000Y-17025000I225000J0D01*
G01*
G37*
G36*
G01*
X61000000Y-4175000D02*
X60500000Y-4175000D01*
G75*
G02*
X60275000Y-3950000I0J225000D01*
G01*
X60275000Y-3500000D01*
G75*
G02*
X60500000Y-3275000I225000J0D01*
G01*
X61000000Y-3275000D01*
G75*
G02*
X61225000Y-3500000I0J-225000D01*
G01*
X61225000Y-3950000D01*
G75*
G02*
X61000000Y-4175000I-225000J0D01*
G01*
G37*
G36*
G01*
X61000000Y-5725000D02*
X60500000Y-5725000D01*
G75*
G02*
X60275000Y-5500000I0J225000D01*
G01*
X60275000Y-5050000D01*
G75*
G02*
X60500000Y-4825000I225000J0D01*
G01*
X61000000Y-4825000D01*
G75*
G02*
X61225000Y-5050000I0J-225000D01*
G01*
X61225000Y-5500000D01*
G75*
G02*
X61000000Y-5725000I-225000J0D01*
G01*
G37*
G36*
G01*
X60500000Y-825000D02*
X61000000Y-825000D01*
G75*
G02*
X61225000Y-1050000I0J-225000D01*
G01*
X61225000Y-1500000D01*
G75*
G02*
X61000000Y-1725000I-225000J0D01*
G01*
X60500000Y-1725000D01*
G75*
G02*
X60275000Y-1500000I0J225000D01*
G01*
X60275000Y-1050000D01*
G75*
G02*
X60500000Y-825000I225000J0D01*
G01*
G37*
G36*
G01*
X60500000Y725000D02*
X61000000Y725000D01*
G75*
G02*
X61225000Y500000I0J-225000D01*
G01*
X61225000Y50000D01*
G75*
G02*
X61000000Y-175000I-225000J0D01*
G01*
X60500000Y-175000D01*
G75*
G02*
X60275000Y50000I0J225000D01*
G01*
X60275000Y500000D01*
G75*
G02*
X60500000Y725000I225000J0D01*
G01*
G37*
G36*
G01*
X17825000Y25000000D02*
X17825000Y25500000D01*
G75*
G02*
X18050000Y25725000I225000J0D01*
G01*
X18500000Y25725000D01*
G75*
G02*
X18725000Y25500000I0J-225000D01*
G01*
X18725000Y25000000D01*
G75*
G02*
X18500000Y24775000I-225000J0D01*
G01*
X18050000Y24775000D01*
G75*
G02*
X17825000Y25000000I0J225000D01*
G01*
G37*
G36*
G01*
X16275000Y25000000D02*
X16275000Y25500000D01*
G75*
G02*
X16500000Y25725000I225000J0D01*
G01*
X16950000Y25725000D01*
G75*
G02*
X17175000Y25500000I0J-225000D01*
G01*
X17175000Y25000000D01*
G75*
G02*
X16950000Y24775000I-225000J0D01*
G01*
X16500000Y24775000D01*
G75*
G02*
X16275000Y25000000I0J225000D01*
G01*
G37*
G36*
G01*
X4175000Y21000000D02*
X4175000Y20500000D01*
G75*
G02*
X3950000Y20275000I-225000J0D01*
G01*
X3500000Y20275000D01*
G75*
G02*
X3275000Y20500000I0J225000D01*
G01*
X3275000Y21000000D01*
G75*
G02*
X3500000Y21225000I225000J0D01*
G01*
X3950000Y21225000D01*
G75*
G02*
X4175000Y21000000I0J-225000D01*
G01*
G37*
G36*
G01*
X5725000Y21000000D02*
X5725000Y20500000D01*
G75*
G02*
X5500000Y20275000I-225000J0D01*
G01*
X5050000Y20275000D01*
G75*
G02*
X4825000Y20500000I0J225000D01*
G01*
X4825000Y21000000D01*
G75*
G02*
X5050000Y21225000I225000J0D01*
G01*
X5500000Y21225000D01*
G75*
G02*
X5725000Y21000000I0J-225000D01*
G01*
G37*
G36*
G01*
X8925000Y3750000D02*
X8925000Y3250000D01*
G75*
G02*
X8700000Y3025000I-225000J0D01*
G01*
X8250000Y3025000D01*
G75*
G02*
X8025000Y3250000I0J225000D01*
G01*
X8025000Y3750000D01*
G75*
G02*
X8250000Y3975000I225000J0D01*
G01*
X8700000Y3975000D01*
G75*
G02*
X8925000Y3750000I0J-225000D01*
G01*
G37*
G36*
G01*
X10475000Y3750000D02*
X10475000Y3250000D01*
G75*
G02*
X10250000Y3025000I-225000J0D01*
G01*
X9800000Y3025000D01*
G75*
G02*
X9575000Y3250000I0J225000D01*
G01*
X9575000Y3750000D01*
G75*
G02*
X9800000Y3975000I225000J0D01*
G01*
X10250000Y3975000D01*
G75*
G02*
X10475000Y3750000I0J-225000D01*
G01*
G37*
G36*
G01*
X6250000Y825000D02*
X5750000Y825000D01*
G75*
G02*
X5525000Y1050000I0J225000D01*
G01*
X5525000Y1500000D01*
G75*
G02*
X5750000Y1725000I225000J0D01*
G01*
X6250000Y1725000D01*
G75*
G02*
X6475000Y1500000I0J-225000D01*
G01*
X6475000Y1050000D01*
G75*
G02*
X6250000Y825000I-225000J0D01*
G01*
G37*
G36*
G01*
X6250000Y-725000D02*
X5750000Y-725000D01*
G75*
G02*
X5525000Y-500000I0J225000D01*
G01*
X5525000Y-50000D01*
G75*
G02*
X5750000Y175000I225000J0D01*
G01*
X6250000Y175000D01*
G75*
G02*
X6475000Y-50000I0J-225000D01*
G01*
X6475000Y-500000D01*
G75*
G02*
X6250000Y-725000I-225000J0D01*
G01*
G37*
G36*
G01*
X12350000Y13400001D02*
X12350000Y12099999D01*
G75*
G02*
X12100001Y11850000I-249999J0D01*
G01*
X11449999Y11850000D01*
G75*
G02*
X11200000Y12099999I0J249999D01*
G01*
X11200000Y13400001D01*
G75*
G02*
X11449999Y13650000I249999J0D01*
G01*
X12100001Y13650000D01*
G75*
G02*
X12350000Y13400001I0J-249999D01*
G01*
G37*
G36*
G01*
X15300000Y13400001D02*
X15300000Y12099999D01*
G75*
G02*
X15050001Y11850000I-249999J0D01*
G01*
X14399999Y11850000D01*
G75*
G02*
X14150000Y12099999I0J249999D01*
G01*
X14150000Y13400001D01*
G75*
G02*
X14399999Y13650000I249999J0D01*
G01*
X15050001Y13650000D01*
G75*
G02*
X15300000Y13400001I0J-249999D01*
G01*
G37*
G36*
G01*
X55825000Y18750000D02*
X55825000Y19250000D01*
G75*
G02*
X56050000Y19475000I225000J0D01*
G01*
X56500000Y19475000D01*
G75*
G02*
X56725000Y19250000I0J-225000D01*
G01*
X56725000Y18750000D01*
G75*
G02*
X56500000Y18525000I-225000J0D01*
G01*
X56050000Y18525000D01*
G75*
G02*
X55825000Y18750000I0J225000D01*
G01*
G37*
G36*
G01*
X54275000Y18750000D02*
X54275000Y19250000D01*
G75*
G02*
X54500000Y19475000I225000J0D01*
G01*
X54950000Y19475000D01*
G75*
G02*
X55175000Y19250000I0J-225000D01*
G01*
X55175000Y18750000D01*
G75*
G02*
X54950000Y18525000I-225000J0D01*
G01*
X54500000Y18525000D01*
G75*
G02*
X54275000Y18750000I0J225000D01*
G01*
G37*
G36*
G01*
X58675000Y19250000D02*
X58675000Y18750000D01*
G75*
G02*
X58450000Y18525000I-225000J0D01*
G01*
X58000000Y18525000D01*
G75*
G02*
X57775000Y18750000I0J225000D01*
G01*
X57775000Y19250000D01*
G75*
G02*
X58000000Y19475000I225000J0D01*
G01*
X58450000Y19475000D01*
G75*
G02*
X58675000Y19250000I0J-225000D01*
G01*
G37*
G36*
G01*
X60225000Y19250000D02*
X60225000Y18750000D01*
G75*
G02*
X60000000Y18525000I-225000J0D01*
G01*
X59550000Y18525000D01*
G75*
G02*
X59325000Y18750000I0J225000D01*
G01*
X59325000Y19250000D01*
G75*
G02*
X59550000Y19475000I225000J0D01*
G01*
X60000000Y19475000D01*
G75*
G02*
X60225000Y19250000I0J-225000D01*
G01*
G37*
G36*
G01*
X61250000Y19675000D02*
X61750000Y19675000D01*
G75*
G02*
X61975000Y19450000I0J-225000D01*
G01*
X61975000Y19000000D01*
G75*
G02*
X61750000Y18775000I-225000J0D01*
G01*
X61250000Y18775000D01*
G75*
G02*
X61025000Y19000000I0J225000D01*
G01*
X61025000Y19450000D01*
G75*
G02*
X61250000Y19675000I225000J0D01*
G01*
G37*
G36*
G01*
X61250000Y21225000D02*
X61750000Y21225000D01*
G75*
G02*
X61975000Y21000000I0J-225000D01*
G01*
X61975000Y20550000D01*
G75*
G02*
X61750000Y20325000I-225000J0D01*
G01*
X61250000Y20325000D01*
G75*
G02*
X61025000Y20550000I0J225000D01*
G01*
X61025000Y21000000D01*
G75*
G02*
X61250000Y21225000I225000J0D01*
G01*
G37*
G36*
G01*
X46250000Y3675000D02*
X46750000Y3675000D01*
G75*
G02*
X46975000Y3450000I0J-225000D01*
G01*
X46975000Y3000000D01*
G75*
G02*
X46750000Y2775000I-225000J0D01*
G01*
X46250000Y2775000D01*
G75*
G02*
X46025000Y3000000I0J225000D01*
G01*
X46025000Y3450000D01*
G75*
G02*
X46250000Y3675000I225000J0D01*
G01*
G37*
G36*
G01*
X46250000Y5225000D02*
X46750000Y5225000D01*
G75*
G02*
X46975000Y5000000I0J-225000D01*
G01*
X46975000Y4550000D01*
G75*
G02*
X46750000Y4325000I-225000J0D01*
G01*
X46250000Y4325000D01*
G75*
G02*
X46025000Y4550000I0J225000D01*
G01*
X46025000Y5000000D01*
G75*
G02*
X46250000Y5225000I225000J0D01*
G01*
G37*
G36*
G01*
X46750000Y7825000D02*
X46250000Y7825000D01*
G75*
G02*
X46025000Y8050000I0J225000D01*
G01*
X46025000Y8500000D01*
G75*
G02*
X46250000Y8725000I225000J0D01*
G01*
X46750000Y8725000D01*
G75*
G02*
X46975000Y8500000I0J-225000D01*
G01*
X46975000Y8050000D01*
G75*
G02*
X46750000Y7825000I-225000J0D01*
G01*
G37*
G36*
G01*
X46750000Y6275000D02*
X46250000Y6275000D01*
G75*
G02*
X46025000Y6500000I0J225000D01*
G01*
X46025000Y6950000D01*
G75*
G02*
X46250000Y7175000I225000J0D01*
G01*
X46750000Y7175000D01*
G75*
G02*
X46975000Y6950000I0J-225000D01*
G01*
X46975000Y6500000D01*
G75*
G02*
X46750000Y6275000I-225000J0D01*
G01*
G37*
G36*
G01*
X51849999Y-900000D02*
X53150001Y-900000D01*
G75*
G02*
X53400000Y-1149999I0J-249999D01*
G01*
X53400000Y-1800001D01*
G75*
G02*
X53150001Y-2050000I-249999J0D01*
G01*
X51849999Y-2050000D01*
G75*
G02*
X51600000Y-1800001I0J249999D01*
G01*
X51600000Y-1149999D01*
G75*
G02*
X51849999Y-900000I249999J0D01*
G01*
G37*
G36*
G01*
X51849999Y2050000D02*
X53150001Y2050000D01*
G75*
G02*
X53400000Y1800001I0J-249999D01*
G01*
X53400000Y1149999D01*
G75*
G02*
X53150001Y900000I-249999J0D01*
G01*
X51849999Y900000D01*
G75*
G02*
X51600000Y1149999I0J249999D01*
G01*
X51600000Y1800001D01*
G75*
G02*
X51849999Y2050000I249999J0D01*
G01*
G37*
G36*
G01*
X53150001Y-4100000D02*
X51849999Y-4100000D01*
G75*
G02*
X51600000Y-3850001I0J249999D01*
G01*
X51600000Y-3199999D01*
G75*
G02*
X51849999Y-2950000I249999J0D01*
G01*
X53150001Y-2950000D01*
G75*
G02*
X53400000Y-3199999I0J-249999D01*
G01*
X53400000Y-3850001D01*
G75*
G02*
X53150001Y-4100000I-249999J0D01*
G01*
G37*
G36*
G01*
X53150001Y-7050000D02*
X51849999Y-7050000D01*
G75*
G02*
X51600000Y-6800001I0J249999D01*
G01*
X51600000Y-6149999D01*
G75*
G02*
X51849999Y-5900000I249999J0D01*
G01*
X53150001Y-5900000D01*
G75*
G02*
X53400000Y-6149999I0J-249999D01*
G01*
X53400000Y-6800001D01*
G75*
G02*
X53150001Y-7050000I-249999J0D01*
G01*
G37*
G36*
G01*
X43325000Y8250000D02*
X43325000Y8750000D01*
G75*
G02*
X43550000Y8975000I225000J0D01*
G01*
X44000000Y8975000D01*
G75*
G02*
X44225000Y8750000I0J-225000D01*
G01*
X44225000Y8250000D01*
G75*
G02*
X44000000Y8025000I-225000J0D01*
G01*
X43550000Y8025000D01*
G75*
G02*
X43325000Y8250000I0J225000D01*
G01*
G37*
G36*
G01*
X41775000Y8250000D02*
X41775000Y8750000D01*
G75*
G02*
X42000000Y8975000I225000J0D01*
G01*
X42450000Y8975000D01*
G75*
G02*
X42675000Y8750000I0J-225000D01*
G01*
X42675000Y8250000D01*
G75*
G02*
X42450000Y8025000I-225000J0D01*
G01*
X42000000Y8025000D01*
G75*
G02*
X41775000Y8250000I0J225000D01*
G01*
G37*
G36*
G01*
X43325000Y-6000000D02*
X43325000Y-5500000D01*
G75*
G02*
X43550000Y-5275000I225000J0D01*
G01*
X44000000Y-5275000D01*
G75*
G02*
X44225000Y-5500000I0J-225000D01*
G01*
X44225000Y-6000000D01*
G75*
G02*
X44000000Y-6225000I-225000J0D01*
G01*
X43550000Y-6225000D01*
G75*
G02*
X43325000Y-6000000I0J225000D01*
G01*
G37*
G36*
G01*
X41775000Y-6000000D02*
X41775000Y-5500000D01*
G75*
G02*
X42000000Y-5275000I225000J0D01*
G01*
X42450000Y-5275000D01*
G75*
G02*
X42675000Y-5500000I0J-225000D01*
G01*
X42675000Y-6000000D01*
G75*
G02*
X42450000Y-6225000I-225000J0D01*
G01*
X42000000Y-6225000D01*
G75*
G02*
X41775000Y-6000000I0J225000D01*
G01*
G37*
G36*
G01*
X25925000Y-7500000D02*
X25925000Y-8000000D01*
G75*
G02*
X25700000Y-8225000I-225000J0D01*
G01*
X25250000Y-8225000D01*
G75*
G02*
X25025000Y-8000000I0J225000D01*
G01*
X25025000Y-7500000D01*
G75*
G02*
X25250000Y-7275000I225000J0D01*
G01*
X25700000Y-7275000D01*
G75*
G02*
X25925000Y-7500000I0J-225000D01*
G01*
G37*
G36*
G01*
X27475000Y-7500000D02*
X27475000Y-8000000D01*
G75*
G02*
X27250000Y-8225000I-225000J0D01*
G01*
X26800000Y-8225000D01*
G75*
G02*
X26575000Y-8000000I0J225000D01*
G01*
X26575000Y-7500000D01*
G75*
G02*
X26800000Y-7275000I225000J0D01*
G01*
X27250000Y-7275000D01*
G75*
G02*
X27475000Y-7500000I0J-225000D01*
G01*
G37*
G36*
G01*
X25575000Y3250000D02*
X25575000Y3750000D01*
G75*
G02*
X25800000Y3975000I225000J0D01*
G01*
X26250000Y3975000D01*
G75*
G02*
X26475000Y3750000I0J-225000D01*
G01*
X26475000Y3250000D01*
G75*
G02*
X26250000Y3025000I-225000J0D01*
G01*
X25800000Y3025000D01*
G75*
G02*
X25575000Y3250000I0J225000D01*
G01*
G37*
G36*
G01*
X24025000Y3250000D02*
X24025000Y3750000D01*
G75*
G02*
X24250000Y3975000I225000J0D01*
G01*
X24700000Y3975000D01*
G75*
G02*
X24925000Y3750000I0J-225000D01*
G01*
X24925000Y3250000D01*
G75*
G02*
X24700000Y3025000I-225000J0D01*
G01*
X24250000Y3025000D01*
G75*
G02*
X24025000Y3250000I0J225000D01*
G01*
G37*
G36*
G01*
X26500000Y-4675000D02*
X26000000Y-4675000D01*
G75*
G02*
X25775000Y-4450000I0J225000D01*
G01*
X25775000Y-4000000D01*
G75*
G02*
X26000000Y-3775000I225000J0D01*
G01*
X26500000Y-3775000D01*
G75*
G02*
X26725000Y-4000000I0J-225000D01*
G01*
X26725000Y-4450000D01*
G75*
G02*
X26500000Y-4675000I-225000J0D01*
G01*
G37*
G36*
G01*
X26500000Y-6225000D02*
X26000000Y-6225000D01*
G75*
G02*
X25775000Y-6000000I0J225000D01*
G01*
X25775000Y-5550000D01*
G75*
G02*
X26000000Y-5325000I225000J0D01*
G01*
X26500000Y-5325000D01*
G75*
G02*
X26725000Y-5550000I0J-225000D01*
G01*
X26725000Y-6000000D01*
G75*
G02*
X26500000Y-6225000I-225000J0D01*
G01*
G37*
D15*
X36000000Y2500000D03*
X36000000Y-6500000D03*
D16*
X8150000Y7500000D03*
X8150000Y8000000D03*
X8150000Y8500000D03*
X8150000Y9000000D03*
X8150000Y9500000D03*
X3850000Y9500000D03*
X3850000Y9000000D03*
X3850000Y8500000D03*
X3850000Y8000000D03*
X3850000Y7500000D03*
D17*
X18500000Y21250000D03*
X18500000Y16750000D03*
D18*
X12500000Y-13500000D03*
X13450000Y-15500000D03*
X11550000Y-15500000D03*
D19*
X10350000Y-450000D03*
X10350000Y500000D03*
X10350000Y1450000D03*
X8150000Y1450000D03*
X8150000Y-450000D03*
D18*
X61550000Y22500000D03*
X63450000Y22500000D03*
X62500000Y24500000D03*
G36*
G01*
X59625000Y21562500D02*
X59625000Y21437500D01*
G75*
G02*
X59562500Y21375000I-62500J0D01*
G01*
X58862500Y21375000D01*
G75*
G02*
X58800000Y21437500I0J62500D01*
G01*
X58800000Y21562500D01*
G75*
G02*
X58862500Y21625000I62500J0D01*
G01*
X59562500Y21625000D01*
G75*
G02*
X59625000Y21562500I0J-62500D01*
G01*
G37*
G36*
G01*
X59625000Y22062500D02*
X59625000Y21937500D01*
G75*
G02*
X59562500Y21875000I-62500J0D01*
G01*
X58862500Y21875000D01*
G75*
G02*
X58800000Y21937500I0J62500D01*
G01*
X58800000Y22062500D01*
G75*
G02*
X58862500Y22125000I62500J0D01*
G01*
X59562500Y22125000D01*
G75*
G02*
X59625000Y22062500I0J-62500D01*
G01*
G37*
G36*
G01*
X59625000Y22562500D02*
X59625000Y22437500D01*
G75*
G02*
X59562500Y22375000I-62500J0D01*
G01*
X58862500Y22375000D01*
G75*
G02*
X58800000Y22437500I0J62500D01*
G01*
X58800000Y22562500D01*
G75*
G02*
X58862500Y22625000I62500J0D01*
G01*
X59562500Y22625000D01*
G75*
G02*
X59625000Y22562500I0J-62500D01*
G01*
G37*
G36*
G01*
X59625000Y23062500D02*
X59625000Y22937500D01*
G75*
G02*
X59562500Y22875000I-62500J0D01*
G01*
X58862500Y22875000D01*
G75*
G02*
X58800000Y22937500I0J62500D01*
G01*
X58800000Y23062500D01*
G75*
G02*
X58862500Y23125000I62500J0D01*
G01*
X59562500Y23125000D01*
G75*
G02*
X59625000Y23062500I0J-62500D01*
G01*
G37*
G36*
G01*
X59625000Y23562500D02*
X59625000Y23437500D01*
G75*
G02*
X59562500Y23375000I-62500J0D01*
G01*
X58862500Y23375000D01*
G75*
G02*
X58800000Y23437500I0J62500D01*
G01*
X58800000Y23562500D01*
G75*
G02*
X58862500Y23625000I62500J0D01*
G01*
X59562500Y23625000D01*
G75*
G02*
X59625000Y23562500I0J-62500D01*
G01*
G37*
G36*
G01*
X59625000Y24062500D02*
X59625000Y23937500D01*
G75*
G02*
X59562500Y23875000I-62500J0D01*
G01*
X58862500Y23875000D01*
G75*
G02*
X58800000Y23937500I0J62500D01*
G01*
X58800000Y24062500D01*
G75*
G02*
X58862500Y24125000I62500J0D01*
G01*
X59562500Y24125000D01*
G75*
G02*
X59625000Y24062500I0J-62500D01*
G01*
G37*
G36*
G01*
X58625000Y25062500D02*
X58625000Y24362500D01*
G75*
G02*
X58562500Y24300000I-62500J0D01*
G01*
X58437500Y24300000D01*
G75*
G02*
X58375000Y24362500I0J62500D01*
G01*
X58375000Y25062500D01*
G75*
G02*
X58437500Y25125000I62500J0D01*
G01*
X58562500Y25125000D01*
G75*
G02*
X58625000Y25062500I0J-62500D01*
G01*
G37*
G36*
G01*
X58125000Y25062500D02*
X58125000Y24362500D01*
G75*
G02*
X58062500Y24300000I-62500J0D01*
G01*
X57937500Y24300000D01*
G75*
G02*
X57875000Y24362500I0J62500D01*
G01*
X57875000Y25062500D01*
G75*
G02*
X57937500Y25125000I62500J0D01*
G01*
X58062500Y25125000D01*
G75*
G02*
X58125000Y25062500I0J-62500D01*
G01*
G37*
G36*
G01*
X57625000Y25062500D02*
X57625000Y24362500D01*
G75*
G02*
X57562500Y24300000I-62500J0D01*
G01*
X57437500Y24300000D01*
G75*
G02*
X57375000Y24362500I0J62500D01*
G01*
X57375000Y25062500D01*
G75*
G02*
X57437500Y25125000I62500J0D01*
G01*
X57562500Y25125000D01*
G75*
G02*
X57625000Y25062500I0J-62500D01*
G01*
G37*
G36*
G01*
X57125000Y25062500D02*
X57125000Y24362500D01*
G75*
G02*
X57062500Y24300000I-62500J0D01*
G01*
X56937500Y24300000D01*
G75*
G02*
X56875000Y24362500I0J62500D01*
G01*
X56875000Y25062500D01*
G75*
G02*
X56937500Y25125000I62500J0D01*
G01*
X57062500Y25125000D01*
G75*
G02*
X57125000Y25062500I0J-62500D01*
G01*
G37*
G36*
G01*
X56625000Y25062500D02*
X56625000Y24362500D01*
G75*
G02*
X56562500Y24300000I-62500J0D01*
G01*
X56437500Y24300000D01*
G75*
G02*
X56375000Y24362500I0J62500D01*
G01*
X56375000Y25062500D01*
G75*
G02*
X56437500Y25125000I62500J0D01*
G01*
X56562500Y25125000D01*
G75*
G02*
X56625000Y25062500I0J-62500D01*
G01*
G37*
G36*
G01*
X56125000Y25062500D02*
X56125000Y24362500D01*
G75*
G02*
X56062500Y24300000I-62500J0D01*
G01*
X55937500Y24300000D01*
G75*
G02*
X55875000Y24362500I0J62500D01*
G01*
X55875000Y25062500D01*
G75*
G02*
X55937500Y25125000I62500J0D01*
G01*
X56062500Y25125000D01*
G75*
G02*
X56125000Y25062500I0J-62500D01*
G01*
G37*
G36*
G01*
X55700000Y24062500D02*
X55700000Y23937500D01*
G75*
G02*
X55637500Y23875000I-62500J0D01*
G01*
X54937500Y23875000D01*
G75*
G02*
X54875000Y23937500I0J62500D01*
G01*
X54875000Y24062500D01*
G75*
G02*
X54937500Y24125000I62500J0D01*
G01*
X55637500Y24125000D01*
G75*
G02*
X55700000Y24062500I0J-62500D01*
G01*
G37*
G36*
G01*
X55700000Y23562500D02*
X55700000Y23437500D01*
G75*
G02*
X55637500Y23375000I-62500J0D01*
G01*
X54937500Y23375000D01*
G75*
G02*
X54875000Y23437500I0J62500D01*
G01*
X54875000Y23562500D01*
G75*
G02*
X54937500Y23625000I62500J0D01*
G01*
X55637500Y23625000D01*
G75*
G02*
X55700000Y23562500I0J-62500D01*
G01*
G37*
G36*
G01*
X55700000Y23062500D02*
X55700000Y22937500D01*
G75*
G02*
X55637500Y22875000I-62500J0D01*
G01*
X54937500Y22875000D01*
G75*
G02*
X54875000Y22937500I0J62500D01*
G01*
X54875000Y23062500D01*
G75*
G02*
X54937500Y23125000I62500J0D01*
G01*
X55637500Y23125000D01*
G75*
G02*
X55700000Y23062500I0J-62500D01*
G01*
G37*
G36*
G01*
X55700000Y22562500D02*
X55700000Y22437500D01*
G75*
G02*
X55637500Y22375000I-62500J0D01*
G01*
X54937500Y22375000D01*
G75*
G02*
X54875000Y22437500I0J62500D01*
G01*
X54875000Y22562500D01*
G75*
G02*
X54937500Y22625000I62500J0D01*
G01*
X55637500Y22625000D01*
G75*
G02*
X55700000Y22562500I0J-62500D01*
G01*
G37*
G36*
G01*
X55700000Y22062500D02*
X55700000Y21937500D01*
G75*
G02*
X55637500Y21875000I-62500J0D01*
G01*
X54937500Y21875000D01*
G75*
G02*
X54875000Y21937500I0J62500D01*
G01*
X54875000Y22062500D01*
G75*
G02*
X54937500Y22125000I62500J0D01*
G01*
X55637500Y22125000D01*
G75*
G02*
X55700000Y22062500I0J-62500D01*
G01*
G37*
G36*
G01*
X55700000Y21562500D02*
X55700000Y21437500D01*
G75*
G02*
X55637500Y21375000I-62500J0D01*
G01*
X54937500Y21375000D01*
G75*
G02*
X54875000Y21437500I0J62500D01*
G01*
X54875000Y21562500D01*
G75*
G02*
X54937500Y21625000I62500J0D01*
G01*
X55637500Y21625000D01*
G75*
G02*
X55700000Y21562500I0J-62500D01*
G01*
G37*
G36*
G01*
X56125000Y21137500D02*
X56125000Y20437500D01*
G75*
G02*
X56062500Y20375000I-62500J0D01*
G01*
X55937500Y20375000D01*
G75*
G02*
X55875000Y20437500I0J62500D01*
G01*
X55875000Y21137500D01*
G75*
G02*
X55937500Y21200000I62500J0D01*
G01*
X56062500Y21200000D01*
G75*
G02*
X56125000Y21137500I0J-62500D01*
G01*
G37*
G36*
G01*
X56625000Y21137500D02*
X56625000Y20437500D01*
G75*
G02*
X56562500Y20375000I-62500J0D01*
G01*
X56437500Y20375000D01*
G75*
G02*
X56375000Y20437500I0J62500D01*
G01*
X56375000Y21137500D01*
G75*
G02*
X56437500Y21200000I62500J0D01*
G01*
X56562500Y21200000D01*
G75*
G02*
X56625000Y21137500I0J-62500D01*
G01*
G37*
G36*
G01*
X57125000Y21137500D02*
X57125000Y20437500D01*
G75*
G02*
X57062500Y20375000I-62500J0D01*
G01*
X56937500Y20375000D01*
G75*
G02*
X56875000Y20437500I0J62500D01*
G01*
X56875000Y21137500D01*
G75*
G02*
X56937500Y21200000I62500J0D01*
G01*
X57062500Y21200000D01*
G75*
G02*
X57125000Y21137500I0J-62500D01*
G01*
G37*
G36*
G01*
X57625000Y21137500D02*
X57625000Y20437500D01*
G75*
G02*
X57562500Y20375000I-62500J0D01*
G01*
X57437500Y20375000D01*
G75*
G02*
X57375000Y20437500I0J62500D01*
G01*
X57375000Y21137500D01*
G75*
G02*
X57437500Y21200000I62500J0D01*
G01*
X57562500Y21200000D01*
G75*
G02*
X57625000Y21137500I0J-62500D01*
G01*
G37*
G36*
G01*
X58125000Y21137500D02*
X58125000Y20437500D01*
G75*
G02*
X58062500Y20375000I-62500J0D01*
G01*
X57937500Y20375000D01*
G75*
G02*
X57875000Y20437500I0J62500D01*
G01*
X57875000Y21137500D01*
G75*
G02*
X57937500Y21200000I62500J0D01*
G01*
X58062500Y21200000D01*
G75*
G02*
X58125000Y21137500I0J-62500D01*
G01*
G37*
G36*
G01*
X58625000Y21137500D02*
X58625000Y20437500D01*
G75*
G02*
X58562500Y20375000I-62500J0D01*
G01*
X58437500Y20375000D01*
G75*
G02*
X58375000Y20437500I0J62500D01*
G01*
X58375000Y21137500D01*
G75*
G02*
X58437500Y21200000I62500J0D01*
G01*
X58562500Y21200000D01*
G75*
G02*
X58625000Y21137500I0J-62500D01*
G01*
G37*
G36*
G01*
X58470000Y22370001D02*
X58470000Y21779999D01*
G75*
G02*
X58220001Y21530000I-249999J0D01*
G01*
X57629999Y21530000D01*
G75*
G02*
X57380000Y21779999I0J249999D01*
G01*
X57380000Y22370001D01*
G75*
G02*
X57629999Y22620000I249999J0D01*
G01*
X58220001Y22620000D01*
G75*
G02*
X58470000Y22370001I0J-249999D01*
G01*
G37*
G36*
G01*
X58470000Y23720001D02*
X58470000Y23129999D01*
G75*
G02*
X58220001Y22880000I-249999J0D01*
G01*
X57629999Y22880000D01*
G75*
G02*
X57380000Y23129999I0J249999D01*
G01*
X57380000Y23720001D01*
G75*
G02*
X57629999Y23970000I249999J0D01*
G01*
X58220001Y23970000D01*
G75*
G02*
X58470000Y23720001I0J-249999D01*
G01*
G37*
G36*
G01*
X57120000Y22370001D02*
X57120000Y21779999D01*
G75*
G02*
X56870001Y21530000I-249999J0D01*
G01*
X56279999Y21530000D01*
G75*
G02*
X56030000Y21779999I0J249999D01*
G01*
X56030000Y22370001D01*
G75*
G02*
X56279999Y22620000I249999J0D01*
G01*
X56870001Y22620000D01*
G75*
G02*
X57120000Y22370001I0J-249999D01*
G01*
G37*
G36*
G01*
X57120000Y23720001D02*
X57120000Y23129999D01*
G75*
G02*
X56870001Y22880000I-249999J0D01*
G01*
X56279999Y22880000D01*
G75*
G02*
X56030000Y23129999I0J249999D01*
G01*
X56030000Y23720001D01*
G75*
G02*
X56279999Y23970000I249999J0D01*
G01*
X56870001Y23970000D01*
G75*
G02*
X57120000Y23720001I0J-249999D01*
G01*
G37*
G36*
G01*
X37900000Y6625000D02*
X37900000Y6825000D01*
G75*
G02*
X38000000Y6925000I100000J0D01*
G01*
X39275000Y6925000D01*
G75*
G02*
X39375000Y6825000I0J-100000D01*
G01*
X39375000Y6625000D01*
G75*
G02*
X39275000Y6525000I-100000J0D01*
G01*
X38000000Y6525000D01*
G75*
G02*
X37900000Y6625000I0J100000D01*
G01*
G37*
G36*
G01*
X37900000Y5975000D02*
X37900000Y6175000D01*
G75*
G02*
X38000000Y6275000I100000J0D01*
G01*
X39275000Y6275000D01*
G75*
G02*
X39375000Y6175000I0J-100000D01*
G01*
X39375000Y5975000D01*
G75*
G02*
X39275000Y5875000I-100000J0D01*
G01*
X38000000Y5875000D01*
G75*
G02*
X37900000Y5975000I0J100000D01*
G01*
G37*
G36*
G01*
X37900000Y5325000D02*
X37900000Y5525000D01*
G75*
G02*
X38000000Y5625000I100000J0D01*
G01*
X39275000Y5625000D01*
G75*
G02*
X39375000Y5525000I0J-100000D01*
G01*
X39375000Y5325000D01*
G75*
G02*
X39275000Y5225000I-100000J0D01*
G01*
X38000000Y5225000D01*
G75*
G02*
X37900000Y5325000I0J100000D01*
G01*
G37*
G36*
G01*
X37900000Y4675000D02*
X37900000Y4875000D01*
G75*
G02*
X38000000Y4975000I100000J0D01*
G01*
X39275000Y4975000D01*
G75*
G02*
X39375000Y4875000I0J-100000D01*
G01*
X39375000Y4675000D01*
G75*
G02*
X39275000Y4575000I-100000J0D01*
G01*
X38000000Y4575000D01*
G75*
G02*
X37900000Y4675000I0J100000D01*
G01*
G37*
G36*
G01*
X43625000Y4675000D02*
X43625000Y4875000D01*
G75*
G02*
X43725000Y4975000I100000J0D01*
G01*
X45000000Y4975000D01*
G75*
G02*
X45100000Y4875000I0J-100000D01*
G01*
X45100000Y4675000D01*
G75*
G02*
X45000000Y4575000I-100000J0D01*
G01*
X43725000Y4575000D01*
G75*
G02*
X43625000Y4675000I0J100000D01*
G01*
G37*
G36*
G01*
X43625000Y5325000D02*
X43625000Y5525000D01*
G75*
G02*
X43725000Y5625000I100000J0D01*
G01*
X45000000Y5625000D01*
G75*
G02*
X45100000Y5525000I0J-100000D01*
G01*
X45100000Y5325000D01*
G75*
G02*
X45000000Y5225000I-100000J0D01*
G01*
X43725000Y5225000D01*
G75*
G02*
X43625000Y5325000I0J100000D01*
G01*
G37*
G36*
G01*
X43625000Y5975000D02*
X43625000Y6175000D01*
G75*
G02*
X43725000Y6275000I100000J0D01*
G01*
X45000000Y6275000D01*
G75*
G02*
X45100000Y6175000I0J-100000D01*
G01*
X45100000Y5975000D01*
G75*
G02*
X45000000Y5875000I-100000J0D01*
G01*
X43725000Y5875000D01*
G75*
G02*
X43625000Y5975000I0J100000D01*
G01*
G37*
G36*
G01*
X43625000Y6625000D02*
X43625000Y6825000D01*
G75*
G02*
X43725000Y6925000I100000J0D01*
G01*
X45000000Y6925000D01*
G75*
G02*
X45100000Y6825000I0J-100000D01*
G01*
X45100000Y6625000D01*
G75*
G02*
X45000000Y6525000I-100000J0D01*
G01*
X43725000Y6525000D01*
G75*
G02*
X43625000Y6625000I0J100000D01*
G01*
G37*
D20*
X28000000Y9000000D03*
X26000000Y8050000D03*
X26000000Y9950000D03*
X52000000Y6800000D03*
X52000000Y8700000D03*
X50000000Y7750000D03*
D21*
X29950000Y-690000D03*
X29000000Y-690000D03*
X28050000Y-690000D03*
X28050000Y-3310000D03*
X29000000Y-3310000D03*
X29950000Y-3310000D03*
M02*
