G04 #@! TF.GenerationSoftware,KiCad,Pcbnew,(5.1.9)-1*
G04 #@! TF.CreationDate,2020-12-31T02:44:30-08:00*
G04 #@! TF.ProjectId,IRIS-power,49524953-2d70-46f7-9765-722e6b696361,rev?*
G04 #@! TF.SameCoordinates,Original*
G04 #@! TF.FileFunction,Soldermask,Top*
G04 #@! TF.FilePolarity,Negative*
%FSLAX46Y46*%
G04 Gerber Fmt 4.6, Leading zero omitted, Abs format (unit mm)*
G04 Created by KiCad (PCBNEW (5.1.9)-1) date 2020-12-31 02:44:30*
%MOMM*%
%LPD*%
G01*
G04 APERTURE LIST*
%ADD10C,2.101600*%
%ADD11C,1.601600*%
%ADD12C,0.901600*%
%ADD13C,6.301600*%
%ADD14O,1.763500X0.963500*%
%ADD15O,2.463500X0.963500*%
%ADD16C,0.738500*%
%ADD17O,2.641600X6.604000*%
%ADD18O,1.801600X1.801600*%
%ADD19C,3.000000*%
%ADD20C,0.100000*%
G04 APERTURE END LIST*
D10*
X48150000Y3600000D03*
G36*
G01*
X9571900Y-19425000D02*
X9571900Y-17075000D01*
G75*
G02*
X9610000Y-17036900I38100J0D01*
G01*
X11390000Y-17036900D01*
G75*
G02*
X11428100Y-17075000I0J-38100D01*
G01*
X11428100Y-19425000D01*
G75*
G02*
X11390000Y-19463100I-38100J0D01*
G01*
X9610000Y-19463100D01*
G75*
G02*
X9571900Y-19425000I0J38100D01*
G01*
G37*
G36*
G01*
X11586900Y-17132860D02*
X11586900Y-16967140D01*
G75*
G02*
X11642140Y-16911900I55240J0D01*
G01*
X12307860Y-16911900D01*
G75*
G02*
X12363100Y-16967140I0J-55240D01*
G01*
X12363100Y-17132860D01*
G75*
G02*
X12307860Y-17188100I-55240J0D01*
G01*
X11642140Y-17188100D01*
G75*
G02*
X11586900Y-17132860I0J55240D01*
G01*
G37*
G36*
G01*
X11586900Y-17532860D02*
X11586900Y-17367140D01*
G75*
G02*
X11642140Y-17311900I55240J0D01*
G01*
X12307860Y-17311900D01*
G75*
G02*
X12363100Y-17367140I0J-55240D01*
G01*
X12363100Y-17532860D01*
G75*
G02*
X12307860Y-17588100I-55240J0D01*
G01*
X11642140Y-17588100D01*
G75*
G02*
X11586900Y-17532860I0J55240D01*
G01*
G37*
G36*
G01*
X11586900Y-17932860D02*
X11586900Y-17767140D01*
G75*
G02*
X11642140Y-17711900I55240J0D01*
G01*
X12307860Y-17711900D01*
G75*
G02*
X12363100Y-17767140I0J-55240D01*
G01*
X12363100Y-17932860D01*
G75*
G02*
X12307860Y-17988100I-55240J0D01*
G01*
X11642140Y-17988100D01*
G75*
G02*
X11586900Y-17932860I0J55240D01*
G01*
G37*
G36*
G01*
X11586900Y-18332860D02*
X11586900Y-18167140D01*
G75*
G02*
X11642140Y-18111900I55240J0D01*
G01*
X12307860Y-18111900D01*
G75*
G02*
X12363100Y-18167140I0J-55240D01*
G01*
X12363100Y-18332860D01*
G75*
G02*
X12307860Y-18388100I-55240J0D01*
G01*
X11642140Y-18388100D01*
G75*
G02*
X11586900Y-18332860I0J55240D01*
G01*
G37*
G36*
G01*
X11586900Y-18732860D02*
X11586900Y-18567140D01*
G75*
G02*
X11642140Y-18511900I55240J0D01*
G01*
X12307860Y-18511900D01*
G75*
G02*
X12363100Y-18567140I0J-55240D01*
G01*
X12363100Y-18732860D01*
G75*
G02*
X12307860Y-18788100I-55240J0D01*
G01*
X11642140Y-18788100D01*
G75*
G02*
X11586900Y-18732860I0J55240D01*
G01*
G37*
G36*
G01*
X11586900Y-19132860D02*
X11586900Y-18967140D01*
G75*
G02*
X11642140Y-18911900I55240J0D01*
G01*
X12307860Y-18911900D01*
G75*
G02*
X12363100Y-18967140I0J-55240D01*
G01*
X12363100Y-19132860D01*
G75*
G02*
X12307860Y-19188100I-55240J0D01*
G01*
X11642140Y-19188100D01*
G75*
G02*
X11586900Y-19132860I0J55240D01*
G01*
G37*
G36*
G01*
X11586900Y-19532860D02*
X11586900Y-19367140D01*
G75*
G02*
X11642140Y-19311900I55240J0D01*
G01*
X12307860Y-19311900D01*
G75*
G02*
X12363100Y-19367140I0J-55240D01*
G01*
X12363100Y-19532860D01*
G75*
G02*
X12307860Y-19588100I-55240J0D01*
G01*
X11642140Y-19588100D01*
G75*
G02*
X11586900Y-19532860I0J55240D01*
G01*
G37*
G36*
G01*
X8636900Y-19532860D02*
X8636900Y-19367140D01*
G75*
G02*
X8692140Y-19311900I55240J0D01*
G01*
X9357860Y-19311900D01*
G75*
G02*
X9413100Y-19367140I0J-55240D01*
G01*
X9413100Y-19532860D01*
G75*
G02*
X9357860Y-19588100I-55240J0D01*
G01*
X8692140Y-19588100D01*
G75*
G02*
X8636900Y-19532860I0J55240D01*
G01*
G37*
G36*
G01*
X8636900Y-19132860D02*
X8636900Y-18967140D01*
G75*
G02*
X8692140Y-18911900I55240J0D01*
G01*
X9357860Y-18911900D01*
G75*
G02*
X9413100Y-18967140I0J-55240D01*
G01*
X9413100Y-19132860D01*
G75*
G02*
X9357860Y-19188100I-55240J0D01*
G01*
X8692140Y-19188100D01*
G75*
G02*
X8636900Y-19132860I0J55240D01*
G01*
G37*
G36*
G01*
X8636900Y-18732860D02*
X8636900Y-18567140D01*
G75*
G02*
X8692140Y-18511900I55240J0D01*
G01*
X9357860Y-18511900D01*
G75*
G02*
X9413100Y-18567140I0J-55240D01*
G01*
X9413100Y-18732860D01*
G75*
G02*
X9357860Y-18788100I-55240J0D01*
G01*
X8692140Y-18788100D01*
G75*
G02*
X8636900Y-18732860I0J55240D01*
G01*
G37*
G36*
G01*
X8636900Y-18332860D02*
X8636900Y-18167140D01*
G75*
G02*
X8692140Y-18111900I55240J0D01*
G01*
X9357860Y-18111900D01*
G75*
G02*
X9413100Y-18167140I0J-55240D01*
G01*
X9413100Y-18332860D01*
G75*
G02*
X9357860Y-18388100I-55240J0D01*
G01*
X8692140Y-18388100D01*
G75*
G02*
X8636900Y-18332860I0J55240D01*
G01*
G37*
G36*
G01*
X8636900Y-17932860D02*
X8636900Y-17767140D01*
G75*
G02*
X8692140Y-17711900I55240J0D01*
G01*
X9357860Y-17711900D01*
G75*
G02*
X9413100Y-17767140I0J-55240D01*
G01*
X9413100Y-17932860D01*
G75*
G02*
X9357860Y-17988100I-55240J0D01*
G01*
X8692140Y-17988100D01*
G75*
G02*
X8636900Y-17932860I0J55240D01*
G01*
G37*
G36*
G01*
X8636900Y-17532860D02*
X8636900Y-17367140D01*
G75*
G02*
X8692140Y-17311900I55240J0D01*
G01*
X9357860Y-17311900D01*
G75*
G02*
X9413100Y-17367140I0J-55240D01*
G01*
X9413100Y-17532860D01*
G75*
G02*
X9357860Y-17588100I-55240J0D01*
G01*
X8692140Y-17588100D01*
G75*
G02*
X8636900Y-17532860I0J55240D01*
G01*
G37*
G36*
G01*
X8636900Y-17132860D02*
X8636900Y-16967140D01*
G75*
G02*
X8692140Y-16911900I55240J0D01*
G01*
X9357860Y-16911900D01*
G75*
G02*
X9413100Y-16967140I0J-55240D01*
G01*
X9413100Y-17132860D01*
G75*
G02*
X9357860Y-17188100I-55240J0D01*
G01*
X8692140Y-17188100D01*
G75*
G02*
X8636900Y-17132860I0J55240D01*
G01*
G37*
D11*
X1500000Y13970000D03*
X1500000Y6350000D03*
X1500000Y16510000D03*
X1500000Y3810000D03*
X1500000Y-1270000D03*
X1500000Y-6350000D03*
X1500000Y-11430000D03*
X1500000Y1270000D03*
X1500000Y21590000D03*
X1500000Y-19050000D03*
X1500000Y-24130000D03*
X1500000Y-16510000D03*
X1500000Y-13970000D03*
X1500000Y19050000D03*
X1500000Y11430000D03*
X1500000Y-21590000D03*
X1500000Y8890000D03*
X1500000Y-8890000D03*
X1500000Y-3810000D03*
X1500000Y24130000D03*
D12*
X5900000Y29000000D03*
D13*
X3500000Y29000000D03*
D12*
X3500000Y26600000D03*
X1802944Y30697056D03*
X1802944Y27302944D03*
X1100000Y29000000D03*
X3500000Y31400000D03*
X5197056Y27302944D03*
X5197056Y30697056D03*
X63900000Y29000000D03*
D13*
X61500000Y29000000D03*
D12*
X61500000Y26600000D03*
X59802944Y30697056D03*
X59802944Y27302944D03*
X59100000Y29000000D03*
X61500000Y31400000D03*
X63197056Y27302944D03*
X63197056Y30697056D03*
X63900000Y-29000000D03*
D13*
X61500000Y-29000000D03*
D12*
X61500000Y-31400000D03*
X59802944Y-27302944D03*
X59802944Y-30697056D03*
X59100000Y-29000000D03*
X61500000Y-26600000D03*
X63197056Y-30697056D03*
X63197056Y-27302944D03*
X5900000Y-29000000D03*
X1802944Y-30697056D03*
D13*
X3500000Y-29000000D03*
D12*
X3500000Y-26600000D03*
X5197056Y-27302944D03*
X1100000Y-29000000D03*
X1802944Y-27302944D03*
X5197056Y-30697056D03*
X3500000Y-31400000D03*
D14*
X60510000Y14325000D03*
X60510000Y5675000D03*
D15*
X57130000Y14325000D03*
X57130000Y5675000D03*
D16*
X57500000Y10425000D03*
X57500000Y12975000D03*
X57500000Y12125000D03*
X57500000Y11275000D03*
X57500000Y7025000D03*
X57500000Y8725000D03*
X57500000Y9575000D03*
X57500000Y7875000D03*
X56150000Y12975000D03*
X56150000Y12125000D03*
X56150000Y11275000D03*
X56150000Y10425000D03*
X56150000Y9575000D03*
X56150000Y8725000D03*
X56150000Y7875000D03*
X56150000Y7025000D03*
D10*
X38230000Y-9100000D03*
X38230000Y-23900000D03*
D17*
X20000000Y-12563000D03*
X20000000Y-20437000D03*
G36*
G01*
X59525800Y22573100D02*
X59525800Y22426900D01*
G75*
G02*
X59438100Y22339200I-87700J0D01*
G01*
X58840900Y22339200D01*
G75*
G02*
X58753200Y22426900I0J87700D01*
G01*
X58753200Y22573100D01*
G75*
G02*
X58840900Y22660800I87700J0D01*
G01*
X59438100Y22660800D01*
G75*
G02*
X59525800Y22573100I0J-87700D01*
G01*
G37*
G36*
G01*
X59525800Y23073100D02*
X59525800Y22926900D01*
G75*
G02*
X59438100Y22839200I-87700J0D01*
G01*
X58840900Y22839200D01*
G75*
G02*
X58753200Y22926900I0J87700D01*
G01*
X58753200Y23073100D01*
G75*
G02*
X58840900Y23160800I87700J0D01*
G01*
X59438100Y23160800D01*
G75*
G02*
X59525800Y23073100I0J-87700D01*
G01*
G37*
G36*
G01*
X59525800Y23573004D02*
X59525800Y23426996D01*
G75*
G02*
X59438004Y23339200I-87796J0D01*
G01*
X58840996Y23339200D01*
G75*
G02*
X58753200Y23426996I0J87796D01*
G01*
X58753200Y23573004D01*
G75*
G02*
X58840996Y23660800I87796J0D01*
G01*
X59438004Y23660800D01*
G75*
G02*
X59525800Y23573004I0J-87796D01*
G01*
G37*
G36*
G01*
X59525800Y24073100D02*
X59525800Y23926900D01*
G75*
G02*
X59438100Y23839200I-87700J0D01*
G01*
X58840900Y23839200D01*
G75*
G02*
X58753200Y23926900I0J87700D01*
G01*
X58753200Y24073100D01*
G75*
G02*
X58840900Y24160800I87700J0D01*
G01*
X59438100Y24160800D01*
G75*
G02*
X59525800Y24073100I0J-87700D01*
G01*
G37*
G36*
G01*
X59525800Y24573100D02*
X59525800Y24426900D01*
G75*
G02*
X59438100Y24339200I-87700J0D01*
G01*
X58840900Y24339200D01*
G75*
G02*
X58753200Y24426900I0J87700D01*
G01*
X58753200Y24573100D01*
G75*
G02*
X58840900Y24660800I87700J0D01*
G01*
X59438100Y24660800D01*
G75*
G02*
X59525800Y24573100I0J-87700D01*
G01*
G37*
G36*
G01*
X59525800Y25073100D02*
X59525800Y24926900D01*
G75*
G02*
X59438100Y24839200I-87700J0D01*
G01*
X58840900Y24839200D01*
G75*
G02*
X58753200Y24926900I0J87700D01*
G01*
X58753200Y25073100D01*
G75*
G02*
X58840900Y25160800I87700J0D01*
G01*
X59438100Y25160800D01*
G75*
G02*
X59525800Y25073100I0J-87700D01*
G01*
G37*
G36*
G01*
X58573004Y25253200D02*
X58426996Y25253200D01*
G75*
G02*
X58339200Y25340996I0J87796D01*
G01*
X58339200Y25938004D01*
G75*
G02*
X58426996Y26025800I87796J0D01*
G01*
X58573004Y26025800D01*
G75*
G02*
X58660800Y25938004I0J-87796D01*
G01*
X58660800Y25340996D01*
G75*
G02*
X58573004Y25253200I-87796J0D01*
G01*
G37*
G36*
G01*
X58073004Y25253200D02*
X57926996Y25253200D01*
G75*
G02*
X57839200Y25340996I0J87796D01*
G01*
X57839200Y25938004D01*
G75*
G02*
X57926996Y26025800I87796J0D01*
G01*
X58073004Y26025800D01*
G75*
G02*
X58160800Y25938004I0J-87796D01*
G01*
X58160800Y25340996D01*
G75*
G02*
X58073004Y25253200I-87796J0D01*
G01*
G37*
G36*
G01*
X57573100Y25253200D02*
X57426900Y25253200D01*
G75*
G02*
X57339200Y25340900I0J87700D01*
G01*
X57339200Y25938100D01*
G75*
G02*
X57426900Y26025800I87700J0D01*
G01*
X57573100Y26025800D01*
G75*
G02*
X57660800Y25938100I0J-87700D01*
G01*
X57660800Y25340900D01*
G75*
G02*
X57573100Y25253200I-87700J0D01*
G01*
G37*
G36*
G01*
X57073004Y25253200D02*
X56926996Y25253200D01*
G75*
G02*
X56839200Y25340996I0J87796D01*
G01*
X56839200Y25938004D01*
G75*
G02*
X56926996Y26025800I87796J0D01*
G01*
X57073004Y26025800D01*
G75*
G02*
X57160800Y25938004I0J-87796D01*
G01*
X57160800Y25340996D01*
G75*
G02*
X57073004Y25253200I-87796J0D01*
G01*
G37*
G36*
G01*
X56573100Y25253200D02*
X56426900Y25253200D01*
G75*
G02*
X56339200Y25340900I0J87700D01*
G01*
X56339200Y25938100D01*
G75*
G02*
X56426900Y26025800I87700J0D01*
G01*
X56573100Y26025800D01*
G75*
G02*
X56660800Y25938100I0J-87700D01*
G01*
X56660800Y25340900D01*
G75*
G02*
X56573100Y25253200I-87700J0D01*
G01*
G37*
G36*
G01*
X56073004Y25253200D02*
X55926996Y25253200D01*
G75*
G02*
X55839200Y25340996I0J87796D01*
G01*
X55839200Y25938004D01*
G75*
G02*
X55926996Y26025800I87796J0D01*
G01*
X56073004Y26025800D01*
G75*
G02*
X56160800Y25938004I0J-87796D01*
G01*
X56160800Y25340996D01*
G75*
G02*
X56073004Y25253200I-87796J0D01*
G01*
G37*
G36*
G01*
X55746800Y25073004D02*
X55746800Y24926996D01*
G75*
G02*
X55659004Y24839200I-87796J0D01*
G01*
X55061996Y24839200D01*
G75*
G02*
X54974200Y24926996I0J87796D01*
G01*
X54974200Y25073004D01*
G75*
G02*
X55061996Y25160800I87796J0D01*
G01*
X55659004Y25160800D01*
G75*
G02*
X55746800Y25073004I0J-87796D01*
G01*
G37*
G36*
G01*
X55746800Y24573100D02*
X55746800Y24426900D01*
G75*
G02*
X55659100Y24339200I-87700J0D01*
G01*
X55061900Y24339200D01*
G75*
G02*
X54974200Y24426900I0J87700D01*
G01*
X54974200Y24573100D01*
G75*
G02*
X55061900Y24660800I87700J0D01*
G01*
X55659100Y24660800D01*
G75*
G02*
X55746800Y24573100I0J-87700D01*
G01*
G37*
G36*
G01*
X55746800Y24073100D02*
X55746800Y23926900D01*
G75*
G02*
X55659100Y23839200I-87700J0D01*
G01*
X55061900Y23839200D01*
G75*
G02*
X54974200Y23926900I0J87700D01*
G01*
X54974200Y24073100D01*
G75*
G02*
X55061900Y24160800I87700J0D01*
G01*
X55659100Y24160800D01*
G75*
G02*
X55746800Y24073100I0J-87700D01*
G01*
G37*
G36*
G01*
X55746800Y23573100D02*
X55746800Y23426900D01*
G75*
G02*
X55659100Y23339200I-87700J0D01*
G01*
X55061900Y23339200D01*
G75*
G02*
X54974200Y23426900I0J87700D01*
G01*
X54974200Y23573100D01*
G75*
G02*
X55061900Y23660800I87700J0D01*
G01*
X55659100Y23660800D01*
G75*
G02*
X55746800Y23573100I0J-87700D01*
G01*
G37*
G36*
G01*
X55746800Y23073100D02*
X55746800Y22926900D01*
G75*
G02*
X55659100Y22839200I-87700J0D01*
G01*
X55061900Y22839200D01*
G75*
G02*
X54974200Y22926900I0J87700D01*
G01*
X54974200Y23073100D01*
G75*
G02*
X55061900Y23160800I87700J0D01*
G01*
X55659100Y23160800D01*
G75*
G02*
X55746800Y23073100I0J-87700D01*
G01*
G37*
G36*
G01*
X55746800Y22573100D02*
X55746800Y22426900D01*
G75*
G02*
X55659100Y22339200I-87700J0D01*
G01*
X55061900Y22339200D01*
G75*
G02*
X54974200Y22426900I0J87700D01*
G01*
X54974200Y22573100D01*
G75*
G02*
X55061900Y22660800I87700J0D01*
G01*
X55659100Y22660800D01*
G75*
G02*
X55746800Y22573100I0J-87700D01*
G01*
G37*
G36*
G01*
X56073100Y21474200D02*
X55926900Y21474200D01*
G75*
G02*
X55839200Y21561900I0J87700D01*
G01*
X55839200Y22159100D01*
G75*
G02*
X55926900Y22246800I87700J0D01*
G01*
X56073100Y22246800D01*
G75*
G02*
X56160800Y22159100I0J-87700D01*
G01*
X56160800Y21561900D01*
G75*
G02*
X56073100Y21474200I-87700J0D01*
G01*
G37*
G36*
G01*
X56573100Y21474200D02*
X56426900Y21474200D01*
G75*
G02*
X56339200Y21561900I0J87700D01*
G01*
X56339200Y22159100D01*
G75*
G02*
X56426900Y22246800I87700J0D01*
G01*
X56573100Y22246800D01*
G75*
G02*
X56660800Y22159100I0J-87700D01*
G01*
X56660800Y21561900D01*
G75*
G02*
X56573100Y21474200I-87700J0D01*
G01*
G37*
G36*
G01*
X57073100Y21474200D02*
X56926900Y21474200D01*
G75*
G02*
X56839200Y21561900I0J87700D01*
G01*
X56839200Y22159100D01*
G75*
G02*
X56926900Y22246800I87700J0D01*
G01*
X57073100Y22246800D01*
G75*
G02*
X57160800Y22159100I0J-87700D01*
G01*
X57160800Y21561900D01*
G75*
G02*
X57073100Y21474200I-87700J0D01*
G01*
G37*
G36*
G01*
X57573100Y21474200D02*
X57426900Y21474200D01*
G75*
G02*
X57339200Y21561900I0J87700D01*
G01*
X57339200Y22159100D01*
G75*
G02*
X57426900Y22246800I87700J0D01*
G01*
X57573100Y22246800D01*
G75*
G02*
X57660800Y22159100I0J-87700D01*
G01*
X57660800Y21561900D01*
G75*
G02*
X57573100Y21474200I-87700J0D01*
G01*
G37*
G36*
G01*
X58073100Y21474200D02*
X57926900Y21474200D01*
G75*
G02*
X57839200Y21561900I0J87700D01*
G01*
X57839200Y22159100D01*
G75*
G02*
X57926900Y22246800I87700J0D01*
G01*
X58073100Y22246800D01*
G75*
G02*
X58160800Y22159100I0J-87700D01*
G01*
X58160800Y21561900D01*
G75*
G02*
X58073100Y21474200I-87700J0D01*
G01*
G37*
G36*
G01*
X58573100Y21474200D02*
X58426900Y21474200D01*
G75*
G02*
X58339200Y21561900I0J87700D01*
G01*
X58339200Y22159100D01*
G75*
G02*
X58426900Y22246800I87700J0D01*
G01*
X58573100Y22246800D01*
G75*
G02*
X58660800Y22159100I0J-87700D01*
G01*
X58660800Y21561900D01*
G75*
G02*
X58573100Y21474200I-87700J0D01*
G01*
G37*
G36*
G01*
X58600000Y22349200D02*
X55900000Y22349200D01*
G75*
G02*
X55849200Y22400000I0J50800D01*
G01*
X55849200Y25100000D01*
G75*
G02*
X55900000Y25150800I50800J0D01*
G01*
X58600000Y25150800D01*
G75*
G02*
X58650800Y25100000I0J-50800D01*
G01*
X58650800Y22400000D01*
G75*
G02*
X58600000Y22349200I-50800J0D01*
G01*
G37*
G36*
G01*
X10200800Y-20750000D02*
X10200800Y-21550000D01*
G75*
G02*
X10150000Y-21600800I-50800J0D01*
G01*
X9150000Y-21600800D01*
G75*
G02*
X9099200Y-21550000I0J50800D01*
G01*
X9099200Y-20750000D01*
G75*
G02*
X9150000Y-20699200I50800J0D01*
G01*
X10150000Y-20699200D01*
G75*
G02*
X10200800Y-20750000I0J-50800D01*
G01*
G37*
G36*
G01*
X11900800Y-20750000D02*
X11900800Y-21550000D01*
G75*
G02*
X11850000Y-21600800I-50800J0D01*
G01*
X10850000Y-21600800D01*
G75*
G02*
X10799200Y-21550000I0J50800D01*
G01*
X10799200Y-20750000D01*
G75*
G02*
X10850000Y-20699200I50800J0D01*
G01*
X11850000Y-20699200D01*
G75*
G02*
X11900800Y-20750000I0J-50800D01*
G01*
G37*
G36*
G01*
X10200800Y-21950000D02*
X10200800Y-24250000D01*
G75*
G02*
X10150000Y-24300800I-50800J0D01*
G01*
X9150000Y-24300800D01*
G75*
G02*
X9099200Y-24250000I0J50800D01*
G01*
X9099200Y-21950000D01*
G75*
G02*
X9150000Y-21899200I50800J0D01*
G01*
X10150000Y-21899200D01*
G75*
G02*
X10200800Y-21950000I0J-50800D01*
G01*
G37*
G36*
G01*
X11900800Y-21950000D02*
X11900800Y-24250000D01*
G75*
G02*
X11850000Y-24300800I-50800J0D01*
G01*
X10850000Y-24300800D01*
G75*
G02*
X10799200Y-24250000I0J50800D01*
G01*
X10799200Y-21950000D01*
G75*
G02*
X10850000Y-21899200I50800J0D01*
G01*
X11850000Y-21899200D01*
G75*
G02*
X11900800Y-21950000I0J-50800D01*
G01*
G37*
G36*
G01*
X13625800Y-9949600D02*
X13625800Y-10550400D01*
G75*
G02*
X13400400Y-10775800I-225400J0D01*
G01*
X12949600Y-10775800D01*
G75*
G02*
X12724200Y-10550400I0J225400D01*
G01*
X12724200Y-9949600D01*
G75*
G02*
X12949600Y-9724200I225400J0D01*
G01*
X13400400Y-9724200D01*
G75*
G02*
X13625800Y-9949600I0J-225400D01*
G01*
G37*
G36*
G01*
X15275800Y-9949600D02*
X15275800Y-10550400D01*
G75*
G02*
X15050400Y-10775800I-225400J0D01*
G01*
X14599600Y-10775800D01*
G75*
G02*
X14374200Y-10550400I0J225400D01*
G01*
X14374200Y-9949600D01*
G75*
G02*
X14599600Y-9724200I225400J0D01*
G01*
X15050400Y-9724200D01*
G75*
G02*
X15275800Y-9949600I0J-225400D01*
G01*
G37*
G36*
G01*
X13625800Y-11699600D02*
X13625800Y-12300400D01*
G75*
G02*
X13400400Y-12525800I-225400J0D01*
G01*
X12949600Y-12525800D01*
G75*
G02*
X12724200Y-12300400I0J225400D01*
G01*
X12724200Y-11699600D01*
G75*
G02*
X12949600Y-11474200I225400J0D01*
G01*
X13400400Y-11474200D01*
G75*
G02*
X13625800Y-11699600I0J-225400D01*
G01*
G37*
G36*
G01*
X15275800Y-11699600D02*
X15275800Y-12300400D01*
G75*
G02*
X15050400Y-12525800I-225400J0D01*
G01*
X14599600Y-12525800D01*
G75*
G02*
X14374200Y-12300400I0J225400D01*
G01*
X14374200Y-11699600D01*
G75*
G02*
X14599600Y-11474200I225400J0D01*
G01*
X15050400Y-11474200D01*
G75*
G02*
X15275800Y-11699600I0J-225400D01*
G01*
G37*
G36*
G01*
X16374200Y-15800400D02*
X16374200Y-15199600D01*
G75*
G02*
X16599600Y-14974200I225400J0D01*
G01*
X17050400Y-14974200D01*
G75*
G02*
X17275800Y-15199600I0J-225400D01*
G01*
X17275800Y-15800400D01*
G75*
G02*
X17050400Y-16025800I-225400J0D01*
G01*
X16599600Y-16025800D01*
G75*
G02*
X16374200Y-15800400I0J225400D01*
G01*
G37*
G36*
G01*
X14724200Y-15800400D02*
X14724200Y-15199600D01*
G75*
G02*
X14949600Y-14974200I225400J0D01*
G01*
X15400400Y-14974200D01*
G75*
G02*
X15625800Y-15199600I0J-225400D01*
G01*
X15625800Y-15800400D01*
G75*
G02*
X15400400Y-16025800I-225400J0D01*
G01*
X14949600Y-16025800D01*
G75*
G02*
X14724200Y-15800400I0J225400D01*
G01*
G37*
G36*
G01*
X16374200Y-13800400D02*
X16374200Y-13199600D01*
G75*
G02*
X16599600Y-12974200I225400J0D01*
G01*
X17050400Y-12974200D01*
G75*
G02*
X17275800Y-13199600I0J-225400D01*
G01*
X17275800Y-13800400D01*
G75*
G02*
X17050400Y-14025800I-225400J0D01*
G01*
X16599600Y-14025800D01*
G75*
G02*
X16374200Y-13800400I0J225400D01*
G01*
G37*
G36*
G01*
X14724200Y-13800400D02*
X14724200Y-13199600D01*
G75*
G02*
X14949600Y-12974200I225400J0D01*
G01*
X15400400Y-12974200D01*
G75*
G02*
X15625800Y-13199600I0J-225400D01*
G01*
X15625800Y-13800400D01*
G75*
G02*
X15400400Y-14025800I-225400J0D01*
G01*
X14949600Y-14025800D01*
G75*
G02*
X14724200Y-13800400I0J225400D01*
G01*
G37*
G36*
G01*
X55375800Y2550400D02*
X55375800Y1949600D01*
G75*
G02*
X55150400Y1724200I-225400J0D01*
G01*
X54699600Y1724200D01*
G75*
G02*
X54474200Y1949600I0J225400D01*
G01*
X54474200Y2550400D01*
G75*
G02*
X54699600Y2775800I225400J0D01*
G01*
X55150400Y2775800D01*
G75*
G02*
X55375800Y2550400I0J-225400D01*
G01*
G37*
G36*
G01*
X57025800Y2550400D02*
X57025800Y1949600D01*
G75*
G02*
X56800400Y1724200I-225400J0D01*
G01*
X56349600Y1724200D01*
G75*
G02*
X56124200Y1949600I0J225400D01*
G01*
X56124200Y2550400D01*
G75*
G02*
X56349600Y2775800I225400J0D01*
G01*
X56800400Y2775800D01*
G75*
G02*
X57025800Y2550400I0J-225400D01*
G01*
G37*
G36*
G01*
X51875800Y2550400D02*
X51875800Y1949600D01*
G75*
G02*
X51650400Y1724200I-225400J0D01*
G01*
X51199600Y1724200D01*
G75*
G02*
X50974200Y1949600I0J225400D01*
G01*
X50974200Y2550400D01*
G75*
G02*
X51199600Y2775800I225400J0D01*
G01*
X51650400Y2775800D01*
G75*
G02*
X51875800Y2550400I0J-225400D01*
G01*
G37*
G36*
G01*
X53525800Y2550400D02*
X53525800Y1949600D01*
G75*
G02*
X53300400Y1724200I-225400J0D01*
G01*
X52849600Y1724200D01*
G75*
G02*
X52624200Y1949600I0J225400D01*
G01*
X52624200Y2550400D01*
G75*
G02*
X52849600Y2775800I225400J0D01*
G01*
X53300400Y2775800D01*
G75*
G02*
X53525800Y2550400I0J-225400D01*
G01*
G37*
G36*
G01*
X4874200Y16949600D02*
X4874200Y17550400D01*
G75*
G02*
X5099600Y17775800I225400J0D01*
G01*
X5550400Y17775800D01*
G75*
G02*
X5775800Y17550400I0J-225400D01*
G01*
X5775800Y16949600D01*
G75*
G02*
X5550400Y16724200I-225400J0D01*
G01*
X5099600Y16724200D01*
G75*
G02*
X4874200Y16949600I0J225400D01*
G01*
G37*
G36*
G01*
X3224200Y16949600D02*
X3224200Y17550400D01*
G75*
G02*
X3449600Y17775800I225400J0D01*
G01*
X3900400Y17775800D01*
G75*
G02*
X4125800Y17550400I0J-225400D01*
G01*
X4125800Y16949600D01*
G75*
G02*
X3900400Y16724200I-225400J0D01*
G01*
X3449600Y16724200D01*
G75*
G02*
X3224200Y16949600I0J225400D01*
G01*
G37*
G36*
G01*
X4125800Y19300400D02*
X4125800Y18699600D01*
G75*
G02*
X3900400Y18474200I-225400J0D01*
G01*
X3449600Y18474200D01*
G75*
G02*
X3224200Y18699600I0J225400D01*
G01*
X3224200Y19300400D01*
G75*
G02*
X3449600Y19525800I225400J0D01*
G01*
X3900400Y19525800D01*
G75*
G02*
X4125800Y19300400I0J-225400D01*
G01*
G37*
G36*
G01*
X5775800Y19300400D02*
X5775800Y18699600D01*
G75*
G02*
X5550400Y18474200I-225400J0D01*
G01*
X5099600Y18474200D01*
G75*
G02*
X4874200Y18699600I0J225400D01*
G01*
X4874200Y19300400D01*
G75*
G02*
X5099600Y19525800I225400J0D01*
G01*
X5550400Y19525800D01*
G75*
G02*
X5775800Y19300400I0J-225400D01*
G01*
G37*
G36*
G01*
X23800400Y9874200D02*
X23199600Y9874200D01*
G75*
G02*
X22974200Y10099600I0J225400D01*
G01*
X22974200Y10550400D01*
G75*
G02*
X23199600Y10775800I225400J0D01*
G01*
X23800400Y10775800D01*
G75*
G02*
X24025800Y10550400I0J-225400D01*
G01*
X24025800Y10099600D01*
G75*
G02*
X23800400Y9874200I-225400J0D01*
G01*
G37*
G36*
G01*
X23800400Y8224200D02*
X23199600Y8224200D01*
G75*
G02*
X22974200Y8449600I0J225400D01*
G01*
X22974200Y8900400D01*
G75*
G02*
X23199600Y9125800I225400J0D01*
G01*
X23800400Y9125800D01*
G75*
G02*
X24025800Y8900400I0J-225400D01*
G01*
X24025800Y8449600D01*
G75*
G02*
X23800400Y8224200I-225400J0D01*
G01*
G37*
G36*
G01*
X4874200Y23949600D02*
X4874200Y24550400D01*
G75*
G02*
X5099600Y24775800I225400J0D01*
G01*
X5550400Y24775800D01*
G75*
G02*
X5775800Y24550400I0J-225400D01*
G01*
X5775800Y23949600D01*
G75*
G02*
X5550400Y23724200I-225400J0D01*
G01*
X5099600Y23724200D01*
G75*
G02*
X4874200Y23949600I0J225400D01*
G01*
G37*
G36*
G01*
X3224200Y23949600D02*
X3224200Y24550400D01*
G75*
G02*
X3449600Y24775800I225400J0D01*
G01*
X3900400Y24775800D01*
G75*
G02*
X4125800Y24550400I0J-225400D01*
G01*
X4125800Y23949600D01*
G75*
G02*
X3900400Y23724200I-225400J0D01*
G01*
X3449600Y23724200D01*
G75*
G02*
X3224200Y23949600I0J225400D01*
G01*
G37*
G36*
G01*
X4874200Y22199600D02*
X4874200Y22800400D01*
G75*
G02*
X5099600Y23025800I225400J0D01*
G01*
X5550400Y23025800D01*
G75*
G02*
X5775800Y22800400I0J-225400D01*
G01*
X5775800Y22199600D01*
G75*
G02*
X5550400Y21974200I-225400J0D01*
G01*
X5099600Y21974200D01*
G75*
G02*
X4874200Y22199600I0J225400D01*
G01*
G37*
G36*
G01*
X3224200Y22199600D02*
X3224200Y22800400D01*
G75*
G02*
X3449600Y23025800I225400J0D01*
G01*
X3900400Y23025800D01*
G75*
G02*
X4125800Y22800400I0J-225400D01*
G01*
X4125800Y22199600D01*
G75*
G02*
X3900400Y21974200I-225400J0D01*
G01*
X3449600Y21974200D01*
G75*
G02*
X3224200Y22199600I0J225400D01*
G01*
G37*
G36*
G01*
X4874200Y13449600D02*
X4874200Y14050400D01*
G75*
G02*
X5099600Y14275800I225400J0D01*
G01*
X5550400Y14275800D01*
G75*
G02*
X5775800Y14050400I0J-225400D01*
G01*
X5775800Y13449600D01*
G75*
G02*
X5550400Y13224200I-225400J0D01*
G01*
X5099600Y13224200D01*
G75*
G02*
X4874200Y13449600I0J225400D01*
G01*
G37*
G36*
G01*
X3224200Y13449600D02*
X3224200Y14050400D01*
G75*
G02*
X3449600Y14275800I225400J0D01*
G01*
X3900400Y14275800D01*
G75*
G02*
X4125800Y14050400I0J-225400D01*
G01*
X4125800Y13449600D01*
G75*
G02*
X3900400Y13224200I-225400J0D01*
G01*
X3449600Y13224200D01*
G75*
G02*
X3224200Y13449600I0J225400D01*
G01*
G37*
G36*
G01*
X4125800Y12300400D02*
X4125800Y11699600D01*
G75*
G02*
X3900400Y11474200I-225400J0D01*
G01*
X3449600Y11474200D01*
G75*
G02*
X3224200Y11699600I0J225400D01*
G01*
X3224200Y12300400D01*
G75*
G02*
X3449600Y12525800I225400J0D01*
G01*
X3900400Y12525800D01*
G75*
G02*
X4125800Y12300400I0J-225400D01*
G01*
G37*
G36*
G01*
X5775800Y12300400D02*
X5775800Y11699600D01*
G75*
G02*
X5550400Y11474200I-225400J0D01*
G01*
X5099600Y11474200D01*
G75*
G02*
X4874200Y11699600I0J225400D01*
G01*
X4874200Y12300400D01*
G75*
G02*
X5099600Y12525800I225400J0D01*
G01*
X5550400Y12525800D01*
G75*
G02*
X5775800Y12300400I0J-225400D01*
G01*
G37*
G36*
G01*
X4125800Y15800400D02*
X4125800Y15199600D01*
G75*
G02*
X3900400Y14974200I-225400J0D01*
G01*
X3449600Y14974200D01*
G75*
G02*
X3224200Y15199600I0J225400D01*
G01*
X3224200Y15800400D01*
G75*
G02*
X3449600Y16025800I225400J0D01*
G01*
X3900400Y16025800D01*
G75*
G02*
X4125800Y15800400I0J-225400D01*
G01*
G37*
G36*
G01*
X5775800Y15800400D02*
X5775800Y15199600D01*
G75*
G02*
X5550400Y14974200I-225400J0D01*
G01*
X5099600Y14974200D01*
G75*
G02*
X4874200Y15199600I0J225400D01*
G01*
X4874200Y15800400D01*
G75*
G02*
X5099600Y16025800I225400J0D01*
G01*
X5550400Y16025800D01*
G75*
G02*
X5775800Y15800400I0J-225400D01*
G01*
G37*
G36*
G01*
X9624200Y5199600D02*
X9624200Y5800400D01*
G75*
G02*
X9849600Y6025800I225400J0D01*
G01*
X10300400Y6025800D01*
G75*
G02*
X10525800Y5800400I0J-225400D01*
G01*
X10525800Y5199600D01*
G75*
G02*
X10300400Y4974200I-225400J0D01*
G01*
X9849600Y4974200D01*
G75*
G02*
X9624200Y5199600I0J225400D01*
G01*
G37*
G36*
G01*
X7974200Y5199600D02*
X7974200Y5800400D01*
G75*
G02*
X8199600Y6025800I225400J0D01*
G01*
X8650400Y6025800D01*
G75*
G02*
X8875800Y5800400I0J-225400D01*
G01*
X8875800Y5199600D01*
G75*
G02*
X8650400Y4974200I-225400J0D01*
G01*
X8199600Y4974200D01*
G75*
G02*
X7974200Y5199600I0J225400D01*
G01*
G37*
G36*
G01*
X53800400Y20974200D02*
X53199600Y20974200D01*
G75*
G02*
X52974200Y21199600I0J225400D01*
G01*
X52974200Y21650400D01*
G75*
G02*
X53199600Y21875800I225400J0D01*
G01*
X53800400Y21875800D01*
G75*
G02*
X54025800Y21650400I0J-225400D01*
G01*
X54025800Y21199600D01*
G75*
G02*
X53800400Y20974200I-225400J0D01*
G01*
G37*
G36*
G01*
X53800400Y22624200D02*
X53199600Y22624200D01*
G75*
G02*
X52974200Y22849600I0J225400D01*
G01*
X52974200Y23300400D01*
G75*
G02*
X53199600Y23525800I225400J0D01*
G01*
X53800400Y23525800D01*
G75*
G02*
X54025800Y23300400I0J-225400D01*
G01*
X54025800Y22849600D01*
G75*
G02*
X53800400Y22624200I-225400J0D01*
G01*
G37*
G36*
G01*
X53449600Y6375800D02*
X54050400Y6375800D01*
G75*
G02*
X54275800Y6150400I0J-225400D01*
G01*
X54275800Y5699600D01*
G75*
G02*
X54050400Y5474200I-225400J0D01*
G01*
X53449600Y5474200D01*
G75*
G02*
X53224200Y5699600I0J225400D01*
G01*
X53224200Y6150400D01*
G75*
G02*
X53449600Y6375800I225400J0D01*
G01*
G37*
G36*
G01*
X53449600Y8025800D02*
X54050400Y8025800D01*
G75*
G02*
X54275800Y7800400I0J-225400D01*
G01*
X54275800Y7349600D01*
G75*
G02*
X54050400Y7124200I-225400J0D01*
G01*
X53449600Y7124200D01*
G75*
G02*
X53224200Y7349600I0J225400D01*
G01*
X53224200Y7800400D01*
G75*
G02*
X53449600Y8025800I225400J0D01*
G01*
G37*
G36*
G01*
X54050400Y12624200D02*
X53449600Y12624200D01*
G75*
G02*
X53224200Y12849600I0J225400D01*
G01*
X53224200Y13300400D01*
G75*
G02*
X53449600Y13525800I225400J0D01*
G01*
X54050400Y13525800D01*
G75*
G02*
X54275800Y13300400I0J-225400D01*
G01*
X54275800Y12849600D01*
G75*
G02*
X54050400Y12624200I-225400J0D01*
G01*
G37*
G36*
G01*
X54050400Y10974200D02*
X53449600Y10974200D01*
G75*
G02*
X53224200Y11199600I0J225400D01*
G01*
X53224200Y11650400D01*
G75*
G02*
X53449600Y11875800I225400J0D01*
G01*
X54050400Y11875800D01*
G75*
G02*
X54275800Y11650400I0J-225400D01*
G01*
X54275800Y11199600D01*
G75*
G02*
X54050400Y10974200I-225400J0D01*
G01*
G37*
G36*
G01*
X54974200Y27199600D02*
X54974200Y27800400D01*
G75*
G02*
X55199600Y28025800I225400J0D01*
G01*
X55650400Y28025800D01*
G75*
G02*
X55875800Y27800400I0J-225400D01*
G01*
X55875800Y27199600D01*
G75*
G02*
X55650400Y26974200I-225400J0D01*
G01*
X55199600Y26974200D01*
G75*
G02*
X54974200Y27199600I0J225400D01*
G01*
G37*
G36*
G01*
X56624200Y27199600D02*
X56624200Y27800400D01*
G75*
G02*
X56849600Y28025800I225400J0D01*
G01*
X57300400Y28025800D01*
G75*
G02*
X57525800Y27800400I0J-225400D01*
G01*
X57525800Y27199600D01*
G75*
G02*
X57300400Y26974200I-225400J0D01*
G01*
X56849600Y26974200D01*
G75*
G02*
X56624200Y27199600I0J225400D01*
G01*
G37*
G36*
G01*
X36800400Y6124200D02*
X36199600Y6124200D01*
G75*
G02*
X35974200Y6349600I0J225400D01*
G01*
X35974200Y6800400D01*
G75*
G02*
X36199600Y7025800I225400J0D01*
G01*
X36800400Y7025800D01*
G75*
G02*
X37025800Y6800400I0J-225400D01*
G01*
X37025800Y6349600D01*
G75*
G02*
X36800400Y6124200I-225400J0D01*
G01*
G37*
G36*
G01*
X36800400Y4474200D02*
X36199600Y4474200D01*
G75*
G02*
X35974200Y4699600I0J225400D01*
G01*
X35974200Y5150400D01*
G75*
G02*
X36199600Y5375800I225400J0D01*
G01*
X36800400Y5375800D01*
G75*
G02*
X37025800Y5150400I0J-225400D01*
G01*
X37025800Y4699600D01*
G75*
G02*
X36800400Y4474200I-225400J0D01*
G01*
G37*
G36*
G01*
X19625800Y11050400D02*
X19625800Y10449600D01*
G75*
G02*
X19400400Y10224200I-225400J0D01*
G01*
X18949600Y10224200D01*
G75*
G02*
X18724200Y10449600I0J225400D01*
G01*
X18724200Y11050400D01*
G75*
G02*
X18949600Y11275800I225400J0D01*
G01*
X19400400Y11275800D01*
G75*
G02*
X19625800Y11050400I0J-225400D01*
G01*
G37*
G36*
G01*
X21275800Y11050400D02*
X21275800Y10449600D01*
G75*
G02*
X21050400Y10224200I-225400J0D01*
G01*
X20599600Y10224200D01*
G75*
G02*
X20374200Y10449600I0J225400D01*
G01*
X20374200Y11050400D01*
G75*
G02*
X20599600Y11275800I225400J0D01*
G01*
X21050400Y11275800D01*
G75*
G02*
X21275800Y11050400I0J-225400D01*
G01*
G37*
G36*
G01*
X29375800Y-7449600D02*
X29375800Y-8050400D01*
G75*
G02*
X29150400Y-8275800I-225400J0D01*
G01*
X28699600Y-8275800D01*
G75*
G02*
X28474200Y-8050400I0J225400D01*
G01*
X28474200Y-7449600D01*
G75*
G02*
X28699600Y-7224200I225400J0D01*
G01*
X29150400Y-7224200D01*
G75*
G02*
X29375800Y-7449600I0J-225400D01*
G01*
G37*
G36*
G01*
X31025800Y-7449600D02*
X31025800Y-8050400D01*
G75*
G02*
X30800400Y-8275800I-225400J0D01*
G01*
X30349600Y-8275800D01*
G75*
G02*
X30124200Y-8050400I0J225400D01*
G01*
X30124200Y-7449600D01*
G75*
G02*
X30349600Y-7224200I225400J0D01*
G01*
X30800400Y-7224200D01*
G75*
G02*
X31025800Y-7449600I0J-225400D01*
G01*
G37*
G36*
G01*
X25599200Y1023978D02*
X25599200Y1976022D01*
G75*
G02*
X25873978Y2250800I274778J0D01*
G01*
X26451022Y2250800D01*
G75*
G02*
X26725800Y1976022I0J-274778D01*
G01*
X26725800Y1023978D01*
G75*
G02*
X26451022Y749200I-274778J0D01*
G01*
X25873978Y749200D01*
G75*
G02*
X25599200Y1023978I0J274778D01*
G01*
G37*
G36*
G01*
X23774200Y1023978D02*
X23774200Y1976022D01*
G75*
G02*
X24048978Y2250800I274778J0D01*
G01*
X24626022Y2250800D01*
G75*
G02*
X24900800Y1976022I0J-274778D01*
G01*
X24900800Y1023978D01*
G75*
G02*
X24626022Y749200I-274778J0D01*
G01*
X24048978Y749200D01*
G75*
G02*
X23774200Y1023978I0J274778D01*
G01*
G37*
G36*
G01*
X24900800Y-273978D02*
X24900800Y-1226022D01*
G75*
G02*
X24626022Y-1500800I-274778J0D01*
G01*
X24048978Y-1500800D01*
G75*
G02*
X23774200Y-1226022I0J274778D01*
G01*
X23774200Y-273978D01*
G75*
G02*
X24048978Y800I274778J0D01*
G01*
X24626022Y800D01*
G75*
G02*
X24900800Y-273978I0J-274778D01*
G01*
G37*
G36*
G01*
X26725800Y-273978D02*
X26725800Y-1226022D01*
G75*
G02*
X26451022Y-1500800I-274778J0D01*
G01*
X25873978Y-1500800D01*
G75*
G02*
X25599200Y-1226022I0J274778D01*
G01*
X25599200Y-273978D01*
G75*
G02*
X25873978Y800I274778J0D01*
G01*
X26451022Y800D01*
G75*
G02*
X26725800Y-273978I0J-274778D01*
G01*
G37*
D11*
X22500000Y29500000D03*
X22500000Y24500000D03*
X22500000Y19000000D03*
X22500000Y14000000D03*
G36*
G01*
X6474600Y-18524200D02*
X7025400Y-18524200D01*
G75*
G02*
X7275800Y-18774600I0J-250400D01*
G01*
X7275800Y-19275400D01*
G75*
G02*
X7025400Y-19525800I-250400J0D01*
G01*
X6474600Y-19525800D01*
G75*
G02*
X6224200Y-19275400I0J250400D01*
G01*
X6224200Y-18774600D01*
G75*
G02*
X6474600Y-18524200I250400J0D01*
G01*
G37*
G36*
G01*
X6474600Y-16974200D02*
X7025400Y-16974200D01*
G75*
G02*
X7275800Y-17224600I0J-250400D01*
G01*
X7275800Y-17725400D01*
G75*
G02*
X7025400Y-17975800I-250400J0D01*
G01*
X6474600Y-17975800D01*
G75*
G02*
X6224200Y-17725400I0J250400D01*
G01*
X6224200Y-17224600D01*
G75*
G02*
X6474600Y-16974200I250400J0D01*
G01*
G37*
G36*
G01*
X14474600Y-18524200D02*
X15025400Y-18524200D01*
G75*
G02*
X15275800Y-18774600I0J-250400D01*
G01*
X15275800Y-19275400D01*
G75*
G02*
X15025400Y-19525800I-250400J0D01*
G01*
X14474600Y-19525800D01*
G75*
G02*
X14224200Y-19275400I0J250400D01*
G01*
X14224200Y-18774600D01*
G75*
G02*
X14474600Y-18524200I250400J0D01*
G01*
G37*
G36*
G01*
X14474600Y-16974200D02*
X15025400Y-16974200D01*
G75*
G02*
X15275800Y-17224600I0J-250400D01*
G01*
X15275800Y-17725400D01*
G75*
G02*
X15025400Y-17975800I-250400J0D01*
G01*
X14474600Y-17975800D01*
G75*
G02*
X14224200Y-17725400I0J250400D01*
G01*
X14224200Y-17224600D01*
G75*
G02*
X14474600Y-16974200I250400J0D01*
G01*
G37*
G36*
G01*
X49724600Y-774200D02*
X50275400Y-774200D01*
G75*
G02*
X50525800Y-1024600I0J-250400D01*
G01*
X50525800Y-1525400D01*
G75*
G02*
X50275400Y-1775800I-250400J0D01*
G01*
X49724600Y-1775800D01*
G75*
G02*
X49474200Y-1525400I0J250400D01*
G01*
X49474200Y-1024600D01*
G75*
G02*
X49724600Y-774200I250400J0D01*
G01*
G37*
G36*
G01*
X49724600Y775800D02*
X50275400Y775800D01*
G75*
G02*
X50525800Y525400I0J-250400D01*
G01*
X50525800Y24600D01*
G75*
G02*
X50275400Y-225800I-250400J0D01*
G01*
X49724600Y-225800D01*
G75*
G02*
X49474200Y24600I0J250400D01*
G01*
X49474200Y525400D01*
G75*
G02*
X49724600Y775800I250400J0D01*
G01*
G37*
G36*
G01*
X50275400Y-4225800D02*
X49724600Y-4225800D01*
G75*
G02*
X49474200Y-3975400I0J250400D01*
G01*
X49474200Y-3474600D01*
G75*
G02*
X49724600Y-3224200I250400J0D01*
G01*
X50275400Y-3224200D01*
G75*
G02*
X50525800Y-3474600I0J-250400D01*
G01*
X50525800Y-3975400D01*
G75*
G02*
X50275400Y-4225800I-250400J0D01*
G01*
G37*
G36*
G01*
X50275400Y-5775800D02*
X49724600Y-5775800D01*
G75*
G02*
X49474200Y-5525400I0J250400D01*
G01*
X49474200Y-5024600D01*
G75*
G02*
X49724600Y-4774200I250400J0D01*
G01*
X50275400Y-4774200D01*
G75*
G02*
X50525800Y-5024600I0J-250400D01*
G01*
X50525800Y-5525400D01*
G75*
G02*
X50275400Y-5775800I-250400J0D01*
G01*
G37*
G36*
G01*
X17774200Y24974600D02*
X17774200Y25525400D01*
G75*
G02*
X18024600Y25775800I250400J0D01*
G01*
X18525400Y25775800D01*
G75*
G02*
X18775800Y25525400I0J-250400D01*
G01*
X18775800Y24974600D01*
G75*
G02*
X18525400Y24724200I-250400J0D01*
G01*
X18024600Y24724200D01*
G75*
G02*
X17774200Y24974600I0J250400D01*
G01*
G37*
G36*
G01*
X16224200Y24974600D02*
X16224200Y25525400D01*
G75*
G02*
X16474600Y25775800I250400J0D01*
G01*
X16975400Y25775800D01*
G75*
G02*
X17225800Y25525400I0J-250400D01*
G01*
X17225800Y24974600D01*
G75*
G02*
X16975400Y24724200I-250400J0D01*
G01*
X16474600Y24724200D01*
G75*
G02*
X16224200Y24974600I0J250400D01*
G01*
G37*
G36*
G01*
X4225800Y21025400D02*
X4225800Y20474600D01*
G75*
G02*
X3975400Y20224200I-250400J0D01*
G01*
X3474600Y20224200D01*
G75*
G02*
X3224200Y20474600I0J250400D01*
G01*
X3224200Y21025400D01*
G75*
G02*
X3474600Y21275800I250400J0D01*
G01*
X3975400Y21275800D01*
G75*
G02*
X4225800Y21025400I0J-250400D01*
G01*
G37*
G36*
G01*
X5775800Y21025400D02*
X5775800Y20474600D01*
G75*
G02*
X5525400Y20224200I-250400J0D01*
G01*
X5024600Y20224200D01*
G75*
G02*
X4774200Y20474600I0J250400D01*
G01*
X4774200Y21025400D01*
G75*
G02*
X5024600Y21275800I250400J0D01*
G01*
X5525400Y21275800D01*
G75*
G02*
X5775800Y21025400I0J-250400D01*
G01*
G37*
G36*
G01*
X8975800Y3775400D02*
X8975800Y3224600D01*
G75*
G02*
X8725400Y2974200I-250400J0D01*
G01*
X8224600Y2974200D01*
G75*
G02*
X7974200Y3224600I0J250400D01*
G01*
X7974200Y3775400D01*
G75*
G02*
X8224600Y4025800I250400J0D01*
G01*
X8725400Y4025800D01*
G75*
G02*
X8975800Y3775400I0J-250400D01*
G01*
G37*
G36*
G01*
X10525800Y3775400D02*
X10525800Y3224600D01*
G75*
G02*
X10275400Y2974200I-250400J0D01*
G01*
X9774600Y2974200D01*
G75*
G02*
X9524200Y3224600I0J250400D01*
G01*
X9524200Y3775400D01*
G75*
G02*
X9774600Y4025800I250400J0D01*
G01*
X10275400Y4025800D01*
G75*
G02*
X10525800Y3775400I0J-250400D01*
G01*
G37*
G36*
G01*
X6275400Y774200D02*
X5724600Y774200D01*
G75*
G02*
X5474200Y1024600I0J250400D01*
G01*
X5474200Y1525400D01*
G75*
G02*
X5724600Y1775800I250400J0D01*
G01*
X6275400Y1775800D01*
G75*
G02*
X6525800Y1525400I0J-250400D01*
G01*
X6525800Y1024600D01*
G75*
G02*
X6275400Y774200I-250400J0D01*
G01*
G37*
G36*
G01*
X6275400Y-775800D02*
X5724600Y-775800D01*
G75*
G02*
X5474200Y-525400I0J250400D01*
G01*
X5474200Y-24600D01*
G75*
G02*
X5724600Y225800I250400J0D01*
G01*
X6275400Y225800D01*
G75*
G02*
X6525800Y-24600I0J-250400D01*
G01*
X6525800Y-525400D01*
G75*
G02*
X6275400Y-775800I-250400J0D01*
G01*
G37*
G36*
G01*
X12400800Y13428715D02*
X12400800Y12071285D01*
G75*
G02*
X12128715Y11799200I-272085J0D01*
G01*
X11421285Y11799200D01*
G75*
G02*
X11149200Y12071285I0J272085D01*
G01*
X11149200Y13428715D01*
G75*
G02*
X11421285Y13700800I272085J0D01*
G01*
X12128715Y13700800D01*
G75*
G02*
X12400800Y13428715I0J-272085D01*
G01*
G37*
G36*
G01*
X15350800Y13428715D02*
X15350800Y12071285D01*
G75*
G02*
X15078715Y11799200I-272085J0D01*
G01*
X14371285Y11799200D01*
G75*
G02*
X14099200Y12071285I0J272085D01*
G01*
X14099200Y13428715D01*
G75*
G02*
X14371285Y13700800I272085J0D01*
G01*
X15078715Y13700800D01*
G75*
G02*
X15350800Y13428715I0J-272085D01*
G01*
G37*
G36*
G01*
X57525800Y20275400D02*
X57525800Y19724600D01*
G75*
G02*
X57275400Y19474200I-250400J0D01*
G01*
X56774600Y19474200D01*
G75*
G02*
X56524200Y19724600I0J250400D01*
G01*
X56524200Y20275400D01*
G75*
G02*
X56774600Y20525800I250400J0D01*
G01*
X57275400Y20525800D01*
G75*
G02*
X57525800Y20275400I0J-250400D01*
G01*
G37*
G36*
G01*
X55975800Y20275400D02*
X55975800Y19724600D01*
G75*
G02*
X55725400Y19474200I-250400J0D01*
G01*
X55224600Y19474200D01*
G75*
G02*
X54974200Y19724600I0J250400D01*
G01*
X54974200Y20275400D01*
G75*
G02*
X55224600Y20525800I250400J0D01*
G01*
X55725400Y20525800D01*
G75*
G02*
X55975800Y20275400I0J-250400D01*
G01*
G37*
G36*
G01*
X57525800Y18525400D02*
X57525800Y17974600D01*
G75*
G02*
X57275400Y17724200I-250400J0D01*
G01*
X56774600Y17724200D01*
G75*
G02*
X56524200Y17974600I0J250400D01*
G01*
X56524200Y18525400D01*
G75*
G02*
X56774600Y18775800I250400J0D01*
G01*
X57275400Y18775800D01*
G75*
G02*
X57525800Y18525400I0J-250400D01*
G01*
G37*
G36*
G01*
X55975800Y18525400D02*
X55975800Y17974600D01*
G75*
G02*
X55725400Y17724200I-250400J0D01*
G01*
X55224600Y17724200D01*
G75*
G02*
X54974200Y17974600I0J250400D01*
G01*
X54974200Y18525400D01*
G75*
G02*
X55224600Y18775800I250400J0D01*
G01*
X55725400Y18775800D01*
G75*
G02*
X55975800Y18525400I0J-250400D01*
G01*
G37*
G36*
G01*
X57525800Y16775400D02*
X57525800Y16224600D01*
G75*
G02*
X57275400Y15974200I-250400J0D01*
G01*
X56774600Y15974200D01*
G75*
G02*
X56524200Y16224600I0J250400D01*
G01*
X56524200Y16775400D01*
G75*
G02*
X56774600Y17025800I250400J0D01*
G01*
X57275400Y17025800D01*
G75*
G02*
X57525800Y16775400I0J-250400D01*
G01*
G37*
G36*
G01*
X55975800Y16775400D02*
X55975800Y16224600D01*
G75*
G02*
X55725400Y15974200I-250400J0D01*
G01*
X55224600Y15974200D01*
G75*
G02*
X54974200Y16224600I0J250400D01*
G01*
X54974200Y16775400D01*
G75*
G02*
X55224600Y17025800I250400J0D01*
G01*
X55725400Y17025800D01*
G75*
G02*
X55975800Y16775400I0J-250400D01*
G01*
G37*
G36*
G01*
X44975800Y3375400D02*
X44975800Y2824600D01*
G75*
G02*
X44725400Y2574200I-250400J0D01*
G01*
X44224600Y2574200D01*
G75*
G02*
X43974200Y2824600I0J250400D01*
G01*
X43974200Y3375400D01*
G75*
G02*
X44224600Y3625800I250400J0D01*
G01*
X44725400Y3625800D01*
G75*
G02*
X44975800Y3375400I0J-250400D01*
G01*
G37*
G36*
G01*
X46525800Y3375400D02*
X46525800Y2824600D01*
G75*
G02*
X46275400Y2574200I-250400J0D01*
G01*
X45774600Y2574200D01*
G75*
G02*
X45524200Y2824600I0J250400D01*
G01*
X45524200Y3375400D01*
G75*
G02*
X45774600Y3625800I250400J0D01*
G01*
X46275400Y3625800D01*
G75*
G02*
X46525800Y3375400I0J-250400D01*
G01*
G37*
G36*
G01*
X46775400Y7774200D02*
X46224600Y7774200D01*
G75*
G02*
X45974200Y8024600I0J250400D01*
G01*
X45974200Y8525400D01*
G75*
G02*
X46224600Y8775800I250400J0D01*
G01*
X46775400Y8775800D01*
G75*
G02*
X47025800Y8525400I0J-250400D01*
G01*
X47025800Y8024600D01*
G75*
G02*
X46775400Y7774200I-250400J0D01*
G01*
G37*
G36*
G01*
X46775400Y6224200D02*
X46224600Y6224200D01*
G75*
G02*
X45974200Y6474600I0J250400D01*
G01*
X45974200Y6975400D01*
G75*
G02*
X46224600Y7225800I250400J0D01*
G01*
X46775400Y7225800D01*
G75*
G02*
X47025800Y6975400I0J-250400D01*
G01*
X47025800Y6474600D01*
G75*
G02*
X46775400Y6224200I-250400J0D01*
G01*
G37*
G36*
G01*
X59179203Y-4150800D02*
X57820797Y-4150800D01*
G75*
G02*
X57549200Y-3879203I0J271597D01*
G01*
X57549200Y-3170797D01*
G75*
G02*
X57820797Y-2899200I271597J0D01*
G01*
X59179203Y-2899200D01*
G75*
G02*
X59450800Y-3170797I0J-271597D01*
G01*
X59450800Y-3879203D01*
G75*
G02*
X59179203Y-4150800I-271597J0D01*
G01*
G37*
G36*
G01*
X59178715Y-7100800D02*
X57821285Y-7100800D01*
G75*
G02*
X57549200Y-6828715I0J272085D01*
G01*
X57549200Y-6121285D01*
G75*
G02*
X57821285Y-5849200I272085J0D01*
G01*
X59178715Y-5849200D01*
G75*
G02*
X59450800Y-6121285I0J-272085D01*
G01*
X59450800Y-6828715D01*
G75*
G02*
X59178715Y-7100800I-272085J0D01*
G01*
G37*
G36*
G01*
X57820797Y-849200D02*
X59179203Y-849200D01*
G75*
G02*
X59450800Y-1120797I0J-271597D01*
G01*
X59450800Y-1829203D01*
G75*
G02*
X59179203Y-2100800I-271597J0D01*
G01*
X57820797Y-2100800D01*
G75*
G02*
X57549200Y-1829203I0J271597D01*
G01*
X57549200Y-1120797D01*
G75*
G02*
X57820797Y-849200I271597J0D01*
G01*
G37*
G36*
G01*
X57821285Y2100800D02*
X59178715Y2100800D01*
G75*
G02*
X59450800Y1828715I0J-272085D01*
G01*
X59450800Y1121285D01*
G75*
G02*
X59178715Y849200I-272085J0D01*
G01*
X57821285Y849200D01*
G75*
G02*
X57549200Y1121285I0J272085D01*
G01*
X57549200Y1828715D01*
G75*
G02*
X57821285Y2100800I272085J0D01*
G01*
G37*
G36*
G01*
X43274200Y8224600D02*
X43274200Y8775400D01*
G75*
G02*
X43524600Y9025800I250400J0D01*
G01*
X44025400Y9025800D01*
G75*
G02*
X44275800Y8775400I0J-250400D01*
G01*
X44275800Y8224600D01*
G75*
G02*
X44025400Y7974200I-250400J0D01*
G01*
X43524600Y7974200D01*
G75*
G02*
X43274200Y8224600I0J250400D01*
G01*
G37*
G36*
G01*
X41724200Y8224600D02*
X41724200Y8775400D01*
G75*
G02*
X41974600Y9025800I250400J0D01*
G01*
X42475400Y9025800D01*
G75*
G02*
X42725800Y8775400I0J-250400D01*
G01*
X42725800Y8224600D01*
G75*
G02*
X42475400Y7974200I-250400J0D01*
G01*
X41974600Y7974200D01*
G75*
G02*
X41724200Y8224600I0J250400D01*
G01*
G37*
G36*
G01*
X43274200Y-6025400D02*
X43274200Y-5474600D01*
G75*
G02*
X43524600Y-5224200I250400J0D01*
G01*
X44025400Y-5224200D01*
G75*
G02*
X44275800Y-5474600I0J-250400D01*
G01*
X44275800Y-6025400D01*
G75*
G02*
X44025400Y-6275800I-250400J0D01*
G01*
X43524600Y-6275800D01*
G75*
G02*
X43274200Y-6025400I0J250400D01*
G01*
G37*
G36*
G01*
X41724200Y-6025400D02*
X41724200Y-5474600D01*
G75*
G02*
X41974600Y-5224200I250400J0D01*
G01*
X42475400Y-5224200D01*
G75*
G02*
X42725800Y-5474600I0J-250400D01*
G01*
X42725800Y-6025400D01*
G75*
G02*
X42475400Y-6275800I-250400J0D01*
G01*
X41974600Y-6275800D01*
G75*
G02*
X41724200Y-6025400I0J250400D01*
G01*
G37*
G36*
G01*
X25975800Y-7474600D02*
X25975800Y-8025400D01*
G75*
G02*
X25725400Y-8275800I-250400J0D01*
G01*
X25224600Y-8275800D01*
G75*
G02*
X24974200Y-8025400I0J250400D01*
G01*
X24974200Y-7474600D01*
G75*
G02*
X25224600Y-7224200I250400J0D01*
G01*
X25725400Y-7224200D01*
G75*
G02*
X25975800Y-7474600I0J-250400D01*
G01*
G37*
G36*
G01*
X27525800Y-7474600D02*
X27525800Y-8025400D01*
G75*
G02*
X27275400Y-8275800I-250400J0D01*
G01*
X26774600Y-8275800D01*
G75*
G02*
X26524200Y-8025400I0J250400D01*
G01*
X26524200Y-7474600D01*
G75*
G02*
X26774600Y-7224200I250400J0D01*
G01*
X27275400Y-7224200D01*
G75*
G02*
X27525800Y-7474600I0J-250400D01*
G01*
G37*
G36*
G01*
X25524200Y3224600D02*
X25524200Y3775400D01*
G75*
G02*
X25774600Y4025800I250400J0D01*
G01*
X26275400Y4025800D01*
G75*
G02*
X26525800Y3775400I0J-250400D01*
G01*
X26525800Y3224600D01*
G75*
G02*
X26275400Y2974200I-250400J0D01*
G01*
X25774600Y2974200D01*
G75*
G02*
X25524200Y3224600I0J250400D01*
G01*
G37*
G36*
G01*
X23974200Y3224600D02*
X23974200Y3775400D01*
G75*
G02*
X24224600Y4025800I250400J0D01*
G01*
X24725400Y4025800D01*
G75*
G02*
X24975800Y3775400I0J-250400D01*
G01*
X24975800Y3224600D01*
G75*
G02*
X24725400Y2974200I-250400J0D01*
G01*
X24224600Y2974200D01*
G75*
G02*
X23974200Y3224600I0J250400D01*
G01*
G37*
G36*
G01*
X26525400Y-4725800D02*
X25974600Y-4725800D01*
G75*
G02*
X25724200Y-4475400I0J250400D01*
G01*
X25724200Y-3974600D01*
G75*
G02*
X25974600Y-3724200I250400J0D01*
G01*
X26525400Y-3724200D01*
G75*
G02*
X26775800Y-3974600I0J-250400D01*
G01*
X26775800Y-4475400D01*
G75*
G02*
X26525400Y-4725800I-250400J0D01*
G01*
G37*
G36*
G01*
X26525400Y-6275800D02*
X25974600Y-6275800D01*
G75*
G02*
X25724200Y-6025400I0J250400D01*
G01*
X25724200Y-5524600D01*
G75*
G02*
X25974600Y-5274200I250400J0D01*
G01*
X26525400Y-5274200D01*
G75*
G02*
X26775800Y-5524600I0J-250400D01*
G01*
X26775800Y-6025400D01*
G75*
G02*
X26525400Y-6275800I-250400J0D01*
G01*
G37*
G36*
G01*
X37800800Y3500000D02*
X37800800Y1500000D01*
G75*
G02*
X37750000Y1449200I-50800J0D01*
G01*
X34250000Y1449200D01*
G75*
G02*
X34199200Y1500000I0J50800D01*
G01*
X34199200Y3500000D01*
G75*
G02*
X34250000Y3550800I50800J0D01*
G01*
X37750000Y3550800D01*
G75*
G02*
X37800800Y3500000I0J-50800D01*
G01*
G37*
G36*
G01*
X37800800Y-5500000D02*
X37800800Y-7500000D01*
G75*
G02*
X37750000Y-7550800I-50800J0D01*
G01*
X34250000Y-7550800D01*
G75*
G02*
X34199200Y-7500000I0J50800D01*
G01*
X34199200Y-5500000D01*
G75*
G02*
X34250000Y-5449200I50800J0D01*
G01*
X37750000Y-5449200D01*
G75*
G02*
X37800800Y-5500000I0J-50800D01*
G01*
G37*
G36*
G01*
X8750800Y7625000D02*
X8750800Y7375000D01*
G75*
G02*
X8700000Y7324200I-50800J0D01*
G01*
X7600000Y7324200D01*
G75*
G02*
X7549200Y7375000I0J50800D01*
G01*
X7549200Y7625000D01*
G75*
G02*
X7600000Y7675800I50800J0D01*
G01*
X8700000Y7675800D01*
G75*
G02*
X8750800Y7625000I0J-50800D01*
G01*
G37*
G36*
G01*
X8750800Y8125000D02*
X8750800Y7875000D01*
G75*
G02*
X8700000Y7824200I-50800J0D01*
G01*
X7600000Y7824200D01*
G75*
G02*
X7549200Y7875000I0J50800D01*
G01*
X7549200Y8125000D01*
G75*
G02*
X7600000Y8175800I50800J0D01*
G01*
X8700000Y8175800D01*
G75*
G02*
X8750800Y8125000I0J-50800D01*
G01*
G37*
G36*
G01*
X8750800Y8625000D02*
X8750800Y8375000D01*
G75*
G02*
X8700000Y8324200I-50800J0D01*
G01*
X7600000Y8324200D01*
G75*
G02*
X7549200Y8375000I0J50800D01*
G01*
X7549200Y8625000D01*
G75*
G02*
X7600000Y8675800I50800J0D01*
G01*
X8700000Y8675800D01*
G75*
G02*
X8750800Y8625000I0J-50800D01*
G01*
G37*
G36*
G01*
X8750800Y9125000D02*
X8750800Y8875000D01*
G75*
G02*
X8700000Y8824200I-50800J0D01*
G01*
X7600000Y8824200D01*
G75*
G02*
X7549200Y8875000I0J50800D01*
G01*
X7549200Y9125000D01*
G75*
G02*
X7600000Y9175800I50800J0D01*
G01*
X8700000Y9175800D01*
G75*
G02*
X8750800Y9125000I0J-50800D01*
G01*
G37*
G36*
G01*
X8750800Y9625000D02*
X8750800Y9375000D01*
G75*
G02*
X8700000Y9324200I-50800J0D01*
G01*
X7600000Y9324200D01*
G75*
G02*
X7549200Y9375000I0J50800D01*
G01*
X7549200Y9625000D01*
G75*
G02*
X7600000Y9675800I50800J0D01*
G01*
X8700000Y9675800D01*
G75*
G02*
X8750800Y9625000I0J-50800D01*
G01*
G37*
G36*
G01*
X4450800Y9625000D02*
X4450800Y9375000D01*
G75*
G02*
X4400000Y9324200I-50800J0D01*
G01*
X3300000Y9324200D01*
G75*
G02*
X3249200Y9375000I0J50800D01*
G01*
X3249200Y9625000D01*
G75*
G02*
X3300000Y9675800I50800J0D01*
G01*
X4400000Y9675800D01*
G75*
G02*
X4450800Y9625000I0J-50800D01*
G01*
G37*
G36*
G01*
X4450800Y9125000D02*
X4450800Y8875000D01*
G75*
G02*
X4400000Y8824200I-50800J0D01*
G01*
X3300000Y8824200D01*
G75*
G02*
X3249200Y8875000I0J50800D01*
G01*
X3249200Y9125000D01*
G75*
G02*
X3300000Y9175800I50800J0D01*
G01*
X4400000Y9175800D01*
G75*
G02*
X4450800Y9125000I0J-50800D01*
G01*
G37*
G36*
G01*
X4450800Y8625000D02*
X4450800Y8375000D01*
G75*
G02*
X4400000Y8324200I-50800J0D01*
G01*
X3300000Y8324200D01*
G75*
G02*
X3249200Y8375000I0J50800D01*
G01*
X3249200Y8625000D01*
G75*
G02*
X3300000Y8675800I50800J0D01*
G01*
X4400000Y8675800D01*
G75*
G02*
X4450800Y8625000I0J-50800D01*
G01*
G37*
G36*
G01*
X4450800Y8125000D02*
X4450800Y7875000D01*
G75*
G02*
X4400000Y7824200I-50800J0D01*
G01*
X3300000Y7824200D01*
G75*
G02*
X3249200Y7875000I0J50800D01*
G01*
X3249200Y8125000D01*
G75*
G02*
X3300000Y8175800I50800J0D01*
G01*
X4400000Y8175800D01*
G75*
G02*
X4450800Y8125000I0J-50800D01*
G01*
G37*
G36*
G01*
X4450800Y7625000D02*
X4450800Y7375000D01*
G75*
G02*
X4400000Y7324200I-50800J0D01*
G01*
X3300000Y7324200D01*
G75*
G02*
X3249200Y7375000I0J50800D01*
G01*
X3249200Y7625000D01*
G75*
G02*
X3300000Y7675800I50800J0D01*
G01*
X4400000Y7675800D01*
G75*
G02*
X4450800Y7625000I0J-50800D01*
G01*
G37*
D10*
X20000000Y-27250000D03*
G36*
G01*
X16400800Y-1690000D02*
X16400800Y-3390000D01*
G75*
G02*
X16350000Y-3440800I-50800J0D01*
G01*
X14650000Y-3440800D01*
G75*
G02*
X14599200Y-3390000I0J50800D01*
G01*
X14599200Y-1690000D01*
G75*
G02*
X14650000Y-1639200I50800J0D01*
G01*
X16350000Y-1639200D01*
G75*
G02*
X16400800Y-1690000I0J-50800D01*
G01*
G37*
D18*
X15500000Y0D03*
X15500000Y2540000D03*
X19500000Y2540000D03*
X19500000Y0D03*
G36*
G01*
X20400800Y-1690000D02*
X20400800Y-3390000D01*
G75*
G02*
X20350000Y-3440800I-50800J0D01*
G01*
X18650000Y-3440800D01*
G75*
G02*
X18599200Y-3390000I0J50800D01*
G01*
X18599200Y-1690000D01*
G75*
G02*
X18650000Y-1639200I50800J0D01*
G01*
X20350000Y-1639200D01*
G75*
G02*
X20400800Y-1690000I0J-50800D01*
G01*
G37*
G36*
G01*
X17700000Y22450800D02*
X19300000Y22450800D01*
G75*
G02*
X19350800Y22400000I0J-50800D01*
G01*
X19350800Y20100000D01*
G75*
G02*
X19300000Y20049200I-50800J0D01*
G01*
X17700000Y20049200D01*
G75*
G02*
X17649200Y20100000I0J50800D01*
G01*
X17649200Y22400000D01*
G75*
G02*
X17700000Y22450800I50800J0D01*
G01*
G37*
G36*
G01*
X17700000Y17950800D02*
X19300000Y17950800D01*
G75*
G02*
X19350800Y17900000I0J-50800D01*
G01*
X19350800Y15600000D01*
G75*
G02*
X19300000Y15549200I-50800J0D01*
G01*
X17700000Y15549200D01*
G75*
G02*
X17649200Y15600000I0J50800D01*
G01*
X17649200Y17900000D01*
G75*
G02*
X17700000Y17950800I50800J0D01*
G01*
G37*
G36*
G01*
X12900000Y-14000800D02*
X12100000Y-14000800D01*
G75*
G02*
X12049200Y-13950000I0J50800D01*
G01*
X12049200Y-13050000D01*
G75*
G02*
X12100000Y-12999200I50800J0D01*
G01*
X12900000Y-12999200D01*
G75*
G02*
X12950800Y-13050000I0J-50800D01*
G01*
X12950800Y-13950000D01*
G75*
G02*
X12900000Y-14000800I-50800J0D01*
G01*
G37*
G36*
G01*
X13850000Y-16000800D02*
X13050000Y-16000800D01*
G75*
G02*
X12999200Y-15950000I0J50800D01*
G01*
X12999200Y-15050000D01*
G75*
G02*
X13050000Y-14999200I50800J0D01*
G01*
X13850000Y-14999200D01*
G75*
G02*
X13900800Y-15050000I0J-50800D01*
G01*
X13900800Y-15950000D01*
G75*
G02*
X13850000Y-16000800I-50800J0D01*
G01*
G37*
G36*
G01*
X11950000Y-16000800D02*
X11150000Y-16000800D01*
G75*
G02*
X11099200Y-15950000I0J50800D01*
G01*
X11099200Y-15050000D01*
G75*
G02*
X11150000Y-14999200I50800J0D01*
G01*
X11950000Y-14999200D01*
G75*
G02*
X12000800Y-15050000I0J-50800D01*
G01*
X12000800Y-15950000D01*
G75*
G02*
X11950000Y-16000800I-50800J0D01*
G01*
G37*
G36*
G01*
X10930800Y-125000D02*
X10930800Y-775000D01*
G75*
G02*
X10880000Y-825800I-50800J0D01*
G01*
X9820000Y-825800D01*
G75*
G02*
X9769200Y-775000I0J50800D01*
G01*
X9769200Y-125000D01*
G75*
G02*
X9820000Y-74200I50800J0D01*
G01*
X10880000Y-74200D01*
G75*
G02*
X10930800Y-125000I0J-50800D01*
G01*
G37*
G36*
G01*
X10930800Y825000D02*
X10930800Y175000D01*
G75*
G02*
X10880000Y124200I-50800J0D01*
G01*
X9820000Y124200D01*
G75*
G02*
X9769200Y175000I0J50800D01*
G01*
X9769200Y825000D01*
G75*
G02*
X9820000Y875800I50800J0D01*
G01*
X10880000Y875800D01*
G75*
G02*
X10930800Y825000I0J-50800D01*
G01*
G37*
G36*
G01*
X10930800Y1775000D02*
X10930800Y1125000D01*
G75*
G02*
X10880000Y1074200I-50800J0D01*
G01*
X9820000Y1074200D01*
G75*
G02*
X9769200Y1125000I0J50800D01*
G01*
X9769200Y1775000D01*
G75*
G02*
X9820000Y1825800I50800J0D01*
G01*
X10880000Y1825800D01*
G75*
G02*
X10930800Y1775000I0J-50800D01*
G01*
G37*
G36*
G01*
X8730800Y1775000D02*
X8730800Y1125000D01*
G75*
G02*
X8680000Y1074200I-50800J0D01*
G01*
X7620000Y1074200D01*
G75*
G02*
X7569200Y1125000I0J50800D01*
G01*
X7569200Y1775000D01*
G75*
G02*
X7620000Y1825800I50800J0D01*
G01*
X8680000Y1825800D01*
G75*
G02*
X8730800Y1775000I0J-50800D01*
G01*
G37*
G36*
G01*
X8730800Y-125000D02*
X8730800Y-775000D01*
G75*
G02*
X8680000Y-825800I-50800J0D01*
G01*
X7620000Y-825800D01*
G75*
G02*
X7569200Y-775000I0J50800D01*
G01*
X7569200Y-125000D01*
G75*
G02*
X7620000Y-74200I50800J0D01*
G01*
X8680000Y-74200D01*
G75*
G02*
X8730800Y-125000I0J-50800D01*
G01*
G37*
D10*
X32500000Y8250000D03*
X15500000Y-6000000D03*
X14750000Y8250000D03*
X6000000Y4500000D03*
X16500000Y29500000D03*
G36*
G01*
X60400000Y17999200D02*
X59600000Y17999200D01*
G75*
G02*
X59549200Y18050000I0J50800D01*
G01*
X59549200Y18950000D01*
G75*
G02*
X59600000Y19000800I50800J0D01*
G01*
X60400000Y19000800D01*
G75*
G02*
X60450800Y18950000I0J-50800D01*
G01*
X60450800Y18050000D01*
G75*
G02*
X60400000Y17999200I-50800J0D01*
G01*
G37*
G36*
G01*
X61350000Y15999200D02*
X60550000Y15999200D01*
G75*
G02*
X60499200Y16050000I0J50800D01*
G01*
X60499200Y16950000D01*
G75*
G02*
X60550000Y17000800I50800J0D01*
G01*
X61350000Y17000800D01*
G75*
G02*
X61400800Y16950000I0J-50800D01*
G01*
X61400800Y16050000D01*
G75*
G02*
X61350000Y15999200I-50800J0D01*
G01*
G37*
G36*
G01*
X59450000Y15999200D02*
X58650000Y15999200D01*
G75*
G02*
X58599200Y16050000I0J50800D01*
G01*
X58599200Y16950000D01*
G75*
G02*
X58650000Y17000800I50800J0D01*
G01*
X59450000Y17000800D01*
G75*
G02*
X59500800Y16950000I0J-50800D01*
G01*
X59500800Y16050000D01*
G75*
G02*
X59450000Y15999200I-50800J0D01*
G01*
G37*
G36*
G01*
X37849200Y6599600D02*
X37849200Y6850400D01*
G75*
G02*
X37974600Y6975800I125400J0D01*
G01*
X39300400Y6975800D01*
G75*
G02*
X39425800Y6850400I0J-125400D01*
G01*
X39425800Y6599600D01*
G75*
G02*
X39300400Y6474200I-125400J0D01*
G01*
X37974600Y6474200D01*
G75*
G02*
X37849200Y6599600I0J125400D01*
G01*
G37*
G36*
G01*
X37849200Y5949600D02*
X37849200Y6200400D01*
G75*
G02*
X37974600Y6325800I125400J0D01*
G01*
X39300400Y6325800D01*
G75*
G02*
X39425800Y6200400I0J-125400D01*
G01*
X39425800Y5949600D01*
G75*
G02*
X39300400Y5824200I-125400J0D01*
G01*
X37974600Y5824200D01*
G75*
G02*
X37849200Y5949600I0J125400D01*
G01*
G37*
G36*
G01*
X37849200Y5299600D02*
X37849200Y5550400D01*
G75*
G02*
X37974600Y5675800I125400J0D01*
G01*
X39300400Y5675800D01*
G75*
G02*
X39425800Y5550400I0J-125400D01*
G01*
X39425800Y5299600D01*
G75*
G02*
X39300400Y5174200I-125400J0D01*
G01*
X37974600Y5174200D01*
G75*
G02*
X37849200Y5299600I0J125400D01*
G01*
G37*
G36*
G01*
X37849200Y4649600D02*
X37849200Y4900400D01*
G75*
G02*
X37974600Y5025800I125400J0D01*
G01*
X39300400Y5025800D01*
G75*
G02*
X39425800Y4900400I0J-125400D01*
G01*
X39425800Y4649600D01*
G75*
G02*
X39300400Y4524200I-125400J0D01*
G01*
X37974600Y4524200D01*
G75*
G02*
X37849200Y4649600I0J125400D01*
G01*
G37*
G36*
G01*
X43574200Y4649600D02*
X43574200Y4900400D01*
G75*
G02*
X43699600Y5025800I125400J0D01*
G01*
X45025400Y5025800D01*
G75*
G02*
X45150800Y4900400I0J-125400D01*
G01*
X45150800Y4649600D01*
G75*
G02*
X45025400Y4524200I-125400J0D01*
G01*
X43699600Y4524200D01*
G75*
G02*
X43574200Y4649600I0J125400D01*
G01*
G37*
G36*
G01*
X43574200Y5299600D02*
X43574200Y5550400D01*
G75*
G02*
X43699600Y5675800I125400J0D01*
G01*
X45025400Y5675800D01*
G75*
G02*
X45150800Y5550400I0J-125400D01*
G01*
X45150800Y5299600D01*
G75*
G02*
X45025400Y5174200I-125400J0D01*
G01*
X43699600Y5174200D01*
G75*
G02*
X43574200Y5299600I0J125400D01*
G01*
G37*
G36*
G01*
X43574200Y5949600D02*
X43574200Y6200400D01*
G75*
G02*
X43699600Y6325800I125400J0D01*
G01*
X45025400Y6325800D01*
G75*
G02*
X45150800Y6200400I0J-125400D01*
G01*
X45150800Y5949600D01*
G75*
G02*
X45025400Y5824200I-125400J0D01*
G01*
X43699600Y5824200D01*
G75*
G02*
X43574200Y5949600I0J125400D01*
G01*
G37*
G36*
G01*
X43574200Y6599600D02*
X43574200Y6850400D01*
G75*
G02*
X43699600Y6975800I125400J0D01*
G01*
X45025400Y6975800D01*
G75*
G02*
X45150800Y6850400I0J-125400D01*
G01*
X45150800Y6599600D01*
G75*
G02*
X45025400Y6474200I-125400J0D01*
G01*
X43699600Y6474200D01*
G75*
G02*
X43574200Y6599600I0J125400D01*
G01*
G37*
G36*
G01*
X27499200Y8600000D02*
X27499200Y9400000D01*
G75*
G02*
X27550000Y9450800I50800J0D01*
G01*
X28450000Y9450800D01*
G75*
G02*
X28500800Y9400000I0J-50800D01*
G01*
X28500800Y8600000D01*
G75*
G02*
X28450000Y8549200I-50800J0D01*
G01*
X27550000Y8549200D01*
G75*
G02*
X27499200Y8600000I0J50800D01*
G01*
G37*
G36*
G01*
X25499200Y7650000D02*
X25499200Y8450000D01*
G75*
G02*
X25550000Y8500800I50800J0D01*
G01*
X26450000Y8500800D01*
G75*
G02*
X26500800Y8450000I0J-50800D01*
G01*
X26500800Y7650000D01*
G75*
G02*
X26450000Y7599200I-50800J0D01*
G01*
X25550000Y7599200D01*
G75*
G02*
X25499200Y7650000I0J50800D01*
G01*
G37*
G36*
G01*
X25499200Y9550000D02*
X25499200Y10350000D01*
G75*
G02*
X25550000Y10400800I50800J0D01*
G01*
X26450000Y10400800D01*
G75*
G02*
X26500800Y10350000I0J-50800D01*
G01*
X26500800Y9550000D01*
G75*
G02*
X26450000Y9499200I-50800J0D01*
G01*
X25550000Y9499200D01*
G75*
G02*
X25499200Y9550000I0J50800D01*
G01*
G37*
G36*
G01*
X52500800Y6200000D02*
X52500800Y5400000D01*
G75*
G02*
X52450000Y5349200I-50800J0D01*
G01*
X51550000Y5349200D01*
G75*
G02*
X51499200Y5400000I0J50800D01*
G01*
X51499200Y6200000D01*
G75*
G02*
X51550000Y6250800I50800J0D01*
G01*
X52450000Y6250800D01*
G75*
G02*
X52500800Y6200000I0J-50800D01*
G01*
G37*
G36*
G01*
X52500800Y8100000D02*
X52500800Y7300000D01*
G75*
G02*
X52450000Y7249200I-50800J0D01*
G01*
X51550000Y7249200D01*
G75*
G02*
X51499200Y7300000I0J50800D01*
G01*
X51499200Y8100000D01*
G75*
G02*
X51550000Y8150800I50800J0D01*
G01*
X52450000Y8150800D01*
G75*
G02*
X52500800Y8100000I0J-50800D01*
G01*
G37*
G36*
G01*
X50500800Y7150000D02*
X50500800Y6350000D01*
G75*
G02*
X50450000Y6299200I-50800J0D01*
G01*
X49550000Y6299200D01*
G75*
G02*
X49499200Y6350000I0J50800D01*
G01*
X49499200Y7150000D01*
G75*
G02*
X49550000Y7200800I50800J0D01*
G01*
X50450000Y7200800D01*
G75*
G02*
X50500800Y7150000I0J-50800D01*
G01*
G37*
G36*
G01*
X29625000Y-29200D02*
X30275000Y-29200D01*
G75*
G02*
X30325800Y-80000I0J-50800D01*
G01*
X30325800Y-1300000D01*
G75*
G02*
X30275000Y-1350800I-50800J0D01*
G01*
X29625000Y-1350800D01*
G75*
G02*
X29574200Y-1300000I0J50800D01*
G01*
X29574200Y-80000D01*
G75*
G02*
X29625000Y-29200I50800J0D01*
G01*
G37*
G36*
G01*
X28675000Y-29200D02*
X29325000Y-29200D01*
G75*
G02*
X29375800Y-80000I0J-50800D01*
G01*
X29375800Y-1300000D01*
G75*
G02*
X29325000Y-1350800I-50800J0D01*
G01*
X28675000Y-1350800D01*
G75*
G02*
X28624200Y-1300000I0J50800D01*
G01*
X28624200Y-80000D01*
G75*
G02*
X28675000Y-29200I50800J0D01*
G01*
G37*
G36*
G01*
X27725000Y-29200D02*
X28375000Y-29200D01*
G75*
G02*
X28425800Y-80000I0J-50800D01*
G01*
X28425800Y-1300000D01*
G75*
G02*
X28375000Y-1350800I-50800J0D01*
G01*
X27725000Y-1350800D01*
G75*
G02*
X27674200Y-1300000I0J50800D01*
G01*
X27674200Y-80000D01*
G75*
G02*
X27725000Y-29200I50800J0D01*
G01*
G37*
G36*
G01*
X27725000Y-2649200D02*
X28375000Y-2649200D01*
G75*
G02*
X28425800Y-2700000I0J-50800D01*
G01*
X28425800Y-3920000D01*
G75*
G02*
X28375000Y-3970800I-50800J0D01*
G01*
X27725000Y-3970800D01*
G75*
G02*
X27674200Y-3920000I0J50800D01*
G01*
X27674200Y-2700000D01*
G75*
G02*
X27725000Y-2649200I50800J0D01*
G01*
G37*
G36*
G01*
X28675000Y-2649200D02*
X29325000Y-2649200D01*
G75*
G02*
X29375800Y-2700000I0J-50800D01*
G01*
X29375800Y-3920000D01*
G75*
G02*
X29325000Y-3970800I-50800J0D01*
G01*
X28675000Y-3970800D01*
G75*
G02*
X28624200Y-3920000I0J50800D01*
G01*
X28624200Y-2700000D01*
G75*
G02*
X28675000Y-2649200I50800J0D01*
G01*
G37*
G36*
G01*
X29625000Y-2649200D02*
X30275000Y-2649200D01*
G75*
G02*
X30325800Y-2700000I0J-50800D01*
G01*
X30325800Y-3920000D01*
G75*
G02*
X30275000Y-3970800I-50800J0D01*
G01*
X29625000Y-3970800D01*
G75*
G02*
X29574200Y-3920000I0J50800D01*
G01*
X29574200Y-2700000D01*
G75*
G02*
X29625000Y-2649200I50800J0D01*
G01*
G37*
G36*
G01*
X48681650Y6224200D02*
X48118350Y6224200D01*
G75*
G02*
X47874200Y6468350I0J244150D01*
G01*
X47874200Y6956650D01*
G75*
G02*
X48118350Y7200800I244150J0D01*
G01*
X48681650Y7200800D01*
G75*
G02*
X48925800Y6956650I0J-244150D01*
G01*
X48925800Y6468350D01*
G75*
G02*
X48681650Y6224200I-244150J0D01*
G01*
G37*
G36*
G01*
X48681650Y7799200D02*
X48118350Y7799200D01*
G75*
G02*
X47874200Y8043350I0J244150D01*
G01*
X47874200Y8531650D01*
G75*
G02*
X48118350Y8775800I244150J0D01*
G01*
X48681650Y8775800D01*
G75*
G02*
X48925800Y8531650I0J-244150D01*
G01*
X48925800Y8043350D01*
G75*
G02*
X48681650Y7799200I-244150J0D01*
G01*
G37*
X55500000Y30500000D03*
G36*
G01*
X8249205Y22471091D02*
X8249205Y22678909D01*
G75*
G02*
X8366096Y22795800I116891J0D01*
G01*
X9510464Y22795800D01*
G75*
G02*
X9627355Y22678909I0J-116891D01*
G01*
X9627355Y22471091D01*
G75*
G02*
X9510464Y22354200I-116891J0D01*
G01*
X8366096Y22354200D01*
G75*
G02*
X8249205Y22471091I0J116891D01*
G01*
G37*
G36*
G01*
X8249205Y21821091D02*
X8249205Y22028909D01*
G75*
G02*
X8366096Y22145800I116891J0D01*
G01*
X9510464Y22145800D01*
G75*
G02*
X9627355Y22028909I0J-116891D01*
G01*
X9627355Y21821091D01*
G75*
G02*
X9510464Y21704200I-116891J0D01*
G01*
X8366096Y21704200D01*
G75*
G02*
X8249205Y21821091I0J116891D01*
G01*
G37*
G36*
G01*
X8249205Y21171091D02*
X8249205Y21378909D01*
G75*
G02*
X8366096Y21495800I116891J0D01*
G01*
X9510464Y21495800D01*
G75*
G02*
X9627355Y21378909I0J-116891D01*
G01*
X9627355Y21171091D01*
G75*
G02*
X9510464Y21054200I-116891J0D01*
G01*
X8366096Y21054200D01*
G75*
G02*
X8249205Y21171091I0J116891D01*
G01*
G37*
G36*
G01*
X8249205Y20521091D02*
X8249205Y20728909D01*
G75*
G02*
X8366096Y20845800I116891J0D01*
G01*
X9510464Y20845800D01*
G75*
G02*
X9627355Y20728909I0J-116891D01*
G01*
X9627355Y20521091D01*
G75*
G02*
X9510464Y20404200I-116891J0D01*
G01*
X8366096Y20404200D01*
G75*
G02*
X8249205Y20521091I0J116891D01*
G01*
G37*
G36*
G01*
X8249205Y19871091D02*
X8249205Y20078909D01*
G75*
G02*
X8366096Y20195800I116891J0D01*
G01*
X9510464Y20195800D01*
G75*
G02*
X9627355Y20078909I0J-116891D01*
G01*
X9627355Y19871091D01*
G75*
G02*
X9510464Y19754200I-116891J0D01*
G01*
X8366096Y19754200D01*
G75*
G02*
X8249205Y19871091I0J116891D01*
G01*
G37*
G36*
G01*
X8249205Y19221091D02*
X8249205Y19428909D01*
G75*
G02*
X8366096Y19545800I116891J0D01*
G01*
X9510464Y19545800D01*
G75*
G02*
X9627355Y19428909I0J-116891D01*
G01*
X9627355Y19221091D01*
G75*
G02*
X9510464Y19104200I-116891J0D01*
G01*
X8366096Y19104200D01*
G75*
G02*
X8249205Y19221091I0J116891D01*
G01*
G37*
G36*
G01*
X8249205Y18571091D02*
X8249205Y18778909D01*
G75*
G02*
X8366096Y18895800I116891J0D01*
G01*
X9510464Y18895800D01*
G75*
G02*
X9627355Y18778909I0J-116891D01*
G01*
X9627355Y18571091D01*
G75*
G02*
X9510464Y18454200I-116891J0D01*
G01*
X8366096Y18454200D01*
G75*
G02*
X8249205Y18571091I0J116891D01*
G01*
G37*
G36*
G01*
X8249205Y17921091D02*
X8249205Y18128909D01*
G75*
G02*
X8366096Y18245800I116891J0D01*
G01*
X9510464Y18245800D01*
G75*
G02*
X9627355Y18128909I0J-116891D01*
G01*
X9627355Y17921091D01*
G75*
G02*
X9510464Y17804200I-116891J0D01*
G01*
X8366096Y17804200D01*
G75*
G02*
X8249205Y17921091I0J116891D01*
G01*
G37*
G36*
G01*
X8249205Y17271091D02*
X8249205Y17478909D01*
G75*
G02*
X8366096Y17595800I116891J0D01*
G01*
X9510464Y17595800D01*
G75*
G02*
X9627355Y17478909I0J-116891D01*
G01*
X9627355Y17271091D01*
G75*
G02*
X9510464Y17154200I-116891J0D01*
G01*
X8366096Y17154200D01*
G75*
G02*
X8249205Y17271091I0J116891D01*
G01*
G37*
G36*
G01*
X8249205Y16621091D02*
X8249205Y16828909D01*
G75*
G02*
X8366096Y16945800I116891J0D01*
G01*
X9510464Y16945800D01*
G75*
G02*
X9627355Y16828909I0J-116891D01*
G01*
X9627355Y16621091D01*
G75*
G02*
X9510464Y16504200I-116891J0D01*
G01*
X8366096Y16504200D01*
G75*
G02*
X8249205Y16621091I0J116891D01*
G01*
G37*
G36*
G01*
X8249205Y15971091D02*
X8249205Y16178909D01*
G75*
G02*
X8366096Y16295800I116891J0D01*
G01*
X9510464Y16295800D01*
G75*
G02*
X9627355Y16178909I0J-116891D01*
G01*
X9627355Y15971091D01*
G75*
G02*
X9510464Y15854200I-116891J0D01*
G01*
X8366096Y15854200D01*
G75*
G02*
X8249205Y15971091I0J116891D01*
G01*
G37*
G36*
G01*
X8249205Y15321091D02*
X8249205Y15528909D01*
G75*
G02*
X8366096Y15645800I116891J0D01*
G01*
X9510464Y15645800D01*
G75*
G02*
X9627355Y15528909I0J-116891D01*
G01*
X9627355Y15321091D01*
G75*
G02*
X9510464Y15204200I-116891J0D01*
G01*
X8366096Y15204200D01*
G75*
G02*
X8249205Y15321091I0J116891D01*
G01*
G37*
G36*
G01*
X13872645Y15321091D02*
X13872645Y15528909D01*
G75*
G02*
X13989536Y15645800I116891J0D01*
G01*
X15133904Y15645800D01*
G75*
G02*
X15250795Y15528909I0J-116891D01*
G01*
X15250795Y15321091D01*
G75*
G02*
X15133904Y15204200I-116891J0D01*
G01*
X13989536Y15204200D01*
G75*
G02*
X13872645Y15321091I0J116891D01*
G01*
G37*
G36*
G01*
X13872645Y15971091D02*
X13872645Y16178909D01*
G75*
G02*
X13989536Y16295800I116891J0D01*
G01*
X15133904Y16295800D01*
G75*
G02*
X15250795Y16178909I0J-116891D01*
G01*
X15250795Y15971091D01*
G75*
G02*
X15133904Y15854200I-116891J0D01*
G01*
X13989536Y15854200D01*
G75*
G02*
X13872645Y15971091I0J116891D01*
G01*
G37*
G36*
G01*
X13872645Y16621091D02*
X13872645Y16828909D01*
G75*
G02*
X13989536Y16945800I116891J0D01*
G01*
X15133904Y16945800D01*
G75*
G02*
X15250795Y16828909I0J-116891D01*
G01*
X15250795Y16621091D01*
G75*
G02*
X15133904Y16504200I-116891J0D01*
G01*
X13989536Y16504200D01*
G75*
G02*
X13872645Y16621091I0J116891D01*
G01*
G37*
G36*
G01*
X13872645Y17271091D02*
X13872645Y17478909D01*
G75*
G02*
X13989536Y17595800I116891J0D01*
G01*
X15133904Y17595800D01*
G75*
G02*
X15250795Y17478909I0J-116891D01*
G01*
X15250795Y17271091D01*
G75*
G02*
X15133904Y17154200I-116891J0D01*
G01*
X13989536Y17154200D01*
G75*
G02*
X13872645Y17271091I0J116891D01*
G01*
G37*
G36*
G01*
X13872645Y17921091D02*
X13872645Y18128909D01*
G75*
G02*
X13989536Y18245800I116891J0D01*
G01*
X15133904Y18245800D01*
G75*
G02*
X15250795Y18128909I0J-116891D01*
G01*
X15250795Y17921091D01*
G75*
G02*
X15133904Y17804200I-116891J0D01*
G01*
X13989536Y17804200D01*
G75*
G02*
X13872645Y17921091I0J116891D01*
G01*
G37*
G36*
G01*
X13872645Y18571091D02*
X13872645Y18778909D01*
G75*
G02*
X13989536Y18895800I116891J0D01*
G01*
X15133904Y18895800D01*
G75*
G02*
X15250795Y18778909I0J-116891D01*
G01*
X15250795Y18571091D01*
G75*
G02*
X15133904Y18454200I-116891J0D01*
G01*
X13989536Y18454200D01*
G75*
G02*
X13872645Y18571091I0J116891D01*
G01*
G37*
G36*
G01*
X13872645Y19221091D02*
X13872645Y19428909D01*
G75*
G02*
X13989536Y19545800I116891J0D01*
G01*
X15133904Y19545800D01*
G75*
G02*
X15250795Y19428909I0J-116891D01*
G01*
X15250795Y19221091D01*
G75*
G02*
X15133904Y19104200I-116891J0D01*
G01*
X13989536Y19104200D01*
G75*
G02*
X13872645Y19221091I0J116891D01*
G01*
G37*
G36*
G01*
X13872645Y19871091D02*
X13872645Y20078909D01*
G75*
G02*
X13989536Y20195800I116891J0D01*
G01*
X15133904Y20195800D01*
G75*
G02*
X15250795Y20078909I0J-116891D01*
G01*
X15250795Y19871091D01*
G75*
G02*
X15133904Y19754200I-116891J0D01*
G01*
X13989536Y19754200D01*
G75*
G02*
X13872645Y19871091I0J116891D01*
G01*
G37*
G36*
G01*
X13872645Y20521091D02*
X13872645Y20728909D01*
G75*
G02*
X13989536Y20845800I116891J0D01*
G01*
X15133904Y20845800D01*
G75*
G02*
X15250795Y20728909I0J-116891D01*
G01*
X15250795Y20521091D01*
G75*
G02*
X15133904Y20404200I-116891J0D01*
G01*
X13989536Y20404200D01*
G75*
G02*
X13872645Y20521091I0J116891D01*
G01*
G37*
G36*
G01*
X13872645Y21171091D02*
X13872645Y21378909D01*
G75*
G02*
X13989536Y21495800I116891J0D01*
G01*
X15133904Y21495800D01*
G75*
G02*
X15250795Y21378909I0J-116891D01*
G01*
X15250795Y21171091D01*
G75*
G02*
X15133904Y21054200I-116891J0D01*
G01*
X13989536Y21054200D01*
G75*
G02*
X13872645Y21171091I0J116891D01*
G01*
G37*
G36*
G01*
X13872645Y21821091D02*
X13872645Y22028909D01*
G75*
G02*
X13989536Y22145800I116891J0D01*
G01*
X15133904Y22145800D01*
G75*
G02*
X15250795Y22028909I0J-116891D01*
G01*
X15250795Y21821091D01*
G75*
G02*
X15133904Y21704200I-116891J0D01*
G01*
X13989536Y21704200D01*
G75*
G02*
X13872645Y21821091I0J116891D01*
G01*
G37*
G36*
G01*
X13872645Y22471091D02*
X13872645Y22678909D01*
G75*
G02*
X13989536Y22795800I116891J0D01*
G01*
X15133904Y22795800D01*
G75*
G02*
X15250795Y22678909I0J-116891D01*
G01*
X15250795Y22471091D01*
G75*
G02*
X15133904Y22354200I-116891J0D01*
G01*
X13989536Y22354200D01*
G75*
G02*
X13872645Y22471091I0J116891D01*
G01*
G37*
G36*
G01*
X10329200Y17375000D02*
X10329200Y20625000D01*
G75*
G02*
X10380000Y20675800I50800J0D01*
G01*
X13120000Y20675800D01*
G75*
G02*
X13170800Y20625000I0J-50800D01*
G01*
X13170800Y17375000D01*
G75*
G02*
X13120000Y17324200I-50800J0D01*
G01*
X10380000Y17324200D01*
G75*
G02*
X10329200Y17375000I0J50800D01*
G01*
G37*
D19*
X9000000Y29000000D03*
X9000000Y-29000000D03*
X56000000Y-29000000D03*
D20*
G36*
X51650176Y-1740089D02*
G01*
X51653067Y-1730560D01*
X51657761Y-1721777D01*
X51664079Y-1714079D01*
X51671777Y-1707761D01*
X51680560Y-1703067D01*
X51690089Y-1700176D01*
X51700000Y-1699200D01*
X52699200Y-1699200D01*
X52699200Y-1250000D01*
X52700176Y-1240089D01*
X52703067Y-1230560D01*
X52707761Y-1221777D01*
X52714079Y-1214079D01*
X52721777Y-1207761D01*
X52730560Y-1203067D01*
X52740089Y-1200176D01*
X52750000Y-1199200D01*
X55250000Y-1199200D01*
X55259911Y-1200176D01*
X55269440Y-1203067D01*
X55278223Y-1207761D01*
X55285921Y-1214079D01*
X55292239Y-1221777D01*
X55296933Y-1230560D01*
X55299824Y-1240089D01*
X55300800Y-1250000D01*
X55300800Y-1699200D01*
X56300000Y-1699200D01*
X56309911Y-1700176D01*
X56319440Y-1703067D01*
X56328223Y-1707761D01*
X56335921Y-1714079D01*
X56342239Y-1721777D01*
X56346933Y-1730560D01*
X56349824Y-1740089D01*
X56350800Y-1750000D01*
X56350800Y-3250000D01*
X56349824Y-3259911D01*
X56346933Y-3269440D01*
X56342239Y-3278223D01*
X56335921Y-3285921D01*
X56328223Y-3292239D01*
X56319440Y-3296933D01*
X56309911Y-3299824D01*
X56300000Y-3300800D01*
X55300800Y-3300800D01*
X55300800Y-3750000D01*
X55299824Y-3759911D01*
X55296933Y-3769440D01*
X55292239Y-3778223D01*
X55285921Y-3785921D01*
X55278223Y-3792239D01*
X55269440Y-3796933D01*
X55259911Y-3799824D01*
X55250000Y-3800800D01*
X52750000Y-3800800D01*
X52740089Y-3799824D01*
X52730560Y-3796933D01*
X52721777Y-3792239D01*
X52714079Y-3785921D01*
X52707761Y-3778223D01*
X52703067Y-3769440D01*
X52700176Y-3759911D01*
X52699200Y-3750000D01*
X52699200Y-3300800D01*
X51700000Y-3300800D01*
X51690089Y-3299824D01*
X51680560Y-3296933D01*
X51671777Y-3292239D01*
X51664079Y-3285921D01*
X51657761Y-3278223D01*
X51653067Y-3269440D01*
X51650176Y-3259911D01*
X51649200Y-3250000D01*
X51649200Y-1750000D01*
X51650176Y-1740089D01*
G37*
G36*
G01*
X55610640Y-550800D02*
X55249360Y-550800D01*
G75*
G02*
X55204200Y-505640I0J45160D01*
G01*
X55204200Y905640D01*
G75*
G02*
X55249360Y950800I45160J0D01*
G01*
X55610640Y950800D01*
G75*
G02*
X55655800Y905640I0J-45160D01*
G01*
X55655800Y-505640D01*
G75*
G02*
X55610640Y-550800I-45160J0D01*
G01*
G37*
G36*
G01*
X54960640Y-550800D02*
X54599360Y-550800D01*
G75*
G02*
X54554200Y-505640I0J45160D01*
G01*
X54554200Y905640D01*
G75*
G02*
X54599360Y950800I45160J0D01*
G01*
X54960640Y950800D01*
G75*
G02*
X55005800Y905640I0J-45160D01*
G01*
X55005800Y-505640D01*
G75*
G02*
X54960640Y-550800I-45160J0D01*
G01*
G37*
G36*
G01*
X54310640Y-550800D02*
X53949360Y-550800D01*
G75*
G02*
X53904200Y-505640I0J45160D01*
G01*
X53904200Y905640D01*
G75*
G02*
X53949360Y950800I45160J0D01*
G01*
X54310640Y950800D01*
G75*
G02*
X54355800Y905640I0J-45160D01*
G01*
X54355800Y-505640D01*
G75*
G02*
X54310640Y-550800I-45160J0D01*
G01*
G37*
G36*
G01*
X53660640Y-550800D02*
X53299360Y-550800D01*
G75*
G02*
X53254200Y-505640I0J45160D01*
G01*
X53254200Y905640D01*
G75*
G02*
X53299360Y950800I45160J0D01*
G01*
X53660640Y950800D01*
G75*
G02*
X53705800Y905640I0J-45160D01*
G01*
X53705800Y-505640D01*
G75*
G02*
X53660640Y-550800I-45160J0D01*
G01*
G37*
G36*
G01*
X53010640Y-550800D02*
X52649360Y-550800D01*
G75*
G02*
X52604200Y-505640I0J45160D01*
G01*
X52604200Y905640D01*
G75*
G02*
X52649360Y950800I45160J0D01*
G01*
X53010640Y950800D01*
G75*
G02*
X53055800Y905640I0J-45160D01*
G01*
X53055800Y-505640D01*
G75*
G02*
X53010640Y-550800I-45160J0D01*
G01*
G37*
G36*
G01*
X53010640Y-5950800D02*
X52649360Y-5950800D01*
G75*
G02*
X52604200Y-5905640I0J45160D01*
G01*
X52604200Y-4494360D01*
G75*
G02*
X52649360Y-4449200I45160J0D01*
G01*
X53010640Y-4449200D01*
G75*
G02*
X53055800Y-4494360I0J-45160D01*
G01*
X53055800Y-5905640D01*
G75*
G02*
X53010640Y-5950800I-45160J0D01*
G01*
G37*
G36*
G01*
X53660640Y-5950800D02*
X53299360Y-5950800D01*
G75*
G02*
X53254200Y-5905640I0J45160D01*
G01*
X53254200Y-4494360D01*
G75*
G02*
X53299360Y-4449200I45160J0D01*
G01*
X53660640Y-4449200D01*
G75*
G02*
X53705800Y-4494360I0J-45160D01*
G01*
X53705800Y-5905640D01*
G75*
G02*
X53660640Y-5950800I-45160J0D01*
G01*
G37*
G36*
G01*
X54310640Y-5950800D02*
X53949360Y-5950800D01*
G75*
G02*
X53904200Y-5905640I0J45160D01*
G01*
X53904200Y-4494360D01*
G75*
G02*
X53949360Y-4449200I45160J0D01*
G01*
X54310640Y-4449200D01*
G75*
G02*
X54355800Y-4494360I0J-45160D01*
G01*
X54355800Y-5905640D01*
G75*
G02*
X54310640Y-5950800I-45160J0D01*
G01*
G37*
G36*
G01*
X54960640Y-5950800D02*
X54599360Y-5950800D01*
G75*
G02*
X54554200Y-5905640I0J45160D01*
G01*
X54554200Y-4494360D01*
G75*
G02*
X54599360Y-4449200I45160J0D01*
G01*
X54960640Y-4449200D01*
G75*
G02*
X55005800Y-4494360I0J-45160D01*
G01*
X55005800Y-5905640D01*
G75*
G02*
X54960640Y-5950800I-45160J0D01*
G01*
G37*
G36*
G01*
X55610640Y-5950800D02*
X55249360Y-5950800D01*
G75*
G02*
X55204200Y-5905640I0J45160D01*
G01*
X55204200Y-4494360D01*
G75*
G02*
X55249360Y-4449200I45160J0D01*
G01*
X55610640Y-4449200D01*
G75*
G02*
X55655800Y-4494360I0J-45160D01*
G01*
X55655800Y-5905640D01*
G75*
G02*
X55610640Y-5950800I-45160J0D01*
G01*
G37*
G36*
G01*
X52095640Y-1250800D02*
X51614360Y-1250800D01*
G75*
G02*
X51554200Y-1190640I0J60160D01*
G01*
X51554200Y890640D01*
G75*
G02*
X51614360Y950800I60160J0D01*
G01*
X52095640Y950800D01*
G75*
G02*
X52155800Y890640I0J-60160D01*
G01*
X52155800Y-1190640D01*
G75*
G02*
X52095640Y-1250800I-60160J0D01*
G01*
G37*
G36*
G01*
X56395640Y-1250800D02*
X55914360Y-1250800D01*
G75*
G02*
X55854200Y-1190640I0J60160D01*
G01*
X55854200Y890640D01*
G75*
G02*
X55914360Y950800I60160J0D01*
G01*
X56395640Y950800D01*
G75*
G02*
X56455800Y890640I0J-60160D01*
G01*
X56455800Y-1190640D01*
G75*
G02*
X56395640Y-1250800I-60160J0D01*
G01*
G37*
G36*
G01*
X52095640Y-5950800D02*
X51614360Y-5950800D01*
G75*
G02*
X51554200Y-5890640I0J60160D01*
G01*
X51554200Y-3809360D01*
G75*
G02*
X51614360Y-3749200I60160J0D01*
G01*
X52095640Y-3749200D01*
G75*
G02*
X52155800Y-3809360I0J-60160D01*
G01*
X52155800Y-5890640D01*
G75*
G02*
X52095640Y-5950800I-60160J0D01*
G01*
G37*
G36*
G01*
X56395640Y-5950800D02*
X55914360Y-5950800D01*
G75*
G02*
X55854200Y-5890640I0J60160D01*
G01*
X55854200Y-3809360D01*
G75*
G02*
X55914360Y-3749200I60160J0D01*
G01*
X56395640Y-3749200D01*
G75*
G02*
X56455800Y-3809360I0J-60160D01*
G01*
X56455800Y-5890640D01*
G75*
G02*
X56395640Y-5950800I-60160J0D01*
G01*
G37*
G36*
G01*
X44275800Y10550400D02*
X44275800Y9949600D01*
G75*
G02*
X44050400Y9724200I-225400J0D01*
G01*
X43599600Y9724200D01*
G75*
G02*
X43374200Y9949600I0J225400D01*
G01*
X43374200Y10550400D01*
G75*
G02*
X43599600Y10775800I225400J0D01*
G01*
X44050400Y10775800D01*
G75*
G02*
X44275800Y10550400I0J-225400D01*
G01*
G37*
G36*
G01*
X42625800Y10550400D02*
X42625800Y9949600D01*
G75*
G02*
X42400400Y9724200I-225400J0D01*
G01*
X41949600Y9724200D01*
G75*
G02*
X41724200Y9949600I0J225400D01*
G01*
X41724200Y10550400D01*
G75*
G02*
X41949600Y10775800I225400J0D01*
G01*
X42400400Y10775800D01*
G75*
G02*
X42625800Y10550400I0J-225400D01*
G01*
G37*
M02*
