G04 #@! TF.GenerationSoftware,KiCad,Pcbnew,(5.1.9)-1*
G04 #@! TF.CreationDate,2020-12-31T02:44:30-08:00*
G04 #@! TF.ProjectId,IRIS-power,49524953-2d70-46f7-9765-722e6b696361,rev?*
G04 #@! TF.SameCoordinates,Original*
G04 #@! TF.FileFunction,Legend,Bot*
G04 #@! TF.FilePolarity,Positive*
%FSLAX46Y46*%
G04 Gerber Fmt 4.6, Leading zero omitted, Abs format (unit mm)*
G04 Created by KiCad (PCBNEW (5.1.9)-1) date 2020-12-31 02:44:30*
%MOMM*%
%LPD*%
G01*
G04 APERTURE LIST*
%ADD10C,0.120000*%
%ADD11C,0.150000*%
G04 APERTURE END LIST*
D10*
X54700000Y22000000D02*
G75*
G03*
X54700000Y22000000I-1200000J0D01*
G01*
X54700000Y25500000D02*
G75*
G03*
X54700000Y25500000I-1200000J0D01*
G01*
D11*
X55061904Y22609523D02*
X55061904Y22114285D01*
X55366666Y22380952D01*
X55366666Y22266666D01*
X55404761Y22190476D01*
X55442857Y22152380D01*
X55519047Y22114285D01*
X55709523Y22114285D01*
X55785714Y22152380D01*
X55823809Y22190476D01*
X55861904Y22266666D01*
X55861904Y22495238D01*
X55823809Y22571428D01*
X55785714Y22609523D01*
X55633333Y21809523D02*
X55633333Y21428571D01*
X55861904Y21885714D02*
X55061904Y21619047D01*
X55861904Y21352380D01*
X55861904Y26185714D02*
X55861904Y26642857D01*
X55861904Y26414285D02*
X55061904Y26414285D01*
X55176190Y26490476D01*
X55252380Y26566666D01*
X55290476Y26642857D01*
X55785714Y25842857D02*
X55823809Y25804761D01*
X55861904Y25842857D01*
X55823809Y25880952D01*
X55785714Y25842857D01*
X55861904Y25842857D01*
X55061904Y25080952D02*
X55061904Y25461904D01*
X55442857Y25500000D01*
X55404761Y25461904D01*
X55366666Y25385714D01*
X55366666Y25195238D01*
X55404761Y25119047D01*
X55442857Y25080952D01*
X55519047Y25042857D01*
X55709523Y25042857D01*
X55785714Y25080952D01*
X55823809Y25119047D01*
X55861904Y25195238D01*
X55861904Y25385714D01*
X55823809Y25461904D01*
X55785714Y25500000D01*
X55633333Y24738095D02*
X55633333Y24357142D01*
X55861904Y24814285D02*
X55061904Y24547619D01*
X55861904Y24280952D01*
M02*
