M48
; DRILL file {KiCad (5.1.8)-1} date 11/12/20 22:50:44
; FORMAT={-:-/ absolute / inch / decimal}
; #@! TF.CreationDate,2020-11-12T22:50:44-08:00
; #@! TF.GenerationSoftware,Kicad,Pcbnew,(5.1.8)-1
; #@! TF.FileFunction,Plated,1,2,PTH
FMAT,2
INCH
T1C0.0100
T2C0.0157
T3C0.0197
T4C0.0236
T5C0.0276
T6C0.0394
T7C0.0402
T8C0.0472
T9C0.0500
T10C0.1260
%
G90
G05
T1
X0.0591Y0.3022
X0.1178Y-0.187
X0.128Y-0.3346
X0.1378Y-0.5217
X0.1476Y-0.187
X0.1772Y0.6447
X0.1772Y0.4331
X0.187Y0.0591
X0.187Y-0.0394
X0.187Y-0.1181
X0.2067Y-0.2559
X0.2165Y0.3839
X0.2165Y-0.4429
X0.2165Y-0.689
X0.2461Y0.3642
X0.2657Y-0.6496
X0.2756Y0.9154
X0.2756Y0.876
X0.2756Y0.8378
X0.2756Y0.7095
X0.2756Y0.5709
X0.2756Y0.3839
X0.2953Y1.0827
X0.2953Y-0.3642
X0.3051Y-0.8465
X0.3051Y-0.8957
X0.3051Y-0.9449
X0.3051Y-0.9941
X0.315Y0.5709
X0.315Y0.4035
X0.315Y0.0197
X0.315Y-0.7972
X0.3346Y0.0984
X0.3346Y-0.5709
X0.3543Y-0.9941
X0.374Y0.3642
X0.374Y0.2953
X0.374Y-0.0787
X0.3839Y0.502
X0.3937Y1.1811
X0.3937Y0.9843
X0.3937Y-1.1811
X0.4035Y0.3937
X0.4035Y-0.9941
X0.4232Y0.7874
X0.4232Y0.748
X0.4232Y0.7087
X0.4331Y0.3346
X0.4528Y-0.4528
X0.4626Y0.7874
X0.4626Y0.748
X0.4626Y0.7087
X0.4921Y1.0827
X0.4921Y-0.6496
X0.4921Y-1.0827
X0.502Y0.7874
X0.502Y0.748
X0.502Y0.7087
X0.5118Y-0.7972
X0.5315Y-0.6496
X0.5709Y-0.3346
X0.5906Y0.9646
X0.5906Y0.1969
X0.5906Y-0.9843
X0.5906Y-1.1811
X0.6102Y-0.4035
X0.6693Y0.4823
X0.6693Y0.4232
X0.689Y-0.0591
X0.689Y-0.1575
X0.689Y-1.0827
X0.7874Y0.5906
X0.7874Y0.4528
X0.7874Y0.1969
X0.7874Y-1.1811
X0.8366Y-0.1575
X0.8858Y1.0827
X0.8858Y0.689
X0.8858Y-1.0827
X0.9843Y1.1811
X0.9843Y0.9843
X0.9843Y0.7874
X0.9843Y0.5906
X0.9843Y0.4528
X0.9843Y0.1969
X0.9843Y-0.3937
X0.9843Y-0.5906
X0.9843Y-0.9843
X0.9843Y-1.1811
X0.9941Y-0.0984
X1.0827Y1.0827
X1.0827Y0.8858
X1.0827Y0.689
X1.0827Y-0.4921
X1.0827Y-1.0827
X1.1024Y-0.1772
X1.1024Y-0.3051
X1.1417Y-0.0787
X1.1811Y1.1811
X1.1811Y0.9843
X1.1811Y0.7874
X1.1811Y0.5906
X1.1811Y0.1969
X1.1811Y-0.3937
X1.1811Y-0.5906
X1.1811Y-0.9843
X1.1811Y-1.1811
X1.2795Y1.0827
X1.2795Y0.8858
X1.2795Y0.689
X1.2795Y0.4921
X1.2795Y-0.4921
X1.2795Y-1.0827
X1.378Y1.1811
X1.378Y0.9843
X1.378Y0.7874
X1.378Y0.5906
X1.378Y0.3937
X1.378Y0.1969
X1.378Y-0.3937
X1.378Y-0.5906
X1.378Y-0.9843
X1.378Y-1.1811
X1.4764Y1.0827
X1.4764Y0.8858
X1.4764Y0.689
X1.4764Y0.4921
X1.4764Y-0.4921
X1.4764Y-1.0827
X1.565Y0.2136
X1.5748Y1.1811
X1.5748Y0.9843
X1.5748Y0.7874
X1.5748Y0.5906
X1.5748Y0.3937
X1.5748Y-0.3937
X1.5748Y-0.5906
X1.5748Y-0.9843
X1.5748Y-1.1811
X1.6732Y1.0827
X1.6732Y0.8858
X1.6732Y0.689
X1.6732Y0.4921
X1.6732Y-0.4921
X1.6732Y-1.0827
X1.7067Y0.2717
X1.7717Y1.1811
X1.7717Y0.9843
X1.7717Y0.7874
X1.7717Y0.5906
X1.7717Y0.3937
X1.7717Y0.0
X1.7717Y-0.1969
X1.7717Y-0.3937
X1.7717Y-0.5906
X1.7717Y-0.9843
X1.7717Y-1.1811
X1.8701Y1.0827
X1.8701Y0.8858
X1.8701Y0.689
X1.8701Y0.4921
X1.8701Y0.0984
X1.8701Y-0.0984
X1.8701Y-0.2953
X1.8701Y-0.4921
X1.8701Y-1.0827
X1.9685Y1.1811
X1.9685Y0.9843
X1.9685Y0.7874
X1.9685Y0.5906
X1.9685Y-0.3937
X1.9685Y-0.5906
X1.9685Y-0.9843
X1.9685Y-1.1811
X2.0177Y-0.0984
X2.0669Y1.0827
X2.0669Y0.689
X2.0669Y0.4921
X2.0669Y-0.4921
X2.0669Y-1.0827
X2.1063Y0.1772
X2.1555Y-0.0984
X2.1654Y0.9843
X2.1654Y-0.3937
X2.1654Y-0.5906
X2.1654Y-0.9843
X2.1654Y-1.1811
X2.1949Y-0.0591
X2.1949Y-0.0984
X2.1949Y-0.1378
X2.1949Y-0.2657
X2.2244Y0.1772
X2.2343Y0.0689
X2.2343Y-0.0591
X2.2343Y-0.0984
X2.2343Y-0.1378
X2.2539Y-0.2657
X2.2638Y-1.0827
X2.2736Y-0.0591
X2.2736Y-0.0984
X2.2736Y-0.1378
X2.313Y-0.0984
X2.3228Y0.4921
X2.3425Y0.1772
X2.3524Y0.5709
X2.3622Y-0.9843
X2.3917Y-0.0984
X2.4606Y0.4921
X2.4606Y0.1772
T2
X2.2146Y0.6083
X2.2146Y0.5748
X2.2146Y0.5413
X2.2146Y0.5079
X2.2146Y0.4744
X2.2146Y0.4409
X2.2146Y0.4075
X2.2146Y0.374
X2.2677Y0.6083
X2.2677Y0.5748
X2.2677Y0.5413
X2.2677Y0.5079
X2.2677Y0.4744
X2.2677Y0.4409
X2.2677Y0.4075
X2.2677Y0.374
T3
X0.0433Y1.1417
X0.0433Y-1.1417
X0.071Y1.2085
X0.071Y1.0749
X0.071Y-1.0749
X0.071Y-1.2085
X0.1378Y1.2362
X0.1378Y1.0472
X0.1378Y-1.0472
X0.1378Y-1.2362
X0.2046Y1.2085
X0.2046Y1.0749
X0.2046Y-1.0749
X0.2046Y-1.2085
X0.2323Y1.1417
X0.2323Y-1.1417
X2.3268Y1.1417
X2.3268Y-1.1417
X2.3544Y1.2085
X2.3544Y1.0749
X2.3544Y-1.0749
X2.3544Y-1.2085
X2.4213Y1.2362
X2.4213Y1.0472
X2.4213Y-1.0472
X2.4213Y-1.2362
X2.4881Y1.2085
X2.4881Y1.0749
X2.4881Y-1.0749
X2.4881Y-1.2085
X2.5157Y1.1417
X2.5157Y-1.1417
T5
X0.8858Y0.748
X0.8858Y0.5512
X0.8858Y1.1614
X0.8858Y0.9646
T6
X0.6102Y0.1
X0.6102Y0.0
X0.6102Y-0.1
X1.2008Y0.3248
X0.6102Y-0.2362
X0.2362Y0.1772
X0.5807Y0.3248
X0.7677Y0.1
X0.7677Y0.0
X0.7677Y-0.1
X0.6496Y1.1614
X0.7972Y-1.0728
X1.9488Y-0.0984
X2.185Y1.1811
T7
X0.0591Y0.95
X0.0591Y0.85
X0.0591Y0.75
X0.0591Y0.65
X0.0591Y0.55
X0.0591Y0.45
X0.0591Y0.35
X0.0591Y0.25
X0.0591Y0.15
X0.0591Y0.05
X0.0591Y-0.05
X0.0591Y-0.15
X0.0591Y-0.25
X0.0591Y-0.35
X0.0591Y-0.45
X0.0591Y-0.55
X0.0591Y-0.65
X0.0591Y-0.75
X0.0591Y-0.85
X0.0591Y-0.95
T8
X1.515Y-0.3583
X1.515Y-0.9409
T10
X0.1378Y1.1417
X0.1378Y-1.1417
X2.4213Y1.1417
X2.4213Y-1.1417
T4
G00X2.2236Y0.6614
M15
G01X2.2827Y0.6614
M16
G05
G00X2.2236Y0.3209
M15
G01X2.2827Y0.3209
M16
G05
G00X2.3705Y0.6614
M15
G01X2.402Y0.6614
M16
G05
G00X2.3705Y0.3209
M15
G01X2.402Y0.3209
M16
G05
T9
G00X0.7972Y-0.4166
M15
G01X0.7972Y-0.5726
M16
G05
G00X0.7972Y-0.7266
M15
G01X0.7972Y-0.8826
M16
G05
T0
M30
